<svg width="235" height="235" viewBox="0 0 235 235" fill="none" xmlns="http://www.w3.org/2000/svg">
<path d="M41.9923 61.0156C42.1568 58.3331 40.3602 48.4325 51.1115 48.2081C125.084 46.6407 206.645 47.9813 209.936 48.3103C213.227 48.6393 217.778 51.1468 217.958 57.6962C218.574 80.2233 218.918 147.63 217.958 159.194C217.655 162.836 216.763 169.339 208.238 169.485C99.6683 171.347 55.815 169.602 52.7036 169.485C49.5922 169.367 42.2003 169.178 41.9347 160.125C41.6692 151.071 41.0852 75.7642 41.9923 61.0156Z" fill="#FDF6EE"/>
<path d="M218.415 56.9074C218.413 54.4732 217.445 52.1392 215.725 50.417C214.005 48.6949 211.673 47.725 209.238 47.72C208.427 47.7012 127.223 46.1303 50.6014 47.72C48.1714 47.7299 45.8437 48.6993 44.125 50.4171C42.4064 52.1349 41.4358 54.4621 41.4246 56.8921C41.4246 57.2058 40.0017 115.783 41.4246 160.857C41.4799 163.271 42.463 165.571 44.1697 167.28C45.8765 168.987 48.1756 169.972 50.5896 170.029C93.9742 171.458 165.834 171.022 209.23 170.029C211.649 169.989 213.959 169.011 215.671 167.301C217.384 165.591 218.367 163.284 218.411 160.864C220.062 118.879 218.433 57.5066 218.415 56.9074ZM50.6249 48.9174C99.7399 47.901 161.633 48.0502 209.226 48.9174C211.348 48.9208 213.384 49.7665 214.883 51.2689C216.382 52.7713 217.223 54.8073 217.222 56.9297C217.222 57.0061 217.252 58.1505 217.294 59.953H42.5491C42.5891 57.9978 42.6161 56.9931 42.6173 56.9132C42.6262 54.7928 43.4729 52.7618 44.9729 51.263C46.4728 49.7642 48.5044 48.9189 50.6249 48.9115V48.9174ZM217.222 160.816C217.189 162.929 216.337 164.946 214.845 166.442C213.354 167.939 211.339 168.797 209.226 168.837C208.832 168.837 113.362 170.9 50.6331 168.837C48.5225 168.789 46.5118 167.927 45.019 166.435C43.5261 164.942 42.6659 162.931 42.6173 160.821C41.4423 123.445 42.2366 75.6157 42.5256 61.1397H217.322C217.652 75.5628 218.623 125.137 217.222 160.816Z" fill="#2C2C2C"/>
<path d="M202.521 91.7543C182.316 91.3548 110.22 91.2561 109.493 91.2561C109.415 91.2564 109.338 91.2414 109.265 91.2119C109.193 91.1823 109.127 91.1387 109.071 91.0837C109.016 91.0286 108.972 90.9632 108.941 90.891C108.911 90.8189 108.895 90.7416 108.895 90.6633C108.894 90.585 108.909 90.5075 108.939 90.4351C108.969 90.3626 109.012 90.2968 109.067 90.2412C109.122 90.1857 109.188 90.1414 109.26 90.1112C109.332 90.0808 109.409 90.065 109.488 90.0646C110.215 90.0646 182.347 89.7615 202.566 90.5617C202.723 90.5711 202.868 90.6412 202.973 90.7568C203.077 90.8724 203.133 91.0245 203.127 91.1804C203.121 91.3362 203.054 91.4837 202.94 91.5908C202.827 91.6981 202.677 91.7567 202.521 91.7543Z" fill="#2C2C2C"/>
<path d="M81.2831 122.744C81.1295 122.737 80.9845 122.671 80.8782 122.561C80.772 122.449 80.7126 122.301 80.7126 122.147C80.7126 121.994 80.772 121.846 80.8782 121.735C80.9845 121.624 81.1295 121.558 81.2831 121.551H202.167C202.497 121.551 202.762 122.331 202.76 122.662C202.76 122.804 202.733 123.051 81.2831 122.744Z" fill="#2C2C2C"/>
<path d="M201.443 151.395L77.3914 150.103C77.2378 150.095 77.0932 150.029 76.9874 149.917C76.8818 149.805 76.8234 149.656 76.8242 149.504C76.8252 149.35 76.8853 149.202 76.9924 149.091C77.0993 148.981 77.2448 148.916 77.3985 148.91L201.446 150.203C201.599 150.21 201.744 150.276 201.851 150.386C201.957 150.498 202.015 150.646 202.015 150.798C202.015 150.952 201.957 151.1 201.851 151.212C201.744 151.322 201.599 151.388 201.446 151.395H201.443Z" fill="#2C2C2C"/>
<path d="M161.319 99.4604C166.54 99.4604 170.772 95.2282 170.772 90.0076C170.772 84.7869 166.54 80.5547 161.319 80.5547C156.099 80.5547 151.866 84.7869 151.866 90.0076C151.866 95.2282 156.099 99.4604 161.319 99.4604Z" fill="#C8705A"/>
<path d="M177.272 131.601C182.493 131.601 186.725 127.369 186.725 122.148C186.725 116.928 182.493 112.695 177.272 112.695C172.052 112.695 167.819 116.928 167.819 122.148C167.819 127.369 172.052 131.601 177.272 131.601Z" fill="#2D6A4F"/>
<path d="M103.416 158.363C108.637 158.363 112.869 154.131 112.869 148.91C112.869 143.69 108.637 139.458 103.416 139.458C98.1959 139.458 93.9636 143.69 93.9636 148.91C93.9636 154.131 98.1959 158.363 103.416 158.363Z" fill="#2C2C2C"/>
<path d="M190.388 56.0122C191.271 56.0122 191.988 55.2957 191.988 54.4119C191.988 53.528 191.271 52.8115 190.388 52.8115C189.504 52.8115 188.787 53.528 188.787 54.4119C188.787 55.2957 189.504 56.0122 190.388 56.0122Z" fill="#C8705A"/>
<path d="M199.308 56.252C200.192 56.252 200.909 55.5355 200.909 54.6516C200.909 53.7678 200.192 53.0513 199.308 53.0513C198.425 53.0513 197.708 53.7678 197.708 54.6516C197.708 55.5355 198.425 56.252 199.308 56.252Z" fill="#2D6A4F"/>
<path d="M207.301 56.252C208.184 56.252 208.901 55.5355 208.901 54.6516C208.901 53.7678 208.184 53.0513 207.301 53.0513C206.417 53.0513 205.7 53.7678 205.7 54.6516C205.7 55.5355 206.417 56.252 207.301 56.252Z" fill="#2C2C2C"/>
<path d="M163.112 47.2593C163.112 47.2593 155.954 55.4314 153.069 59.2831C150.183 63.1347 146.841 71.5336 154.342 68.9486C154.342 68.9486 153.567 75.3065 159.293 73.5711C159.293 73.5711 160.637 76.9186 163.537 76.424C163.537 76.424 158.101 88.879 160.637 90.054C164.527 91.8588 170.468 74.3524 171.529 72.4431C172.59 70.5337 174.049 66.7443 175.207 66.7843C177.223 66.8548 176.408 78.2111 180.3 78.1724C183.801 78.1359 179.494 55.9649 178.977 53.4163C178.977 53.4128 169.053 50.0887 163.112 47.2593Z" fill="#FDF6EE"/>
<path d="M208.711 16.7658C208.262 11.3032 184.52 2.96777 179.842 6.88875C175.164 10.8097 159.486 45.4816 161.185 47.2982C161.378 47.4591 161.587 47.6 161.809 47.7188C159.449 50.4049 152.018 59.0247 150.177 63.136C147.827 68.4235 150.135 71.1977 153.92 69.8723C153.027 75.3395 159.112 74.4841 159.142 74.4783C159.374 75.226 159.838 75.8804 160.467 76.3455C161.096 76.8105 161.859 77.0621 162.641 77.0633C160.605 81.869 157.201 90.5429 161.269 90.7755C163.837 90.9224 166.682 84.9005 170.609 76.1444C172.281 72.4138 174.362 67.7725 175.191 67.4306C175.578 67.5975 175.926 69.6455 176.056 70.8781C177.114 80.8174 181.12 78.5097 181.439 78.1525C183.839 75.4629 179.747 54.3082 180.043 54.4704C181.927 55.4997 209.135 21.9252 208.711 16.7658ZM180.556 77.3641C179.408 78.1078 177.93 76.0821 177.246 70.71C176.954 68.4211 176.704 66.9712 175.844 66.4283C175.69 66.332 175.516 66.2714 175.336 66.251C175.155 66.2307 174.973 66.2512 174.801 66.3108C173.659 66.6633 172.382 69.2942 169.526 75.6662C167.089 81.0947 163.043 90.2244 161.11 89.5617C161.017 89.5288 160.934 89.4743 160.867 89.4029C160.799 89.3313 160.749 89.2449 160.722 89.1505C159.508 86.166 165.237 73.899 167.547 69.4234C167.588 69.3536 167.614 69.2762 167.624 69.1959C167.634 69.1156 167.627 69.0341 167.604 68.9565C167.582 68.8788 167.545 68.8065 167.493 68.744C167.441 68.6816 167.378 68.6303 167.306 68.5932C167.233 68.5562 167.156 68.5341 167.075 68.5284C166.993 68.5228 166.912 68.5336 166.836 68.5603C166.76 68.5869 166.69 68.6289 166.63 68.6835C166.57 68.7382 166.522 68.8044 166.489 68.8782C166.137 69.5679 164.655 72.4725 163.141 75.9341C162.627 75.9636 162.114 75.8612 161.65 75.6369C161.187 75.4126 160.788 75.0736 160.492 74.6522C159.375 72.6394 161.248 68.5798 162.063 67.1862C162.138 67.05 162.157 66.8898 162.116 66.7396C162.075 66.5896 161.977 66.4615 161.842 66.3826C161.708 66.3039 161.548 66.2806 161.398 66.318C161.247 66.3553 161.116 66.4501 161.034 66.5823C160.925 66.7679 158.851 70.3517 158.961 73.3115C157.053 73.3749 155.817 72.9378 155.319 72.0249C154.222 69.998 156.621 65.8162 157.637 64.3756C157.729 64.2461 157.764 64.0856 157.738 63.9296C157.711 63.7734 157.623 63.6344 157.494 63.5431C157.363 63.4518 157.203 63.4156 157.047 63.4427C156.891 63.4697 156.752 63.5576 156.66 63.6871C155.645 65.1583 154.837 66.7613 154.256 68.4517C150.379 70.2906 149.542 67.5023 151.27 63.6283C153.06 59.618 160.779 50.7033 162.882 48.3122C166.525 50.1922 174.993 53.8558 178.783 54.4422C179.6 58.3972 182.315 76.2231 180.556 77.3641Z" fill="#2C2C2C"/>
<path d="M160.967 168.467C160.967 168.467 159.646 159.226 159.976 154.415C160.307 149.605 159.976 143.665 167.804 145.928C167.804 145.928 171.468 126.363 175.632 126.925C179.121 127.395 175.632 142.958 175.632 142.958C175.632 142.958 180.064 141.024 180.582 144.844C180.582 144.844 186.194 142.297 185.77 148.144C185.77 148.144 194.458 144.573 188.269 160.31C185.487 167.383 178.264 173.569 178.264 173.569C178.264 173.569 167.757 168.378 160.967 168.467Z" fill="#FDF6EE"/>
<path d="M190.211 156.758C191.456 151.996 191.297 149.085 189.724 147.856C189.215 147.528 188.632 147.332 188.028 147.285C187.426 147.237 186.819 147.339 186.265 147.582C186.265 146.03 185.628 142.462 180.957 144.318C180.782 143.589 180.111 141.166 176.245 142.212C179.216 127.396 177.201 126.61 175.893 126.261C171.672 125.133 168.898 138.833 167.493 145.277C160.403 143.193 160.032 148.345 159.665 151.212C158.968 156.697 159.867 164.061 160.391 167.572C159.456 167.445 158.505 167.538 157.612 167.843C154.817 169.593 131.499 215.385 132.252 217.63C135.163 226.315 164.976 231.465 170.182 228.071C173.693 225.783 183.406 178.658 181.534 175.822C180.895 174.927 180.108 174.147 179.206 173.517C181.703 171.392 187.959 165.371 190.211 156.758ZM178.171 172.818C173.511 169.855 166.205 168.096 161.614 167.656C161.113 164.319 160.16 156.782 160.851 151.361C161.165 148.894 161.344 144.513 167.239 146.453C166.869 148.209 166.622 149.508 166.534 149.978C166.505 150.135 166.54 150.296 166.629 150.426C166.718 150.556 166.857 150.646 167.012 150.675C167.169 150.703 167.329 150.669 167.46 150.579C167.59 150.489 167.68 150.352 167.709 150.196C169.251 141.903 172.475 127.391 175.523 127.391C177.812 127.391 176 139.721 173.099 150.539C173.067 150.688 173.093 150.844 173.173 150.975C173.253 151.106 173.38 151.2 173.528 151.24C173.676 151.28 173.833 151.261 173.967 151.189C174.102 151.116 174.203 150.994 174.25 150.848C174.262 150.806 175.116 147.605 175.967 143.577C180.85 141.477 180.472 146.189 178.802 151.234C178.763 151.381 178.782 151.538 178.854 151.671C178.927 151.805 179.047 151.908 179.191 151.955C179.336 152.003 179.493 151.995 179.632 151.931C179.769 151.867 179.879 151.753 179.935 151.612C180.659 149.674 181.058 147.631 181.117 145.563C181.794 145.193 183.492 144.515 184.363 145.229C185.021 145.764 185.818 147.598 183.767 153.879C183.725 154.027 183.743 154.186 183.816 154.322C183.889 154.457 184.011 154.561 184.158 154.608C184.304 154.656 184.463 154.645 184.602 154.578C184.741 154.511 184.849 154.394 184.903 154.249C185.504 152.508 185.933 150.713 186.184 148.888C186.839 148.585 188.196 148.165 188.993 148.79C189.635 149.293 190.495 150.957 189.058 156.448C186.825 164.977 180.325 171.007 178.171 172.818Z" fill="#2C2C2C"/>
<path d="M125.32 33.2375C123.175 29.0474 120.007 21.4252 119.976 21.3488C119.943 21.276 119.925 21.1971 119.923 21.1171C119.921 21.0372 119.935 20.9575 119.964 20.8831C119.993 20.8087 120.038 20.741 120.093 20.6839C120.15 20.6268 120.217 20.5816 120.291 20.551C120.365 20.5203 120.443 20.5048 120.524 20.5054C120.604 20.5061 120.683 20.5228 120.756 20.5545C120.83 20.5863 120.896 20.6325 120.951 20.6904C121.006 20.7484 121.05 20.8169 121.078 20.8917C121.11 20.9669 124.26 28.5457 126.383 32.6946C126.455 32.8356 126.468 32.9994 126.419 33.15C126.37 33.3007 126.264 33.4257 126.123 33.4977C125.981 33.5697 125.818 33.5827 125.667 33.5339C125.517 33.4851 125.391 33.3785 125.32 33.2375Z" fill="#2C2C2C"/>
<path d="M132.261 31.7098C131.717 25.0581 131.439 16.1551 131.439 16.0658C131.439 15.9107 131.499 15.7617 131.607 15.6504C131.715 15.539 131.862 15.474 132.017 15.4691C132.172 15.4641 132.323 15.5198 132.438 15.6242C132.553 15.7285 132.622 15.8735 132.632 16.0282C132.632 16.1175 132.911 24.9923 133.454 31.6134C133.467 31.7716 133.416 31.9283 133.313 32.0492C133.211 32.17 133.064 32.2451 132.907 32.2579C132.748 32.2707 132.592 32.2201 132.471 32.1173C132.35 32.0146 132.274 31.8679 132.261 31.7098Z" fill="#2C2C2C"/>
<path d="M145.056 19.5754C144.1 24.185 141.786 32.1092 141.766 32.1879C141.745 32.2645 141.71 32.3362 141.66 32.3988C141.612 32.4614 141.551 32.5136 141.482 32.5525C141.412 32.5913 141.336 32.6159 141.257 32.6249C141.179 32.6338 141.099 32.627 141.022 32.6047C140.946 32.5824 140.875 32.5452 140.813 32.4951C140.752 32.4451 140.701 32.3833 140.664 32.3133C140.626 32.2432 140.603 32.1665 140.596 32.0875C140.589 32.0085 140.597 31.9287 140.62 31.853C140.643 31.7743 142.942 23.8959 143.89 19.3322C143.932 19.1871 144.027 19.063 144.156 18.985C144.285 18.907 144.439 18.8807 144.586 18.9116C144.734 18.9423 144.864 19.028 144.951 19.1511C145.038 19.2743 145.076 19.4259 145.056 19.5754Z" fill="#2C2C2C"/>
<path d="M204.316 199.706C204.208 199.708 204.101 199.678 204.008 199.623C203.915 199.568 203.84 199.488 203.79 199.391C201.24 194.63 198.604 190.098 198.579 190.054C198.54 189.986 198.514 189.912 198.503 189.833C198.493 189.755 198.497 189.677 198.517 189.601C198.539 189.525 198.573 189.454 198.621 189.392C198.668 189.33 198.728 189.277 198.796 189.237C198.863 189.198 198.938 189.172 199.016 189.162C199.093 189.152 199.172 189.157 199.248 189.177C199.323 189.197 199.395 189.232 199.457 189.279C199.52 189.328 199.573 189.386 199.611 189.454C199.637 189.499 202.282 194.048 204.841 198.829C204.891 198.919 204.914 199.021 204.912 199.125C204.909 199.227 204.881 199.328 204.827 199.416C204.774 199.505 204.7 199.578 204.61 199.629C204.52 199.679 204.419 199.706 204.316 199.706Z" fill="#2C2C2C"/>
<path d="M210.262 194.486C210.183 194.486 210.105 194.47 210.033 194.44C209.96 194.41 209.894 194.366 209.839 194.31C207.489 191.945 203.141 187.303 203.096 187.26C203.04 187.204 202.994 187.136 202.965 187.062C202.934 186.988 202.919 186.908 202.92 186.827C202.923 186.747 202.939 186.668 202.972 186.594C203.005 186.521 203.052 186.456 203.111 186.4C203.169 186.345 203.237 186.303 203.314 186.276C203.389 186.248 203.469 186.236 203.549 186.239C203.629 186.244 203.707 186.264 203.78 186.299C203.852 186.335 203.917 186.384 203.97 186.444C204.013 186.491 208.346 191.123 210.685 193.473C210.766 193.556 210.821 193.662 210.843 193.777C210.864 193.892 210.853 194.011 210.807 194.119C210.762 194.227 210.687 194.319 210.589 194.384C210.493 194.449 210.378 194.484 210.262 194.486Z" fill="#2C2C2C"/>
<path d="M217.819 185.288C217.3 185.288 207.23 182.972 205.771 182.608C205.617 182.57 205.484 182.474 205.402 182.339C205.319 182.205 205.294 182.042 205.331 181.888C205.369 181.735 205.465 181.602 205.6 181.52C205.734 181.437 205.896 181.411 206.05 181.449C206.112 181.463 212.191 182.932 217.939 184.107C218.083 184.137 218.21 184.22 218.297 184.338C218.384 184.458 218.424 184.605 218.409 184.751C218.395 184.898 218.325 185.034 218.217 185.133C218.108 185.231 217.966 185.287 217.819 185.288Z" fill="#2C2C2C"/>
<path d="M51.4299 52.4225C51.4299 52.4225 52.3699 40.045 57.9101 41.9192C57.9101 41.9192 59.998 36.9207 63.5113 38.9958C63.5113 38.9958 65.1563 33.6789 69.6424 37.2861C69.6424 37.2861 74.165 32.2642 76.891 41.4562C79.6499 50.7563 76.2565 51.4331 73.8266 48.8505C73.8266 48.8505 74.9123 55.8535 69.3252 52.0336C69.3252 52.0336 69.3604 57.8334 64.2327 53.0241C64.2327 53.0241 64.5147 61.9717 58.185 52.7762C58.185 52.7762 57.1628 53.9512 56.4554 54.9382C54.8547 53.9585 53.1735 53.1168 51.4299 52.4225Z" fill="#FDF6EE"/>
<path d="M114.545 71.8253C114.238 71.3987 108.083 71.2624 108.083 71.2624C109.43 65.8574 107.143 59.597 107.143 59.597L113.196 57.9603C112.972 55.9156 112.303 53.9448 111.237 52.186C110.17 50.4272 108.732 48.923 107.023 47.7789C105.446 49.2317 103.948 50.7688 102.538 52.3837C99.2125 48.0856 92.7852 44.5899 92.7852 44.5899C94.1257 43.1212 95.2561 41.4738 96.1446 39.6949C94.2646 36.6599 86.237 35.3298 85.7928 35.4649C85.3487 35.6 84.7189 41.8099 84.7189 41.8099C82.1277 41.4368 79.5063 41.3187 76.8922 41.4574C76.8922 41.4574 79.1247 49.0256 76.9932 50.0349C75.0322 50.9561 73.7702 48.3629 73.5857 47.954C73.6715 48.4663 74.3706 52.4566 72.7844 53.0699C71.5565 53.5305 69.3052 51.8761 69.3052 51.8761C69.5919 56.3305 66.2126 55.8206 63.8661 51.9102C64.0024 52.3884 64.9565 56.0039 62.8592 56.7371C60.5914 57.5384 58.2555 52.2521 58.0334 52.5752C57.2321 53.735 56.4601 54.9429 56.4601 54.9429C56.4601 54.9429 51.1268 51.7574 50.376 52.218C49.6251 52.6786 46.7605 58.798 46.8286 59.7216C46.9144 60.6252 53.6507 62.5345 53.6507 62.5345C55.9184 64.1384 57.0946 66.4755 55.9854 67.822C54.8774 69.1874 51.5357 68.0946 51.5357 68.0946C51.6038 70.5075 51.8434 72.9126 52.2524 75.2915C52.2524 75.2915 47.1647 76.3749 46.0602 76.8554C45.5996 77.0434 46.3845 84.7514 50.9952 85.9969C51.6602 86.1673 55.6846 82.7904 55.6846 82.7904C58.2313 86.8989 62.0003 90.1071 66.4629 91.9648C66.4629 91.9648 63.3926 96.9797 63.3926 97.5754C63.3926 98.1711 68.6284 101.856 74.1192 101.208C74.4717 101.157 75.0404 94.8306 75.0404 94.8306C79.306 96.1944 83.9367 95.8267 87.9337 93.8072C87.9337 93.8072 89.5869 99.708 90.0816 99.7245C95.8297 99.7421 99.5897 95.2595 99.9903 94.7965C100.391 94.3336 96.5852 89.2999 96.5852 89.2999C101.718 87.3729 105.487 79.5967 105.487 79.5967C105.487 79.5967 111.336 81.8645 111.695 81.5742C114.527 79.3453 114.852 72.2506 114.545 71.8253ZM79.7897 81.7669C77.1296 81.7056 74.5469 80.8608 72.3648 79.3381C70.1828 77.8153 68.4987 75.6826 67.5236 73.2069C66.5483 70.7313 66.3253 68.0231 66.8825 65.4213C67.4397 62.8195 68.7523 60.44 70.6559 58.5809C72.5594 56.7218 74.9692 55.4659 77.5834 54.9704C80.1977 54.4747 82.9 54.7617 85.3518 55.7952C87.8037 56.8286 89.896 58.5627 91.3668 60.7801C92.8374 62.9975 93.6211 65.5995 93.6195 68.2603C93.5752 71.885 92.0936 75.3436 89.5003 77.8763C86.9071 80.4089 83.4144 81.8083 79.7897 81.7669Z" fill="#2D6A4F"/>
<path d="M79.8766 82.2419C77.1124 82.1599 74.4335 81.2652 72.1748 79.6697C69.916 78.0742 68.1774 75.8484 67.1763 73.2704C66.1752 70.6926 65.9559 67.8768 66.5457 65.175C67.1356 62.4732 68.5083 60.005 70.4928 58.079C72.4771 56.1528 74.985 54.8541 77.7033 54.3449C80.4215 53.8359 83.2294 54.1391 85.7764 55.2165C88.3233 56.294 90.4962 58.098 92.0238 60.4033C93.5515 62.7086 94.366 65.4128 94.3655 68.1783C94.3037 71.9629 92.7438 75.5685 90.0278 78.2047C87.3117 80.8409 83.6612 82.2928 79.8766 82.2419ZM79.8766 55.3038C77.3488 55.3867 74.9013 56.212 72.8394 57.6768C70.7775 59.1416 69.1926 61.1811 68.2824 63.5407C67.372 65.9005 67.1767 68.476 67.7206 70.946C68.2645 73.416 69.5238 75.6712 71.341 77.4303C73.1584 79.1892 75.4534 80.3743 77.9398 80.8375C80.4262 81.3006 82.994 81.0215 85.3228 80.0348C87.6517 79.0481 89.6384 77.3976 91.0352 75.2891C92.432 73.1806 93.1771 70.7075 93.1776 68.1783C93.1161 64.7089 91.6814 61.4053 89.1881 58.9919C86.6947 56.5786 83.3462 55.2523 79.8766 55.3038Z" fill="#2C2C2C"/>
<path d="M51.7448 68.1149C53.5989 68.9715 55.5671 68.7095 55.9807 67.8176C56.594 66.4981 56.641 62.4197 48.8519 60.6748C48.4088 61.5173 48.2177 62.4694 48.301 63.4176C48.3843 64.3658 48.7388 65.27 49.3219 66.0222C32.9601 93.6383 16.2539 104.716 16.2539 104.716C20.686 118.768 23.0689 139.714 23.0689 139.714C55.0136 124.332 62.6758 89.91 62.6758 89.91C51.6191 82.632 51.6602 70.1641 51.7448 68.1149Z" fill="#FDF6EE"/>
<path d="M115.275 71.9464C115.241 71.7367 115.144 71.5422 114.997 71.389C114.85 71.2358 114.66 71.131 114.452 71.0887C113.512 70.9418 110.222 70.8819 108.749 70.8643C109.37 67.1862 109.059 63.4109 107.845 59.8839L113.479 58.6736C113.623 58.6433 113.751 58.5606 113.838 58.4415C113.925 58.3223 113.965 58.1752 113.949 58.0286C113.4 52.7528 109.027 47.8061 107.403 47.2186C107.24 47.1403 107.057 47.1126 106.878 47.1389C106.698 47.1653 106.531 47.2445 106.397 47.3666C105.842 47.913 103.671 50.5227 102.727 51.6636C100.091 48.802 97.0069 46.3883 93.5958 44.5172C97.1549 40.0522 96.8153 39.5176 96.6085 39.1933C95.336 37.1958 88.3447 34.518 86.1028 34.8458C85.8639 34.8509 85.6323 34.9285 85.4388 35.0686C85.2452 35.2085 85.099 35.4043 85.0194 35.6295C84.6573 37.4927 84.4385 39.3811 84.365 41.2778C81.9959 40.8114 79.5772 40.648 77.1669 40.7913C76.8802 40.0223 76.5357 39.2759 76.1364 38.5588C73.0321 33.2549 70.0523 36.116 69.5564 36.6306C65.5133 33.632 63.6486 37.4849 63.3806 38.2909C59.8075 36.6976 58.193 40.353 57.8029 41.2554C52.593 39.8572 51.1936 49.9305 51.1325 51.7576C50.7285 51.5938 50.2806 51.5735 49.8635 51.7C48.2619 52.5225 46.0271 57.7971 46.1035 59.4374C46.0896 59.6361 46.1369 59.8342 46.2389 60.0051C46.341 60.1761 46.4931 60.3118 46.6745 60.3938C46.9095 60.489 47.4653 60.7017 48.1597 60.9696C47.7346 61.746 47.5489 62.631 47.6263 63.513C47.7037 64.3948 48.0406 65.234 48.5944 65.9246C40.4868 80.7835 29.4283 93.8289 16.0975 104.26C15.9739 104.354 15.8916 104.492 15.8679 104.645C15.8441 104.798 15.8809 104.955 15.9705 105.082C16.0599 105.208 16.1951 105.295 16.3475 105.324C16.4999 105.353 16.6576 105.322 16.7872 105.237C30.1412 94.7914 41.2409 81.7495 49.417 66.8975C49.9206 67.3744 50.4501 67.8231 51.0032 68.2417C50.8528 70.4961 51.1075 72.7593 51.7552 74.9239L46.0482 76.2928C45.9475 76.3175 45.8549 76.3678 45.7794 76.4388C45.704 76.5099 45.6479 76.5992 45.617 76.6981C44.2188 81.2372 49.3465 87.3742 51.2359 86.5787C52.7478 85.6825 54.1651 84.6354 55.4659 83.4532C57.1756 86.1632 59.4168 88.4988 62.0541 90.3187C50.0103 128.624 23.5869 138.679 23.3214 138.776C23.1737 138.831 23.0539 138.943 22.988 139.086C22.922 139.229 22.9152 139.394 22.9689 139.542C23.0266 139.688 23.1384 139.806 23.2812 139.872C23.424 139.938 23.5865 139.946 23.735 139.894C24.0041 139.794 50.8375 129.611 63.108 90.9391C63.933 91.4406 64.7934 91.8812 65.6825 92.2575C62.9506 97.1925 62.497 97.2489 62.8742 97.7953C64.8717 100.64 70.7796 101.917 73.2636 101.917C73.8593 101.917 74.5925 101.863 74.7817 101.301C74.9991 100.668 75.3539 97.189 75.5137 95.544C79.5088 96.6331 83.7579 96.3038 87.5375 94.6122C88.0568 96.2666 89.2776 99.479 89.4386 99.8997C89.4889 100.019 89.5749 100.12 89.6849 100.189C89.795 100.258 89.9235 100.291 90.0531 100.284C94.9259 100.284 101.803 95.9752 100.441 94.0787C99.8879 93.3044 98.1254 90.7629 97.3382 89.6255C101.036 87.4132 103.984 84.1401 105.798 80.2313C111.589 82.5508 111.885 82.2911 112.18 82.0432C114.517 80.0492 115.796 73.783 115.275 71.9464ZM75.0825 39.1275C77.4759 43.5173 77.7004 47.8225 76.9625 49.2266C76.7568 49.6214 75.4115 50.2548 74.2799 48.0822C73.7001 44.3377 72.3537 40.7532 70.3249 37.553C72.2954 35.1654 74.0402 37.2158 75.0825 39.1275ZM67.935 36.8786C70.52 38.0712 73.7112 46.8132 73.2918 51.0256C73.1813 52.1359 72.2719 53.8044 69.7738 51.176C69.312 47.3431 67.0478 41.521 64.3935 39.0476C65.1514 35.9797 67.1219 36.5037 67.9338 36.8774L67.935 36.8786ZM61.0024 39.1393C64.578 37.6247 68.8209 48.6438 68.6552 52.7834C68.5377 55.6034 65.6155 53.9678 64.4475 51.7C64.4299 51.6636 62.5534 45.3045 58.8475 41.8171C59.2403 40.7037 60.0025 39.7582 61.0072 39.1381L61.0024 39.1393ZM56.2002 42.3599C57.7277 41.6408 59.9062 44.1506 61.3702 46.9671C63.4923 51.0444 64.1702 55.4741 62.7943 56.2614C62.7227 56.3013 60.9296 57.2096 56.7912 49.041C56.713 48.911 56.5881 48.8157 56.442 48.7745C56.296 48.7334 56.1397 48.7492 56.0051 48.8191C55.8704 48.8891 55.7674 49.0076 55.7169 49.1507C55.6665 49.2938 55.6725 49.4508 55.7337 49.5897C55.8877 49.887 56.5563 51.1395 57.4516 52.5613L56.2766 54.2815C54.999 53.5009 53.6733 52.802 52.3074 52.1888C52.3098 51.9479 52.3768 44.1589 56.2002 42.3599ZM49.2877 61.3949L53.3873 62.9647C54.2838 63.8131 56.3859 66.2007 55.4024 67.5273C54.6833 68.4978 52.217 68.0266 50.3769 66.1842C47.7931 63.6028 49.2689 61.4525 49.2877 61.3996V61.3949ZM111.547 81.0069C109.562 80.4234 107.612 79.7254 105.706 78.9165C105.56 78.8572 105.397 78.8582 105.251 78.9195C105.106 78.9807 104.991 79.0971 104.931 79.2432C104.904 79.3113 102.111 86.0041 96.1972 88.8782C96.1213 88.9173 96.0543 88.9719 96.0008 89.0384C95.9472 89.1049 95.9081 89.1819 95.8859 89.2645C95.8638 89.347 95.8592 89.4333 95.8723 89.5176C95.8854 89.6021 95.916 89.6828 95.9622 89.7547C95.9622 89.7547 98.5966 93.5653 99.4026 94.698C99.1242 95.5992 94.8295 98.9209 90.3998 99.0925C89.8052 97.5191 88.6373 94.3502 88.4916 93.6205C88.4704 93.5267 88.4274 93.4394 88.366 93.3655C88.3046 93.2916 88.2265 93.2333 88.1383 93.1955C88.0499 93.1576 87.9539 93.1413 87.858 93.1478C87.7622 93.1542 87.6692 93.1834 87.5868 93.2327C87.5387 93.2645 82.5989 96.2818 75.1436 94.2197C75.0594 94.1986 74.9718 94.1956 74.8865 94.2109C74.8011 94.2263 74.72 94.2597 74.6485 94.3088C74.5771 94.3579 74.5168 94.4217 74.4719 94.4958C74.4271 94.5701 74.3984 94.653 74.388 94.7391C74.1953 96.8118 73.8757 99.8139 73.7007 100.71C72.4411 100.883 66.2676 99.9608 64.0809 97.411C64.7859 96.2137 66.8551 92.6864 67.0737 92.1705C67.1032 92.0938 67.117 92.012 67.1143 91.9299C67.1117 91.8479 67.0926 91.7672 67.0582 91.6925C67.0239 91.6179 66.9749 91.5509 66.9141 91.4956C66.8534 91.4403 66.7822 91.3977 66.7047 91.3704C62.2491 89.6073 58.5204 86.3899 56.1238 82.2406C56.0786 82.1669 56.0181 82.104 55.9464 82.0558C55.8746 82.0076 55.7934 81.9754 55.7083 81.9613C55.6229 81.9473 55.5356 81.9518 55.4523 81.9744C55.3689 81.997 55.2914 82.0373 55.225 82.0926C53.8565 83.3408 52.3835 84.4693 50.8223 85.466C49.4978 84.5832 48.4215 83.3759 47.6963 81.9591C46.971 80.5423 46.6208 78.9632 46.6792 77.3726L52.6341 75.9438C52.7114 75.9236 52.7839 75.8883 52.8475 75.8398C52.9109 75.7914 52.9643 75.7309 53.0041 75.6617C53.0441 75.5925 53.0698 75.516 53.0799 75.4368C53.09 75.3575 53.0842 75.277 53.063 75.2C52.5039 73.1294 52.1954 70.9991 52.1441 68.855C52.8703 69.1523 55.6973 69.56 56.4552 68.0983C57.8252 65.4522 54.265 62.1528 54.1111 62.013C54.0558 61.9636 48.618 59.8698 47.2961 59.3504C47.2279 58.2647 49.2219 53.3756 50.3429 52.7857C50.8928 52.7152 53.8162 54.184 56.1521 55.5951C56.2827 55.6733 56.4382 55.6985 56.5868 55.6661C56.7354 55.6336 56.8662 55.5455 56.9522 55.4201L58.1625 53.6376C59.3516 55.3637 61.1164 57.6161 62.819 57.3271C63.994 57.1262 64.7178 55.5199 64.6849 53.9913C67.5578 57.0674 70.0335 55.3037 69.8549 52.8562C74.3504 55.8419 74.6101 50.9139 74.4879 50.0585C79.4441 53.2005 78.7285 45.2986 77.604 41.9405C80.0185 41.8501 82.4348 42.0661 84.795 42.5832C84.8794 42.5999 84.9663 42.5985 85.0501 42.579C85.134 42.5594 85.2126 42.5224 85.281 42.4701C85.3494 42.418 85.4058 42.3517 85.4466 42.276C85.4874 42.2002 85.5117 42.1167 85.5176 42.0309C85.596 40.0358 85.7922 38.0469 86.1051 36.0749C87.0827 35.4592 94.114 37.9737 95.5051 39.6974C94.5514 41.3436 93.4502 42.8997 92.2152 44.3469C92.1589 44.4181 92.1193 44.5009 92.0994 44.5895C92.0796 44.6781 92.0799 44.77 92.1005 44.8583C92.121 44.9468 92.1612 45.0294 92.2181 45.1001C92.275 45.1709 92.3471 45.2279 92.429 45.2669C96.1714 47.2049 99.5226 49.8191 102.313 52.9772C102.371 53.0395 102.442 53.089 102.521 53.1221C102.6 53.1554 102.685 53.1717 102.77 53.1699C102.855 53.1683 102.939 53.1488 103.017 53.1125C103.094 53.0763 103.163 53.0241 103.219 52.9596C104.085 51.9021 106.339 49.1926 107.097 48.3771C108.104 48.8471 111.967 52.922 112.704 57.6197L106.916 58.8675C106.83 58.8869 106.749 58.9248 106.679 58.9789C106.609 59.0328 106.552 59.1014 106.512 59.1799C106.472 59.2583 106.449 59.3447 106.446 59.4328C106.442 59.5209 106.458 59.6087 106.493 59.69C107.894 63.4017 108.223 67.4327 107.442 71.3225C107.426 71.4089 107.429 71.4976 107.45 71.5829C107.471 71.6681 107.511 71.7476 107.565 71.8162C107.62 71.8849 107.689 71.9408 107.768 71.9803C107.846 72.0197 107.932 72.0418 108.02 72.0451C109.381 72.0592 112.996 72.1168 114.13 72.2472C114.526 73.2859 113.56 79.0528 111.547 81.0069Z" fill="#2C2C2C"/>
<path d="M27.8052 128.699C27.7011 128.697 27.5991 128.669 27.5093 128.616C27.4196 128.563 27.345 128.488 27.2929 128.398C27.2409 128.308 27.2132 128.206 27.2127 128.102C27.212 127.997 27.2385 127.895 27.2894 127.804L29.5524 123.914C29.5918 123.846 29.6441 123.787 29.7064 123.739C29.7688 123.692 29.8398 123.657 29.9155 123.637C29.9913 123.617 30.0704 123.612 30.148 123.621C30.2257 123.632 30.3007 123.658 30.3685 123.697C30.4363 123.737 30.4957 123.789 30.5433 123.852C30.5909 123.914 30.6258 123.984 30.6459 124.061C30.666 124.136 30.671 124.215 30.6606 124.292C30.6502 124.371 30.6246 124.445 30.5853 124.513L28.3175 128.404C28.2643 128.492 28.1893 128.566 28.0997 128.617C28.01 128.669 27.9086 128.697 27.8052 128.699Z" fill="#2C2C2C"/>
<path d="M24.6927 108.031C24.6148 108.032 24.5376 108.017 24.4653 107.988C24.393 107.959 24.3274 107.916 24.2719 107.862C24.2164 107.807 24.1725 107.742 24.1424 107.67C24.1125 107.598 24.0969 107.521 24.0969 107.443C24.0957 107.284 24.1576 107.131 24.269 107.017C24.3805 106.904 24.5324 106.839 24.6915 106.837H29.1929C29.2707 106.836 29.348 106.85 29.4203 106.879C29.4925 106.908 29.5582 106.951 29.6137 107.006C29.6691 107.061 29.7131 107.126 29.7432 107.198C29.7731 107.27 29.7886 107.347 29.7886 107.424C29.7895 107.503 29.7747 107.582 29.7452 107.655C29.7157 107.728 29.6722 107.794 29.617 107.851C29.5618 107.907 29.496 107.952 29.4235 107.983C29.3508 108.014 29.2729 108.03 29.1941 108.031H24.6927Z" fill="#2C2C2C"/>
<path d="M42.6045 112.063C42.485 112.061 42.3686 112.025 42.2697 111.957C42.1709 111.89 42.0941 111.795 42.0487 111.685L40.4202 107.491C40.3917 107.418 40.3779 107.34 40.3795 107.262C40.3813 107.183 40.3983 107.106 40.4298 107.034C40.4614 106.962 40.5068 106.898 40.5633 106.843C40.6199 106.789 40.6867 106.746 40.7598 106.718C40.8328 106.69 40.9107 106.676 40.9891 106.677C41.0676 106.679 41.1449 106.696 41.2167 106.728C41.2885 106.759 41.3534 106.805 41.4077 106.861C41.4618 106.918 41.5045 106.985 41.5329 107.058L43.1626 111.251C43.1961 111.342 43.2074 111.439 43.1955 111.535C43.1835 111.631 43.1488 111.722 43.094 111.802C43.0394 111.881 42.9663 111.947 42.8811 111.992C42.7959 112.038 42.7011 112.062 42.6045 112.063Z" fill="#2C2C2C"/>
<path d="M38.7104 93.5566C38.6062 93.5556 38.504 93.5275 38.414 93.4748C38.324 93.4223 38.2493 93.3471 38.1972 93.2569C38.145 93.1665 38.1174 93.0642 38.1169 92.96C38.1166 92.8557 38.1433 92.7532 38.1946 92.6624L40.4577 88.772C40.497 88.7042 40.5493 88.6448 40.6116 88.5972C40.674 88.5496 40.745 88.5147 40.8207 88.4946C40.8965 88.4745 40.9756 88.4695 41.0533 88.4799C41.1309 88.4903 41.2059 88.5159 41.2737 88.5552C41.3415 88.5946 41.401 88.6469 41.4485 88.7092C41.4961 88.7715 41.531 88.8426 41.5511 88.9183C41.5712 88.9941 41.5763 89.0732 41.5658 89.1508C41.5555 89.2285 41.5299 89.3035 41.4905 89.3713L39.2274 93.2617C39.1734 93.3508 39.0976 93.4244 39.0071 93.4761C38.9167 93.5277 38.8145 93.5554 38.7104 93.5566Z" fill="#2C2C2C"/>
<path d="M50.7754 95.88C50.6232 95.8782 50.4775 95.8184 50.368 95.7129C50.2585 95.6073 50.1934 95.4639 50.186 95.312C50.1787 95.1599 50.2296 95.0109 50.3284 94.8953C50.4273 94.7797 50.5666 94.7061 50.7178 94.6897L55.1981 94.2632C55.3558 94.2475 55.5132 94.2952 55.6356 94.3957C55.7582 94.4963 55.8357 94.6413 55.8514 94.799C55.867 94.9567 55.8193 95.1141 55.7187 95.2365C55.6183 95.3591 55.4733 95.4366 55.3156 95.4523L50.7754 95.88Z" fill="#2C2C2C"/>
<path d="M72.1768 113.715C72.0217 113.684 71.8854 113.593 71.7978 113.461C71.7102 113.329 71.6786 113.168 71.7097 113.013C71.7408 112.858 71.8324 112.722 71.964 112.634C72.0957 112.547 72.2567 112.515 72.4118 112.546C72.541 112.567 85.3532 115 92.4796 105.723C92.5273 105.661 92.5867 105.609 92.6545 105.57C92.7223 105.53 92.7972 105.505 92.8748 105.495C92.9524 105.485 93.0314 105.49 93.1069 105.51C93.1826 105.53 93.2534 105.565 93.3156 105.613C93.3776 105.661 93.4298 105.72 93.4689 105.788C93.5081 105.856 93.5334 105.931 93.5437 106.008C93.5539 106.086 93.5487 106.165 93.5284 106.24C93.5081 106.316 93.4732 106.387 93.4255 106.449C88.4611 112.91 80.712 115.055 72.1768 113.715Z" fill="#C8705A"/>
<path d="M76.0037 107.344C75.9292 107.319 75.8606 107.279 75.8019 107.226C75.7434 107.174 75.6962 107.11 75.6633 107.038C75.6303 106.967 75.6122 106.89 75.6101 106.811C75.6081 106.732 75.622 106.654 75.6512 106.581C75.6776 106.507 75.7183 106.44 75.7709 106.382C75.8236 106.324 75.8871 106.277 75.958 106.243C76.0287 106.21 76.1054 106.191 76.1837 106.187C76.2619 106.183 76.3401 106.195 76.4137 106.222C78.4557 106.83 80.6112 106.954 82.7094 106.584C84.8076 106.213 86.7905 105.359 88.501 104.089C88.563 104.038 88.6347 104.001 88.7115 103.978C88.7884 103.956 88.869 103.949 88.9485 103.959C89.0281 103.968 89.1049 103.994 89.1744 104.033C89.2439 104.073 89.3048 104.126 89.3532 104.19C89.4017 104.254 89.4369 104.327 89.4567 104.404C89.4765 104.482 89.4805 104.562 89.4684 104.642C89.4563 104.721 89.4283 104.797 89.3863 104.865C89.3443 104.933 89.2889 104.992 89.2236 105.038C87.3573 106.437 85.1871 107.374 82.8899 107.775C80.5925 108.175 78.2331 108.028 76.0037 107.344Z" fill="#C8705A"/>
<path d="M105.64 32.8344C105.539 32.7169 95.2844 20.887 79.1563 19.9505C67.5003 19.2878 55.7444 24.3156 44.1954 34.9118C44.2796 32.4978 44.7669 30.1149 45.6371 27.8618C45.6934 27.7161 45.6902 27.554 45.6284 27.4107C45.5666 27.2672 45.451 27.1537 45.3064 27.0945C45.1619 27.0353 44.9999 27.0351 44.8552 27.094C44.7106 27.1529 44.5947 27.266 44.5326 27.4094C43.5592 30.1686 43.0551 33.0716 43.0415 35.9975C43.0556 36.5556 43.1226 36.6884 43.3799 36.8376C44.0849 37.243 50.1949 36.7859 52.2371 36.1772C52.3929 36.149 52.5312 36.0601 52.6214 35.93C52.7116 35.7998 52.7464 35.6392 52.7182 35.4834C52.69 35.3276 52.6011 35.1894 52.471 35.0992C52.3408 35.0089 52.1802 34.974 52.0244 35.0022C49.657 35.458 47.2629 35.7634 44.8569 35.9164C56.2003 25.4589 67.6965 20.4875 79.0729 21.1361C94.6863 22.0408 104.633 33.4877 104.731 33.6052C104.835 33.7218 104.98 33.7933 105.136 33.8041C105.292 33.8148 105.446 33.7641 105.565 33.6627C105.684 33.5615 105.758 33.4176 105.772 33.2621C105.786 33.1066 105.738 32.9517 105.64 32.8308V32.8344Z" fill="#2C2C2C"/>
<path d="M99.9293 193.111C99.7425 192.993 94.2 192.037 94.2 192.037C94.4424 189.587 94.3678 187.117 93.9779 184.686L99.0093 183.288C99.3108 181.57 99.1237 179.803 98.4692 178.187C97.8149 176.57 96.7194 175.171 95.308 174.147C93.8733 174.983 92.4949 175.912 91.1814 176.928C91.1814 176.928 86.3721 170.242 83.2173 168.912C84.1984 167.768 85.0935 166.555 85.8951 165.28C85.8951 164.904 81.8014 160.555 77.3176 160.777C76.9768 160.794 76.0251 165.33 76.0251 165.33C76.0251 165.33 69.4768 163.676 65.06 165.213C64.8867 163.467 64.5957 161.735 64.1893 160.028C62.4247 159.882 60.65 160.133 58.9947 160.762C57.3396 161.391 55.8457 162.381 54.6225 163.661C54.27 164.035 57.9818 167.805 57.9818 167.805C53.9041 170.19 50.6139 173.717 48.5172 177.951C47.1193 177.025 45.661 176.193 44.152 175.461C42.7433 176.771 41.7005 178.427 41.1262 180.262C40.5519 182.099 40.4662 184.053 40.8773 185.933C40.9455 186.285 46.1296 185.796 46.1296 185.796C45.6491 189.313 46.0529 192.895 47.3046 196.216C47.3046 196.451 42.6821 197.358 42.6821 197.683C42.8943 199.585 43.5091 201.42 44.4853 203.068C45.4616 204.714 46.7771 206.135 48.3444 207.233C48.4807 207.181 52.4029 203.481 52.4029 203.481C52.4029 203.481 55.5754 207.267 59.2073 208.546C59.2073 208.546 56.6153 213.543 56.7692 213.951C56.9055 214.343 61.5785 217.378 68.1267 216.679C68.5016 216.645 68.1267 211.068 68.1267 211.068C68.1267 211.068 74.0957 211.444 77.9497 210.08C77.9497 210.08 78.4785 215.401 78.7852 215.417C84.1067 215.741 88.097 211.171 88.3696 210.745C88.6599 210.319 85.0103 206.327 85.0103 206.327C85.0103 206.327 89.5634 203.19 91.3553 199.489C91.3553 199.489 95.8203 202.695 96.0624 202.491C99.35 199.711 100.117 193.231 99.9293 193.111ZM70.6659 200.717C68.2339 200.688 65.8639 199.945 63.8515 198.579C61.839 197.213 60.2728 195.286 59.3482 193.036C58.4236 190.787 58.1814 188.314 58.6518 185.928C59.1221 183.542 60.2843 181.347 61.9934 179.616C63.7025 177.885 65.8831 176.696 68.2634 176.197C70.6436 175.696 73.1184 175.908 75.3793 176.805C77.6401 177.702 79.5872 179.243 80.9778 181.239C82.3684 183.235 83.1411 185.596 83.1996 188.027C83.2203 191.372 81.9114 194.588 79.5609 196.967C77.2103 199.347 74.0108 200.695 70.6659 200.717Z" fill="#2D6A4F"/>
<path d="M56.3578 214.454C56.2359 214.376 56.1469 214.255 56.1082 214.117C56.0694 213.977 56.0834 213.828 56.1475 213.698L58.4775 208.843C56.1703 207.711 54.0934 206.161 52.3523 204.27L48.8578 207.749C48.7657 207.841 48.6466 207.9 48.5181 207.917C48.3897 207.935 48.259 207.91 48.1458 207.847C47.9519 207.739 43.4093 205.12 42.0193 197.776C41.9912 197.629 42.0196 197.477 42.0986 197.349C42.1776 197.222 42.3017 197.131 42.4458 197.091L46.6194 195.924C45.4885 192.882 45.0916 189.616 45.4609 186.391L40.8373 186.626C40.6977 186.632 40.5604 186.589 40.449 186.505C40.3375 186.421 40.2588 186.301 40.2263 186.165C39.822 184.147 39.9379 182.059 40.5635 180.099C41.1891 178.138 42.3036 176.37 43.8018 174.959C43.8956 174.874 44.0135 174.822 44.1389 174.808C44.2643 174.795 44.3906 174.822 44.4997 174.886L48.3373 177.104C50.3536 173.193 53.4241 169.925 57.2015 167.668L53.9526 164.072C53.8549 163.965 53.7998 163.825 53.7979 163.68C53.7959 163.535 53.8472 163.394 53.942 163.284C54.076 163.127 57.2978 159.452 64.2515 159.336C64.3943 159.331 64.5337 159.379 64.6438 159.47C64.7539 159.561 64.8271 159.689 64.8496 159.83L65.6509 164.456C67.3453 164.161 72.1569 163.492 75.6196 164.743L76.7382 160.587C76.7714 160.463 76.8443 160.352 76.9458 160.272C77.0474 160.194 77.1721 160.149 77.301 160.147C79.0752 160.219 80.8109 160.686 82.3827 161.512C83.9546 162.338 85.3232 163.503 86.3897 164.923C86.4707 165.027 86.5148 165.156 86.5148 165.287C86.5148 165.42 86.4707 165.548 86.3897 165.653L84.0714 168.708C86.9425 170.691 89.4093 173.203 91.3399 176.11L94.8767 173.357C94.9813 173.276 95.1098 173.231 95.2421 173.231C95.3744 173.231 95.5031 173.276 95.6075 173.357C95.819 173.52 100.778 177.431 99.6319 183.409C99.6114 183.521 99.5591 183.625 99.4812 183.709C99.4033 183.792 99.303 183.851 99.1925 183.879L94.6734 185.027C94.9975 187.193 95.0571 189.389 94.8508 191.568L100.043 192.417C100.179 192.439 100.302 192.507 100.393 192.611C100.484 192.714 100.537 192.844 100.543 192.982C100.523 196.69 99.0907 200.252 96.537 202.94C96.4409 203.042 96.3116 203.106 96.1724 203.121C96.0332 203.135 95.8934 203.1 95.7779 203.021L91.609 200.24C90.1674 202.724 88.2093 204.869 85.8668 206.531L88.9629 210.325C89.0508 210.433 89.0982 210.568 89.0969 210.707C89.0957 210.845 89.0458 210.981 88.9559 211.086C88.7761 211.298 84.4909 216.303 78.771 216.012C78.632 216.006 78.4995 215.951 78.3966 215.858C78.2936 215.764 78.2266 215.637 78.207 215.5L77.5501 210.838C74.7088 211.634 71.7549 211.951 68.8093 211.778L68.8951 216.713C68.9048 216.854 68.8609 216.994 68.7721 217.105C68.6831 217.215 68.5559 217.288 68.4157 217.308C62.4291 217.63 60.2165 216.997 56.3578 214.454ZM57.4529 213.738C60.5092 215.642 64.0994 216.505 67.6872 216.2L67.5991 211.12C67.5988 211.035 67.6167 210.95 67.6515 210.872C67.6863 210.795 67.7372 210.724 67.8011 210.668C67.8649 210.612 67.9399 210.569 68.0214 210.543C68.1028 210.518 68.1888 210.509 68.2735 210.52C71.5029 210.789 74.7542 210.445 77.8556 209.506C77.9385 209.481 78.0256 209.474 78.1111 209.486C78.1968 209.498 78.2789 209.527 78.3521 209.573C78.4254 209.619 78.488 209.68 78.536 209.751C78.5838 209.823 78.6159 209.904 78.63 209.99L79.3185 214.831C83.384 214.786 86.6823 211.742 87.7104 210.68L84.5308 206.773C84.4794 206.707 84.442 206.631 84.4212 206.55C84.4005 206.469 84.3968 206.384 84.4102 206.302C84.4237 206.218 84.4541 206.14 84.4994 206.069C84.5449 206 84.6044 205.939 84.6742 205.893C87.2631 204.178 89.3891 201.852 90.8641 199.119C90.9026 199.044 90.9565 198.977 91.0223 198.924C91.0883 198.87 91.1644 198.831 91.2462 198.809C91.328 198.788 91.4135 198.782 91.4972 198.795C91.5809 198.808 91.6611 198.838 91.7324 198.884L96.0223 201.746C98.0174 199.448 99.1873 196.549 99.3464 193.511L94.0695 192.649C93.9117 192.62 93.772 192.53 93.6805 192.397C93.5891 192.265 93.5532 192.103 93.5807 191.944C93.8694 189.527 93.8152 187.081 93.4197 184.679C93.3955 184.531 93.4276 184.381 93.5096 184.255C93.5917 184.131 93.7177 184.041 93.8627 184.005L98.5251 182.82C99.1302 178.629 96.2456 175.548 95.228 174.607L91.5561 177.46C91.4888 177.509 91.4119 177.545 91.3303 177.564C91.2488 177.582 91.1642 177.585 91.0818 177.569C90.9995 177.554 90.9213 177.521 90.8519 177.474C90.7825 177.428 90.7234 177.367 90.6784 177.297C88.68 174.13 86.0289 171.427 82.9023 169.367C82.8319 169.322 82.7714 169.263 82.7246 169.195C82.6778 169.126 82.6458 169.048 82.6305 168.966C82.6151 168.885 82.6169 168.8 82.6355 168.719C82.6542 168.638 82.6894 168.562 82.7389 168.495L85.1606 165.307C83.3064 163.077 80.6518 161.662 77.7663 161.366L76.5913 165.714C76.5668 165.796 76.5251 165.872 76.4691 165.937C76.4132 166.002 76.3441 166.054 76.2666 166.091C76.189 166.127 76.1045 166.147 76.0189 166.15C75.9331 166.151 75.8479 166.134 75.7688 166.101C71.9783 164.354 65.3536 165.732 65.2878 165.749C65.2094 165.765 65.1283 165.765 65.0497 165.75C64.9711 165.734 64.8963 165.703 64.8299 165.657C64.7636 165.613 64.7069 165.555 64.6632 165.488C64.6196 165.42 64.5899 165.345 64.5758 165.266L63.7533 160.553C60.6338 160.592 57.6225 161.702 55.2251 163.699L58.6138 167.449C58.6741 167.518 58.7177 167.602 58.7412 167.691C58.7648 167.78 58.7678 167.873 58.7498 167.964C58.7319 168.055 58.6937 168.14 58.6379 168.214C58.5822 168.287 58.5106 168.347 58.4282 168.389C52.3922 171.266 49.1668 178.119 49.1316 178.191C49.0954 178.265 49.0445 178.331 48.9821 178.385C48.9197 178.439 48.847 178.479 48.7685 178.504C48.69 178.528 48.6073 178.538 48.5253 178.529C48.4433 178.521 48.3637 178.498 48.2915 178.458L44.2859 176.144C43.1156 177.359 42.2388 178.827 41.7225 180.433C41.2062 182.039 41.0643 183.742 41.3073 185.411L46.1389 185.161C46.228 185.159 46.3165 185.178 46.3982 185.213C46.4797 185.249 46.5523 185.303 46.6111 185.37C46.6697 185.437 46.713 185.516 46.7378 185.602C46.7626 185.687 46.7683 185.778 46.7546 185.866C46.2418 189.317 46.6595 192.842 47.9648 196.077C47.9971 196.156 48.0128 196.24 48.0106 196.325C48.0085 196.409 47.9887 196.493 47.9524 196.57C47.9162 196.647 47.8642 196.716 47.8 196.771C47.7358 196.826 47.6606 196.869 47.5794 196.893L43.3024 198.087C43.9032 201.431 45.702 204.442 48.362 206.556L51.9539 202.979C52.0125 202.922 52.0818 202.879 52.1576 202.85C52.2335 202.82 52.3143 202.807 52.3955 202.81C52.4767 202.812 52.5565 202.831 52.6302 202.865C52.7039 202.899 52.77 202.948 52.8246 203.008C54.6587 205.135 56.9358 206.834 59.4963 207.987C59.5723 208.017 59.6414 208.063 59.6992 208.121C59.7571 208.179 59.8025 208.249 59.8327 208.324C59.863 208.4 59.8773 208.482 59.8751 208.564C59.8727 208.646 59.8538 208.727 59.8194 208.801L57.4529 213.738Z" fill="#2C2C2C"/>
<path d="M70.3649 201.264C67.8325 201.174 65.3822 200.341 63.3199 198.868C61.2575 197.395 59.674 195.349 58.7667 192.982C57.8596 190.617 57.6688 188.035 58.2181 185.562C58.7676 183.087 60.0327 180.83 61.8562 179.07C63.6797 177.311 65.9805 176.127 68.4724 175.665C70.9642 175.204 73.5366 175.486 75.8691 176.477C78.2016 177.467 80.191 179.123 81.5894 181.237C82.9877 183.35 83.7331 185.828 83.7329 188.362C83.665 191.844 82.2199 195.156 79.7143 197.574C77.2086 199.992 73.8467 201.319 70.3649 201.264ZM70.3649 176.651C68.0683 176.74 65.8486 177.503 63.982 178.845C62.1155 180.185 60.6846 182.046 59.8672 184.194C59.05 186.342 58.8825 188.684 59.3855 190.926C59.8885 193.169 61.04 195.215 62.6965 196.808C64.353 198.401 66.4415 199.472 68.7021 199.888C70.9627 200.304 73.2955 200.045 75.4104 199.145C77.5253 198.245 79.3288 196.742 80.5965 194.826C81.8642 192.908 82.5402 190.66 82.5403 188.362C82.4737 185.197 81.1547 182.186 78.8725 179.99C76.5903 177.795 73.531 176.594 70.3649 176.651Z" fill="#2C2C2C"/>
<path d="M36.6942 201.043C36.663 200.886 36.5713 200.75 36.4389 200.662C36.3068 200.574 36.145 200.541 35.9892 200.573C35.8334 200.603 35.6962 200.696 35.6081 200.828C35.52 200.96 35.488 201.121 35.5192 201.278C35.5274 201.321 36.2148 204.856 36.5391 207.309C23.8714 190.788 33.0681 175.688 33.1645 175.535C33.2412 175.401 33.2634 175.243 33.2261 175.093C33.189 174.944 33.0954 174.814 32.9651 174.732C32.8346 174.65 32.6774 174.622 32.5266 174.652C32.3756 174.684 32.2424 174.772 32.1551 174.899C32.0529 175.059 22.4426 190.777 35.5133 207.933C34.0751 207.3 31.9601 206.238 30.093 205.23C30.0242 205.193 29.9486 205.17 29.8707 205.162C29.7928 205.154 29.7141 205.161 29.6391 205.183C29.564 205.206 29.4942 205.243 29.4335 205.293C29.3727 205.342 29.3223 205.403 29.2852 205.471C29.2479 205.541 29.2248 205.616 29.2168 205.694C29.2088 205.772 29.2162 205.851 29.2387 205.926C29.261 206.001 29.298 206.07 29.3475 206.132C29.3968 206.191 29.4578 206.242 29.5267 206.28C34.8905 209.18 36.5696 209.693 37.1959 209.693C37.3828 209.693 37.5621 209.619 37.6944 209.486C37.8266 209.355 37.9009 209.175 37.9009 208.988C37.6322 206.321 37.2294 203.669 36.6942 201.043Z" fill="#2C2C2C"/>
<path d="M92.3259 214.219C92.5609 214.209 98.1081 213.88 100.863 206.464C100.92 206.317 101.033 206.197 101.176 206.131C101.32 206.065 101.483 206.058 101.632 206.111C101.705 206.138 101.773 206.179 101.83 206.233C101.888 206.286 101.934 206.351 101.967 206.421C102 206.493 102.018 206.57 102.021 206.648C102.024 206.727 102.012 206.805 101.984 206.879C98.94 215.078 92.6396 215.404 92.3729 215.414C92.2944 215.417 92.2162 215.404 92.1425 215.377C92.0688 215.35 92.0011 215.309 91.9436 215.255C91.8859 215.202 91.8392 215.138 91.8063 215.067C91.7735 214.995 91.755 214.918 91.7519 214.839C91.7489 214.762 91.7612 214.683 91.7883 214.609C91.8156 214.536 91.857 214.468 91.9103 214.41C91.9635 214.353 92.0277 214.306 92.099 214.273C92.1703 214.24 92.2474 214.222 92.3259 214.219Z" fill="#C8705A"/>
<path d="M98.3841 216.464C98.6826 216.369 105.669 214.047 105.24 205.143C105.236 205.064 105.248 204.987 105.275 204.913C105.301 204.839 105.342 204.771 105.395 204.713C105.447 204.655 105.511 204.607 105.582 204.574C105.653 204.54 105.73 204.521 105.808 204.518C105.966 204.51 106.121 204.566 106.238 204.672C106.296 204.725 106.343 204.788 106.376 204.86C106.41 204.93 106.429 205.007 106.433 205.085C106.903 214.932 98.8236 217.578 98.7425 217.603C98.5923 217.647 98.4306 217.631 98.2923 217.558C98.154 217.484 98.0502 217.359 98.0032 217.21C97.9561 217.06 97.9697 216.899 98.041 216.759C98.1122 216.619 98.2355 216.513 98.3841 216.464Z" fill="#C8705A"/>
</svg>
