<svg width="283" height="283" viewBox="0 0 283 283" fill="none" xmlns="http://www.w3.org/2000/svg">
<path d="M90.1651 182.818C90.0261 182.818 89.8891 182.785 89.7662 182.72C89.6432 182.655 89.5381 182.56 89.46 182.445C89.3819 182.331 89.3332 182.198 89.3182 182.061C89.3032 181.922 89.3224 181.782 89.3741 181.653C90.1401 179.748 91.114 177.934 92.2776 176.244C92.4114 176.061 92.612 175.941 92.8352 175.907C93.0583 175.873 93.2858 175.928 93.4677 176.062C93.6495 176.197 93.7708 176.396 93.8047 176.62C93.8387 176.843 93.7825 177.07 93.6488 177.252C92.5761 178.827 91.6747 180.513 90.9603 182.28C90.8975 182.44 90.7879 182.576 90.646 182.672C90.5041 182.768 90.3364 182.819 90.1651 182.818Z" fill="#B7D7C8"/>
<path d="M96.7166 186.564C96.567 186.566 96.4198 186.527 96.2898 186.453C96.1599 186.379 96.0518 186.271 95.9767 186.143C95.9014 186.014 95.8616 185.867 95.8613 185.717C95.861 185.567 95.9003 185.421 95.9751 185.291C97.2913 183.041 98.9715 181.025 100.947 179.325C101.033 179.254 101.133 179.201 101.239 179.168C101.346 179.134 101.458 179.123 101.569 179.134C101.681 179.144 101.788 179.177 101.887 179.229C101.986 179.281 102.073 179.352 102.144 179.438C102.216 179.525 102.269 179.624 102.302 179.73C102.335 179.837 102.346 179.949 102.336 180.061C102.325 180.171 102.293 180.279 102.241 180.378C102.189 180.477 102.117 180.565 102.031 180.635C100.221 182.205 98.677 184.057 97.4594 186.12C97.3868 186.254 97.2796 186.366 97.1488 186.444C97.0181 186.522 96.8688 186.564 96.7166 186.564Z" fill="#B7D7C8"/>
<path d="M98.9437 173.139C98.7944 173.139 98.6475 173.101 98.5181 173.027C98.3885 172.952 98.2809 172.845 98.2059 172.716C98.1311 172.587 98.0915 172.44 98.0913 172.291C98.0912 172.141 98.1305 171.994 98.2051 171.866C99.4392 169.825 100.983 167.99 102.781 166.423C102.952 166.276 103.174 166.203 103.399 166.22C103.624 166.235 103.833 166.341 103.98 166.513C104.128 166.682 104.201 166.905 104.185 167.13C104.168 167.355 104.063 167.564 103.892 167.711C102.245 169.154 100.826 170.838 99.6837 172.706C99.6099 172.838 99.5025 172.947 99.3724 173.023C99.2424 173.099 99.0944 173.139 98.9437 173.139Z" fill="#B7D7C8"/>
<path d="M105.498 187.009C105.343 187.01 105.191 186.968 105.058 186.888C104.925 186.81 104.817 186.696 104.744 186.559C104.671 186.423 104.637 186.268 104.645 186.114C104.653 185.96 104.703 185.81 104.79 185.683C106.499 183.364 108.929 181.675 111.698 180.883C111.916 180.824 112.149 180.853 112.345 180.965C112.541 181.078 112.684 181.264 112.743 181.482C112.803 181.698 112.773 181.932 112.661 182.127C112.549 182.323 112.363 182.466 112.146 182.526C109.775 183.218 107.69 184.657 106.203 186.629C106.125 186.745 106.021 186.842 105.898 186.907C105.775 186.973 105.637 187.009 105.498 187.009Z" fill="#B7D7C8"/>
<path d="M90.4184 170.718C90.2821 170.719 90.1479 170.687 90.0266 170.624C89.9053 170.562 89.8008 170.472 89.7219 170.361C89.643 170.249 89.5919 170.122 89.5729 169.986C89.554 169.852 89.5678 169.715 89.6133 169.586C90.6912 167.11 92.3766 164.947 94.5134 163.296C94.5987 163.224 94.6974 163.169 94.8038 163.135C94.9102 163.101 95.0224 163.088 95.1337 163.098C95.2451 163.106 95.3535 163.138 95.4528 163.189C95.5522 163.241 95.6405 163.31 95.7126 163.397C95.7848 163.481 95.8396 163.581 95.8735 163.687C95.9076 163.793 95.9203 163.905 95.9111 164.016C95.9018 164.128 95.8708 164.236 95.8196 164.335C95.7684 164.435 95.6982 164.523 95.6129 164.595C93.7236 166.061 92.2183 167.964 91.2264 170.14C91.1693 170.309 91.0607 170.456 90.9156 170.559C90.7706 170.663 90.5967 170.719 90.4184 170.718Z" fill="#B7D7C8"/>
<path d="M70.2617 215.787C68.5156 202.91 61.9486 189.499 48.823 190.946C31.5813 192.851 29.9073 217.447 29.8917 217.69L29.5762 223.633C23.3375 218.839 16.6403 217.814 13.4169 224.967C7.43851 238.237 24.0407 256.696 27.6122 260.446L27.4282 263.895C27.4193 264.057 27.4564 264.217 27.5351 264.357C27.6137 264.497 27.7308 264.613 27.8725 264.689C45.0762 270.247 63.7567 268.991 80.062 261.181C80.2224 261.094 80.3491 260.956 80.4217 260.788C80.4943 260.621 80.5086 260.434 80.4624 260.257C80.4624 260.257 70.2843 215.829 70.2617 215.787ZM49.0098 192.632C60.9397 191.31 66.6648 203.732 68.4873 215.442C64.3965 216.186 46.0907 219.225 31.6619 217.012C32.0892 212.957 34.8372 194.197 49.0098 192.632ZM14.9692 225.662C15.3042 224.69 15.8725 223.814 16.6241 223.112C17.3756 222.41 18.2878 221.902 19.2807 221.635C23.5257 220.751 28.7244 225.092 29.4687 225.738L27.7339 258.056C22.9314 252.698 9.96853 236.76 14.9692 225.662Z" fill="#2D6A4F"/>
<path d="M94.8473 200.844C91.8534 200.533 88.963 199.577 86.3757 198.039C86.2715 197.979 86.1561 197.942 86.0366 197.93C85.9172 197.917 85.7965 197.93 85.6823 197.966C85.1758 198.133 85.146 198.143 74.3142 223.541C74.1472 223.934 74.1727 223.586 80.5317 251.927C80.5722 252.114 80.6744 252.281 80.8218 252.403C80.9691 252.525 81.153 252.592 81.3439 252.597C81.5348 252.6 81.7215 252.54 81.8737 252.424C82.026 252.309 82.1349 252.147 82.183 251.961L95.6255 201.914C95.6586 201.791 95.6639 201.664 95.6409 201.538C95.6179 201.413 95.5672 201.296 95.4925 201.193C95.4178 201.091 95.3212 201.006 95.2095 200.945C95.0979 200.886 94.9741 200.85 94.8473 200.844Z" fill="#2D6A4F"/>
<path d="M103.775 192.581L84.5985 186.567C84.4696 186.526 84.3328 186.516 84.1995 186.54C84.0661 186.563 83.9401 186.617 83.832 186.697C83.7239 186.779 83.6368 186.886 83.5779 187.007C83.519 187.129 83.49 187.262 83.4934 187.398C83.6008 190.538 84.6774 193.566 86.5753 196.069C88.2478 197.983 91.2108 199.681 96.2058 199.323C100.51 199.015 104.036 194.111 104.186 193.922C104.273 193.815 104.331 193.687 104.357 193.552C104.383 193.416 104.376 193.276 104.335 193.143C104.294 193.011 104.222 192.891 104.125 192.792C104.027 192.694 103.907 192.622 103.775 192.581Z" fill="#2C2C2C"/>
<path d="M106.885 176.6C106.761 176.536 106.655 176.443 106.576 176.328C106.497 176.215 106.447 176.082 106.431 175.945C106.415 175.806 106.433 175.666 106.483 175.537C106.534 175.407 106.615 175.292 106.721 175.202C108.281 173.867 109.983 172.709 111.796 171.746C111.897 171.697 112.006 171.669 112.117 171.661C112.229 171.654 112.341 171.669 112.446 171.705C112.552 171.741 112.65 171.797 112.734 171.872C112.818 171.946 112.886 172.035 112.935 172.135C112.985 172.236 113.014 172.345 113.021 172.457C113.028 172.568 113.013 172.68 112.977 172.785C112.941 172.891 112.884 172.989 112.81 173.072C112.736 173.157 112.647 173.225 112.546 173.275C110.865 174.174 109.285 175.251 107.834 176.488C107.705 176.6 107.546 176.671 107.377 176.69C107.207 176.71 107.036 176.679 106.885 176.6Z" fill="#B7D7C8"/>
<path d="M67.4106 213.189C67.3398 211.696 58.9644 210.41 49.9495 210.835C40.9345 211.259 32.6709 213.523 32.7417 215.019C32.8704 217.825 67.5521 216.156 67.4106 213.189Z" fill="#2C2C2C"/>
<path d="M246.324 23.2979C246.15 23.2995 245.981 23.2478 245.838 23.15C245.695 23.0523 245.584 22.9129 245.524 22.7507C245.461 22.5886 245.451 22.4114 245.492 22.243C245.535 22.0748 245.628 21.9234 245.758 21.8093C248.461 19.6203 251.782 18.3335 255.253 18.1303C255.365 18.1251 255.477 18.1419 255.581 18.1799C255.686 18.2176 255.782 18.2758 255.866 18.3509C255.948 18.4262 256.014 18.5168 256.063 18.6178C256.109 18.7188 256.136 18.8282 256.142 18.9397C256.147 19.0512 256.13 19.1626 256.092 19.2676C256.054 19.3726 255.996 19.4692 255.921 19.5517C255.846 19.6342 255.755 19.7011 255.655 19.7485C255.553 19.7961 255.444 19.8231 255.332 19.8283C252.251 20.0274 249.302 21.163 246.882 23.0828C246.728 23.2197 246.53 23.2962 246.324 23.2979Z" fill="#2D6A4F"/>
<path d="M248.979 30.1111C248.78 30.1134 248.586 30.0452 248.43 29.9184C248.276 29.7916 248.171 29.6144 248.134 29.418C248.098 29.2216 248.131 29.0184 248.231 28.8445C248.328 28.6705 248.485 28.5368 248.672 28.4669C251.878 27.31 255.342 27.0684 258.677 27.7693C258.897 27.8256 259.084 27.9664 259.198 28.1608C259.313 28.3551 259.345 28.5871 259.29 28.8058C259.234 29.0244 259.092 29.2116 258.898 29.3265C258.703 29.4412 258.472 29.4741 258.253 29.4177C253.623 28.232 249.481 30.1111 248.979 30.1111Z" fill="#2D6A4F"/>
<path d="M233.929 72.1847C230.482 72.1847 227.314 68.9769 225.749 66.0804C225.641 65.8822 225.617 65.6492 225.682 65.433C225.746 65.217 225.893 65.0353 226.093 64.9279C226.291 64.8206 226.523 64.7964 226.739 64.8608C226.956 64.9252 227.137 65.0728 227.245 65.271C227.269 65.3135 229.65 69.6405 232.981 70.3763C233.898 70.5173 234.835 70.424 235.706 70.1054C236.576 69.7867 237.352 69.253 237.962 68.5538C236.247 66.686 235.368 64.3866 235.869 62.8301C236.728 60.1685 238.746 60.4246 238.593 60.4246C241.346 60.4246 243.33 64.6003 240.364 68.459C242.323 69.9617 246.218 71.705 251.983 68.6359C252.183 68.5299 252.416 68.5074 252.631 68.5733C252.848 68.6393 253.029 68.7883 253.135 68.9875C253.24 69.1867 253.262 69.4201 253.197 69.6359C253.131 69.8518 252.982 70.0326 252.783 70.1386C245.873 73.8176 241.134 71.2268 239.213 69.7141C237.836 71.1881 235.943 72.0732 233.929 72.1847ZM237.489 63.3523C237.461 64.0871 237.59 64.8193 237.87 65.4993C238.15 66.1792 238.574 66.7906 239.112 67.2916C241.781 63.6508 238.487 60.2506 237.489 63.3523Z" fill="#C8705A"/>
<path d="M155.636 20.7168C155.439 20.717 155.248 20.6485 155.095 20.523C152.145 17.9538 148.651 16.086 144.876 15.0597C144.654 15.0175 144.459 14.8889 144.331 14.7024C144.205 14.5159 144.157 14.2865 144.2 14.0649C144.242 13.8433 144.371 13.6476 144.558 13.5207C144.743 13.3939 144.972 13.3463 145.194 13.3886C149.258 14.4482 153.018 16.441 156.176 19.2084C156.313 19.3192 156.411 19.4698 156.459 19.6393C156.506 19.8087 156.5 19.9887 156.441 20.1542C156.381 20.3199 156.272 20.463 156.128 20.5637C155.984 20.6645 155.811 20.7181 155.636 20.7168Z" fill="#2D6A4F"/>
<path d="M149.052 24.1608C148.907 24.1609 148.766 24.1244 148.64 24.0547C145.39 22.0816 141.813 20.7089 138.077 20.0021C137.852 19.9795 137.645 19.8681 137.502 19.6929C137.359 19.5176 137.291 19.2926 137.314 19.0675C137.336 18.8424 137.447 18.6353 137.623 18.4923C137.798 18.3491 138.023 18.2815 138.248 18.3041C138.422 18.3211 142.619 18.7753 149.465 22.5618C149.633 22.6513 149.768 22.7949 149.844 22.9695C149.921 23.1441 149.938 23.3395 149.889 23.5243C149.841 23.7091 149.732 23.8724 149.581 23.9879C149.43 24.1033 149.243 24.1643 149.052 24.1608Z" fill="#2D6A4F"/>
<path d="M262.103 264.286H270.016L254.822 89.4036L249.258 89.3187V87.0547C244.646 82.681 237.925 86.118 237.925 86.118L232.831 152.443H151.504L145.985 87.0547L140.651 86.6812L140.923 83.4139C135.829 79.7731 129.999 82.8182 129.999 82.8182L115.279 270.689L127.36 271.387L130.133 233.511L151.896 233.902L153.989 261.909H161.101L158.651 234.034L226.406 235.293L223.24 274.682L234.437 275.006L237.635 235.768L254.158 226.785L253.681 219.4L238.965 218.992L242.913 168.729L248.801 165.7L248.018 152.718L244.24 152.631L247.844 119.709L262.103 264.286ZM137.91 126.854L141.244 154.895L135.527 157.89L137.91 126.854ZM130.967 225.934L134.609 169.154H142.656L147.081 219.639L130.967 225.934ZM227.58 219.213L157.052 218.364L153.002 169.36L231.393 170.278L227.58 219.213Z" fill="#FDF6EE"/>
<path d="M255.69 89.3697C255.672 89.1555 255.574 88.9555 255.419 88.8081C255.262 88.6606 255.057 88.576 254.841 88.5702H250.145C250.274 86.9868 250.452 86.5199 249.94 86.1364C248.167 84.8707 246.077 84.1251 243.902 83.9839C241.729 83.8426 239.559 84.3112 237.638 85.3369C237.518 85.4094 237.414 85.5083 237.338 85.6262C237.261 85.7442 237.213 85.878 237.196 86.0176L232.074 151.773H152.325L146.692 86.8C146.676 86.5976 146.588 86.4074 146.445 86.2638C146.302 86.1203 146.111 86.0328 145.909 86.0176L141.381 85.6935L141.551 83.2102C141.559 83.0425 141.518 82.8761 141.434 82.7311C141.349 82.5862 141.224 82.469 141.074 82.3937C133.485 78.5647 129.588 82.0697 129.419 82.2225C129.022 82.5749 128.461 82.1631 114.326 270.768C114.317 270.882 114.33 270.996 114.365 271.104C114.4 271.211 114.457 271.312 114.531 271.398C114.606 271.483 114.697 271.554 114.799 271.603C114.901 271.653 115.012 271.683 115.126 271.688L127.343 272.437C127.557 272.437 127.763 272.357 127.921 272.212C128.078 272.067 128.175 271.868 128.192 271.654L130.831 234.324L146.042 234.607L148.165 262.07C148.177 262.286 148.271 262.489 148.425 262.639C148.579 262.791 148.784 262.878 148.999 262.887H161.079C161.195 262.891 161.31 262.871 161.417 262.827C161.525 262.785 161.623 262.719 161.703 262.635C161.783 262.552 161.845 262.452 161.883 262.344C161.923 262.235 161.938 262.119 161.928 262.003L159.562 234.863L225.548 236.105L222.553 274.678C222.544 274.796 222.56 274.913 222.598 275.023C222.636 275.135 222.697 275.237 222.775 275.325C223.117 275.705 222.547 275.749 234.345 275.92C234.565 275.928 234.778 275.85 234.942 275.705C235.108 275.56 235.21 275.357 235.23 275.138L238.361 236.343L253.197 228.176L256.438 264.605C256.457 264.82 256.558 265.021 256.719 265.165C256.879 265.311 257.088 265.39 257.305 265.389C271.134 265.324 270.312 265.389 270.646 264.98C271.053 264.575 273.392 264.68 255.69 89.3697ZM239.627 220.257L250.294 220.413L239.135 226.513L239.627 220.257ZM244.341 160.977L247.103 159.527L247.632 165.396L243.848 167.391L244.341 160.977ZM244.936 153.677L246.588 153.694L246.94 157.696L244.512 158.986L244.936 153.677ZM245.719 143.914L246.434 151.996H245.078L245.719 143.914ZM243.677 169.525C243.677 169.384 243.22 169.667 247.795 167.246L252.372 218.733L239.765 218.563L243.677 169.525ZM231.933 153.481L231.252 162.498L135.981 161.6L136.202 158.638L146.837 153.466L231.933 153.481ZM230.724 169.372L135.524 168.181L135.865 163.315L231.133 164.199L230.724 169.372ZM226.233 227.293L134.949 225.474L151.59 218.992L226.798 220.063L226.233 227.293ZM138.104 132.009L139.873 154.896L136.351 156.664L138.104 132.009ZM135.415 169.869L141.03 169.937L144.893 219.775L131.494 224.985L135.415 169.869ZM147.443 170.011L152.241 170.078L156.359 217.364L151.766 217.296L147.443 170.011ZM158.055 217.397L153.938 170.095L230.591 171.065L226.933 218.368L158.055 217.397ZM145.056 87.6731L150.62 151.617C145.901 151.597 146.635 151.491 145.77 151.923L140.651 95.9721L141.262 87.3788L145.056 87.6731ZM130.814 83.2866C132.129 82.5181 133.655 82.191 135.169 82.3527L121.265 270.361L116.078 270.037L130.814 83.2866ZM126.56 270.689L122.966 270.468L136.855 82.6145C137.868 82.8693 138.853 83.2229 139.798 83.6701L126.56 270.689ZM160.165 261.22H155.791L153.358 234.76L157.867 234.844L160.165 261.22ZM130.967 232.626L131.359 227.107L226.1 228.978L225.675 234.406L130.967 232.626ZM238.86 86.6175C240.203 85.9331 241.693 85.5928 243.2 85.627L228.343 274.037L224.327 273.935L238.86 86.6175ZM233.604 274.193L230.066 274.091L244.901 85.7968C246.19 86.0618 247.423 86.5513 248.542 87.2429L233.604 274.193ZM238.487 234.344L238.979 228.371C238.996 228.388 252.575 221.106 252.575 221.106L253.035 226.329L238.487 234.344ZM264.077 263.634L248.798 105.417L250.006 90.2767H254.056L269.098 263.577L264.077 263.634Z" fill="#2C2C2C"/>
<path d="M201.303 84.3193C199.396 84.3193 197.532 84.8849 195.946 85.9443C194.361 87.0039 193.125 88.5099 192.396 90.2717C191.666 92.0336 191.475 93.9723 191.847 95.8427C192.219 97.713 193.137 99.4311 194.486 100.779C195.834 102.128 197.552 103.046 199.423 103.418C201.293 103.79 203.232 103.599 204.994 102.869C206.755 102.139 208.261 100.903 209.321 99.3168C210.381 97.731 210.945 95.8667 210.945 93.9597C210.945 92.6936 210.696 91.4399 210.211 90.2701C209.727 89.1005 209.017 88.0377 208.121 87.1424C207.225 86.2473 206.163 85.5371 204.992 85.0527C203.824 84.5684 202.57 84.3192 201.303 84.3193Z" fill="#2D6A4F"/>
<path d="M205.557 130.997C205.557 130.997 218.307 134.621 230.178 130.269L227.69 157.261C224.766 158.733 221.525 159.464 218.252 159.391C214.978 159.317 211.774 158.44 208.919 156.837L205.557 130.997Z" fill="#B7D7C8"/>
<path d="M205.557 130.887C205.557 130.887 219.107 134.91 229.81 130.441C229.81 130.434 219.06 117.425 205.557 130.887Z" fill="#FDF6EE"/>
<path d="M224.572 125.369C222.994 124.765 221.338 124.387 219.655 124.245C219.689 123.255 219.756 120.638 219.773 116.843C224.266 113.525 226.141 106.804 226.223 106.514C226.273 106.337 226.264 106.15 226.198 105.979C226.132 105.808 226.014 105.663 225.858 105.565C225.702 105.467 225.521 105.423 225.337 105.437C225.155 105.452 224.982 105.525 224.845 105.646C222.751 107.444 221.021 109.627 219.751 112.077C219.717 109.61 219.666 106.853 219.564 103.87C219.087 90.8878 211.668 90.5312 211.357 90.5312H211.323C210.579 88.4703 209.213 86.6908 207.415 85.4382C205.618 84.1855 203.475 83.5213 201.284 83.5369C199.187 83.5921 197.155 84.2847 195.461 85.5227C193.767 86.7607 192.489 88.4851 191.8 90.4669C191.11 92.4484 191.04 94.5931 191.599 96.6155C192.158 98.6379 193.32 100.442 194.93 101.788C196.541 103.134 198.522 103.957 200.612 104.149C202.7 104.341 204.799 103.892 206.627 102.862C208.455 101.832 209.925 100.269 210.843 98.3824C211.762 96.4956 212.083 94.3741 211.766 92.3C213.195 92.607 217.5 94.3249 217.85 103.921C217.903 105.469 217.954 106.951 217.971 108.363C216.54 106.152 214.378 104.514 211.862 103.735C211.705 103.703 211.542 103.717 211.392 103.774C211.242 103.831 211.112 103.929 211.016 104.057C210.92 104.186 210.862 104.338 210.849 104.498C210.836 104.658 210.869 104.818 210.942 104.96C212.444 107.933 214.962 110.269 218.039 111.544C218.124 118.129 217.988 122.741 217.937 124.137C208.187 124.137 204.834 130.654 204.834 130.721C204.834 131.016 206.564 144.569 208.135 156.994C208.155 157.13 208.207 157.26 208.288 157.372C208.367 157.485 208.473 157.577 208.595 157.64C211.585 159.227 214.904 160.09 218.288 160.161C221.671 160.231 225.023 159.507 228.077 158.048C228.18 157.983 228.266 157.897 228.331 157.793C228.396 157.69 228.437 157.574 228.452 157.454C228.537 156.875 230.595 132.712 230.697 131.351C230.728 130.563 231.211 128.034 224.572 125.369ZM201.295 102.488C199.603 102.431 197.964 101.876 196.584 100.894C195.206 99.9121 194.146 98.5455 193.538 96.965C192.931 95.3844 192.801 93.6598 193.167 92.0064C193.534 90.3531 194.378 88.844 195.595 87.6676C196.814 86.4911 198.352 85.6994 200.016 85.3911C201.681 85.0826 203.4 85.2714 204.958 85.9338C206.518 86.596 207.846 87.7025 208.78 89.1152C209.714 90.528 210.211 92.1844 210.209 93.8777C210.167 96.2009 209.203 98.4121 207.532 100.026C205.861 101.641 203.618 102.526 201.295 102.488ZM223.993 126.967C225.932 127.537 227.671 128.64 229.013 130.15C227.073 130.557 217.354 133.121 206.996 130.54C211.742 125.118 218.821 125.101 223.994 126.973L223.993 126.967ZM226.853 156.813C225.337 157.629 218.821 160.572 209.769 156.319L206.689 132.197C214.046 133.729 221.647 133.632 228.962 131.914C228.74 134.816 226.938 156.155 226.853 156.818V156.813Z" fill="#2C2C2C"/>
<path d="M201.231 101.282C199.743 101.279 198.288 100.834 197.053 100.004C195.816 99.1745 194.854 97.9971 194.286 96.6206C193.72 95.2442 193.573 93.7306 193.866 92.2709C194.159 90.8113 194.878 89.4712 195.932 88.42C196.986 87.3686 198.328 86.6533 199.788 86.3644C201.248 86.0754 202.762 86.2259 204.136 86.7967C205.512 87.3673 206.686 88.3328 207.513 89.5709C208.34 90.8092 208.78 92.2645 208.78 93.7532C208.776 95.7522 207.978 97.6677 206.563 99.0793C205.148 100.491 203.231 101.283 201.231 101.282ZM201.231 87.9234C200.08 87.9271 198.955 88.272 197.998 88.9145C197.043 89.5571 196.299 90.4686 195.86 91.5338C195.421 92.599 195.308 93.7702 195.536 94.8997C195.762 96.029 196.318 97.0658 197.135 97.8791C197.95 98.6924 198.989 99.2458 200.119 99.4694C201.248 99.693 202.42 99.5767 203.484 99.1352C204.547 98.6937 205.457 97.9469 206.096 96.9891C206.736 96.0311 207.078 94.9052 207.078 93.7532C207.074 92.2054 206.457 90.722 205.36 89.6291C204.264 88.5361 202.779 87.9227 201.231 87.9234Z" fill="#2C2C2C"/>
<path d="M143.547 51.8267C141.78 51.8269 140.052 52.3513 138.582 53.3335C137.113 54.3158 135.968 55.7117 135.291 57.3447C134.615 58.9778 134.438 60.7747 134.783 62.5082C135.128 64.2417 135.98 65.834 137.23 67.0839C138.48 68.3336 140.072 69.1846 141.805 69.5293C143.539 69.8741 145.336 69.697 146.969 69.0205C148.602 68.3441 149.998 67.1985 150.98 65.7289C151.962 64.2593 152.486 62.5314 152.486 60.7638C152.486 59.5901 152.255 58.4276 151.805 57.3432C151.357 56.2587 150.699 55.2733 149.868 54.4434C149.037 53.6135 148.053 52.9551 146.969 52.5061C145.883 52.0572 144.722 51.8264 143.547 51.8267Z" fill="#2D6A4F"/>
<path d="M204.288 38.8936C202.706 38.8933 201.159 39.3622 199.843 40.2411C198.527 41.1199 197.501 42.3691 196.896 43.8308C196.292 45.2925 196.132 46.9009 196.442 48.4527C196.75 50.0046 197.511 51.4299 198.631 52.5487C199.748 53.6674 201.175 54.4293 202.726 54.7379C204.278 55.0465 205.887 54.888 207.348 54.2824C208.81 53.6768 210.06 52.6513 210.938 51.3356C211.817 50.02 212.285 48.4732 212.285 46.8911C212.285 44.7702 211.442 42.7361 209.942 41.2364C208.442 39.7366 206.409 38.894 204.288 38.8936Z" fill="#2D6A4F"/>
<path d="M154.801 108.604C168.893 110.688 183.249 110.146 197.143 107.005L193.12 155.886C193.12 155.886 177.524 164.284 161.082 155.32L154.801 108.604Z" fill="#B7D7C8"/>
<path d="M154.801 108.604C168.56 110.856 182.632 110.312 196.177 107.005C196.177 107.005 189.307 99.3185 174.491 100.135C167.137 100.56 160.166 103.558 154.801 108.604Z" fill="#FDF6EE"/>
<path d="M248.049 39.5717C248.171 39.5023 248.274 39.4036 248.349 39.2844C248.424 39.1654 248.468 39.0296 248.477 38.8894C248.487 38.7491 248.461 38.6088 248.403 38.4808C248.344 38.3529 248.255 38.2416 248.143 38.1567C247.966 38.0152 230.353 24.5429 223.564 15.5407C223.488 15.4361 223.387 15.3511 223.271 15.2921C223.155 15.2331 223.028 15.202 222.898 15.2011C222.006 15.2011 222.52 15.6044 215.526 23.4081C207.517 20.3913 197.688 20.6715 190.047 25.832C191.178 19.776 190.554 13.5228 188.25 7.80917C188.225 7.62037 188.137 7.4455 188.001 7.3127C187.864 7.17989 187.687 7.09685 187.497 7.07692C187.308 7.057 187.117 7.10136 186.957 7.20286C186.795 7.30436 186.672 7.45711 186.609 7.63654C182.041 20.3149 186.718 25.9339 188.117 27.2583C182.054 32.2391 177.737 40.3457 175.253 51.4548C174.996 52.6066 174.788 53.7004 174.563 54.814C172.819 49.546 167.994 39.8787 156.192 40.8763C147.778 41.5838 145.144 48.9192 144.511 51.2765C142.598 51.1382 140.688 51.5791 139.029 52.542C137.371 53.5049 136.041 54.9452 135.212 56.675C134.384 58.4049 134.096 60.344 134.386 62.24C134.676 64.1358 135.53 65.9003 136.837 67.3037C138.145 68.7069 139.844 69.684 141.715 70.1074C143.586 70.5307 145.54 70.3807 147.324 69.6771C149.108 68.9734 150.639 67.7486 151.718 66.1623C152.794 64.576 153.37 62.7018 153.367 60.7839C153.345 58.6756 152.63 56.633 151.333 54.971C150.035 53.3089 148.228 52.1196 146.188 51.5864C146.754 49.4328 149.026 43.1827 156.335 42.5672C158.708 42.3303 161.102 42.6586 163.323 43.5252C161.342 44.6359 158.229 47.2636 156.851 53.1924C156.814 53.3471 156.823 53.509 156.874 53.6595C156.925 53.8101 157.017 53.9432 157.14 54.044C157.263 54.1446 157.412 54.2088 157.569 54.2291C157.727 54.2495 157.887 54.2251 158.031 54.1589C161.75 52.2056 164.543 48.8582 165.798 44.8496C172.375 49.2828 173.71 58.3586 173.837 58.6077C169.677 82.1094 172.726 96.1051 173.586 99.3342C166.415 100.111 159.67 103.126 154.308 107.952C154.216 108.05 154.149 108.168 154.112 108.298C154.011 108.454 153.967 108.64 153.986 108.825L160.271 155.432C160.288 155.559 160.334 155.681 160.404 155.788C160.475 155.895 160.568 155.985 160.679 156.05C165.88 158.801 171.687 160.206 177.571 160.135C183.041 160.116 188.448 158.964 193.452 156.752C193.592 156.691 193.713 156.594 193.804 156.469C193.893 156.345 193.947 156.197 193.96 156.045L197.941 107.033C197.95 106.892 197.922 106.75 197.861 106.623C197.798 106.495 197.707 106.385 197.59 106.303C189.341 100.618 181.759 98.9451 175.32 99.2139C173.872 93.0141 173.243 86.6515 173.446 80.2883C177.291 79.6184 180.913 78.0147 183.994 75.6181C187.074 73.2215 189.519 70.1052 191.114 66.543C192.846 63.2316 195.416 60.4306 198.564 58.418C198.718 58.3279 198.841 58.1914 198.914 58.0276C198.986 57.8639 199.004 57.6817 198.966 57.5066C198.929 57.3317 198.837 57.1731 198.704 57.0534C198.571 56.9337 198.404 56.8591 198.226 56.8403C187.534 55.6178 180.76 65.3572 177.683 71.2648C176.487 73.494 175.089 75.608 173.506 77.58C173.816 69.3754 174.857 61.2148 176.619 53.1953C178.962 47.8947 182.183 44.4081 186.198 42.8474C189.512 41.6476 193.14 41.632 196.464 42.8035C195.846 43.9814 195.503 45.2844 195.464 46.614C195.423 47.9435 195.686 49.2648 196.231 50.4781C196.777 51.6913 197.59 52.7644 198.612 53.6167C199.634 54.4688 200.835 55.0774 202.127 55.3967C203.419 55.716 204.766 55.7373 206.066 55.4593C207.367 55.1812 208.588 54.6111 209.635 53.7918C210.683 52.9727 211.531 51.9259 212.115 50.7306C212.7 49.5354 213.004 48.2231 213.005 46.8929C212.991 45.0893 212.424 43.3334 211.378 41.8637C210.333 40.3938 208.861 39.2809 207.162 38.676C205.462 38.0711 203.618 38.0034 201.879 38.482C200.14 38.9607 198.591 39.9625 197.44 41.3517C193.661 39.7542 189.403 39.7185 185.598 41.2527C182.524 42.3738 179.893 44.4582 178.099 47.1957C181.242 36.5832 186.375 29.3978 193.398 25.8037C202.012 21.396 211.135 23.7421 214.268 24.7821C212.771 26.4632 211.159 28.0377 209.443 29.494C209.276 29.6252 209.164 29.8141 209.128 30.0237C209.094 30.2332 209.14 30.4482 209.256 30.626C228.051 59.8543 226.824 59.8797 227.863 59.9731C227.999 59.9856 228.135 59.9652 228.262 59.9137C228.388 59.8622 228.5 59.7813 228.587 59.6774C228.736 59.5019 243.479 42.1838 248.049 39.5717ZM151.667 60.7811C151.72 62.398 151.29 63.9941 150.43 65.3648C149.571 66.7356 148.322 67.8183 146.843 68.4743C145.364 69.1303 143.723 69.3298 142.13 69.0471C140.537 68.7644 139.065 68.0125 137.902 66.8875C136.739 65.7626 135.939 64.316 135.603 62.7334C135.268 61.1507 135.413 59.5039 136.02 58.0042C136.626 56.5044 137.667 55.2199 139.009 54.3155C140.35 53.4111 141.931 52.9278 143.549 52.9278C145.666 52.896 147.709 53.7048 149.23 55.1768C150.753 56.649 151.628 58.6643 151.667 60.7811ZM192.305 155.392C187.489 157.475 182.282 158.498 177.036 158.392C171.789 158.286 166.627 157.053 161.9 154.778L155.827 109.74C173.313 112.513 191.505 109.136 196.17 108.158L192.305 155.392ZM195.031 106.655C189.538 107.758 172.849 110.592 156.653 108.144C159.789 105.581 163.369 103.614 167.215 102.342C176.414 99.3243 185.762 100.782 195.031 106.655ZM204.199 39.8674C205.587 39.882 206.939 40.3068 208.086 41.0883C209.232 41.8699 210.122 42.9733 210.644 44.2597C211.165 45.5459 211.293 46.9577 211.013 48.3171C210.733 49.6763 210.058 50.9225 209.072 51.8987C208.084 52.8748 206.832 53.5371 205.469 53.8025C204.107 54.0678 202.697 53.924 201.417 53.3894C200.135 52.8548 199.041 51.9533 198.273 50.7983C197.503 49.6432 197.092 48.2864 197.092 46.8985C197.102 45.0231 197.857 43.2283 199.188 41.9085C200.521 40.5888 202.324 39.8521 204.199 39.8603V39.8674ZM244.752 39.6169C240.113 43.5223 232.789 51.9614 229.27 56.021C229.155 56.1543 229.009 56.2582 228.846 56.3241C228.682 56.3901 228.507 56.4161 228.331 56.4001C228.156 56.384 227.986 56.3264 227.838 56.2319C227.689 56.1375 227.566 56.0089 227.477 55.8569C222.279 47.0839 214.505 35.2573 211.862 31.1298C211.724 30.9114 211.667 30.6505 211.702 30.3941C211.739 30.1379 211.866 29.9028 212.06 29.7318C215.591 26.3174 218.916 22.6971 222.019 18.89C222.122 18.7642 222.251 18.6629 222.398 18.5933C222.545 18.5237 222.705 18.4875 222.868 18.4875C223.031 18.4875 223.191 18.5237 223.338 18.5933C223.485 18.6629 223.614 18.7642 223.717 18.89C229.792 26.0542 240.229 34.3772 244.72 37.9147C244.847 38.0149 244.952 38.1422 245.024 38.2874C245.096 38.4327 245.136 38.5923 245.139 38.7545C245.142 38.9168 245.109 39.0778 245.043 39.2257C244.975 39.3737 244.877 39.5049 244.752 39.6099V39.6169Z" fill="#2C2C2C"/>
<path d="M221.957 20.7831C219.281 23.9773 216.424 27.0156 213.402 29.8829C213.233 30.0288 213.126 30.2319 213.1 30.4527C213.073 30.6735 213.131 30.8962 213.26 31.0772C215.905 34.7633 221.877 44.7022 227.781 53.5502C227.849 53.6785 227.946 53.7888 228.065 53.872C228.184 53.9552 228.321 54.0089 228.466 54.0289C228.609 54.0487 228.756 54.0341 228.893 53.9865C229.03 53.9386 229.153 53.859 229.254 53.754C231.87 50.8079 237.54 44.5904 242.62 39.4851C242.712 39.3938 242.783 39.2835 242.828 39.1618C242.873 39.0399 242.892 38.9099 242.88 38.7806C242.87 38.6512 242.831 38.5257 242.767 38.4131C242.702 38.3003 242.614 38.2031 242.508 38.1281C238.673 35.3675 230.481 27.7661 223.369 20.8142C223.284 20.7102 223.178 20.6257 223.058 20.5668C222.936 20.5078 222.804 20.4757 222.67 20.4729C222.535 20.4699 222.402 20.4961 222.279 20.5496C222.156 20.6032 222.046 20.6829 221.957 20.7831Z" fill="#2C2C2C"/>
<path d="M226.19 40.3174C228.682 40.3174 230.701 38.1952 230.701 35.5772C230.701 32.9591 228.682 30.8369 226.19 30.8369C223.699 30.8369 221.679 32.9591 221.679 35.5772C221.679 38.1952 223.699 40.3174 226.19 40.3174Z" fill="#FDF6EE"/>
<path d="M231.729 45.3138C232.695 45.3138 233.478 44.5307 233.478 43.5649C233.478 42.599 232.695 41.8159 231.729 41.8159C230.762 41.8159 229.98 42.599 229.98 43.5649C229.98 44.5307 230.762 45.3138 231.729 45.3138Z" fill="#FDF6EE"/>
<path d="M220.832 30.8382C221.798 30.8382 222.581 30.0552 222.581 29.0893C222.581 28.1234 221.798 27.3403 220.832 27.3403C219.866 27.3403 219.083 28.1234 219.083 29.0893C219.083 30.0552 219.866 30.8382 220.832 30.8382Z" fill="#FDF6EE"/>
<path d="M204.184 52.7863C203.032 52.7832 201.908 52.439 200.952 51.797C199.996 51.155 199.252 50.2441 198.813 49.1794C198.374 48.1146 198.261 46.9438 198.488 45.8148C198.715 44.6857 199.271 43.6491 200.086 42.8361C200.902 42.0229 201.94 41.4696 203.069 41.246C204.198 41.0226 205.369 41.1388 206.433 41.5802C207.497 42.0216 208.405 42.7683 209.045 43.7259C209.684 44.6836 210.025 45.8092 210.025 46.9608C210.021 48.5074 209.404 49.9893 208.309 51.0814C207.214 52.1736 205.731 52.7868 204.184 52.7863ZM204.184 42.8375C203.369 42.8406 202.573 43.0851 201.896 43.5403C201.22 43.9954 200.695 44.6407 200.385 45.3948C200.075 46.1488 199.996 46.9778 200.156 47.777C200.317 48.576 200.712 49.3095 201.289 49.8847C201.867 50.4601 202.602 50.8512 203.402 51.009C204.201 51.1667 205.03 51.0839 205.783 50.7711C206.536 50.4582 207.178 49.9293 207.631 49.2511C208.084 48.573 208.325 47.776 208.325 46.9608C208.322 45.8653 207.883 44.8159 207.108 44.0429C206.331 43.2699 205.28 42.8363 204.184 42.8375Z" fill="#2C2C2C"/>
<path d="M143.492 67.5801C142.178 67.5504 140.9 67.1331 139.821 66.3806C138.741 65.6282 137.908 64.574 137.425 63.3502C136.943 62.1264 136.832 60.7872 137.107 59.5007C137.382 58.2142 138.03 57.0373 138.971 56.1176C139.911 55.198 141.103 54.5762 142.396 54.3306C143.688 54.0848 145.023 54.2259 146.236 54.7363C147.449 55.2465 148.484 56.1033 149.212 57.1992C149.94 58.2951 150.328 59.5815 150.328 60.897C150.305 62.689 149.573 64.3987 148.292 65.6516C147.01 66.9043 145.284 67.5979 143.492 67.5801ZM143.492 55.9148C142.513 55.9445 141.565 56.262 140.766 56.8275C139.966 57.3929 139.351 58.1812 138.997 59.0942C138.643 60.0071 138.566 61.0041 138.775 61.9607C138.984 62.9174 139.471 63.7911 140.173 64.473C140.876 65.1548 141.765 65.6145 142.727 65.7948C143.689 65.9749 144.684 65.8675 145.585 65.486C146.486 65.1047 147.256 64.4659 147.798 63.6498C148.339 62.8337 148.627 61.8762 148.627 60.897C148.605 59.556 148.051 58.2787 147.089 57.3448C146.127 56.4109 144.834 55.8967 143.492 55.9148Z" fill="#2C2C2C"/>
<path d="M190.82 199.181C200.457 202.162 210.757 202.257 220.447 199.451L218.237 222.155C218.237 222.155 208.357 228.011 194.878 222.507L190.82 199.181Z" fill="#C8705A"/>
<path d="M190.82 199.181C190.82 199.181 207.109 204.486 220.001 199.498C220.001 199.498 208.571 181.714 190.82 199.181Z" fill="#FDF6EE"/>
<path d="M220.944 198.949C219.332 196.55 217.185 194.559 214.672 193.133C212.159 191.707 209.349 190.884 206.464 190.73C206.399 180.286 208.811 181.1 208.862 181.117C209.077 181.176 209.307 181.151 209.503 181.046C209.7 180.94 209.849 180.763 209.918 180.551C209.958 180.445 209.974 180.331 209.967 180.22C209.962 180.106 209.932 179.996 209.881 179.896C209.829 179.795 209.758 179.706 209.67 179.634C209.583 179.563 209.482 179.511 209.373 179.48C206.402 178.959 205.527 182.202 205.137 184.397C204.298 183.202 203.301 182.127 202.176 181.197C202.038 181.091 201.871 181.03 201.697 181.022C201.523 181.015 201.35 181.059 201.203 181.152C201.054 181.244 200.938 181.378 200.869 181.538C200.8 181.698 200.781 181.875 200.815 182.046C200.972 183.243 201.415 184.385 202.104 185.377C202.793 186.369 203.71 187.181 204.777 187.746C204.743 188.681 204.743 189.703 204.777 190.791C201.927 191.057 199.161 191.899 196.647 193.264C194.132 194.631 191.919 196.492 190.145 198.738C190.077 198.806 189.883 198.927 189.958 199.384C191.09 206.403 194.042 222.542 194.061 222.576C194.087 222.706 194.142 222.83 194.226 222.933C194.308 223.036 194.415 223.118 194.537 223.172C198.346 224.791 202.447 225.609 206.586 225.573C210.724 225.538 214.811 224.651 218.592 222.967C218.722 222.9 218.834 222.801 218.914 222.68C218.995 222.556 219.042 222.415 219.05 222.269C219.084 221.845 221.109 200.15 221.126 199.997C221.169 199.638 221.105 199.273 220.944 198.949ZM206.837 192.44C211.197 192.44 215.21 194.804 218.817 199.041C210.157 201.184 201.094 201.097 192.477 198.786C194.704 196.702 199.629 192.421 206.837 192.431V192.44ZM217.405 221.672C213.968 223.146 210.269 223.919 206.529 223.943C202.789 223.967 199.082 223.244 195.625 221.814C195.54 221.389 192.784 207.163 191.813 200.373C200.669 202.629 210.774 203.113 219.362 200.681C219.088 203.44 217.439 221.221 217.405 221.664V221.672Z" fill="#2C2C2C"/>
<path d="M159.844 194.986C159.844 194.986 171.277 184.307 184.684 194.187C184.684 194.181 171.888 201.145 159.844 194.986Z" fill="#FDF6EE"/>
<path d="M185.789 193.502C181.885 190.882 177.318 189.424 172.618 189.3C172.551 188.245 172.551 187.309 172.568 186.424C174.689 185.584 176.595 184.282 178.148 182.612C178.263 182.485 178.337 182.326 178.361 182.158C178.383 181.988 178.355 181.816 178.278 181.663C178.202 181.51 178.08 181.384 177.932 181.301C177.782 181.217 177.611 181.182 177.441 181.197C175.743 181.35 174.138 182.044 172.865 183.178C173.806 177.697 176.59 177.649 176.658 177.66C176.88 177.671 177.098 177.595 177.267 177.449C177.435 177.303 177.54 177.099 177.561 176.877C177.571 176.766 177.558 176.652 177.523 176.546C177.489 176.439 177.434 176.34 177.36 176.255C177.288 176.168 177.199 176.099 177.098 176.048C176.998 175.997 176.889 175.967 176.777 175.959C176.624 175.945 173.098 175.997 171.622 181.029C170.745 179.146 169.501 177.457 167.963 176.061C167.829 175.941 167.66 175.867 167.482 175.849C167.302 175.83 167.123 175.87 166.968 175.96C166.813 176.051 166.691 176.19 166.619 176.354C166.547 176.518 166.528 176.702 166.568 176.877C167.691 182.186 170.346 184.143 170.993 184.534C170.848 186.133 170.826 187.742 170.925 189.345C162.75 190.052 159.168 194.439 159.134 194.484C159.046 194.576 158.978 194.687 158.937 194.807C158.896 194.927 158.882 195.054 158.894 195.182C162.392 221.416 162.189 221.325 162.573 221.555C170.073 226.074 179.27 223.971 183.893 221.913C184.035 221.852 184.156 221.754 184.247 221.63C184.336 221.505 184.391 221.358 184.404 221.205C186.105 193.525 186.511 193.968 185.789 193.502ZM161.508 194.592C161.593 194.524 170.553 186.866 182.862 193.809C175.947 196.015 168.56 196.287 161.502 194.592H161.508Z" fill="#2C2C2C"/>
</svg>
