<svg width="175" height="196" viewBox="0 0 175 196" fill="none" xmlns="http://www.w3.org/2000/svg">
<path d="M158.043 17.7449C157.822 17.7469 157.605 17.6811 157.423 17.5565C157.241 17.4319 157.1 17.2542 157.023 17.0476C156.943 16.8409 156.931 16.6152 156.983 16.4006C157.037 16.1862 157.156 15.9932 157.322 15.8479C160.766 13.0582 164.999 11.4183 169.422 11.1594C169.565 11.1527 169.707 11.1742 169.84 11.2225C169.974 11.2707 170.096 11.3448 170.203 11.4405C170.307 11.5365 170.392 11.6519 170.454 11.7806C170.513 11.9094 170.547 12.0488 170.555 12.1909C170.562 12.333 170.54 12.4749 170.491 12.6087C170.443 12.7425 170.369 12.8656 170.273 12.9708C170.178 13.0759 170.062 13.1612 169.934 13.2216C169.804 13.2822 169.666 13.3166 169.523 13.3233C165.596 13.577 161.838 15.0241 158.754 17.4708C158.557 17.6452 158.305 17.7428 158.043 17.7449Z" fill="#2D6A4F"/>
<path d="M161.427 26.4277C161.173 26.4306 160.926 26.3437 160.727 26.1821C160.531 26.0205 160.397 25.7948 160.35 25.5445C160.304 25.2942 160.347 25.0352 160.473 24.8136C160.597 24.5918 160.798 24.4214 161.036 24.3323C165.122 22.858 169.536 22.5502 173.787 23.4433C174.066 23.5151 174.304 23.6945 174.45 23.9423C174.596 24.1899 174.638 24.4856 174.567 24.7642C174.495 25.0428 174.315 25.2814 174.068 25.4278C173.819 25.5741 173.525 25.6159 173.246 25.5441C167.345 24.033 162.067 26.4277 161.427 26.4277Z" fill="#2D6A4F"/>
<path d="M142.248 80.0462C137.855 80.0462 133.817 75.9582 131.823 72.2669C131.686 72.0143 131.655 71.7175 131.738 71.4419C131.819 71.1666 132.007 70.935 132.261 70.7982C132.514 70.6615 132.809 70.6307 133.085 70.7127C133.361 70.7947 133.592 70.9828 133.729 71.2355C133.76 71.2896 136.795 76.8039 141.039 77.7416C142.208 77.9213 143.402 77.8024 144.512 77.3963C145.622 76.9902 146.61 76.31 147.387 75.419C145.201 73.0387 144.082 70.1084 144.72 68.1248C145.814 64.7329 148.386 65.0593 148.191 65.0593C151.7 65.0593 154.228 70.3807 150.449 75.2982C152.945 77.2133 157.909 79.4349 165.255 75.5236C165.51 75.3886 165.807 75.3599 166.081 75.4439C166.357 75.528 166.588 75.7178 166.723 75.9717C166.857 76.2256 166.886 76.523 166.803 76.798C166.718 77.0732 166.529 77.3036 166.274 77.4387C157.469 82.1272 151.43 78.8254 148.981 76.8977C147.226 78.7762 144.814 79.9041 142.248 80.0462ZM146.785 68.7902C146.749 69.7267 146.913 70.6599 147.27 71.5263C147.627 72.3928 148.168 73.172 148.853 73.8105C152.254 69.1707 148.056 64.8375 146.785 68.7902Z" fill="#C8705A"/>
<path d="M42.4711 14.4559C42.2205 14.4561 41.9771 14.3688 41.7823 14.2089C38.0225 10.9347 33.5702 8.55436 28.7591 7.24645C28.476 7.19272 28.2272 7.0288 28.0649 6.79113C27.9044 6.55346 27.8431 6.26115 27.8972 5.97878C27.9513 5.69637 28.1154 5.4469 28.3534 5.28524C28.5896 5.1236 28.8818 5.06301 29.1649 5.11682C34.3438 6.46726 39.1351 9.0068 43.16 12.5336C43.3349 12.6748 43.4593 12.8667 43.5207 13.0827C43.5802 13.2986 43.5729 13.5279 43.4972 13.7389C43.4215 13.9501 43.2826 14.1324 43.0987 14.2608C42.9148 14.3892 42.6948 14.4575 42.4711 14.4559Z" fill="#2D6A4F"/>
<path d="M34.0802 18.8447C33.8962 18.8448 33.7159 18.7983 33.5554 18.7094C29.4133 16.1949 24.8547 14.4456 20.0941 13.5449C19.8072 13.516 19.5433 13.3741 19.361 13.1509C19.1785 12.9274 19.0923 12.6407 19.1212 12.3538C19.15 12.0669 19.2918 11.8031 19.5152 11.6208C19.7386 11.4383 20.0254 11.3521 20.3123 11.381C20.5341 11.4026 25.8825 11.9814 34.6067 16.807C34.8213 16.9209 34.9926 17.104 35.09 17.3265C35.1874 17.549 35.209 17.7981 35.1477 18.0336C35.0864 18.2691 34.9475 18.4772 34.7546 18.6243C34.5616 18.7715 34.3236 18.8492 34.0802 18.8447Z" fill="#2D6A4F"/>
<path d="M11.8153 57.0347C9.56304 57.035 7.36089 57.7033 5.4882 58.955C3.61551 60.2068 2.15595 61.9857 1.29417 64.0669C0.432391 66.148 0.207161 68.438 0.646797 70.6472C1.08643 72.8563 2.17127 74.8856 3.76428 76.4784C5.3571 78.071 7.3865 79.1555 9.5955 79.5948C11.8045 80.0342 14.0946 79.8085 16.1756 78.9463C18.2566 78.0844 20.0364 76.6244 21.2879 74.7516C22.5393 72.8787 23.2065 70.6767 23.2065 68.4241C23.2065 66.9283 22.9126 65.4469 22.3392 64.0649C21.7675 62.6829 20.929 61.4271 19.8705 60.3694C18.812 59.3118 17.5569 58.4728 16.1756 57.9006C14.7925 57.3284 13.312 57.0343 11.8153 57.0347Z" fill="#2D6A4F"/>
<path d="M89.2215 40.5527C87.2055 40.5524 85.2345 41.15 83.5575 42.27C81.8804 43.39 80.5731 44.9819 79.8013 46.8447C79.0313 48.7075 78.8275 50.7572 79.2224 52.7349C79.6155 54.7125 80.5857 56.5289 82.0121 57.9548C83.4367 59.3804 85.2543 60.3513 87.2307 60.7446C89.2089 61.1379 91.2592 60.9359 93.122 60.1641C94.9848 59.3923 96.577 58.0855 97.6969 56.4088C98.8167 54.7322 99.4136 52.761 99.4136 50.7448C99.4136 48.0419 98.3388 45.4497 96.4274 43.5384C94.5159 41.6271 91.9246 40.5533 89.2215 40.5527Z" fill="#2D6A4F"/>
<path d="M26.1562 129.391C44.115 132.048 62.4109 131.357 80.1172 127.354L74.9905 189.647C74.9905 189.647 55.1149 200.35 34.1609 188.926L26.1562 129.391Z" fill="#B7D7C8"/>
<path d="M26.1562 129.391C43.6912 132.261 61.6247 131.568 78.8855 127.353C78.8855 127.353 70.1307 117.558 51.2487 118.598C41.8771 119.14 32.9942 122.961 26.1562 129.391Z" fill="#FDF6EE"/>
<path d="M144.991 41.417C145.147 41.3286 145.278 41.2027 145.374 41.0509C145.469 40.8993 145.525 40.7261 145.536 40.5474C145.549 40.3687 145.516 40.1899 145.442 40.0268C145.367 39.8638 145.253 39.7219 145.11 39.6137C144.885 39.4334 122.44 22.2645 113.788 10.7921C113.69 10.6589 113.562 10.5505 113.414 10.4753C113.267 10.4001 113.104 10.3604 112.938 10.3593C111.802 10.3593 112.457 10.8733 103.543 20.8183C93.3369 16.9737 80.8115 17.3308 71.0738 23.9073C72.5146 16.1895 71.7194 8.22049 68.7837 0.939108C68.7512 0.698498 68.6394 0.47565 68.4663 0.306414C68.2914 0.137159 68.066 0.0313261 67.8243 0.00593615C67.5827 -0.0194538 67.3393 0.0370781 67.1355 0.166426C66.9299 0.295774 66.773 0.490437 66.6919 0.719109C60.8709 16.8763 66.8307 24.0371 68.6142 25.725C60.8872 32.0725 55.3854 42.4034 52.2207 56.5608C51.8925 58.0286 51.6274 59.4226 51.3407 60.8417C49.1191 54.1282 42.9699 41.8083 27.9289 43.0796C17.2067 43.9812 13.849 53.3293 13.0429 56.3336C10.6049 56.1572 8.17089 56.7191 6.0571 57.9462C3.94331 59.1734 2.24825 61.0089 1.1928 63.2134C0.13735 65.4179 -0.229614 67.8891 0.139695 70.3053C0.509184 72.7213 1.59763 74.97 3.26367 76.7584C4.92971 78.5467 7.0956 79.7919 9.4797 80.3314C11.8636 80.871 14.3539 80.6798 16.6278 79.7831C18.9018 78.8863 20.8529 77.3254 22.227 75.3039C23.5993 73.2823 24.3332 70.8939 24.3296 68.4497C24.3007 65.7629 23.3901 63.1598 21.7365 61.0417C20.0829 58.9236 17.7801 57.408 15.1798 56.7285C15.9011 53.9839 18.7972 46.0189 28.111 45.2345C31.1351 44.9326 34.1862 45.351 37.0173 46.4553C34.4928 47.8709 30.5256 51.2195 28.7692 58.7752C28.7223 58.9723 28.7332 59.1786 28.7981 59.3705C28.863 59.5623 28.9802 59.732 29.1371 59.8604C29.294 59.9886 29.4833 60.0705 29.6835 60.0963C29.8854 60.1222 30.0892 60.0912 30.2731 60.0068C35.0121 57.5176 38.5718 53.2516 40.1713 48.1432C48.5528 53.7928 50.2533 65.3589 50.4156 65.6763C45.114 95.6267 49.0001 113.463 50.0964 117.578C40.9575 118.567 32.3613 122.41 25.5288 128.56C25.4115 128.685 25.325 128.836 25.2781 129.002C25.1501 129.201 25.0942 129.437 25.1176 129.672L33.1277 189.068C33.1493 189.231 33.2071 189.386 33.2972 189.523C33.3874 189.658 33.5064 189.773 33.6471 189.856C40.2759 193.362 47.6764 195.153 55.1744 195.062C62.1458 195.037 69.0361 193.569 75.4125 190.751C75.591 190.673 75.7461 190.549 75.8615 190.39C75.9751 190.231 76.0436 190.044 76.0599 189.849L81.1342 127.389C81.1451 127.209 81.109 127.029 81.0314 126.866C80.9521 126.703 80.8349 126.563 80.687 126.459C70.174 119.213 60.5121 117.082 52.3054 117.425C50.4607 109.524 49.6582 101.415 49.9179 93.3059C54.8174 92.4523 59.4338 90.4084 63.3595 87.3542C67.2852 84.3001 70.4012 80.3287 72.4335 75.789C74.6407 71.569 77.9154 67.9994 81.9277 65.4347C82.1242 65.3198 82.2811 65.1458 82.3731 64.9371C82.465 64.7285 82.4885 64.4962 82.4398 64.2732C82.3929 64.0503 82.2757 63.8481 82.1062 63.6956C81.9367 63.543 81.7239 63.448 81.4967 63.424C67.8712 61.866 59.239 74.2779 55.3169 81.8065C53.7931 84.6474 52.0115 87.3414 49.9937 89.8545C50.3886 79.3986 51.7158 68.9988 53.9608 58.7788C56.947 52.0238 61.0513 47.5805 66.1689 45.5915C70.3922 44.0625 75.0157 44.0427 79.2516 45.5356C78.4636 47.0367 78.0272 48.6973 77.9767 50.3916C77.9244 52.086 78.2598 53.7699 78.9541 55.316C79.6501 56.8621 80.687 58.2297 81.989 59.3158C83.2909 60.4017 84.8219 61.1773 86.4683 61.5843C88.1147 61.9911 89.8314 62.0184 91.4886 61.664C93.1458 61.3097 94.702 60.5832 96.0364 59.5391C97.3726 58.4951 98.4528 57.1611 99.1975 55.6379C99.9423 54.1147 100.33 52.4423 100.332 50.7471C100.314 48.4486 99.5907 46.211 98.258 44.3379C96.9254 42.4647 95.05 41.0464 92.8843 40.2755C90.7186 39.5046 88.3689 39.4184 86.1527 40.0283C83.9365 40.6383 81.9619 41.915 80.4959 43.6855C75.6794 41.6496 70.2533 41.6042 65.4043 43.5593C61.4858 44.988 58.1336 47.6444 55.847 51.133C59.8521 37.6085 66.3943 28.4515 75.344 23.8712C86.3222 18.254 97.9479 21.2439 101.94 22.5693C100.032 24.7117 97.9785 26.7182 95.7912 28.5741C95.5784 28.7413 95.4359 28.982 95.3909 29.2491C95.3476 29.5161 95.4053 29.7901 95.5531 30.0167C119.506 67.265 117.942 67.2974 119.266 67.4164C119.439 67.4323 119.612 67.4063 119.775 67.3407C119.935 67.2751 120.078 67.1719 120.189 67.0396C120.379 66.816 139.167 44.7458 144.991 41.417ZM22.1621 68.4461C22.2306 70.5067 21.6824 72.5408 20.586 74.2876C19.4914 76.0344 17.8991 77.4143 16.0147 78.2503C14.1303 79.0863 12.0385 79.3405 10.0081 78.9802C7.9783 78.6199 6.102 77.6617 4.62026 76.2281C3.13834 74.7945 2.11841 72.951 1.69104 70.9341C1.26367 68.9171 1.44849 66.8185 2.22173 64.9072C2.99479 62.9959 4.3211 61.3589 6.03078 60.2065C7.74027 59.0538 9.75559 58.438 11.8167 58.438C14.5144 58.3974 17.1183 59.4282 19.0568 61.3041C20.9971 63.1802 22.1134 65.7484 22.1621 68.4461ZM73.9518 189.018C67.8135 191.672 61.1775 192.976 54.4928 192.841C47.8063 192.705 41.228 191.135 35.2033 188.235L27.4637 130.839C49.7484 134.373 72.9312 130.069 78.8765 128.823L73.9518 189.018ZM77.4249 126.908C70.4246 128.313 49.1569 131.925 28.5168 128.805C32.5128 125.538 37.0751 123.032 41.9763 121.412C53.6994 117.565 65.6135 119.423 77.4249 126.908ZM89.1083 41.7939C90.8773 41.8124 92.6012 42.3538 94.0619 43.3497C95.5225 44.3458 96.6567 45.752 97.3222 47.3914C97.9858 49.0305 98.1499 50.8297 97.7928 52.5621C97.4358 54.2943 96.5756 55.8824 95.3187 57.1265C94.06 58.3704 92.4641 59.2145 90.7276 59.5526C88.991 59.8907 87.195 59.7075 85.563 59.0262C83.9293 58.3449 82.5354 57.1961 81.5562 55.7241C80.5752 54.2521 80.0523 52.5229 80.0523 50.7543C80.0649 48.3642 81.026 46.077 82.7229 44.3951C84.4216 42.7132 86.7189 41.7744 89.1083 41.7848V41.7939ZM140.79 41.4747C134.877 46.4517 125.543 57.2064 121.059 62.3799C120.912 62.5498 120.727 62.6822 120.519 62.7662C120.31 62.8502 120.087 62.8834 119.863 62.863C119.639 62.8425 119.423 62.7691 119.234 62.6486C119.044 62.5283 118.887 62.3644 118.774 62.1707C112.15 50.9905 102.243 35.9188 98.8747 30.6587C98.698 30.3805 98.6259 30.0479 98.671 29.7212C98.7179 29.3946 98.8802 29.0951 99.1272 28.8771C103.626 24.5258 107.864 19.9121 111.819 15.0605C111.95 14.9001 112.114 14.771 112.302 14.6823C112.489 14.5936 112.693 14.5474 112.901 14.5474C113.108 14.5474 113.312 14.5936 113.499 14.6823C113.687 14.771 113.851 14.9001 113.983 15.0605C121.724 24.1904 135.025 34.7972 140.748 39.3054C140.911 39.433 141.044 39.5953 141.136 39.7803C141.228 39.9655 141.279 40.1689 141.282 40.3756C141.286 40.5824 141.244 40.7876 141.16 40.9761C141.073 41.1647 140.949 41.3319 140.79 41.4657V41.4747Z" fill="#2C2C2C"/>
<path d="M111.739 17.4727C108.329 21.5434 104.688 25.4154 100.837 29.0695C100.622 29.2554 100.485 29.5142 100.453 29.7957C100.418 30.077 100.492 30.3608 100.656 30.5915C104.027 35.289 111.638 47.9551 119.161 59.2309C119.248 59.3945 119.372 59.5349 119.524 59.641C119.675 59.747 119.85 59.8155 120.034 59.841C120.216 59.8662 120.404 59.8476 120.579 59.7869C120.754 59.7259 120.911 59.6244 121.039 59.4906C124.373 55.7362 131.599 47.8126 138.072 41.3065C138.189 41.1902 138.28 41.0495 138.337 40.8944C138.395 40.7392 138.418 40.5734 138.404 40.4086C138.391 40.2438 138.341 40.0839 138.26 39.9403C138.177 39.7966 138.065 39.6727 137.93 39.5771C133.043 36.059 122.602 26.3718 113.539 17.5124C113.431 17.3798 113.295 17.2722 113.142 17.1972C112.987 17.122 112.819 17.081 112.648 17.0774C112.477 17.0737 112.307 17.107 112.15 17.1752C111.993 17.2435 111.853 17.345 111.739 17.4727Z" fill="#2C2C2C"/>
<path d="M117.135 42.3675C120.311 42.3675 122.884 39.663 122.884 36.3266C122.884 32.9902 120.311 30.2856 117.135 30.2856C113.959 30.2856 111.386 32.9902 111.386 36.3266C111.386 39.663 113.959 42.3675 117.135 42.3675Z" fill="#FDF6EE"/>
<path d="M124.193 48.7345C125.424 48.7345 126.422 47.7366 126.422 46.5057C126.422 45.2748 125.424 44.2769 124.193 44.2769C122.961 44.2769 121.964 45.2748 121.964 46.5057C121.964 47.7366 122.961 48.7345 124.193 48.7345Z" fill="#FDF6EE"/>
<path d="M110.306 30.2873C111.538 30.2873 112.535 29.2893 112.535 28.0584C112.535 26.8275 111.538 25.8296 110.306 25.8296C109.074 25.8296 108.077 26.8275 108.077 28.0584C108.077 29.2893 109.074 30.2873 110.306 30.2873Z" fill="#FDF6EE"/>
<path d="M89.0904 58.2577C87.6226 58.2537 86.189 57.815 84.9718 56.9969C83.7528 56.1787 82.8042 55.018 82.2452 53.661C81.6862 52.3041 81.542 50.812 81.8305 49.3732C82.1208 47.9344 82.8295 46.6133 83.8682 45.5772C84.9069 44.5408 86.2304 43.8357 87.6694 43.5508C89.1084 43.2661 90.5998 43.4141 91.9558 43.9768C93.3119 44.5392 94.4696 45.4908 95.2846 46.7112C96.0997 47.9317 96.5343 49.3662 96.5343 50.8337C96.5289 52.8046 95.7427 54.6932 94.3469 56.085C92.9512 57.4769 91.0614 58.2583 89.0904 58.2577ZM89.0904 45.579C88.0518 45.5829 87.0365 45.8945 86.1745 46.4746C85.3126 47.0546 84.6436 47.877 84.2487 48.838C83.8538 49.799 83.7528 50.8553 83.9565 51.8738C84.1621 52.8921 84.6652 53.8269 85.4009 54.5599C86.1367 55.2931 87.0744 55.7916 88.0932 55.9926C89.1121 56.1937 90.1688 56.0882 91.1281 55.6895C92.0874 55.2908 92.9061 54.6167 93.4832 53.7524C94.0602 52.8883 94.3668 51.8725 94.3668 50.8337C94.3632 49.4376 93.8042 48.1003 92.816 47.1152C91.826 46.13 90.4862 45.5775 89.0904 45.579Z" fill="#2C2C2C"/>
<path d="M11.7446 77.1107C10.0694 77.0728 8.44084 76.5411 7.06549 75.5821C5.69013 74.6233 4.62837 73.2799 4.01309 71.7202C3.398 70.1606 3.25663 68.454 3.607 66.8144C3.9572 65.1749 4.78363 63.6751 5.98244 62.503C7.18125 61.3311 8.69943 60.5387 10.3471 60.2257C11.9935 59.9124 13.6957 60.0922 15.2411 60.7427C16.7865 61.3929 18.1065 62.4848 19.0334 63.8814C19.9621 65.278 20.4562 66.9174 20.4562 68.5939C20.4273 70.8775 19.4932 73.0564 17.8613 74.653C16.2275 76.2495 14.0275 77.1334 11.7446 77.1107ZM11.7446 62.2446C10.4967 62.2825 9.28855 62.6871 8.27006 63.4077C7.25122 64.1283 6.46734 65.1329 6.01616 66.2964C5.56499 67.4598 5.46653 68.7304 5.73305 69.9494C5.99958 71.1686 6.61935 72.2821 7.51504 73.1511C8.41054 74.0199 9.5428 74.6058 10.769 74.8355C11.9952 75.0651 13.2629 74.9282 14.4116 74.4421C15.5603 73.9561 16.5413 73.1421 17.2319 72.102C17.9208 71.062 18.2886 69.8417 18.2886 68.5939C18.2598 66.8849 17.5547 65.2571 16.3285 64.067C15.1023 62.8768 13.4541 62.2215 11.7446 62.2446Z" fill="#2C2C2C"/>
</svg>
