<svg width="198" height="198" viewBox="0 0 198 198" fill="none" xmlns="http://www.w3.org/2000/svg">
<path d="M34.5292 52.6411L32.5225 48.6652C32.5225 48.6652 29.3951 48.6464 27.8428 47.7336C27.8428 47.7336 24.0481 50.6413 22.2601 49.8829C18.711 48.3781 14.6302 39.4018 14.6302 39.4018C14.188 39.1124 13.842 38.6979 13.6362 38.211C13.4304 37.7242 13.3743 37.1872 13.4749 36.6684C13.4749 36.6684 1.8602 27.5961 8.16452 16.6427C14.2966 5.99125 27.8428 7.25647 27.8428 7.25647C27.8428 7.25647 34.5639 2.36488 38.5219 8.28508C39.1044 10.0629 39.1482 11.9731 38.6476 13.7756C38.0239 16.0526 36.8211 16.1091 36.8211 16.1091C36.8211 16.1091 42.6809 26.9545 44.0481 32.1877C45.4152 37.4208 44.3391 42.9331 41.7602 45.0824L43.6412 48.593L45.3242 47.999L49.4554 54.9131L33.3382 62.7955L30.5662 55.1725L34.5292 52.6411Z" fill="#FDF6EE"/>
<path d="M21.6428 27.5961C21.5586 27.596 21.4757 27.5759 21.4009 27.5375C21.3261 27.4992 21.2614 27.4435 21.2122 27.3753C21.163 27.3071 21.1307 27.2282 21.118 27.1451C21.1052 27.062 21.1124 26.977 21.1388 26.8972C21.1537 26.8526 22.6773 22.461 27.3541 22.8382C27.4913 22.8536 27.617 22.9218 27.7048 23.0283C27.7926 23.1349 27.8355 23.2714 27.8245 23.409C27.8134 23.5466 27.7493 23.6745 27.6455 23.7657C27.5419 23.8569 27.4068 23.9041 27.2689 23.8975C26.1665 23.8098 25.0659 24.0897 24.1392 24.6934C23.2126 25.2972 22.5119 26.1908 22.1467 27.2347C22.1108 27.34 22.0429 27.4314 21.9526 27.4961C21.8622 27.5609 21.7539 27.5958 21.6428 27.5961Z" fill="#2C2C2C"/>
<path d="M31.985 20.6119C31.8973 20.6125 31.8109 20.5914 31.7333 20.5505C31.6557 20.5096 31.5895 20.4501 31.5405 20.3774C31.4915 20.3046 31.4612 20.221 31.4524 20.1337C31.4436 20.0464 31.4565 19.9583 31.49 19.8773C31.8453 19.0501 32.4518 18.3556 33.2236 17.8921C33.9954 17.4286 34.8934 17.2195 35.7906 17.2944C35.8614 17.2993 35.9305 17.3182 35.9937 17.3502C36.0571 17.3822 36.1133 17.4264 36.1592 17.4805C36.2053 17.5345 36.2399 17.5972 36.2612 17.6648C36.2826 17.7325 36.2902 17.8037 36.2836 17.8743C36.277 17.945 36.2563 18.0135 36.2228 18.076C36.1892 18.1385 36.1436 18.1938 36.0884 18.2383C36.0332 18.2829 35.9697 18.3159 35.9015 18.3356C35.8334 18.3552 35.762 18.3611 35.6916 18.3528C35.0216 18.306 34.3536 18.4662 33.7778 18.8117C33.2019 19.1571 32.7461 19.6712 32.4721 20.2842C32.4322 20.3807 32.3647 20.4632 32.278 20.5215C32.1913 20.5799 32.0895 20.6112 31.985 20.6119Z" fill="#2C2C2C"/>
<path d="M33.1961 31.8948C33.059 31.8873 32.9302 31.827 32.8366 31.7267C32.7429 31.6264 32.6916 31.4938 32.6936 31.3565C32.6955 31.2193 32.7505 31.0882 32.8469 30.9904C32.9433 30.8928 33.0737 30.8362 33.2109 30.8325C33.8752 30.8414 34.6474 30.8167 35.1493 30.7672C33.8623 29.0842 30.4062 25.2351 30.2488 24.5302C30.1867 23.7061 30.2578 22.8774 30.4597 22.076C30.4906 21.9384 30.5748 21.8187 30.6939 21.7433C30.813 21.6677 30.9572 21.6427 31.0948 21.6736C31.2324 21.7043 31.3521 21.7886 31.4275 21.9077C31.503 22.0268 31.5281 22.171 31.4972 22.3086C31.3371 22.9512 31.2656 23.6128 31.2844 24.2748C32.1057 25.4214 32.9846 26.5257 33.9178 27.5834C36.5284 30.6999 36.5086 30.8286 36.469 31.2464C36.3918 32.0176 33.3485 31.8968 33.1961 31.8948Z" fill="#2C2C2C"/>
<path d="M33.6832 38.6098C33.1357 38.5506 32.6118 38.3553 32.1592 38.0416C31.7066 37.7279 31.3398 37.3058 31.0923 36.814C31.0299 36.6915 31.0172 36.5497 31.0569 36.4182C31.0967 36.2867 31.1859 36.1757 31.3057 36.1085C31.4256 36.0413 31.5667 36.023 31.6998 36.0577C31.8328 36.0922 31.9471 36.177 32.019 36.2942C32.2081 36.6278 32.8634 37.502 33.6188 37.5456C34.1584 37.5782 34.7326 37.1862 35.3177 36.3843C35.3578 36.3255 35.4094 36.2754 35.4693 36.2369C35.5292 36.1985 35.5962 36.1724 35.6664 36.1604C35.7366 36.1484 35.8085 36.1505 35.8778 36.1667C35.9471 36.183 36.0124 36.213 36.07 36.255C36.1275 36.297 36.176 36.35 36.2125 36.4111C36.2491 36.4722 36.2731 36.54 36.283 36.6105C36.2929 36.681 36.2884 36.7528 36.2701 36.8216C36.2517 36.8904 36.2197 36.9547 36.176 37.011C35.919 37.4577 35.5584 37.8361 35.1246 38.1144C34.6908 38.3927 34.1964 38.5626 33.6832 38.6098Z" fill="#2C2C2C"/>
<path d="M26.044 18.036C25.0831 18.0233 24.1446 17.7447 23.3324 17.2311C23.2227 17.151 23.1478 17.0319 23.1231 16.8983C23.0984 16.7647 23.1258 16.6267 23.1997 16.5127C23.2735 16.3986 23.3883 16.3173 23.5203 16.2852C23.6523 16.2531 23.7916 16.2727 23.9096 16.3401C24.0304 16.4173 26.8212 18.1588 28.6448 15.4838C28.6833 15.4243 28.7333 15.373 28.7919 15.3331C28.8505 15.2932 28.9165 15.2655 28.986 15.2514C29.0555 15.2375 29.1272 15.2375 29.1966 15.2515C29.2661 15.2656 29.3321 15.2934 29.3906 15.3334C29.4492 15.3733 29.4992 15.4246 29.5377 15.4842C29.5762 15.5437 29.6023 15.6104 29.6147 15.6802C29.6269 15.75 29.6252 15.8216 29.6094 15.8908C29.5937 15.9599 29.5643 16.0251 29.5229 16.0827C29.1589 16.679 28.6477 17.1717 28.0386 17.5138C27.4294 17.8558 26.7427 18.0356 26.044 18.036Z" fill="#2C2C2C"/>
<path d="M22.6899 15.3103C22.5832 15.3101 22.479 15.2778 22.391 15.2176C22.3029 15.1574 22.2349 15.0722 22.196 14.9729C22.157 14.8735 22.1487 14.7648 22.1724 14.6608C22.1961 14.5568 22.2504 14.4623 22.3285 14.3896C23.6204 13.2355 25.0186 12.2063 26.5044 11.3156C29.7882 9.35047 32.6701 8.62975 35.0589 9.17425C39.4714 10.1781 39.2348 13.8877 39.2318 13.9263C39.229 13.9978 39.2118 14.0678 39.1812 14.1326C39.1507 14.1972 39.1073 14.2551 39.054 14.3026C39.0005 14.3502 38.9381 14.3864 38.8702 14.4093C38.8024 14.4321 38.7308 14.441 38.6595 14.4354C38.5881 14.4299 38.5187 14.4101 38.4552 14.377C38.3918 14.3441 38.3356 14.2986 38.2902 14.2434C38.2447 14.1881 38.2108 14.1243 38.1906 14.0557C38.1704 13.9871 38.1643 13.9151 38.1725 13.8441C38.1794 13.7312 38.321 11.0078 34.8233 10.2128C29.7238 9.05347 23.1176 15.1093 23.0512 15.1707C22.9525 15.2609 22.8236 15.3107 22.6899 15.3103Z" fill="#2C2C2C"/>
<path d="M23.6217 11.6208C23.5186 11.6206 23.4177 11.5905 23.3315 11.534C23.2451 11.4775 23.1771 11.3972 23.1356 11.3028C23.0942 11.2083 23.0811 11.1039 23.098 11.0021C23.1149 10.9003 23.161 10.8057 23.2307 10.7298C23.4614 10.4793 28.9232 4.60757 34.0662 4.96595C35.0516 5.04695 36.0043 5.35782 36.8477 5.87361C37.6912 6.3894 38.402 7.09575 38.9232 7.93595C38.963 7.99321 38.9911 8.05776 39.0059 8.12589C39.0208 8.19402 39.022 8.26441 39.0097 8.33304C38.9973 8.40167 38.9715 8.46719 38.9339 8.52585C38.8961 8.58453 38.8472 8.6352 38.79 8.67499C38.7328 8.71476 38.6682 8.74288 38.6 8.75772C38.5319 8.77255 38.4615 8.77383 38.3929 8.76146C38.3243 8.7491 38.2588 8.72334 38.2001 8.68566C38.1415 8.64797 38.0908 8.59909 38.051 8.54183C37.618 7.83438 37.0252 7.23812 36.3204 6.80079C35.6156 6.36345 34.8181 6.09718 33.992 6.02327C29.3707 5.70647 24.0623 11.3891 24.0098 11.4465C23.9607 11.5008 23.9008 11.5443 23.834 11.5743C23.7673 11.6043 23.695 11.6201 23.6217 11.6208Z" fill="#2C2C2C"/>
<path d="M16.4033 28.5999C16.3122 28.5996 16.2228 28.5759 16.1435 28.5312C16.0642 28.4865 15.9978 28.4221 15.9503 28.3444C15.903 28.2667 15.8764 28.1781 15.8729 28.0871C15.8696 27.9961 15.8896 27.9058 15.931 27.8248C17.7606 24.2608 15.931 19.8295 15.9142 19.785C15.8631 19.6559 15.8646 19.5118 15.9184 19.3838C15.9721 19.2558 16.0737 19.1539 16.2016 19.0998C16.3295 19.0458 16.4735 19.0439 16.6028 19.0946C16.732 19.1453 16.8363 19.2445 16.8933 19.3712C16.9775 19.5692 18.9357 24.3033 16.8765 28.3109C16.8318 28.3979 16.764 28.4709 16.6806 28.5219C16.597 28.573 16.5011 28.5999 16.4033 28.5999Z" fill="#2C2C2C"/>
<path d="M19.8429 24.8747C19.7424 24.8743 19.644 24.8456 19.5591 24.7918C19.4743 24.7379 19.4065 24.6612 19.3634 24.5703C19.3204 24.4795 19.3038 24.3784 19.3158 24.2787C19.3278 24.1789 19.3677 24.0845 19.431 24.0065C21.6269 21.3196 20.3141 16.8389 20.3013 16.7944C20.2786 16.7267 20.2697 16.6554 20.2751 16.5843C20.2806 16.5132 20.3002 16.444 20.3329 16.3807C20.3656 16.3174 20.4107 16.2613 20.4656 16.2158C20.5204 16.1703 20.5839 16.1362 20.6521 16.1157C20.7203 16.0952 20.792 16.0887 20.8629 16.0964C20.9338 16.1041 21.0023 16.126 21.0645 16.1608C21.1267 16.1955 21.1813 16.2424 21.225 16.2988C21.2687 16.355 21.3007 16.4195 21.319 16.4884C21.3804 16.6934 22.804 21.5592 20.2547 24.6787C20.2048 24.7398 20.1421 24.7891 20.0709 24.823C19.9996 24.8569 19.9218 24.8745 19.8429 24.8747Z" fill="#2C2C2C"/>
<path d="M11.3168 35.2974C11.2475 35.2976 11.1789 35.2843 11.1148 35.2579C11.0508 35.2316 10.9926 35.1928 10.9436 35.144C10.8614 35.0628 2.77707 26.8894 7.25385 17.2755C11.7039 7.72195 23.4631 6.73195 23.5819 6.73195C23.6515 6.72674 23.7214 6.7353 23.7876 6.75711C23.8539 6.77893 23.9152 6.81357 23.968 6.85908C24.0209 6.90458 24.0642 6.96006 24.0957 7.02232C24.1271 7.08459 24.1459 7.15244 24.1512 7.222C24.1564 7.29155 24.1478 7.36145 24.126 7.4277C24.1041 7.49394 24.0696 7.55525 24.0241 7.60811C23.9785 7.66098 23.9231 7.70435 23.8608 7.73577C23.7985 7.76719 23.7307 7.78604 23.6611 7.79124C23.5492 7.80015 12.4009 8.74363 8.21712 17.7299C4.05912 26.6577 11.6148 34.3183 11.692 34.3946C11.7648 34.469 11.814 34.5634 11.8336 34.6656C11.8533 34.7679 11.8424 34.8736 11.8024 34.9699C11.7625 35.066 11.6952 35.1483 11.6089 35.2066C11.5224 35.2648 11.421 35.2964 11.3168 35.2974Z" fill="#2C2C2C"/>
<path d="M23.4336 50.6138C20.2854 50.6138 16.8105 44.9628 15.4264 42.1661C15.3698 42.0406 15.3641 41.8979 15.4105 41.7683C15.4568 41.6386 15.5518 41.532 15.6752 41.4709C15.7987 41.4098 15.941 41.399 16.0722 41.4408C16.2035 41.4826 16.3134 41.5737 16.3788 41.6949C17.4896 43.9332 20.3735 48.6803 22.8069 49.4466C23.4275 49.5485 24.0644 49.4394 24.6156 49.1367C24.7392 49.0691 24.8845 49.0533 25.0196 49.0928C25.0866 49.1124 25.149 49.145 25.2033 49.1888C25.2576 49.2324 25.3029 49.2864 25.3363 49.3476C25.3698 49.4087 25.3909 49.4759 25.3984 49.5453C25.4059 49.6146 25.3998 49.6846 25.3802 49.7516C25.3606 49.8185 25.328 49.881 25.2844 49.9353C25.2406 49.9896 25.1866 50.0348 25.1255 50.0683C24.6017 50.3568 24.0273 50.5419 23.4336 50.6138Z" fill="#2C2C2C"/>
<path d="M17.4541 37.1787C17.4284 37.1787 16.1582 36.9935 16.1582 36.9935C16.0892 36.9834 16.023 36.9598 15.9631 36.924C15.9033 36.8882 15.851 36.8411 15.8094 36.7851C15.7678 36.7292 15.7377 36.6655 15.7206 36.5979C15.7036 36.5304 15.7001 36.4601 15.7102 36.3911C15.7203 36.3221 15.744 36.2559 15.7797 36.196C15.8156 36.1362 15.8627 36.0839 15.9186 36.0423C15.9746 36.0008 16.0382 35.9706 16.1057 35.9535C16.1734 35.9365 16.2436 35.933 16.3126 35.9431L17.5303 36.1213C17.6627 36.1412 17.7827 36.2104 17.8663 36.315C17.9499 36.4195 17.991 36.5518 17.9814 36.6852C17.9718 36.8188 17.9121 36.9437 17.8144 37.0352C17.7167 37.1267 17.588 37.1779 17.4541 37.1787Z" fill="#2C2C2C"/>
<path d="M37.259 26.1974C37.7364 25.9613 37.8326 25.1823 37.4741 24.4575C37.1156 23.7326 36.4379 23.3365 35.9606 23.5727C35.4833 23.8088 35.387 24.5878 35.7455 25.3126C36.1041 26.0375 36.7817 26.4336 37.259 26.1974Z" fill="#2C2C2C"/>
<path d="M28.0574 31.4549C28.5857 31.1935 28.6925 30.3317 28.2958 29.5299C27.8992 28.7281 27.1495 28.2901 26.6211 28.5514C26.0929 28.8128 25.986 29.6746 26.3827 30.4763C26.7793 31.2781 27.5291 31.7163 28.0574 31.4549Z" fill="#2C2C2C"/>
<path d="M27.6266 36.6779C28.3871 36.4659 28.8748 35.8318 28.7159 35.2613C28.5569 34.6909 27.8115 34.4003 27.0509 34.6123C26.2904 34.8242 25.8027 35.4584 25.9617 36.0289C26.1206 36.5993 26.8661 36.8899 27.6266 36.6779Z" fill="#B7D7C8"/>
<path d="M41.7583 29.9299C42.4212 29.5471 42.7259 28.8338 42.4388 28.3367C42.1518 27.8395 41.3817 27.7467 40.7188 28.1295C40.0559 28.5122 39.7511 29.2255 40.0382 29.7227C40.3252 30.2198 41.0954 30.3126 41.7583 29.9299Z" fill="#B7D7C8"/>
<path d="M85.0867 51.1728C68.7319 47.2227 49.8596 54.1081 49.5002 53.7567C49.1408 53.4052 46.8519 47.6682 45.8481 47.4524C45.1978 47.5342 44.5638 47.7138 43.9671 47.985L42.5217 45.0051C46.0659 41.7925 45.5323 36.3 45.1571 34.1082C44.2215 28.6414 36.9559 15.1051 36.6431 14.5319C36.5736 14.4129 36.4605 14.3255 36.3278 14.2882C36.1952 14.2508 36.0532 14.2666 35.9318 14.3319C35.8106 14.3973 35.7193 14.5072 35.6774 14.6385C35.6356 14.7698 35.6463 14.9122 35.7075 15.0358C35.7827 15.1744 43.1998 28.9948 44.1057 34.2873C44.5294 36.7623 45.2541 44.9962 36.7797 46.8603C36.6505 46.8834 36.5351 46.9555 36.4578 47.0616C36.3806 47.1676 36.3472 47.2995 36.3649 47.4296C36.4083 47.546 36.479 47.6505 36.5709 47.7342C36.6629 47.8179 36.7734 47.8784 36.8935 47.9107C38.8193 48.456 40.8539 48.4902 42.7969 48.0097L42.9692 48.3671C40.3952 49.3839 36.6223 51.0847 34.8413 51.9747L33.0117 48.3523C32.9669 48.2623 32.8972 48.1869 32.8109 48.1354C32.7245 48.0838 32.6251 48.058 32.5247 48.0612C24.0681 48.2661 19.5557 38.2751 19.5062 38.1741C19.473 38.0992 19.4231 38.033 19.3602 37.9806C19.2974 37.9282 19.2233 37.8909 19.1437 37.8718C19.0641 37.8526 18.9813 37.8521 18.9015 37.8701C18.8216 37.8883 18.747 37.9245 18.6835 37.9761C18.2093 38.3632 15.6333 40.1541 14.4374 38.1355C13.0375 35.7723 16.5114 33.9488 16.5114 33.9488C16.5778 33.9133 16.636 33.8642 16.6819 33.8047C16.7279 33.7451 16.7607 33.6765 16.7782 33.6033C16.7957 33.5302 16.7975 33.4541 16.7835 33.3802C16.7693 33.3063 16.7397 33.2362 16.6965 33.1746C15.7283 31.7886 13.287 26.8812 13.2632 26.8317C13.1989 26.7084 13.0888 26.6152 12.9565 26.5722C12.8243 26.5291 12.6804 26.5396 12.5558 26.6014C12.4312 26.6632 12.3358 26.7714 12.29 26.9026C12.2442 27.034 12.2516 27.1781 12.3108 27.3039C12.4039 27.49 14.3958 31.4985 15.5194 33.3132C14.4503 33.946 13.6345 34.9308 13.2117 36.099C13.061 36.5067 12.999 36.9419 13.0298 37.3755C13.0606 37.8091 13.1835 38.2311 13.3904 38.6134C13.5973 38.9957 13.8834 39.3294 14.2296 39.5924C14.5757 39.8553 14.9739 40.0414 15.3977 40.1382C16.6152 40.2468 17.8306 39.9079 18.8161 39.1849C23.4434 47.8434 28.528 49.1076 32.2128 49.1245L33.8899 52.4449C33.7909 52.4449 30.1051 54.3408 29.8744 54.9001C29.3715 56.1198 32.9721 62.2964 32.2227 63.0666C-0.313643 96.5593 8.26471 126.545 17.9855 132.015C29.226 138.338 41.5188 127.429 42.0425 127.164C45.1829 124.224 47.8045 120.775 49.7972 116.962C49.848 116.869 49.9335 116.801 50.035 116.771C50.1365 116.741 50.2456 116.753 50.3382 116.804C50.4309 116.855 50.4996 116.94 50.5292 117.042C50.5588 117.143 50.5469 117.252 50.4961 117.345C48.7216 120.682 46.5015 123.762 43.8968 126.5C44.1839 126.606 49.7784 136.697 49.7784 136.697C49.9158 136.949 50.131 137.15 50.392 137.271C50.6528 137.391 50.9457 137.424 51.2267 137.364L94.4185 128.126C94.7186 128.063 94.9874 127.897 95.1789 127.657C95.3702 127.418 95.4724 127.119 95.4679 126.812L94.8739 84.2249C94.8706 84.0395 94.906 83.8555 94.9779 83.6846C95.0499 83.5137 95.1566 83.3597 95.2914 83.2323C95.4263 83.105 95.5862 83.0073 95.761 82.9453C95.9357 82.8835 96.1215 82.8586 96.3064 82.8726C111.061 84.216 117.448 58.9799 85.0867 51.1728ZM34.3987 56.2465L36.0164 60.0432C36.0576 60.1403 36.0586 60.2499 36.019 60.3477C35.9995 60.3961 35.9705 60.4403 35.9338 60.4775C35.8972 60.5148 35.8536 60.5445 35.8055 60.5649C35.7084 60.6061 35.5988 60.6071 35.501 60.5675C35.4032 60.528 35.325 60.4512 35.2838 60.354L33.6602 56.5574C33.6398 56.5092 33.6291 56.4574 33.6287 56.405C33.6283 56.3527 33.6382 56.3007 33.6578 56.2522C33.6775 56.2036 33.7066 56.1594 33.7433 56.1221C33.7801 56.0848 33.8238 56.0551 33.872 56.0347C33.9203 56.0143 33.972 56.0036 34.0244 56.0031C34.0768 56.0027 34.1288 56.0127 34.1773 56.0323C34.2258 56.052 34.27 56.081 34.3074 56.1178C34.3447 56.1546 34.3744 56.1983 34.3948 56.2465H34.3987ZM31.1317 94.32C31.1807 94.3012 31.2329 94.2925 31.2853 94.2941C31.3377 94.2958 31.3892 94.3079 31.4369 94.3296C31.4847 94.3513 31.5275 94.3823 31.5632 94.4207C31.5988 94.4592 31.6265 94.5044 31.6445 94.5536C32.9046 97.9465 34.3573 101.265 35.9956 104.492C36.0473 104.584 36.0604 104.693 36.032 104.794C36.0036 104.896 35.936 104.982 35.8441 105.034C35.7523 105.085 35.6436 105.098 35.542 105.07C35.4404 105.042 35.3543 104.974 35.3026 104.882C33.6434 101.619 32.1721 98.2632 30.8961 94.8318C30.8776 94.7829 30.869 94.7307 30.8707 94.6784C30.8724 94.6262 30.8845 94.5748 30.9062 94.5272C30.928 94.4795 30.9589 94.4368 30.9973 94.4011C31.0356 94.3656 31.0806 94.338 31.1297 94.32H31.1317ZM39.6566 106.76C35.2808 109.026 29.4388 111.099 24.5324 111.099C24.0194 111.106 23.5067 111.07 22.9999 110.991C22.8959 110.973 22.8035 110.913 22.7428 110.827C22.6822 110.741 22.6584 110.634 22.6766 110.529C22.6948 110.425 22.7537 110.333 22.8401 110.273C22.9265 110.212 23.0335 110.189 23.1375 110.206C24.8205 110.503 31.009 110.336 39.2903 106.054C39.3839 106.006 39.4929 105.997 39.5933 106.029C39.6935 106.061 39.7771 106.132 39.8254 106.225C39.8737 106.319 39.8828 106.428 39.8509 106.528C39.8188 106.629 39.7482 106.712 39.6546 106.76H39.6566ZM39.12 58.481L37.2242 54.7566C37.2004 54.7101 37.1862 54.6593 37.182 54.6072C37.178 54.5551 37.1841 54.5027 37.2002 54.453C37.2164 54.4033 37.2421 54.3573 37.2761 54.3176C37.31 54.2778 37.3514 54.2452 37.3979 54.2215C37.4445 54.1977 37.4952 54.1834 37.5473 54.1793C37.5994 54.1752 37.6518 54.1814 37.7015 54.1975C37.7512 54.2137 37.7972 54.2394 37.8369 54.2734C37.8766 54.3072 37.9093 54.3487 37.933 54.3952L39.8328 58.1196C39.8808 58.2144 39.8891 58.3243 39.8559 58.4252C39.8227 58.5261 39.7509 58.6098 39.6561 58.6577C39.5614 58.7056 39.4514 58.7139 39.3505 58.6807C39.2496 58.6476 39.166 58.5757 39.1181 58.481H39.12ZM42.59 56.5762L40.907 53.0954C40.861 53.0003 40.8545 52.8908 40.8891 52.791C40.9237 52.6912 40.9966 52.6093 41.0916 52.5632C41.1867 52.5171 41.2962 52.5107 41.396 52.5453C41.4957 52.58 41.5777 52.6528 41.6237 52.7479L43.3067 56.2277C43.353 56.3231 43.3594 56.4327 43.3247 56.5328C43.29 56.6329 43.217 56.7151 43.1216 56.7613C43.0263 56.8076 42.9166 56.814 42.8165 56.7793C42.7164 56.7445 42.6342 56.6715 42.588 56.5762H42.59ZM46.4025 54.5645C46.3568 54.5905 46.3065 54.607 46.2545 54.6133C46.2024 54.6196 46.1496 54.6155 46.0991 54.6012C46.0487 54.5869 46.0015 54.5627 45.9604 54.5302C45.9195 54.4975 45.8852 54.457 45.86 54.4111L44.1037 51.2569C44.0783 51.2114 44.0621 51.1614 44.056 51.1096C44.0499 51.0578 44.0541 51.0054 44.0684 50.9552C44.0825 50.9051 44.1065 50.8583 44.1387 50.8173C44.1711 50.7764 44.2111 50.7423 44.2567 50.7169C44.3022 50.6914 44.3522 50.6752 44.404 50.6692C44.4557 50.6631 44.5082 50.6673 44.5583 50.6815C44.6085 50.6957 44.6553 50.7197 44.6962 50.7519C44.7372 50.7843 44.7713 50.8243 44.7967 50.8698L46.552 54.023C46.5778 54.0684 46.5943 54.1185 46.6008 54.1704C46.6071 54.2223 46.6031 54.2749 46.589 54.3253C46.5749 54.3756 46.5511 54.4227 46.5187 54.4637C46.4863 54.5048 46.4461 54.5391 46.4005 54.5645H46.4025ZM82.7751 66.4168L75.6817 60.5055C75.6414 60.472 75.6082 60.4308 75.5837 60.3844C75.5594 60.338 75.5443 60.2872 75.5396 60.235C75.5347 60.1828 75.5403 60.1301 75.5559 60.0801C75.5714 60.03 75.5967 59.9835 75.6302 59.9432C75.6638 59.9029 75.7049 59.8695 75.7513 59.8452C75.7977 59.8208 75.8485 59.8058 75.9007 59.801C75.953 59.7962 76.0057 59.8017 76.0556 59.8174C76.1057 59.8329 76.1523 59.8582 76.1926 59.8917L83.2859 65.803C83.3262 65.8366 83.3595 65.8776 83.3839 65.9241C83.4083 65.9705 83.4233 66.0213 83.4281 66.0735C83.4329 66.1257 83.4274 66.1783 83.4117 66.2284C83.3962 66.2785 83.371 66.325 83.3374 66.3653C83.3038 66.4056 83.2626 66.4389 83.2163 66.4633C83.1699 66.4877 83.1191 66.5027 83.0669 66.5075C83.0147 66.5123 82.962 66.5067 82.912 66.4911C82.8619 66.4756 82.8154 66.4504 82.7751 66.4168ZM95.4362 62.8647C86.9638 70.1253 87.1301 70.0531 86.9024 70.0531C86.8202 70.0547 86.7396 70.0307 86.6717 69.9845C86.6038 69.9382 86.5519 69.872 86.5234 69.7951C86.4948 69.7181 86.4908 69.634 86.512 69.5547C86.5333 69.4753 86.5788 69.4045 86.642 69.3522L94.9174 62.2618C94.957 62.2277 95.003 62.2018 95.0526 62.1854C95.1021 62.1691 95.1544 62.1628 95.2065 62.1666C95.2587 62.1706 95.3095 62.1847 95.3561 62.2082C95.4026 62.2318 95.4442 62.2642 95.4783 62.3038C95.5123 62.3434 95.5383 62.3893 95.5546 62.439C95.5709 62.4886 95.5773 62.5409 95.5734 62.5929C95.5694 62.645 95.5554 62.6959 95.5318 62.7424C95.5082 62.789 95.4758 62.8306 95.4362 62.8647Z" fill="#2C2C2C"/>
<path d="M94.8064 92.2322L74.8193 63.4064C74.6997 63.2339 74.5408 63.0922 74.3558 62.9931C74.1707 62.894 73.9649 62.8402 73.755 62.8361L57.4982 62.5015C57.1915 62.4951 56.8921 62.5951 56.6508 62.7847L32.7304 81.5758C32.4717 81.7799 32.298 82.0728 32.2432 82.3977C32.1883 82.7227 32.2561 83.0564 32.4334 83.3341L48.6843 108.83C48.8365 109.069 49.0619 109.253 49.3268 109.355L67.1468 116.223C67.3689 116.308 67.6099 116.333 67.8446 116.293C68.0794 116.254 68.2992 116.153 68.4813 115.999L94.5767 94.0013C94.8277 93.7875 94.9902 93.488 95.0326 93.161C95.0751 92.8341 94.9945 92.503 94.8064 92.2322Z" fill="#2D6A4F"/>
<path d="M74.9886 62.4829C74.904 62.37 74.7782 62.2952 74.6386 62.275C74.4991 62.2548 74.3572 62.2908 74.2441 62.375L45.4212 83.9263L31.6365 81.8107C31.5665 81.7976 31.4945 81.7987 31.4249 81.8141C31.3553 81.8293 31.2895 81.8584 31.2314 81.8996C31.1733 81.9409 31.124 81.9934 31.0866 82.0539C31.0492 82.1146 31.0243 82.1821 31.0135 82.2525C31.0027 82.3229 31.0061 82.3948 31.0236 82.4639C31.0411 82.533 31.0724 82.5979 31.1154 82.6546C31.1585 82.7113 31.2125 82.7588 31.2743 82.7944C31.3361 82.8298 31.4044 82.8525 31.4751 82.8611L45.2559 84.9757L67.4774 116.884C67.5168 116.943 67.5674 116.993 67.6264 117.032C67.6853 117.071 67.7514 117.097 67.8208 117.11C67.8902 117.123 67.9614 117.122 68.0304 117.107C68.0994 117.092 68.1647 117.065 68.2226 117.024C68.2804 116.983 68.3297 116.932 68.3675 116.873C68.4054 116.813 68.4309 116.747 68.4427 116.677C68.4546 116.607 68.4524 116.536 68.4365 116.468C68.4204 116.398 68.3909 116.334 68.3496 116.277L46.2914 84.6035L74.8807 63.2264C74.9366 63.1847 74.9838 63.1324 75.0196 63.0725C75.0553 63.0125 75.0789 62.9461 75.0889 62.877C75.0989 62.8079 75.0952 62.7376 75.078 62.6699C75.0607 62.6023 75.0304 62.5388 74.9886 62.4829Z" fill="#2C2C2C"/>
<path d="M44.4146 102.139C45.6531 101.201 51.2852 97.9444 48.9161 102.781C48.9161 102.781 53.9048 101.133 51.8109 104.831C51.8109 104.831 55.2512 103.748 54.0156 107.025C54.0156 107.025 59.323 105.655 53.0593 111.381C48.5301 115.518 47.0569 113.235 48.3736 111.103C48.3736 111.103 44.1285 113.074 46.0362 108.883C46.0362 108.883 42.1515 110.333 44.0671 106.169C44.0671 106.165 37.6272 107.283 44.4146 102.139Z" fill="#FDF6EE"/>
<path d="M54.7541 106.264C55.0135 104.76 54.2591 103.867 52.6751 104.204C53.278 102.551 52.5276 101.35 49.7625 102.163C50.0031 101.339 50.1763 100.316 49.4972 99.7871C48.7379 99.2 47.337 99.6257 44.9541 101.173C41.6584 103.309 40.2466 105.051 40.8713 106.21C41.2287 106.874 42.1682 107.101 43.3315 106.864C42.5296 108.844 43.2958 110.012 45.3798 109.636C44.8699 111.418 45.658 112.454 47.5192 112.024C47.2895 113.365 47.9548 114.004 48.8666 114.004C49.8546 113.901 50.8043 113.566 51.6386 113.026C55.0838 111.124 56.9262 108.12 56.2114 106.806C56.0698 106.56 55.8468 106.371 55.5806 106.272C55.3145 106.173 55.0222 106.17 54.7541 106.264ZM41.8029 105.707C41.7039 105.515 42.0286 104.334 45.5283 102.066C48.3082 100.264 48.8438 100.632 48.8438 100.632C49.123 100.847 48.5418 102.457 48.4805 102.683C47.2618 103.494 44.4997 105.265 44.1443 105.491C42.8543 106.048 41.9217 105.93 41.8029 105.707ZM44.1363 108.513C43.9057 108.216 44.2839 107.156 44.7798 106.347C45.3481 105.982 48.1458 104.189 49.2259 103.463C51.4109 102.65 51.7673 103.056 51.7673 103.056C51.9217 103.254 51.6455 104.078 51.2049 104.759C49.8813 105.722 46.5242 108.026 46.0154 108.377C44.468 108.864 44.166 108.551 44.1363 108.513ZM46.3678 110.965C46.1639 110.74 46.353 109.889 46.6648 109.22C47.3202 108.77 50.5803 106.529 51.8593 105.595C53.2681 104.981 53.6007 105.247 53.6344 105.281C53.8393 105.484 53.7245 106.234 53.4899 106.829C52.2633 107.896 48.5399 110.419 48.0637 110.739C46.6975 111.265 46.3975 110.998 46.3678 110.965ZM55.2877 107.632C55.1511 108.542 53.9017 110.558 51.1208 112.092C49.0477 113.236 48.6309 112.894 48.6141 112.878C48.4488 112.728 48.5468 112.086 48.7438 111.563C49.4972 111.054 53.0424 108.645 54.2383 107.587C54.9254 107.229 55.2283 107.271 55.2699 107.303C55.3119 107.408 55.3181 107.523 55.2877 107.632Z" fill="#2C2C2C"/>
<path d="M80.1821 70.1396L82.4739 73.5056C82.4739 73.5056 75.8479 79.2001 81.6681 77.8408C81.6681 77.8408 79.6445 81.8879 83.8708 80.5633C83.8708 80.5633 82.6175 84.0917 86.2171 82.6582C86.2171 82.6582 84.8183 86.7983 90.1771 82.5176C95.045 78.6289 93.2046 76.2806 91.6463 77.823C91.6463 77.823 92.9719 74.2293 89.4257 75.8202C89.4257 75.8202 90.7949 71.9483 86.5013 73.9392C86.5013 73.9392 88.3199 69.7901 84.1599 72.4542C84.1579 72.4493 82.6888 69.3001 80.1821 70.1396Z" fill="#FDF6EE"/>
<path d="M93.7146 77.331C93.5305 77.0557 93.1206 76.7251 92.287 76.9963C92.3326 76.4023 93.0592 74.0164 90.0259 75.148C90.1922 74.5223 90.7753 71.8048 87.238 73.267C87.4608 72.5394 88.0083 69.9525 84.4947 71.6751C84.0781 70.8497 83.3976 70.1873 82.5615 69.7929C81.7252 69.3985 80.7813 69.2947 79.8794 69.4981C79.7957 69.5203 79.7189 69.5628 79.6553 69.6216C79.5919 69.6804 79.5437 69.7538 79.515 69.8355C79.4863 69.9171 79.478 70.0046 79.4908 70.0902C79.5036 70.1758 79.537 70.257 79.5883 70.3267L81.8752 73.4373C76.8975 77.2775 78.726 79.2189 80.9654 78.6209C79.9487 81.3662 82.2583 81.485 83.2503 81.2118C82.5009 83.757 84.672 83.6868 85.5026 83.4284C85.161 85.7182 88.2033 84.5352 89.4972 83.66C92.8256 81.4107 94.469 78.4625 93.7146 77.331ZM80.9822 70.4297C81.5292 70.4945 82.0521 70.6917 82.5058 71.0041C82.9595 71.3165 83.3302 71.7347 83.5859 72.2226C83.3176 72.3978 83.0325 72.5918 82.7306 72.8076L80.9822 70.4297ZM79.7942 77.5804C79.6833 77.4062 79.8932 76.2172 82.9266 73.9788C85.4828 72.0978 86.2124 72.0978 86.3391 72.1196C86.3231 72.7555 86.1456 73.3769 85.8233 73.9254C84.7482 74.7966 81.997 76.932 81.6525 77.1993C80.5545 77.7933 79.8774 77.7151 79.7942 77.5804ZM81.9178 80.2089C81.6604 79.9307 81.9415 78.8447 82.3633 77.9933C82.8949 77.5804 85.5194 75.541 86.5302 74.7203C88.6329 73.7135 89.025 74.0857 89.025 74.0857C89.1963 74.2669 88.9953 75.1143 88.6181 75.8321C87.3865 76.9122 84.2522 79.5109 83.776 79.905C82.2771 80.5287 81.9475 80.2435 81.9148 80.2089H81.9178ZM84.3611 82.4502C84.1374 82.2443 84.2492 81.3791 84.4997 80.6851C85.1125 80.1772 88.1627 77.6507 89.3507 76.6063C90.6981 75.8677 91.0674 75.94 91.2396 76.0737C91.7099 76.439 91.2663 77.4735 91.0862 77.6883C89.9605 78.8615 86.4797 81.7087 86.0372 82.0721C84.7125 82.7185 84.3908 82.4799 84.3581 82.4502H84.3611ZM88.9052 82.7829C87.2103 83.9293 86.6629 83.9125 86.5658 83.8966C86.5424 83.5364 86.6105 83.176 86.7638 82.8492C87.4152 82.3176 90.7931 79.5476 91.9009 78.3744C92.1772 78.1586 92.5034 78.0159 92.8494 77.9596C92.9612 78.4902 91.8891 80.7613 88.9022 82.7829H88.9052Z" fill="#2C2C2C"/>
<path d="M96.7757 169.075H113.757L123.292 174.609V192.448H103.948L96.4985 185.212L96.7757 169.075Z" fill="#C8705A"/>
<path d="M96.7755 179.767H61.3226L49.896 161.37V128.544H92.3422L107.244 136.068V148.892C107.244 148.892 120.222 147.407 120.222 160.354C120.222 170.563 108.552 172.283 103.146 168.901L96.7755 169.077V179.767Z" fill="#FDF6EE"/>
<path d="M92.2354 77.7507L107.279 69.4941H148.079V103.076H185.708V179.629H148.097V119.948H92.2354V77.7507Z" fill="#FDF6EE"/>
<path d="M92.2354 119.947H148.097V179.628H123.292V174.609L114.798 169.27C114.798 169.27 120.222 166.084 120.222 160.352C120.222 154.62 117.632 148.89 107.244 148.89V136.066L92.3423 128.542L92.2354 119.947Z" fill="#2D6A4F"/>
<path d="M148.079 91.2554H154.921V97.1211H164.055V91.4167H173.887V97.1211H182.323V91.2554H191.565V102.915H148.079V91.2554Z" fill="#2D6A4F"/>
<path d="M92.2354 77.7506L123.435 29.6802L148.079 69.494H107.279L92.2354 77.7506Z" fill="#C8705A"/>
<path d="M167.211 129.734C156.698 129.734 155.934 139.238 155.934 140.42V156.842C155.934 156.911 155.948 156.98 155.975 157.045C156 157.11 156.04 157.169 156.09 157.218C156.138 157.268 156.197 157.306 156.262 157.333C156.326 157.36 156.395 157.373 156.465 157.373H177.383C177.454 157.373 177.522 157.36 177.587 157.333C177.652 157.306 177.71 157.268 177.76 157.218C177.809 157.169 177.848 157.11 177.874 157.046C177.901 156.98 177.915 156.912 177.915 156.842V140.856C177.911 134.987 174.075 129.734 167.211 129.734ZM176.853 156.311H175.019V140.849C175.019 136.519 172.747 132.344 168.6 130.872C175.074 131.231 176.853 138.908 176.853 140.856V156.311Z" fill="#2C2C2C"/>
<path d="M127.938 76.1064C117.424 76.1064 116.66 85.6104 116.66 86.7925V103.216C116.66 103.356 116.716 103.492 116.816 103.591C116.915 103.691 117.051 103.746 117.191 103.746H138.11C138.251 103.746 138.386 103.691 138.485 103.591C138.585 103.492 138.642 103.356 138.642 103.216V87.2291C138.642 81.3594 134.804 76.1064 127.938 76.1064ZM137.578 102.684H135.746V87.2192C135.746 82.8879 133.474 78.7131 129.327 77.241C135.8 77.6004 137.578 85.2778 137.578 87.2251V102.684Z" fill="#2C2C2C"/>
<path d="M191.565 90.7233H182.431C182.291 90.7233 182.155 90.7794 182.055 90.8791C181.956 90.9788 181.9 91.114 181.9 91.255V96.5891H174.475V91.255C174.475 91.114 174.418 90.9788 174.319 90.8791C174.219 90.7794 174.084 90.7233 173.943 90.7233H164.165C164.024 90.7233 163.889 90.7794 163.789 90.8791C163.69 90.9788 163.633 91.114 163.633 91.255V96.5891H155.454V91.255C155.454 91.1141 155.398 90.9791 155.298 90.8794C155.199 90.7798 155.064 90.7236 154.923 90.7233H148.686V69.4383C148.696 69.1938 148.724 69.3879 123.962 29.472C123.914 29.3966 123.848 29.3343 123.77 29.291C123.692 29.2476 123.604 29.2244 123.515 29.2237C123.425 29.2229 123.338 29.2444 123.259 29.2865C123.18 29.3285 123.113 29.3896 123.064 29.4641L91.9572 77.5167C91.8215 77.7266 91.872 77.5445 91.872 128.007H49.9307C49.7904 128.009 49.6566 128.066 49.5573 128.165C49.4581 128.264 49.4013 128.398 49.399 128.538C49.399 161.682 49.3515 161.495 49.4822 161.703L60.8672 179.962C60.9086 180.046 60.9743 180.115 61.0559 180.162C61.1376 180.207 61.2312 180.228 61.3246 180.22H96.1468V185.384C96.1468 185.741 96.2092 185.32 103.715 192.887C103.764 192.938 103.822 192.978 103.888 193.005C103.953 193.032 104.022 193.045 104.093 193.044H123.149C123.218 193.044 123.288 193.03 123.352 193.003C123.416 192.976 123.476 192.938 123.524 192.888C123.574 192.839 123.613 192.78 123.639 192.715C123.666 192.651 123.68 192.581 123.68 192.512V180.226H185.762C185.832 180.226 185.901 180.213 185.966 180.187C186.03 180.16 186.088 180.12 186.138 180.071C186.187 180.021 186.227 179.963 186.254 179.899C186.28 179.834 186.293 179.765 186.293 179.695V103.516H191.565C191.706 103.516 191.841 103.461 191.94 103.361C192.04 103.262 192.097 103.126 192.097 102.985V91.255C192.097 91.1141 192.04 90.979 191.94 90.8794C191.841 90.7797 191.706 90.7236 191.565 90.7233ZM123.604 30.9174L147.195 68.9037H108.108L123.604 30.9174ZM120.879 34.7963L106.893 69.0661L94.0174 76.2931L120.879 34.7963ZM92.9353 78.1206L106.783 70.3462V119.416H92.9353V78.1206ZM109.387 149.35C112.133 149.353 114.767 150.445 116.708 152.387C118.651 154.329 119.743 156.962 119.745 159.709C119.745 168.145 110.567 172.579 103.787 168.421C102.317 167.495 101.107 166.209 100.274 164.683C99.4416 163.159 99.0129 161.446 99.0287 159.709C99.0921 157.5 99.8227 155.363 101.125 153.578C102.426 151.793 104.239 150.444 106.322 149.71C107.327 149.473 108.356 149.353 109.387 149.35ZM92.9353 120.483H106.783V135.206L92.9353 128.222V120.483ZM60.791 177.84L50.4623 161.276V129.531L60.791 136.352V177.84ZM51.6988 129.074H92.2779L105.084 135.536H61.479L51.6988 129.074ZM96.1498 168.935V179.163H61.8542V136.598H106.783V148.588C104.726 149.072 102.843 150.118 101.344 151.609C99.8455 153.1 98.7905 154.978 98.2957 157.034C97.8009 159.089 97.8861 161.241 98.5419 163.251C99.197 165.26 100.398 167.048 102.01 168.417H96.6775C96.0993 168.417 96.1478 168.894 96.1478 168.935H96.1498ZM103.601 191.278L97.2111 185.17V170.008L103.601 174.804V191.278ZM98.2773 169.48H103.487C105.166 170.469 107.067 171.02 109.015 171.086C110.962 171.151 112.896 170.726 114.637 169.852L121.295 174.01H104.339L98.2773 169.48ZM122.617 191.987H104.659V175.069H122.617V191.987ZM147.62 179.163H123.68V174.537C123.682 174.446 123.66 174.357 123.616 174.277C123.572 174.198 123.508 174.132 123.43 174.085L115.668 169.242C117.831 167.82 119.446 165.703 120.248 163.242C121.05 160.78 120.992 158.119 120.083 155.694C119.173 153.271 117.466 151.227 115.244 149.901C113.02 148.574 110.412 148.042 107.847 148.393V120.483H147.62V179.163ZM147.62 119.416H107.847V69.968H147.62V119.416ZM148.682 179.163V106.362L185.229 103.554V179.163H148.682ZM191.033 102.454H148.682V91.7866H154.39V97.1187C154.39 97.1885 154.403 97.2577 154.43 97.3223C154.457 97.3869 154.495 97.4455 154.545 97.4949C154.594 97.5443 154.653 97.5834 154.717 97.6102C154.783 97.6368 154.851 97.6505 154.921 97.6504H164.163C164.232 97.6504 164.301 97.6366 164.366 97.6099C164.43 97.5831 164.49 97.5439 164.538 97.4945C164.588 97.4452 164.627 97.3866 164.653 97.3221C164.68 97.2576 164.693 97.1885 164.693 97.1187V91.7866H173.41V97.1187C173.41 97.1885 173.424 97.2576 173.451 97.3221C173.477 97.3866 173.516 97.4452 173.566 97.4945C173.614 97.5439 173.674 97.5831 173.738 97.6099C173.802 97.6366 173.872 97.6504 173.941 97.6504H182.431C182.501 97.6504 182.57 97.6366 182.634 97.6099C182.699 97.5831 182.758 97.5439 182.806 97.4945C182.856 97.4452 182.896 97.3866 182.921 97.3221C182.948 97.2576 182.962 97.1885 182.962 97.1187V91.7866H191.033V102.454Z" fill="#2C2C2C"/>
</svg>
