<svg width="199" height="186" viewBox="0 0 199 186" fill="none" xmlns="http://www.w3.org/2000/svg">
<path d="M140.583 117.728C137.995 117.347 135.354 117.744 132.991 118.865C130.629 119.986 128.652 121.782 127.31 124.026C125.969 126.272 125.323 128.863 125.455 131.475C125.587 134.087 126.49 136.601 128.051 138.7C129.612 140.797 131.76 142.386 134.222 143.263C136.686 144.141 139.354 144.269 141.89 143.63C144.426 142.991 146.715 141.615 148.468 139.675C150.222 137.735 151.36 135.319 151.741 132.731C151.995 131.013 151.909 129.262 151.485 127.578C151.061 125.893 150.31 124.309 149.273 122.916C148.237 121.522 146.936 120.347 145.445 119.457C143.954 118.566 142.301 117.979 140.583 117.728Z" fill="#C8705A"/>
<path d="M35.3328 4.86298C36.0793 4.92538 36.8308 4.83791 37.543 4.60578C38.2553 4.37355 38.9139 4.00134 39.4803 3.51098C39.5552 3.5869 39.1787 2.67898 39.1787 2.60618L38.8771 2.00298C38.6504 1.4757 38.2729 0.197536 37.6707 0.0425762C36.2355 -0.325584 33.7499 1.7773 33.675 3.1345C33.6785 3.57982 33.8521 4.00695 34.1603 4.32831C34.4686 4.64967 34.888 4.84103 35.3328 4.86298Z" fill="#C8705A"/>
<path d="M7.73956 14.3623C6.99346 14.4429 6.27254 14.6788 5.62326 15.055C4.97395 15.4312 4.41062 15.9392 3.96954 16.5463C3.7553 16.4423 4.80154 17.7943 4.87434 17.8983C5.25082 18.3507 5.85404 19.5571 6.53836 19.5571C7.97044 19.633 10.0057 17.0694 9.78004 15.7091C9.66408 15.2735 9.39222 14.8957 9.01605 14.6474C8.63989 14.3991 8.18562 14.2977 7.73956 14.3623Z" fill="#C8705A"/>
<path d="M26.1246 59.0659C25.9572 59.0659 25.9166 59.0024 25.4164 58.6124C16.9477 52.0011 5.34438 42.949 0.982617 32.4512C0.285598 30.8844 -0.0483771 29.1802 0.00565085 27.4662C0.0596788 25.7521 0.500306 24.0724 1.29462 22.5525C2.06204 20.9013 3.26376 19.4896 4.77134 18.4684C4.852 18.4151 4.95007 18.3947 5.04532 18.4115C5.14058 18.4283 5.22573 18.4811 5.28323 18.5588C5.34074 18.6366 5.36619 18.7335 5.35434 18.8295C5.34249 18.9255 5.29426 19.0133 5.21958 19.0747C3.80949 20.0257 2.6872 21.3451 1.97478 22.8895C1.22902 24.3111 0.814688 25.8832 0.762823 27.4878C0.710948 29.0924 1.02289 30.6879 1.67526 32.1548C5.99855 42.5455 17.5602 51.5196 26.3576 58.394C26.4177 58.4431 26.4613 58.5095 26.4825 58.584C26.5036 58.6587 26.5013 58.738 26.4759 58.8114C26.4506 58.8847 26.4031 58.9484 26.3403 58.9939C26.2775 59.0394 26.2022 59.0646 26.1246 59.0659Z" fill="#2C2C2C"/>
<path d="M57.2882 43.7299C56.3054 32.2993 56.0007 19.7714 51.2 9.31839C48.5522 3.59839 45.2065 0.518955 39.1308 2.28488L38.9229 1.55688C39.3318 1.43634 39.7488 1.34524 40.1708 1.2844C46.1404 0.198635 49.3229 3.4684 51.8896 8.99912C56.7474 19.577 57.049 32.1131 58.0433 43.6623C58.0522 43.7625 58.021 43.862 57.9565 43.9392C57.8921 44.0163 57.7996 44.0647 57.6995 44.0736C57.5994 44.0826 57.4997 44.0515 57.4227 43.987C57.3455 43.9225 57.2972 43.8301 57.2882 43.7299Z" fill="#2C2C2C"/>
<path d="M92.9676 171.834C81.3965 171.834 70.0397 166.426 64.1138 156.754C56.8109 144.818 57.2841 130.408 57.7417 116.474C58.1577 103.682 58.2784 94.663 54.7996 82.1685C53.8848 78.9641 52.5444 75.8968 50.8143 73.0488C50.7896 73.0058 50.7736 72.9585 50.7673 72.9095C50.7609 72.8604 50.7643 72.8106 50.7772 72.7629C50.7901 72.7152 50.8122 72.6703 50.8424 72.6312C50.8726 72.592 50.9102 72.5592 50.9531 72.5345C50.996 72.5099 51.0433 72.4938 51.0924 72.4875C51.1414 72.4812 51.1912 72.4845 51.239 72.4974C51.2868 72.5103 51.3315 72.5324 51.3707 72.5626C51.4099 72.5928 51.4428 72.6304 51.4674 72.6733C53.2369 75.5676 54.6016 78.6906 55.5234 81.9553C59.0345 94.5642 58.9159 103.709 58.4957 116.497C58.0413 130.32 57.5743 144.615 64.7565 156.362C73.6309 170.844 94.9883 175.541 110.46 166.413C120.132 160.731 126.529 150.947 131.51 142.124C131.559 142.037 131.641 141.974 131.737 141.947C131.833 141.92 131.936 141.932 132.023 141.982C132.11 142.031 132.175 142.112 132.201 142.209C132.228 142.304 132.215 142.407 132.166 142.495C122.963 158.794 111.786 171.834 92.9676 171.834Z" fill="#2C2C2C"/>
<path d="M128.976 129.288C128.99 129.191 129.043 129.102 129.123 129.043C129.202 128.984 129.302 128.959 129.401 128.972C129.499 128.986 129.588 129.038 129.648 129.116C129.709 129.195 129.736 129.294 129.723 129.392C128.824 136.087 135.749 141.129 141.978 139.161C142.073 139.131 142.176 139.14 142.265 139.186C142.353 139.233 142.421 139.312 142.45 139.408C142.48 139.502 142.472 139.606 142.425 139.695C142.379 139.783 142.3 139.85 142.204 139.88C135.421 142.018 128.006 136.508 128.976 129.288Z" fill="#2C2C2C"/>
<path d="M55.7647 44.4445C53.3217 50.4641 53.5256 57.9053 46.9445 61.4839C40.6316 64.9159 34.2024 62.0122 29.0752 58.0914C27.7939 57.1107 26.8912 57.2594 25.6827 58.2422C25.457 58.4679 24.4742 59.6774 25.0046 60.2026C28.4543 63.6138 33.673 66.7806 38.5756 67.2892C40.8365 67.5242 43.5468 66.6256 45.7381 67.2143C47.4686 67.6781 48.1301 70.9156 48.8289 72.3404C49.272 73.2504 50.8715 73.4844 51.9198 72.718C54.8807 70.56 49.7181 66.8295 51.1658 63.8967C51.9125 62.3845 53.5121 60.6602 54.4075 59.2219C56.2254 56.2821 57.5745 53.0774 58.4063 49.7225C58.7828 48.2145 59.6876 45.8017 58.9336 44.2937C58.2534 42.5601 56.2868 43.1601 55.7647 44.4445Z" fill="#C8705A"/>
<path d="M158.15 41.9617L108.239 30.0444C106.894 29.8012 105.507 30.0788 104.359 30.8208C103.211 31.5629 102.388 32.7137 102.057 34.0401C97.9814 50.6801 81.7772 119.085 81.7772 119.085C81.4584 120.474 81.6988 121.932 82.4464 123.145C83.1941 124.359 84.3889 125.229 85.7728 125.568L135.533 137.406C136.922 137.725 138.38 137.484 139.594 136.736C140.808 135.988 141.678 134.793 142.017 133.409L162.297 48.365C162.565 46.9688 162.283 45.5231 161.51 44.3298C160.737 43.1366 159.533 42.2882 158.15 41.9617Z" fill="#2D6A4F"/>
<path d="M107.116 33.286C107.929 29.3049 107.622 30.6964 108.476 27.1656C108.507 27.0773 108.57 27.0038 108.652 26.9592C108.734 26.9146 108.83 26.9021 108.921 26.9244C109.012 26.9465 109.091 27.0017 109.144 27.0792C109.196 27.1567 109.218 27.2509 109.204 27.3435C108.35 30.8566 108.662 29.4724 107.852 33.4368C107.827 33.5295 107.768 33.6092 107.687 33.6596C107.605 33.71 107.507 33.7274 107.413 33.7082C107.319 33.6889 107.235 33.6345 107.18 33.556C107.125 33.4776 107.102 33.381 107.116 33.286Z" fill="#2C2C2C"/>
<path d="M113.073 34.5641L114.431 28.3782C114.442 28.3299 114.462 28.2842 114.49 28.2438C114.52 28.2033 114.556 28.1688 114.598 28.1424C114.639 28.116 114.686 28.098 114.735 28.0896C114.784 28.081 114.834 28.0823 114.882 28.0932C114.929 28.104 114.975 28.1243 115.016 28.1528C115.056 28.1813 115.091 28.2175 115.118 28.2593C115.144 28.3011 115.161 28.3478 115.171 28.3965C115.179 28.4453 115.177 28.4953 115.166 28.5435L113.814 34.7222C113.794 34.8205 113.734 34.9065 113.65 34.9612C113.566 35.0159 113.463 35.0348 113.365 35.0139C113.266 34.9929 113.18 34.9337 113.126 34.8494C113.071 34.765 113.052 34.6624 113.073 34.5641Z" fill="#2C2C2C"/>
<path d="M119.482 36.1376C120.388 32.246 120.084 33.6541 120.834 29.9642C120.856 29.8679 120.915 29.7841 120.998 29.7306C121.081 29.677 121.181 29.6582 121.277 29.6782C121.374 29.6981 121.459 29.755 121.515 29.8369C121.57 29.9188 121.589 30.019 121.572 30.116C120.844 33.6437 121.166 32.2127 120.213 36.3082C120.182 36.3971 120.121 36.4719 120.039 36.5176C119.957 36.5634 119.861 36.5769 119.769 36.5556C119.678 36.5343 119.598 36.4796 119.545 36.4022C119.492 36.3249 119.47 36.2305 119.482 36.1376Z" fill="#2C2C2C"/>
<path d="M125.438 37.9515C126.43 33.6085 126.134 34.9958 126.79 31.7781C126.81 31.6802 126.868 31.5943 126.953 31.5393C127.036 31.4843 127.138 31.4646 127.236 31.4848C127.333 31.505 127.42 31.5631 127.475 31.6466C127.53 31.7301 127.549 31.832 127.529 31.9299C126.862 35.1539 127.169 33.7676 126.17 38.12C126.138 38.2076 126.077 38.2806 125.996 38.3253C125.914 38.37 125.819 38.3832 125.729 38.3624C125.638 38.3416 125.559 38.2882 125.505 38.2123C125.452 38.1365 125.428 38.0438 125.438 37.9515Z" fill="#2C2C2C"/>
<path d="M131.469 39.2378L132.827 33.054C132.852 32.9603 132.913 32.88 132.996 32.8299C133.078 32.7797 133.178 32.7633 133.273 32.7843C133.367 32.8053 133.451 32.862 133.505 32.9427C133.559 33.0233 133.58 33.1216 133.563 33.2173L132.206 39.398C132.185 39.4957 132.126 39.5808 132.041 39.6348C131.957 39.6889 131.855 39.7073 131.757 39.6861C131.66 39.6648 131.574 39.6057 131.52 39.5216C131.466 39.4375 131.449 39.3355 131.469 39.2378Z" fill="#2C2C2C"/>
<path d="M137.878 40.746L139.235 34.5622C139.26 34.4686 139.321 34.3883 139.405 34.3381C139.487 34.288 139.587 34.2716 139.681 34.2926C139.776 34.3136 139.859 34.3703 139.913 34.4509C139.967 34.5315 139.988 34.6299 139.971 34.7255L138.614 40.9062C138.593 41.0039 138.534 41.0891 138.45 41.1431C138.366 41.1972 138.264 41.2156 138.166 41.1943C138.068 41.1731 137.983 41.1139 137.929 41.0299C137.875 40.9458 137.857 40.8437 137.878 40.746Z" fill="#2C2C2C"/>
<path d="M143.532 41.8025L144.89 35.6156C144.914 35.5196 144.974 35.4368 145.058 35.3849C145.142 35.333 145.243 35.3161 145.339 35.3379C145.436 35.3596 145.52 35.4184 145.573 35.5014C145.627 35.5844 145.646 35.6851 145.626 35.782L144.274 41.9606C144.253 42.0589 144.194 42.1449 144.11 42.1996C144.025 42.2543 143.922 42.2732 143.824 42.2523C143.726 42.2313 143.64 42.1721 143.585 42.0878C143.53 42.0034 143.512 41.9008 143.532 41.8025Z" fill="#2C2C2C"/>
<path d="M149.489 43.0795L150.846 36.9019C150.867 36.8042 150.926 36.7186 151.009 36.6642C151.093 36.6098 151.195 36.591 151.293 36.6118C151.391 36.6326 151.476 36.6914 151.531 36.7753C151.585 36.8591 151.604 36.9612 151.583 37.059L150.224 43.2459C150.202 43.3434 150.142 43.4281 150.058 43.4815C149.973 43.5349 149.87 43.5524 149.773 43.5304C149.676 43.5083 149.591 43.4484 149.538 43.3639C149.484 43.2793 149.467 43.177 149.489 43.0795Z" fill="#2C2C2C"/>
<path d="M155.973 44.6657L157.325 38.4829C157.351 38.3897 157.411 38.3101 157.495 38.2601C157.577 38.2103 157.676 38.1941 157.77 38.2149C157.865 38.2357 157.947 38.292 158.002 38.3719C158.056 38.452 158.077 38.5498 158.061 38.6451L156.709 44.8269C156.688 44.9246 156.628 45.0097 156.545 45.0637C156.461 45.1176 156.358 45.1359 156.261 45.1145C156.163 45.0931 156.078 45.0339 156.024 44.9497C155.97 44.8655 155.951 44.7634 155.973 44.6657Z" fill="#2C2C2C"/>
<path d="M152.949 59.8245L106.565 48.3533C106.475 48.3227 106.401 48.2599 106.356 48.1771C106.311 48.0944 106.298 47.9977 106.321 47.9063C106.344 47.8149 106.4 47.7352 106.478 47.6832C106.557 47.6312 106.653 47.6105 106.746 47.6253L153.037 59.085C153.124 59.1088 153.199 59.1631 153.25 59.238C153.3 59.3128 153.322 59.4033 153.312 59.4928C153.301 59.5825 153.259 59.6651 153.192 59.7261C153.125 59.7869 153.039 59.8219 152.949 59.8245Z" fill="#2C2C2C"/>
<path d="M120.228 62.8406L103.322 58.6067C103.231 58.5767 103.157 58.5137 103.111 58.4303C103.065 58.3469 103.053 58.2494 103.075 58.1572C103.099 58.0651 103.157 57.9852 103.237 57.9335C103.316 57.8818 103.412 57.8623 103.506 57.8787L120.32 62.1011C120.406 62.1264 120.48 62.1813 120.529 62.2562C120.578 62.331 120.599 62.4209 120.588 62.5097C120.577 62.5985 120.535 62.6806 120.468 62.7412C120.403 62.8019 120.318 62.837 120.228 62.8406Z" fill="#2C2C2C"/>
<path d="M149.631 69.8523L125.943 64.0356C125.855 64.0049 125.78 63.9421 125.735 63.8595C125.69 63.7769 125.678 63.6806 125.701 63.5893C125.723 63.4981 125.779 63.4185 125.857 63.3664C125.935 63.3143 126.03 63.2933 126.123 63.3076L149.718 69.1056C149.81 69.125 149.892 69.1783 149.947 69.2546C150.001 69.331 150.026 69.4253 150.015 69.5187C150.004 69.6122 149.959 69.6982 149.888 69.7598C149.816 69.8215 149.725 69.8545 149.631 69.8523Z" fill="#2C2C2C"/>
<path d="M146.691 83.2727L99.1006 71.425C99.0133 71.3927 98.941 71.3293 98.8976 71.247C98.8541 71.1646 98.8427 71.0691 98.8655 70.9788C98.8881 70.8886 98.9433 70.8098 99.0205 70.7578C99.0978 70.7057 99.1911 70.6841 99.2836 70.697L146.781 82.5343C146.867 82.56 146.94 82.615 146.988 82.6895C147.037 82.764 147.058 82.8533 147.047 82.9415C147.036 83.0297 146.995 83.1114 146.929 83.172C146.865 83.2325 146.779 83.2682 146.691 83.2727Z" fill="#2C2C2C"/>
<path d="M113.82 90.1336L95.6384 85.9018C95.5455 85.8749 95.4663 85.8134 95.4175 85.7299C95.3686 85.6464 95.3536 85.5474 95.3757 85.4532C95.3976 85.359 95.455 85.2769 95.5358 85.2237C95.6166 85.1705 95.7148 85.1504 95.81 85.1676L113.906 89.3889C113.995 89.4104 114.074 89.4641 114.127 89.5398C114.181 89.6154 114.203 89.7078 114.193 89.7996C114.183 89.8912 114.139 89.9758 114.069 90.0374C114.001 90.099 113.912 90.1332 113.82 90.1336Z" fill="#2C2C2C"/>
<path d="M142.77 96.6927L118.03 90.877C117.933 90.8541 117.849 90.7935 117.796 90.7085C117.744 90.6237 117.727 90.5213 117.75 90.4241C117.773 90.3269 117.833 90.2427 117.917 90.1901C118.003 90.1376 118.105 90.1209 118.202 90.1438L142.854 95.9491C142.945 95.9699 143.024 96.0229 143.078 96.0978C143.132 96.1737 143.156 96.2663 143.146 96.3589C143.134 96.4504 143.09 96.5356 143.022 96.597C142.952 96.6594 142.863 96.6927 142.77 96.6927Z" fill="#2C2C2C"/>
<path d="M127.917 33.8897C120.221 31.9408 111.406 32.8206 103.565 32.9849C93.6125 33.1929 83.6608 32.5242 73.6341 32.3817C67.9796 32.3017 58.2536 31.4021 54.4076 36.3785C51.8451 39.695 52.0437 44.5185 51.7692 48.3655C50.0812 72.0775 52.1311 104.471 51.92 120.065L52.1467 120.216C54.0187 117.594 58.9171 111.878 61.7968 113.28C63.3121 114.018 63.0771 116.296 62.7765 117.648C61.9445 121.417 59.6461 124.448 58.2536 127.977C56.9463 131.289 59.5265 132.943 60.138 139.061C60.9295 139.061 63.986 139.329 67.3005 139.437C81.5485 139.901 95.1195 138.735 109.596 137.929C115.175 137.617 124.687 138.164 128.294 133.18C131.017 129.417 131.687 123.906 131.914 118.629L131.763 118.177C130.255 118.629 127.915 118.478 127.239 117.121C126.999 116.366 126.947 115.563 127.088 114.783C127.121 114.461 127.218 114.148 127.374 113.864C127.529 113.579 127.739 113.328 127.993 113.125C127.917 112.974 127.766 112.899 127.691 112.748C123.545 113.427 120.754 110.184 121.81 106.566C122.47 105.223 123.281 103.959 124.223 102.796L123.846 102.494C123.085 103.405 122.166 104.172 121.132 104.756C116.764 106.717 116.387 101.365 117.284 98.5736C117.889 96.6756 118.892 94.9284 120.224 93.4474C121.902 91.7688 121.215 92.4781 122.034 91.8635C121.883 91.6378 121.807 91.487 121.656 91.4111C120.978 90.5063 120.073 89.3758 120.224 88.2443C120.299 87.1897 123.24 84.8456 123.994 84.701C124.826 84.5429 125.501 85.455 126.029 85.9833C126.518 86.5831 126.969 87.2124 127.381 87.8678C128.224 87.3444 129.182 87.0338 130.171 86.963C131.042 86.8099 131.925 86.7344 132.809 86.7373C132.96 76.7097 132.926 66.6736 133.714 56.6543C134.252 49.9421 137.489 36.3161 127.917 33.8897Z" fill="#FDF6EE"/>
<path d="M194.34 138.989C190.269 133.526 185.754 128.407 180.843 123.684C178.887 121.796 175.643 117.876 172.475 118.484C170.187 118.922 169.395 120.518 159.13 131.9C150.192 141.815 148.801 142.699 148.801 143.511C148.602 147.292 163.257 175.835 167.273 182.263C167.793 183.095 168.475 184.474 169.61 184.676C170.587 184.849 171.722 184.074 172.475 183.621C182.022 177.863 188.673 167.201 193.811 157.309C195.46 154.137 197.748 150.521 197.958 146.909C198.135 143.882 196.01 141.242 194.34 138.989Z" fill="#FDF6EE"/>
<path d="M60.0631 155.123C57.407 153.563 52.3671 153.012 50.2611 152.485C45.2785 151.237 37.9569 148.361 33.2228 149.77C27.7337 151.404 23.27 159.194 20.1791 163.416C17.9171 166.507 15.7071 169.581 13.545 172.765C12.7816 173.89 11.3516 176.235 11.6594 177.138C12.1794 178.65 26.5907 182.242 33.5244 183.17C39.0302 183.906 50.7811 187.008 55.0867 182.038C58.0965 178.566 58.604 172.158 59.6856 167.94C60.7152 163.928 63.8851 157.361 60.0631 155.123Z" fill="#FDF6EE"/>
<path d="M117.513 60.2778L117.287 67.3654H108.691L108.39 76.7888L101.303 76.8647V66.9878L92.407 66.837L92.5578 60.0521H102.057L101.981 50.4009L108.993 50.4768L108.918 60.2778H117.513Z" fill="#C8705A"/>
<path d="M147.444 90.5105C142.517 86.7436 135.152 86.1758 130.406 86.9672C127.516 87.1898 122.241 91.6399 120.453 93.5265C119.099 94.9918 118.093 96.7442 117.513 98.6537C116.608 101.443 117.027 106.887 121.361 104.835C122.266 104.404 123.107 103.853 123.864 103.195C123.193 104.297 122.532 105.641 122.04 106.57C120.908 110.113 123.774 113.355 127.92 112.752C127.996 112.903 128.147 112.979 128.222 113.129C127.969 113.332 127.759 113.583 127.603 113.868C127.448 114.152 127.35 114.465 127.317 114.787C127.178 115.567 127.23 116.369 127.468 117.125C128.071 118.477 130.418 118.666 131.992 118.181C132.219 118.11 132.369 118.03 132.595 117.954C137.942 123.175 142.885 126.373 149.634 135.823C149.86 136.2 151.444 139.14 151.895 139.14L152.273 139.441C155.793 135.451 165.599 124.643 166.899 123.232C163.051 110.641 158.075 98.6537 147.444 90.5105Z" fill="#B7D7C8"/>
<path d="M60.2503 139.041C59.6877 133.412 57.0138 131.39 58.3284 128.056C59.7209 124.527 62.0578 121.49 62.8524 117.728C63.1394 116.368 63.388 114.088 61.8717 113.36C58.9482 111.937 53.8574 117.911 51.9657 120.559C51.9657 120.559 51.9199 106.123 51.6183 97.7539H51.2418C36.9938 109.968 35.2581 133.114 40.2345 149.851C43.7777 150.53 47.4718 151.811 50.1862 152.49C52.2974 153.017 57.4236 153.47 59.9872 155.129L60.5904 155.053C62.9741 152.073 67.3005 143.233 67.3005 139.446C65.0385 139.366 60.2503 139.041 60.2503 139.041Z" fill="#B7D7C8"/>
<path d="M105.148 82.9716C101.137 82.9716 97.2163 81.7822 93.8812 79.5538C90.5461 77.3254 87.9469 74.1581 86.4119 70.4524C84.877 66.7468 84.4753 62.6691 85.2578 58.7352C86.0403 54.8012 87.9718 51.1877 90.808 48.3515C93.6443 45.5153 97.2578 43.5838 101.192 42.8013C105.125 42.0188 109.203 42.4204 112.909 43.9554C116.615 45.4903 119.782 48.0896 122.011 51.4247C124.238 54.7597 125.428 58.6806 125.428 62.6916C125.422 68.0683 123.284 73.2228 119.481 77.0248C115.679 80.8266 110.525 82.9653 105.148 82.9716ZM105.148 43.1635C101.286 43.1635 97.5107 44.3088 94.2995 46.4544C91.0883 48.6001 88.5855 51.6498 87.1076 55.2179C85.6296 58.786 85.2429 62.7122 85.9963 66.5001C86.7498 70.288 88.6095 73.7674 91.3405 76.4982C94.0714 79.2292 97.5507 81.089 101.339 81.8424C105.126 82.5958 109.052 82.2092 112.621 80.7312C116.189 79.2533 119.239 76.7504 121.385 73.5392C123.53 70.328 124.675 66.5527 124.675 62.6906C124.669 57.5137 122.609 52.5508 118.949 48.8902C115.288 45.2296 110.325 43.1702 105.148 43.1635Z" fill="#2C2C2C"/>
<path d="M117.665 52.9653C116.314 51.2033 114.551 49.8002 112.53 48.8789C110.509 47.9578 108.294 47.5468 106.078 47.6821C105.98 47.6853 105.885 47.6504 105.812 47.5847C105.74 47.5189 105.695 47.4275 105.689 47.3298C105.683 47.2321 105.714 47.1357 105.777 47.0609C105.841 46.9861 105.93 46.9389 106.028 46.9292C108.369 46.7857 110.709 47.2193 112.842 48.1918C114.976 49.1643 116.839 50.646 118.266 52.5067C118.296 52.5462 118.318 52.5912 118.33 52.6392C118.344 52.6872 118.347 52.7372 118.34 52.7864C118.333 52.8356 118.317 52.883 118.292 52.926C118.267 52.9688 118.233 53.0065 118.194 53.0366C118.155 53.0667 118.11 53.0888 118.062 53.1014C118.014 53.1142 117.964 53.1174 117.915 53.1107C117.865 53.1042 117.819 53.0878 117.775 53.063C117.732 53.038 117.695 53.0048 117.665 52.9653Z" fill="#2C2C2C"/>
<path d="M120.453 60.3702C120.378 58.6126 119.93 56.8912 119.136 55.321C119.091 55.2317 119.084 55.1282 119.115 55.0335C119.147 54.9387 119.215 54.8603 119.305 54.8156C119.394 54.771 119.497 54.7636 119.593 54.7952C119.687 54.8268 119.765 54.8948 119.81 54.9841C120.651 56.6491 121.127 58.4744 121.207 60.338C121.208 60.4362 121.171 60.5309 121.104 60.6022C121.036 60.6734 120.944 60.7156 120.846 60.7199C120.747 60.7241 120.651 60.6898 120.579 60.6246C120.505 60.5594 120.46 60.4681 120.453 60.3702Z" fill="#2C2C2C"/>
<path d="M59.9122 140.421C59.8396 138.061 59.3569 135.732 58.4854 133.537C57.0294 129.729 57.2301 129.009 59.8675 123.962C61.0159 121.983 61.8958 119.859 62.4842 117.647C64.325 109.371 54.5198 113.869 47.8368 128.692C47.7806 128.973 47.3168 130.343 47.245 130.673C47.2404 130.75 47.2131 130.824 47.1667 130.886C47.1202 130.948 47.0567 130.994 46.9839 131.02C46.9111 131.046 46.8323 131.051 46.7572 131.032C46.6821 131.013 46.6142 130.974 46.5618 130.916C46.4214 130.726 46.437 130.677 46.8374 129.409C46.9414 129.083 47.0818 128.635 47.0974 128.544C47.7746 126.967 48.546 125.432 49.4072 123.947C57.6856 109.871 64.8127 110.643 63.2205 117.811C62.3698 121.675 60.0422 124.713 58.6788 128.197C57.7584 130.464 58.9014 132.276 59.6658 134.574C60.2665 136.469 60.6028 138.437 60.6652 140.423C60.665 140.523 60.6251 140.619 60.5542 140.689C60.4834 140.759 60.3875 140.798 60.2877 140.798C60.1878 140.798 60.0922 140.758 60.0217 140.687C59.9513 140.616 59.912 140.521 59.9122 140.421Z" fill="#2C2C2C"/>
<path d="M67.4003 139.216C67.3009 139.212 67.2038 139.246 67.129 139.311C67.0543 139.377 67.0076 139.468 66.9988 139.567C66.6972 144.099 62.1399 152.503 60.3012 154.827C57.9551 153.694 55.4444 152.937 52.8621 152.588C48.127 151.668 45.1297 150.34 40.5839 149.44C35.8706 133.181 37.2943 110.264 51.5621 98.0348C51.5998 98.0026 51.6306 97.9631 51.6531 97.9194C51.6756 97.8757 51.6891 97.8268 51.6929 97.7779C51.6969 97.728 51.691 97.6792 51.6757 97.6313C51.6603 97.5845 51.6358 97.5408 51.6037 97.5034C51.5716 97.4659 51.5323 97.4348 51.4882 97.4129C51.4441 97.39 51.3959 97.3765 51.3466 97.3724C51.2972 97.3682 51.2476 97.3744 51.2006 97.39C51.1535 97.4056 51.1099 97.4295 51.0723 97.4618C36.6547 109.82 35.1041 132.831 39.7581 149.29C37.567 148.828 35.3023 148.841 33.1167 149.329C27.5724 150.954 22.9902 158.867 19.8743 163.122C17.6498 166.163 15.3483 169.308 13.2308 172.482C12.1679 174.078 10.9699 176.188 11.2985 177.172C11.883 179.123 27.6941 182.723 33.4723 183.469C39.3265 184.27 50.8601 187.345 55.3706 182.212C58.4698 178.649 58.9919 172.273 60.0506 167.964C60.8015 165.11 63.4295 159.344 61.726 156.191C61.4905 155.856 61.2168 155.549 60.9107 155.276C63.052 152.544 67.4471 144.194 67.7518 139.621C67.7557 139.571 67.7498 139.521 67.7342 139.474C67.7186 139.427 67.6937 139.383 67.661 139.345C67.6283 139.307 67.5884 139.276 67.5436 139.254C67.4989 139.232 67.4502 139.219 67.4003 139.216ZM61.0875 156.584C62.5757 159.347 60.0589 164.967 59.3195 167.775C58.267 172.058 57.7407 178.337 54.8027 181.711C50.6105 186.482 39.1154 183.473 33.5722 182.717C25.8762 181.724 12.585 178.164 12.0171 176.94C11.4815 175.334 18.2135 166.89 22.18 161.144C25.0359 157.003 28.9473 151.331 33.3288 150.053C38.3947 148.551 46.4141 152.1 52.7186 153.324C55.1043 153.788 58.0652 154.386 59.8717 155.445C60.3511 155.736 60.7651 156.124 61.0875 156.584Z" fill="#2C2C2C"/>
<path d="M195.017 139.373C190.819 133.665 186.142 128.327 181.035 123.417C178.786 121.17 175.612 117.419 172.314 118.113C170.182 118.562 168.705 120.776 167.459 122.065C167.276 122.252 167.134 122.411 166.979 122.585C163.641 111.249 158.686 98.6526 147.676 90.2193C144.262 87.5569 140.262 86.3713 134.703 86.3713C133.257 86.3078 131.807 86.3842 130.376 86.599C129.431 86.6666 128.513 86.94 127.684 87.3998C127.37 86.9158 127.03 86.4486 126.667 86C126.2 85.4166 125.288 84.1363 124.149 84.3433C123.389 84.641 122.69 85.078 122.09 85.6318L119.074 81.944C124.153 78.2918 127.583 72.7806 128.617 66.6107C129.65 60.4408 128.205 54.1123 124.593 49.004C120.982 43.8957 115.498 40.4215 109.337 39.3382C103.175 38.2551 96.8354 39.6505 91.6984 43.2209C86.5613 46.7911 83.0433 52.2468 81.9107 58.3993C80.7781 64.5519 82.1229 70.9026 85.6518 76.0682C89.1808 81.2337 94.6082 84.7953 100.751 85.9771C106.894 87.159 113.256 85.8652 118.45 82.3777C120.359 84.7146 121.154 85.7057 121.521 86.1331C120.84 86.6608 120.335 87.3845 120.077 88.2069C119.883 89.6702 121.145 91.0066 121.764 91.8105C121.148 92.2292 120.588 92.7236 120.095 93.281C118.716 94.7932 117.686 96.5903 117.079 98.5445C116.159 101.383 116.594 105.637 119.584 105.637C120.882 105.549 122.109 105.012 123.055 104.118C122.535 104.887 122.074 105.697 121.678 106.538C120.499 110.226 123.342 113.61 127.533 113.257C127.135 113.854 126.882 114.538 126.798 115.25C126.712 115.963 126.798 116.686 127.045 117.36C127.756 118.96 130.317 119.114 131.957 118.621C132.129 118.563 132.269 118.504 132.402 118.451C135.439 121.395 138.971 124.275 141.821 127.196C144.708 130.217 147.35 133.462 149.725 136.901C150.646 138.48 151.181 139.293 151.627 139.528C150.682 140.549 148.497 142.493 148.427 143.425C148.152 147.05 160.999 171.747 162.87 175.211C165.2 179.597 166.71 181.971 167.045 182.552C167.706 183.696 168.507 185.006 169.877 185.006C170.891 184.878 171.854 184.489 172.672 183.876C182.552 177.903 188.938 167.529 194.15 157.411C195.719 154.273 198.102 150.567 198.336 146.857C198.479 144.034 196.636 141.56 195.017 139.373ZM82.0777 62.6146C82.0779 58.0518 83.4312 53.5914 85.9663 49.7977C88.5014 46.0039 92.1046 43.0471 96.3201 41.3011C100.536 39.5552 105.174 39.0984 109.649 39.9887C114.124 40.879 118.235 43.0763 121.461 46.3028C124.688 49.5293 126.885 53.64 127.775 58.1152C128.666 62.5903 128.208 67.2289 126.462 71.4445C124.716 75.66 121.759 79.263 117.965 81.798C114.171 84.3329 109.711 85.6859 105.148 85.6859C99.0373 85.6599 93.1842 83.2208 88.8632 78.8997C84.5423 74.5785 82.1035 68.7254 82.0777 62.6146ZM127.11 98.9896C127.214 99.1227 128.595 100.878 129.049 101.472C128.425 101.132 127.714 100.984 127.006 101.048C126.297 101.111 125.624 101.383 125.069 101.828C125.608 101.138 126.77 99.5782 127.114 98.9896H127.11ZM121.123 104.491C120.719 104.766 120.241 104.908 119.753 104.901C119.264 104.893 118.79 104.736 118.395 104.449C116.469 102.721 117.16 96.3095 122.168 92.3846C123.09 93.6835 123.691 94.631 126.617 98.3594C125.721 99.7426 124.746 101.072 123.694 102.34C123.01 103.24 122.133 103.975 121.128 104.491H121.123ZM122.371 106.805C122.815 105.878 123.337 104.99 123.931 104.152C123.704 106.912 125.574 110.253 127.167 112.518C123.626 112.662 121.439 109.77 122.378 106.805H122.371ZM127.744 117.092C127.55 116.545 127.48 115.961 127.539 115.384C127.599 114.807 127.786 114.251 128.086 113.754C129.229 115.208 130.47 116.582 131.799 117.868C130.672 118.284 128.275 118.263 127.75 117.092H127.744ZM150.367 136.514C148.01 132.989 145.328 129.691 142.359 126.663C136.915 121.078 129.846 116.367 126.135 109.406C124.956 107.228 124.022 104.156 125.242 102.689C126.633 101.303 128.142 101.708 129.933 102.761C132.429 104.009 135.009 108.205 137.575 109.969C139.634 111.434 142.014 112.387 144.515 112.747C144.98 112.814 145.521 112.827 145.948 112.898C146.047 112.914 146.148 112.89 146.229 112.832C146.31 112.774 146.365 112.686 146.382 112.588C146.399 112.489 146.375 112.388 146.316 112.307C146.258 112.226 146.171 112.171 146.072 112.154C145.704 112.093 145.306 112.079 144.938 112.042C144.925 111.997 136.536 100.327 132.354 94.2087C130.673 91.746 129.178 89.5568 128.1 88.0207C128.832 87.6279 129.639 87.3954 130.468 87.3385C131.317 87.1891 132.177 87.1153 133.039 87.118C138.22 87.118 142.755 87.3354 147.21 90.81C158.196 99.2257 163.077 111.903 166.382 123.242C158.234 132.342 159.855 130.184 152.102 138.969C151.455 138.204 150.876 137.381 150.373 136.514H150.367ZM197.576 146.81C197.354 150.346 195.08 153.855 193.47 157.064C188.282 167.136 181.965 177.359 172.275 183.226C169.888 184.672 169.23 184.824 167.689 182.17C161.988 172.386 156.827 162.298 152.228 151.95C150.7 148.704 149.108 144.626 149.17 143.478C149.236 142.893 151.562 140.731 152.47 139.694C161.408 129.564 160.461 131.128 168.746 121.754C169.805 120.553 171 119.164 172.464 118.856C175.064 118.309 177.918 121.298 179.801 123.243C184.949 128.169 189.683 133.511 193.954 139.215C195.628 141.466 197.724 144.047 197.582 146.807L197.576 146.81Z" fill="#2C2C2C"/>
<path d="M52.3743 120.15C52.3674 120.247 52.3233 120.338 52.2514 120.403C52.1794 120.469 52.085 120.503 51.9879 120.501C51.8908 120.498 51.7983 120.458 51.7299 120.389C51.6615 120.321 51.6222 120.227 51.6203 120.131C52.0498 104.232 49.662 79.1077 51.3957 48.4194C51.6286 44.3946 51.482 39.5493 54.1142 36.2192C57.6502 31.6494 65.7227 31.873 71.6164 32.0332C95.1932 32.6853 97.1546 32.9317 108.213 32.5438C114.902 32.3098 121.818 32.0665 128.009 33.5994C136.516 35.7429 135.346 46.4122 134.571 53.4717C133.607 62.2566 133.479 77.8337 133.348 86.8225C133.345 86.922 133.303 87.0165 133.232 87.0857C133.16 87.1549 133.065 87.1933 132.965 87.1927C132.915 87.1922 132.866 87.1819 132.821 87.1624C132.776 87.1429 132.734 87.1146 132.7 87.0791C132.665 87.0437 132.638 87.0016 132.62 86.9557C132.602 86.9097 132.593 86.8605 132.594 86.811C132.724 77.8483 132.855 62.1984 133.822 53.3896C134.612 46.1824 135.694 36.3128 127.827 34.3305C121.74 32.8246 114.877 33.0659 108.239 33.2978C76.5023 34.4127 60.1826 29.5985 54.706 36.6841C52.2349 39.8093 52.3743 44.5371 52.1455 48.4621C50.3858 79.6205 52.8121 103.864 52.3743 120.15Z" fill="#2C2C2C"/>
<path d="M60.6414 139.441C60.5416 139.434 60.4485 139.388 60.3825 139.313C60.3167 139.238 60.2833 139.139 60.2899 139.039C60.2986 138.94 60.3453 138.849 60.4201 138.783C60.495 138.718 60.5921 138.684 60.6913 138.689C82.0217 140.11 101.237 137.766 112.442 137.461C117.811 137.315 125.165 137.115 128.139 132.964C130.904 129.124 131.487 123.279 131.687 118.612C131.694 118.515 131.739 118.423 131.813 118.358C131.886 118.293 131.981 118.259 132.08 118.263C132.178 118.267 132.27 118.31 132.338 118.381C132.406 118.452 132.442 118.547 132.441 118.645C132.224 123.708 131.616 129.421 128.751 133.4C125.047 138.57 115.543 137.993 109.768 138.306C90.8544 139.394 78.0292 140.6 60.6414 139.441Z" fill="#2C2C2C"/>
<path d="M61.7967 94.8077C61.6968 94.8098 61.6003 94.7723 61.5284 94.7026C61.4564 94.633 61.4148 94.5383 61.4129 94.4385C61.4109 94.3386 61.4488 94.2419 61.5181 94.1702C61.5872 94.0984 61.6823 94.0568 61.7821 94.0547L117.047 91.9436C117.147 91.9399 117.243 91.976 117.317 92.044C117.39 92.1119 117.434 92.2062 117.437 92.3061C117.441 92.4063 117.404 92.503 117.337 92.5769C117.269 92.6497 117.175 92.6934 117.075 92.6965L61.7967 94.8077Z" fill="#2C2C2C"/>
<path d="M61.5701 103.327C61.4702 103.329 61.3737 103.291 61.3019 103.222C61.23 103.152 61.1886 103.058 61.1868 102.958C61.1851 102.858 61.223 102.761 61.2923 102.69C61.3617 102.618 61.4567 102.576 61.5565 102.574L83.1948 101.742C83.2925 101.742 83.3865 101.78 83.4568 101.848C83.5272 101.916 83.5685 102.008 83.5721 102.106C83.5757 102.203 83.5414 102.299 83.4763 102.371C83.4111 102.444 83.3203 102.489 83.2229 102.496L61.5701 103.327Z" fill="#2C2C2C"/>
<path d="M87.6564 102.046C87.5596 102.043 87.4676 102.003 87.3995 101.934C87.3315 101.865 87.2926 101.772 87.2908 101.676C87.2891 101.579 87.3246 101.484 87.3902 101.414C87.4558 101.342 87.5463 101.298 87.6429 101.292L116.52 100.236C116.617 100.236 116.711 100.275 116.781 100.342C116.851 100.41 116.893 100.503 116.896 100.6C116.899 100.698 116.865 100.793 116.8 100.866C116.735 100.938 116.644 100.983 116.547 100.99L87.6564 102.046Z" fill="#2C2C2C"/>
<path d="M61.3444 111.546C61.2475 111.543 61.1554 111.503 61.0872 111.434C61.019 111.365 60.98 111.272 60.9781 111.175C60.9762 111.079 61.0117 110.985 61.0772 110.913C61.1426 110.842 61.2331 110.798 61.3298 110.792L116.593 108.681C116.693 108.677 116.791 108.714 116.864 108.781C116.938 108.849 116.98 108.944 116.984 109.043C116.989 109.143 116.952 109.241 116.885 109.314C116.817 109.388 116.722 109.43 116.622 109.434L61.3444 111.546Z" fill="#2C2C2C"/>
<path d="M62.7016 122.176C62.6046 122.174 62.5125 122.133 62.4442 122.065C62.3758 121.996 62.3365 121.903 62.3346 121.807C62.3326 121.71 62.3679 121.615 62.4333 121.544C62.4988 121.472 62.5892 121.428 62.686 121.422L81.9124 120.668C82.0103 120.668 82.1043 120.705 82.1749 120.773C82.2456 120.841 82.2871 120.933 82.2908 121.031C82.2946 121.129 82.2603 121.224 82.1952 121.297C82.13 121.37 82.0391 121.415 81.9416 121.422L62.7016 122.176Z" fill="#2C2C2C"/>
<path d="M86.3739 121.046C86.2771 121.043 86.1851 121.002 86.117 120.933C86.0489 120.865 86.01 120.772 86.0084 120.675C86.0066 120.579 86.0422 120.484 86.1077 120.413C86.1732 120.342 86.2637 120.298 86.3604 120.292L115.236 119.16C115.334 119.159 115.428 119.197 115.499 119.265C115.57 119.333 115.611 119.424 115.616 119.522C115.62 119.621 115.585 119.716 115.52 119.789C115.454 119.862 115.364 119.907 115.266 119.914L86.3739 121.046Z" fill="#2C2C2C"/>
<path d="M88.7742 13.9214L84.5757 14.9707L82.892 9.5752C82.8772 9.52788 82.8533 9.484 82.8216 9.44604C82.7898 9.40797 82.7509 9.37656 82.7072 9.35358C82.6633 9.3306 82.6153 9.31645 82.566 9.31208C82.5167 9.30761 82.467 9.31292 82.4198 9.32768C82.3725 9.34235 82.3286 9.36627 82.2906 9.39799C82.2526 9.42971 82.2213 9.4686 82.1982 9.51249C82.1752 9.55628 82.1612 9.60422 82.1567 9.65352C82.1522 9.70281 82.1575 9.75252 82.1723 9.79984L83.8425 15.1538L79.7262 16.1834C79.6364 16.2135 79.5613 16.2765 79.5158 16.3596C79.4704 16.4428 79.458 16.5401 79.4811 16.6319C79.5042 16.7239 79.5612 16.8036 79.6405 16.8554C79.7199 16.9072 79.8158 16.9272 79.9092 16.9114L84.0692 15.8714L85.1145 19.2202C85.1442 19.3155 85.2106 19.3952 85.2993 19.4417C85.3878 19.4881 85.4911 19.4974 85.5866 19.4677C85.682 19.4378 85.7617 19.3714 85.8081 19.2828C85.8545 19.1943 85.8639 19.0909 85.8341 18.9955L84.8025 15.6873L88.9625 14.6473C89.051 14.6156 89.1244 14.5519 89.1684 14.4688C89.2124 14.3858 89.2237 14.2892 89.2001 14.1982C89.1765 14.1072 89.1197 14.0284 89.0409 13.9771C88.962 13.9258 88.867 13.906 88.7742 13.9214Z" fill="#C8705A"/>
<path d="M137.803 167.865L133.517 167.761L133.345 162.125C133.338 162.028 133.295 161.937 133.222 161.872C133.15 161.806 133.054 161.772 132.958 161.775C132.86 161.777 132.768 161.818 132.7 161.887C132.631 161.957 132.593 162.05 132.591 162.147L132.763 167.743L128.529 167.639C128.429 167.638 128.334 167.675 128.261 167.744C128.189 167.812 128.147 167.906 128.143 168.006C128.142 168.055 128.151 168.105 128.168 168.15C128.186 168.197 128.213 168.239 128.246 168.275C128.281 168.31 128.321 168.34 128.367 168.359C128.413 168.379 128.461 168.391 128.511 168.392L132.786 168.496L132.89 172.022C132.897 172.119 132.941 172.209 133.014 172.275C133.085 172.34 133.18 172.375 133.278 172.372C133.376 172.369 133.467 172.329 133.536 172.259C133.604 172.19 133.643 172.096 133.644 171.999L133.54 168.514L137.793 168.618C137.892 168.619 137.989 168.581 138.06 168.511C138.132 168.442 138.173 168.347 138.174 168.247C138.175 168.147 138.137 168.05 138.068 167.979C137.998 167.908 137.903 167.866 137.803 167.865Z" fill="#C8705A"/>
<path d="M148.47 27.952L144.337 26.5865L145.85 21.0974C145.876 21.0009 145.864 20.8978 145.814 20.8107C145.765 20.7238 145.683 20.6601 145.586 20.6335C145.49 20.6071 145.387 20.62 145.299 20.6696C145.213 20.7191 145.148 20.8012 145.122 20.8977L143.62 26.3494L139.571 25.0099C139.476 24.9815 139.375 24.9909 139.288 25.0363C139.201 25.0816 139.134 25.1593 139.104 25.2527C139.073 25.3461 139.079 25.4479 139.123 25.5364C139.165 25.6249 139.241 25.693 139.334 25.7264L143.417 27.0784L142.481 30.473C142.467 30.5208 142.464 30.5707 142.47 30.6199C142.477 30.6691 142.492 30.7166 142.516 30.7598C142.566 30.8468 142.648 30.9107 142.744 30.9373C142.841 30.964 142.945 30.9512 143.031 30.9018C143.118 30.8523 143.182 30.7703 143.209 30.6737L144.133 27.3155C148.488 28.7549 148.243 28.6883 148.349 28.6883C148.439 28.6894 148.526 28.6581 148.595 28.6001C148.665 28.5422 148.71 28.4614 148.725 28.3724C148.74 28.2835 148.722 28.1921 148.675 28.115C148.628 28.0379 148.555 27.9801 148.47 27.952Z" fill="#C8705A"/>
</svg>
