<svg width="487" height="487" viewBox="0 0 487 487" fill="none" xmlns="http://www.w3.org/2000/svg">
<path d="M382.782 71.1022C383.512 86.0725 391.694 257.331 385.59 334.345C367.305 334.503 118.378 336.5 36.1671 331.969C36.1939 316.628 36.4106 144.639 33.8879 70.3327C37.3943 68.2386 69.719 65.845 150.364 65.8353C226.65 65.8231 310.635 67.866 382.782 71.1022Z" fill="#2D6A4F"/>
<path d="M407.017 53.0025C406.981 52.1259 406.62 51.2941 406.007 50.667C405.393 50.04 404.57 49.6619 403.694 49.6056C217.121 37.6741 41.8136 47.9401 16.509 49.6056C15.6295 49.6616 14.8026 50.0439 14.1901 50.6778C13.5775 51.3113 13.2236 52.1507 13.1974 53.0317C11.2908 115.531 12.5083 321.206 13.178 350.289C13.1959 351.197 13.5643 352.067 14.2063 352.71C14.8483 353.355 15.7142 353.725 16.6235 353.747C94.0565 355.856 373.025 359.452 406.711 359.459C407.631 359.462 408.517 359.104 409.18 358.463C409.842 357.823 410.227 356.949 410.256 356.028C414.013 234.517 407.994 77.2429 407.017 53.0025ZM392.142 338.903C392.118 339.193 391.989 339.466 391.774 339.665C391.562 339.865 391.282 339.977 390.99 339.982C322.628 340.659 103.417 341.625 30.6101 337.486C30.3114 337.469 30.0304 337.337 29.8251 337.121C29.6198 336.902 29.5061 336.614 29.5071 336.315C29.5071 334.415 29.8626 145.898 27.1597 66.8284C27.1532 66.5951 27.197 66.3633 27.2881 66.1485C27.3794 65.9338 27.5157 65.7414 27.6881 65.5841C33.3495 59.969 140.059 60.176 148.442 60.1735C223.262 60.1735 310.667 62.1215 388.175 65.6182C388.467 65.6296 388.743 65.7499 388.95 65.9557C389.157 66.1612 389.281 66.4371 389.293 66.7285C389.398 68.6278 398.831 257.172 392.142 338.903Z" fill="#2D6A4F"/>
<path d="M51.8653 225.299C51.8653 225.299 98.6709 219.698 161.893 216.369L172.308 307.097C106.879 314.493 62.1459 316.331 62.1459 316.331C62.1459 316.331 51.332 240.539 51.8653 225.299Z" fill="#FDF6EE"/>
<path d="M93.9056 264.718L80.7566 291.822C77.7079 281.052 75.6431 257.321 74.9929 249.21C77.932 251.708 92.5006 263.62 93.9056 264.718Z" fill="#C8705A"/>
<path d="M109.21 272.377C106.675 272.097 90.7158 259.554 76.04 247.033C96.5939 241.662 129.449 241.448 138.722 241.501C125.792 256.484 111.664 271.656 109.21 272.377Z" fill="#C8705A"/>
<path d="M121.404 264.256L144.205 288.698C123.736 291.623 103.107 293.3 82.4343 293.722L95.7927 266.189C105.986 274.061 108.24 274.731 109.163 274.731C109.263 274.731 111.691 274.497 121.404 264.256Z" fill="#C8705A"/>
<path d="M140.594 242.906C143.06 257.287 144.615 271.807 145.25 286.383L123.009 262.551C124.387 261.085 138.106 245.781 140.594 242.906Z" fill="#C8705A"/>
<path d="M173.779 307.053C172.074 298.745 167.801 259.215 165.28 235.136L167.657 237.502C167.879 237.712 168.174 237.827 168.479 237.823C168.784 237.818 169.076 237.695 169.291 237.479C169.507 237.262 169.629 236.971 169.633 236.665C169.637 236.36 169.521 236.066 169.31 235.844L164.896 231.447L163.335 216.264C163.305 215.976 163.17 215.709 162.955 215.515C162.74 215.321 162.461 215.213 162.171 215.212C159.736 215.212 155.161 215.444 149.224 215.833L145.228 211.845C145.008 211.626 144.711 211.503 144.4 211.504C144.09 211.505 143.793 211.629 143.574 211.848C143.355 212.068 143.232 212.366 143.233 212.677C143.233 212.987 143.357 213.284 143.577 213.503L146.117 216.033C124.652 217.516 89.0966 220.63 68.236 222.498L70.3958 219.598C70.4961 219.476 70.5706 219.334 70.615 219.182C70.659 219.03 70.6719 218.871 70.6529 218.713C70.6337 218.556 70.5828 218.405 70.5034 218.268C70.4241 218.131 70.3179 218.011 70.191 217.917C70.0642 217.822 69.9195 217.754 69.7656 217.717C69.6117 217.68 69.452 217.674 69.2959 217.7C69.1396 217.726 68.9906 217.784 68.8574 217.869C68.7242 217.955 68.6097 218.067 68.5209 218.198L65.1119 222.778L51.6804 223.995C51.3807 224.023 51.1033 224.165 50.9051 224.392C50.7071 224.618 50.6036 224.912 50.6163 225.213C50.7989 229.352 51.2153 234.668 51.7827 240.665L47.9695 245.794C47.8399 245.969 47.7615 246.173 47.7425 246.39C47.7235 246.607 47.7652 246.824 47.8623 247.018C47.9595 247.211 48.1085 247.374 48.2931 247.488C48.4774 247.603 48.69 247.664 48.9069 247.664C49.6788 247.664 49.7081 247.376 52.126 244.133C55.0651 273.616 61.0211 316.017 61.0965 316.547C61.1357 316.827 61.2748 317.083 61.4876 317.268C61.7007 317.453 61.9734 317.555 62.2556 317.555C78.3826 317.555 155.555 310.173 172.761 308.444C172.921 308.424 173.077 308.373 173.217 308.293C173.356 308.21 173.478 308.103 173.574 307.971C173.669 307.84 173.737 307.691 173.772 307.533C173.807 307.375 173.81 307.212 173.779 307.053ZM161.117 217.565L162.271 228.829L151.44 218.039C155.596 217.767 158.923 217.596 161.114 217.552L161.117 217.565ZM53.0026 226.236L63.2296 225.31L53.8719 237.873C53.4726 233.468 53.1731 229.513 53.005 226.223L53.0026 226.236ZM63.254 315.191C62.28 308.244 56.7769 268.312 54.1909 241.355L66.3659 225.04C87.4749 223.146 126.547 219.715 148.335 218.254L162.658 232.503C165.022 255.229 169.293 295.158 171.251 306.24C160.978 307.265 91.4829 314.127 63.2564 315.179L63.254 315.191Z" fill="#2C2C2C"/>
<path d="M57.4658 108.326C57.4658 108.326 79.5172 99.0945 172.68 97.5142L182.6 180.611L69.9622 194.617L57.4658 108.326Z" fill="#FDF6EE"/>
<path d="M183.445 180.628C183.333 180.017 177.092 118.662 173.788 97.2365C173.748 96.9543 173.605 96.6967 173.387 96.5133C173.168 96.33 172.89 96.2338 172.605 96.243C172.39 96.243 119.451 98.7292 116.385 98.9508L115.803 94.2926C115.79 94.136 115.744 93.9836 115.67 93.8448C115.596 93.706 115.495 93.5838 115.372 93.4849C115.25 93.3861 115.109 93.313 114.958 93.2699C114.806 93.2268 114.648 93.2146 114.492 93.2341C114.336 93.2536 114.185 93.3042 114.049 93.3831C113.913 93.462 113.794 93.5677 113.7 93.6936C113.605 93.8192 113.537 93.9629 113.5 94.1156C113.462 94.2685 113.455 94.427 113.48 94.5824L114.048 99.1236C86.9146 101.162 67.8218 103.845 57.2076 107.118C56.9422 107.2 56.7145 107.374 56.5655 107.609C56.4165 107.843 56.3559 108.123 56.3943 108.399C56.8521 111.659 67.5953 188.342 69.1318 194.814C69.1981 195.096 69.367 195.344 69.6054 195.508C69.8438 195.673 70.135 195.743 70.4224 195.705C71.3964 195.579 168.224 182.98 182.369 181.914C182.53 181.916 182.689 181.882 182.835 181.815C182.98 181.748 183.11 181.65 183.213 181.527C183.316 181.404 183.39 181.259 183.43 181.104C183.471 180.948 183.476 180.786 183.445 180.628ZM71.1918 193.244C69.2097 182.734 60.0907 117.922 58.8488 109.068C71.1699 105.486 93.0387 103.071 114.335 101.466L114.822 105.404C114.841 105.556 114.89 105.703 114.966 105.837C115.042 105.97 115.143 106.087 115.264 106.181C115.386 106.276 115.524 106.345 115.672 106.386C115.82 106.427 115.975 106.438 116.127 106.419C116.28 106.4 116.427 106.351 116.56 106.275C116.694 106.199 116.811 106.098 116.905 105.977C117 105.855 117.069 105.717 117.11 105.569C117.151 105.421 117.162 105.266 117.143 105.114L116.656 101.293C142.204 99.4378 166.391 98.7438 171.606 98.6147C174.677 119.096 180.092 171.151 180.974 179.683C164.309 181.164 81.6477 191.878 71.1967 193.244H71.1918Z" fill="#2C2C2C"/>
<path d="M96.9396 156.388C94.9772 156.246 93.0735 155.656 91.3761 154.661C89.6789 153.666 88.233 152.294 87.1509 150.651C84.0947 146.086 82.9649 140.499 84.0073 135.106C84.0436 134.956 84.1091 134.816 84.1997 134.691C84.2905 134.567 84.4047 134.462 84.5362 134.382C84.6674 134.302 84.8133 134.248 84.9655 134.225C85.1174 134.201 85.2725 134.208 85.422 134.244C85.5716 134.28 85.7125 134.346 85.8367 134.436C85.9609 134.527 86.0661 134.641 86.146 134.773C86.2261 134.904 86.2794 135.05 86.3033 135.202C86.3269 135.354 86.3203 135.509 86.284 135.659C85.4045 140.391 86.398 145.281 89.0551 149.295C94.1028 156.412 104.749 155.397 110.459 148.357C106.848 144.986 104.721 140.322 104.542 135.386C104.174 122.176 117.81 123.635 117.165 136.525C116.99 140.517 115.802 144.398 113.714 147.804C120.25 151.776 126.522 150.01 131.629 144.559C129.108 140.988 127.825 136.691 127.976 132.323C127.849 123.588 132.666 121.623 135.975 123.771C140.273 126.566 141.68 135.736 134.731 144.524C137.366 146.618 140.725 147.581 144.069 147.203C146.991 146.37 149.581 144.65 151.482 142.281C153.383 139.911 154.5 137.009 154.678 133.976C154.688 133.818 154.73 133.665 154.801 133.524C154.872 133.383 154.971 133.258 155.092 133.156C155.212 133.054 155.352 132.978 155.503 132.931C155.654 132.885 155.812 132.87 155.969 132.886C156.126 132.902 156.278 132.95 156.416 133.027C156.554 133.104 156.675 133.207 156.772 133.332C156.869 133.456 156.939 133.599 156.98 133.752C157.02 133.904 157.029 134.063 157.006 134.219C156.77 137.745 155.444 141.111 153.211 143.85C150.979 146.589 147.95 148.567 144.544 149.509C142.534 149.847 140.475 149.734 138.515 149.179C136.554 148.623 134.742 147.639 133.209 146.297C130.625 149.128 127.163 151.006 123.381 151.627C119.599 152.248 115.719 151.576 112.365 149.721C110.488 151.953 108.116 153.717 105.439 154.874C102.762 156.031 99.8519 156.549 96.9396 156.388ZM109.307 128.753C107.707 129.483 106.884 132.026 106.884 135.383C106.884 140.74 111.662 146.307 111.82 146.441C117.123 137.821 114.825 126.208 109.307 128.753ZM130.333 132.298C130.227 135.983 131.223 139.615 133.194 142.73C135.389 139.955 136.776 136.628 137.202 133.116C137.999 123.883 130.187 122.312 130.333 132.298Z" fill="#C8705A"/>
<path d="M233.255 87.4171L232.155 187.432C269.829 186.334 361.843 187.522 361.843 187.522L363.353 87.4171C320.053 84.0215 276.555 84.0215 233.255 87.4171Z" fill="#FDF6EE"/>
<path d="M266.561 140.962L325.408 139.72V129.61C325.408 129.61 275.693 129.206 267.236 130.557L266.561 140.962Z" fill="#C8705A"/>
<path d="M257.564 154.379C257.564 154.379 321.117 151.9 339.356 152.903C339.356 152.903 341.684 162.699 339.95 168.11L257.564 168.921C256.717 164.111 256.717 159.189 257.564 154.379Z" fill="#C8705A"/>
<path d="M259.897 120.796C257.469 120.796 255.095 120.077 253.076 118.728C251.055 117.379 249.482 115.462 248.552 113.218C247.622 110.975 247.378 108.506 247.853 106.125C248.326 103.743 249.494 101.555 251.211 99.838C252.93 98.1206 255.117 96.9511 257.498 96.4772C259.88 96.0034 262.349 96.2464 264.591 97.1756C266.837 98.1046 268.753 99.6783 270.102 101.697C271.451 103.716 272.172 106.09 272.172 108.519C272.167 111.773 270.874 114.893 268.573 117.195C266.272 119.496 263.152 120.791 259.897 120.796ZM259.897 98.5862C257.932 98.5857 256.011 99.1679 254.377 100.259C252.743 101.351 251.469 102.902 250.717 104.718C249.964 106.533 249.767 108.531 250.149 110.459C250.534 112.386 251.479 114.156 252.869 115.546C254.26 116.935 256.03 117.882 257.956 118.265C259.885 118.648 261.881 118.451 263.698 117.699C265.512 116.947 267.065 115.673 268.156 114.039C269.247 112.405 269.829 110.484 269.829 108.519C269.827 105.885 268.78 103.361 266.917 101.499C265.054 99.6369 262.529 98.5894 259.897 98.5862Z" fill="#2C2C2C"/>
<path d="M363.696 86.2406C346.946 84.2147 323.071 83.7935 300.333 84.0199V77.1216C300.318 76.8206 300.189 76.5364 299.972 76.3283C299.753 76.1201 299.463 76.0039 299.164 76.0039C298.862 76.0039 298.572 76.1201 298.353 76.3283C298.136 76.5364 298.007 76.8206 297.993 77.1216V84.0467C264.504 84.4485 234.135 86.2041 233.618 86.2382C233.324 86.2548 233.047 86.3824 232.843 86.5952C232.638 86.808 232.522 87.0902 232.518 87.3851C232.25 102.097 230.908 186.643 230.894 187.495C230.891 187.658 230.923 187.82 230.987 187.969C231.05 188.119 231.145 188.254 231.263 188.366C231.382 188.477 231.522 188.563 231.676 188.617C231.829 188.672 231.993 188.693 232.155 188.681C256.544 186.804 362.184 188.681 361.941 188.681C362.23 188.681 362.508 188.574 362.722 188.381C362.939 188.187 363.073 187.921 363.104 187.634C364.449 175.004 364.724 90.9767 364.733 87.407C364.733 87.1192 364.629 86.8411 364.436 86.6259C364.246 86.4109 363.981 86.2735 363.696 86.2406ZM360.867 186.319C353.605 186.195 241.863 185.691 233.256 186.251L234.838 88.5076C240.561 88.1911 268.037 86.7447 297.993 86.3843V90.9183C297.985 91.0766 298.01 91.2344 298.066 91.3826C298.122 91.5309 298.207 91.6663 298.316 91.7808C298.426 91.8952 298.557 91.9863 298.701 92.0486C298.847 92.1109 299.003 92.1431 299.164 92.1431C299.322 92.1431 299.478 92.1109 299.624 92.0486C299.768 91.9863 299.899 91.8952 300.009 91.7808C300.118 91.6663 300.204 91.5309 300.26 91.3826C300.316 91.2344 300.34 91.0766 300.333 90.9183V86.36C321.037 85.8888 341.754 86.5847 362.381 88.4443C362.347 98.1161 362.038 171.597 360.867 186.322V186.319Z" fill="#2C2C2C"/>
<path d="M259.967 112.122C259.256 112.122 257.793 111.879 256.349 104.54C256.303 104.241 256.373 103.936 256.548 103.689C256.721 103.441 256.984 103.27 257.279 103.212C257.576 103.153 257.883 103.212 258.139 103.375C258.392 103.538 258.574 103.793 258.645 104.087C258.971 105.845 259.444 107.572 260.06 109.251C261.706 107.228 265.592 101.17 268.938 95.5958C269.101 95.3391 269.359 95.1565 269.656 95.0866C269.953 95.0168 270.265 95.0652 270.525 95.2218C270.788 95.3784 270.978 95.6306 271.056 95.925C271.134 96.2194 271.095 96.533 270.947 96.7987C262.39 111.06 260.815 112.122 259.967 112.122Z" fill="#C8705A"/>
<path d="M341.503 158.519C341.016 152.334 340.118 151.886 339.638 151.647C339.453 151.555 339.222 151.44 335.82 151.404C336.288 139.207 335.075 138.937 334.184 138.742C333.853 138.669 330.909 138.647 326.616 138.659C326.796 135.564 326.762 132.46 326.518 129.37C326.241 128.539 325.408 128.478 324.527 128.417C320.514 128.13 279.723 128.675 275.116 128.836C266.498 129.138 266.432 129.274 266.055 130.027C265.502 133.265 265.288 136.552 265.415 139.835C260.396 140.115 260.301 140.427 260.058 141.145C259.751 145.08 259.721 149.031 259.967 152.969C258.438 153.025 257.491 153.074 257.377 153.106C256.59 153.33 256.159 153.454 255.93 159.62C255.796 162.322 255.852 165.031 256.098 167.725C256.188 168.383 256.405 169.917 257.696 169.917C258.411 169.917 338.564 169.291 339.665 169.218C340.985 169.131 341.301 167.557 341.406 167.041C341.761 164.213 341.796 161.354 341.503 158.519ZM268.093 131.541C274.181 130.85 317.825 130.236 324.327 130.745C324.383 132.206 324.349 135.498 324.268 138.676C316.498 138.715 269.069 139.662 267.742 139.721C267.811 136.392 267.944 132.951 268.093 131.541ZM262.195 142.448C268.984 141.542 326.336 140.743 333.239 141.023C333.609 144.474 333.689 147.949 333.482 151.413C328.099 151.413 273.095 152.553 262.295 152.896C262.144 148.608 262.086 144.094 262.195 142.448ZM316.659 153.973V167.253H282.479V154.737C293.363 154.462 306.062 154.167 316.659 153.968V153.973ZM258.553 155.37C260.272 155.317 264.94 155.188 271.215 155.025V167.528H258.421C258.105 163.478 258.148 159.408 258.553 155.366V155.37ZM339.037 166.9C337.707 166.922 333.726 166.961 328.203 167.012V153.783C333.395 153.717 337.133 153.71 338.43 153.783C339.353 158.09 339.558 162.521 339.037 166.895V166.9Z" fill="#2C2C2C"/>
<path d="M396.613 195.063L388.268 214.204C388.268 214.204 380.812 212.987 379.926 213.842C379.039 214.696 385.336 222.547 385.336 222.547C385.336 222.547 377.8 239.716 378.978 245.545C380.157 251.375 386.159 262.047 408.391 258.799L406.711 279.703L399.812 284.133C402.009 287.551 405.413 290.018 409.348 291.036C413.28 292.054 417.454 291.552 421.033 289.628C421.033 289.628 426.846 306.476 441.614 304.063C452.842 302.227 454.059 290.347 454.059 290.347C454.059 290.347 471.265 295.373 473.269 273.954C474.825 257.314 452.815 234.96 452.815 234.96C452.815 234.96 473.977 214.324 455.825 188.186C437.075 161.175 417.968 172.766 417.968 172.766C417.968 172.766 403.231 163.427 389.571 171.548C375.733 179.771 387.732 194.771 396.613 195.063Z" fill="#FDF6EE"/>
<path d="M226.518 257.518L267.509 241.013C267.509 241.013 277.234 227.27 288.545 227.012C294.182 226.883 301.938 232.559 301.938 232.559C301.938 232.559 330.549 224.981 335.757 225.32C335.757 225.32 350.966 260.679 358.055 284.778L330.471 309.082C330.471 309.082 281.442 325.36 251.952 330.096C251.952 330.096 238.557 308.923 226.518 257.518Z" fill="#FDF6EE"/>
<path d="M406.182 213.145C404.027 208.275 398.249 209.31 398.003 209.357C397.699 209.416 397.382 209.352 397.127 209.178C396.868 209.004 396.691 208.736 396.632 208.431C396.574 208.127 396.637 207.811 396.81 207.554C396.985 207.297 397.253 207.12 397.558 207.06C399.669 206.59 401.875 206.84 403.828 207.772C405.778 208.703 407.361 210.261 408.323 212.198C408.435 212.479 408.432 212.793 408.318 213.073C408.203 213.353 407.984 213.578 407.707 213.7C407.432 213.822 407.117 213.833 406.832 213.73C406.55 213.626 406.316 213.417 406.182 213.145Z" fill="#2C2C2C"/>
<path d="M409.214 202.276C408.956 202.276 408.707 202.192 408.503 202.035C408.298 201.879 408.152 201.659 408.084 201.411C407.857 200.436 407.366 199.543 406.659 198.833C405.953 198.123 405.064 197.623 404.09 197.391C403.935 197.373 403.781 197.323 403.645 197.245C403.506 197.166 403.387 197.061 403.292 196.935C403.197 196.809 403.126 196.665 403.09 196.511C403.051 196.358 403.043 196.199 403.068 196.042C403.095 195.886 403.151 195.737 403.233 195.603C403.319 195.469 403.428 195.354 403.56 195.264C403.689 195.174 403.837 195.112 403.991 195.08C404.146 195.048 404.305 195.048 404.461 195.08C405.88 195.382 407.188 196.078 408.228 197.091C409.27 198.103 410.003 199.389 410.344 200.8C410.39 200.974 410.397 201.155 410.361 201.332C410.326 201.508 410.251 201.674 410.141 201.817C410.034 201.959 409.893 202.075 409.732 202.154C409.572 202.234 409.394 202.276 409.214 202.276Z" fill="#2C2C2C"/>
<path d="M405.357 192.333C405.086 192.333 404.823 192.239 404.614 192.067C404.405 191.895 404.263 191.656 404.21 191.391C403.942 189.904 403.995 188.376 404.373 186.912C404.748 185.449 405.435 184.083 406.387 182.91C408.712 180.368 412.55 179.362 417.792 179.92C417.95 179.93 418.104 179.971 418.245 180.042C418.386 180.113 418.51 180.212 418.613 180.333C418.715 180.453 418.791 180.593 418.837 180.744C418.883 180.895 418.898 181.053 418.883 181.21C418.866 181.367 418.817 181.519 418.742 181.657C418.664 181.795 418.562 181.916 418.437 182.013C418.311 182.11 418.17 182.18 418.016 182.221C417.863 182.261 417.704 182.27 417.549 182.247C413.088 181.773 409.912 182.527 408.118 184.49C407.414 185.392 406.908 186.432 406.63 187.542C406.353 188.652 406.314 189.808 406.511 190.936C406.545 191.105 406.54 191.281 406.496 191.449C406.455 191.617 406.374 191.774 406.265 191.908C406.155 192.042 406.016 192.149 405.858 192.222C405.702 192.296 405.529 192.334 405.357 192.333Z" fill="#2C2C2C"/>
<path d="M391.151 193.076C390.9 193.075 390.654 192.994 390.452 192.844C390.25 192.693 390.104 192.482 390.031 192.241C389.481 190.226 389.41 188.11 389.819 186.063C390.231 184.015 391.112 182.091 392.395 180.443C396.547 175.573 404.802 173.888 416.94 175.459C417.094 175.478 417.24 175.528 417.374 175.605C417.508 175.681 417.625 175.784 417.717 175.905C417.812 176.027 417.88 176.167 417.919 176.315C417.961 176.464 417.97 176.618 417.951 176.771C417.931 176.924 417.88 177.071 417.805 177.204C417.727 177.337 417.627 177.454 417.503 177.548C417.381 177.642 417.242 177.711 417.094 177.751C416.945 177.791 416.792 177.801 416.638 177.782C405.518 176.345 397.755 177.782 394.193 181.941C393.167 183.298 392.461 184.87 392.13 186.538C391.796 188.207 391.848 189.929 392.276 191.576C392.327 191.751 392.337 191.935 392.305 192.114C392.271 192.293 392.198 192.462 392.089 192.607C391.979 192.753 391.838 192.871 391.675 192.952C391.512 193.034 391.334 193.076 391.151 193.076Z" fill="#2C2C2C"/>
<path d="M429.799 231.836C429.524 231.837 429.259 231.74 429.047 231.564C428.835 231.388 428.694 231.143 428.645 230.873C428.596 230.602 428.645 230.323 428.779 230.084C428.915 229.846 429.132 229.662 429.39 229.567L431.998 228.593C432.144 228.528 432.302 228.494 432.461 228.493C432.621 228.492 432.78 228.523 432.926 228.585C433.074 228.648 433.206 228.739 433.315 228.854C433.427 228.97 433.512 229.106 433.569 229.256C433.625 229.405 433.649 229.565 433.639 229.724C433.632 229.884 433.59 230.04 433.52 230.183C433.449 230.326 433.352 230.453 433.23 230.557C433.108 230.66 432.967 230.738 432.814 230.784C432.814 230.784 429.933 231.836 429.799 231.836Z" fill="#2C2C2C"/>
<path d="M241.715 270.57C241.441 270.567 241.176 270.47 240.966 270.295C240.756 270.117 240.615 269.873 240.567 269.603C240.519 269.333 240.568 269.055 240.704 268.817C240.841 268.578 241.056 268.395 241.313 268.3C241.647 268.179 274.673 256.164 285.608 253.296C285.906 253.228 286.215 253.279 286.475 253.437C286.736 253.593 286.923 253.846 287.001 254.141C287.079 254.435 287.038 254.747 286.889 255.013C286.741 255.278 286.495 255.473 286.203 255.56C273.77 258.823 242.377 270.57 241.715 270.57Z" fill="#2C2C2C"/>
<path d="M246.042 283.736C245.755 283.733 245.48 283.626 245.268 283.434C245.056 283.244 244.919 282.981 244.888 282.696C244.856 282.411 244.929 282.126 245.095 281.89C245.258 281.656 245.504 281.491 245.781 281.425C246.044 281.352 276.596 270.224 289.254 267.356C289.555 267.292 289.867 267.351 290.128 267.516C290.386 267.682 290.568 267.942 290.637 268.242C290.705 268.541 290.654 268.855 290.491 269.118C290.33 269.379 290.072 269.567 289.772 269.64C276.251 272.72 246.699 283.736 246.042 283.736Z" fill="#2C2C2C"/>
<path d="M464.294 247.153C461.413 243.181 458.301 239.384 454.97 235.781C457.826 235.348 463.826 235.521 470.797 242.112C470.914 242.222 471.051 242.307 471.202 242.361C471.353 242.416 471.511 242.439 471.672 242.43C471.83 242.421 471.986 242.379 472.129 242.307C472.273 242.235 472.4 242.135 472.502 242.012C472.689 241.77 472.777 241.465 472.75 241.16C472.721 240.855 472.58 240.572 472.353 240.366C465.591 233.979 459.511 233.091 455.859 233.332C458.917 229.637 461.194 225.359 462.55 220.759C463.906 216.159 464.315 211.331 463.753 206.569C462.85 200.056 460.595 193.804 457.135 188.213C453.675 182.622 449.082 177.816 443.657 174.103C430.479 165.307 420.352 170.104 417.671 171.702C414.634 169.822 401.897 162.936 389.369 170.56C386.578 172.003 384.408 174.412 383.264 177.337C382.12 180.263 382.081 183.504 383.15 186.458C383.254 186.725 383.452 186.945 383.705 187.079C383.96 187.213 384.253 187.252 384.533 187.188C384.696 187.148 384.849 187.072 384.981 186.968C385.112 186.862 385.222 186.73 385.297 186.58C385.373 186.429 385.417 186.264 385.424 186.096C385.431 185.927 385.4 185.759 385.336 185.603C384.818 184.142 384.623 182.586 384.766 181.042C384.966 179.258 385.602 177.55 386.617 176.068C387.63 174.587 388.994 173.378 390.586 172.547C403.531 164.674 416.855 173.937 416.989 174.032C417.188 174.174 417.427 174.25 417.671 174.25C417.914 174.25 418.153 174.174 418.352 174.032C418.766 173.737 428.648 166.88 442.359 176.039C447.509 179.559 451.865 184.117 455.15 189.42C458.435 194.724 460.575 200.655 461.432 206.834C461.756 211.234 461.391 215.656 460.354 219.944C459.07 226.338 453.217 232.874 452.764 233.388C452.16 234.069 450.991 235.007 451.926 235.949C452.133 236.164 484.502 267.87 466.889 286.619C464.315 289.354 460.035 289.848 454.342 289.159C454.045 289.125 453.748 289.203 453.506 289.38C453.265 289.558 453.105 289.821 453.051 290.116C450.592 300.781 443.876 306.204 433.52 302.215C417.318 295.982 413.066 257.041 428.022 238.258C429.872 238.036 436.201 237.04 438.979 233.483C439.849 231.921 440.16 230.109 439.861 228.346C439.561 226.584 438.67 224.976 437.333 223.789C434.182 221.354 426.471 223.789 426.344 223.73C424.61 223.122 420.644 220.981 421.133 214.378C421.774 205.441 432.66 191.355 418.966 184.987C418.822 184.922 418.669 184.886 418.511 184.881C418.355 184.877 418.199 184.904 418.05 184.961C417.904 185.018 417.77 185.104 417.658 185.213C417.546 185.323 417.456 185.454 417.395 185.599C417.335 185.743 417.303 185.899 417.303 186.056C417.303 186.213 417.337 186.369 417.398 186.514C417.459 186.658 417.549 186.789 417.661 186.898C417.775 187.007 417.909 187.093 418.055 187.149C429.419 192.506 419.492 204.781 418.798 214.212C418.177 222.647 423.814 225.32 425.56 225.937C426.178 226.161 426.858 226.168 427.481 225.956C438.363 222.279 438.088 230.178 437.138 232.044C435.22 235.769 427.379 235.978 427.306 235.983C427.148 235.99 426.994 236.032 426.855 236.104C426.714 236.177 426.592 236.279 426.497 236.405C422.531 242.142 419.575 248.516 417.753 255.249C409.601 257.623 394.175 260.572 385.314 253.545C383.814 252.471 382.59 251.056 381.737 249.42C380.885 247.783 380.43 245.972 380.41 244.126C380.861 240.136 381.779 236.213 383.147 232.438C384.934 233.212 386.878 233.554 388.821 233.436C390.764 233.317 392.651 232.742 394.331 231.756C394.575 231.611 394.76 231.386 394.855 231.119C394.95 230.853 394.95 230.561 394.852 230.295C394.789 230.138 394.691 229.996 394.567 229.881C394.443 229.764 394.297 229.676 394.136 229.623C393.976 229.57 393.805 229.552 393.635 229.571C393.467 229.59 393.306 229.645 393.16 229.733C391.794 230.615 390.221 231.124 388.599 231.21C386.975 231.295 385.358 230.954 383.907 230.22C386.556 222.71 387.197 222.752 386.527 221.873C384.749 219.565 383.098 217.163 381.584 214.675C382.071 214.762 388.402 215.846 389.003 215.123C393.187 206.789 396.883 198.218 400.07 189.455C400.182 189.192 400.199 188.898 400.114 188.624C400.031 188.35 399.856 188.114 399.615 187.958C399.469 187.867 399.306 187.81 399.133 187.79C398.962 187.77 398.79 187.789 398.626 187.844C398.466 187.898 398.315 187.989 398.193 188.108C398.069 188.227 397.971 188.372 397.911 188.533C394.502 197.182 388.821 211.178 387.584 213.187C386.853 213.282 379.451 211.422 378.818 213.06C378.603 213.63 378.224 214.687 384.255 222.713C383.072 225.562 378.438 237.14 378.07 243.997C378.043 246.218 378.555 248.412 379.563 250.394C380.569 252.373 382.039 254.08 383.848 255.368C393.213 262.459 405.206 260.136 407.894 259.751C407.212 267.117 406.17 277.605 405.795 279.431C405.16 279.933 403.019 281.235 400.55 282.674C387.391 288.08 372.757 288.704 359.187 284.435C357.453 278.754 344.285 241.847 342.704 237.8L346.096 239.833C346.24 239.918 346.398 239.972 346.564 239.991C346.729 240.01 346.895 239.995 347.056 239.945C347.214 239.895 347.36 239.812 347.484 239.702C347.608 239.592 347.708 239.456 347.776 239.305C347.881 239.029 347.886 238.725 347.789 238.447C347.689 238.168 347.496 237.934 347.241 237.785L341.294 234.22C337.394 224.507 336.583 224.264 336.03 224.091C332.843 224.132 329.672 224.568 326.592 225.389L321.637 222.411C321.396 222.259 321.108 222.197 320.826 222.235C320.543 222.273 320.283 222.409 320.09 222.62C319.978 222.749 319.898 222.901 319.852 223.065C319.806 223.229 319.796 223.401 319.823 223.569C319.852 223.738 319.915 223.898 320.01 224.039C320.105 224.18 320.232 224.298 320.378 224.385L323.222 226.09C315.878 227.675 307.151 229.796 301.891 231.106C297.562 228.264 292.519 225.581 288.947 225.654C281.798 225.788 269.978 233.609 265.973 240.751C257.489 243.756 248.1 247.481 240.568 250.571L242.674 247.162C242.828 246.924 242.894 246.639 242.859 246.356C242.825 246.074 242.693 245.813 242.487 245.619C242.359 245.507 242.208 245.421 242.045 245.373C241.881 245.326 241.709 245.312 241.54 245.339C241.371 245.363 241.21 245.424 241.068 245.516C240.925 245.611 240.804 245.733 240.714 245.879L236.874 252.105C230.594 254.708 226.314 256.574 226.219 256.615C225.964 256.725 225.756 256.924 225.634 257.173C225.511 257.424 225.482 257.708 225.552 257.979C225.685 258.5 226.526 261.772 227.879 266.694L224.074 272.869C223.951 273.044 223.879 273.249 223.864 273.463C223.849 273.677 223.893 273.891 223.991 274.081C224.089 274.271 224.236 274.432 224.418 274.544C224.6 274.658 224.809 274.719 225.023 274.722C225.223 274.722 225.42 274.673 225.594 274.576C225.768 274.478 225.915 274.337 226.019 274.167L228.734 269.771C233.531 286.948 242.916 318.065 251.095 330.734C251.199 330.897 251.345 331.031 251.514 331.124C251.684 331.216 251.874 331.265 252.069 331.267C252.943 331.267 276.445 326.317 299.666 319.784C312.613 358.111 338.54 382.563 355.081 388.938C410.697 410.388 428.901 378.163 434.406 368.922C438.134 362.64 441.078 355.922 443.17 348.921C443.574 347.64 446.318 348.607 445.951 349.868C443.591 356.935 440.482 363.728 436.681 370.135C428.372 384.087 416.855 399.355 388.497 399.172C376.125 398.917 363.937 396.136 352.68 390.998L342.94 417.091C342.714 417.705 342.67 418.37 342.816 419.008C342.96 419.646 343.286 420.228 343.756 420.683C384.177 460.074 436.878 436.535 446.384 431.794C446.852 431.563 447.256 431.224 447.568 430.805C447.879 430.389 448.086 429.904 448.176 429.391C455.693 385.928 450.75 300.599 450.75 300.599C452.817 297.932 454.303 294.864 455.114 291.589C460.877 292.125 465.633 291.489 468.397 288.399C481.658 273.548 471.416 257.039 464.294 247.153ZM335.1 226.324C336.242 228.195 337.201 230.17 337.968 232.224L329.567 227.181C331.391 226.768 333.239 226.478 335.1 226.312V226.324ZM326.168 227.875L339.427 235.828C344.825 249.446 353.306 273.57 356.457 283.507C355.588 283.193 354.704 282.857 353.815 282.489C334.549 274.517 319.153 246.98 314.195 237.233C313.979 236.81 313.672 236.439 313.299 236.144C312.927 235.849 312.496 235.637 312.035 235.522C311.575 235.406 311.096 235.391 310.628 235.476C310.16 235.561 309.715 235.745 309.325 236.015C308.675 236.461 309.764 236.648 304.497 232.903C312.223 230.979 320.229 229.114 326.168 227.863V227.875ZM288.993 228.016C294.007 227.967 302.985 234.547 306.932 237.654L295.95 245.273C294.489 245.239 292.799 245.207 290.98 245.173C285.866 245.073 276.402 246.072 276.285 244.825C276.141 243.322 285.506 241.35 284.902 238.577C284.763 238.132 284.479 237.747 284.091 237.485C283.707 237.223 283.244 237.099 282.779 237.133C278.294 237.331 273.86 238.151 269.601 239.568C274.181 233.804 283.38 228.057 288.993 228.004V228.016ZM228.077 258.354C229.294 257.825 231.656 256.817 234.773 255.505L229.569 263.954C228.873 261.38 228.359 259.442 228.077 258.354ZM307.112 314.629C300.084 308.169 300.567 308.422 299.856 308.495C294.538 309.05 282.513 309.932 282.216 308.668C281.973 307.694 288.745 306.555 288.779 306.54C289.008 306.44 289.2 306.27 289.327 306.053C289.453 305.836 289.507 305.585 289.48 305.337C289.451 305.089 289.346 304.855 289.176 304.67C289.005 304.487 288.781 304.361 288.535 304.314C284.569 303.552 273.256 302.551 273.351 300.905C273.414 299.839 288.267 300.557 288.362 300.555C288.647 300.543 288.915 300.428 289.122 300.233C289.327 300.036 289.456 299.771 289.48 299.488C289.507 299.206 289.426 298.923 289.261 298.694C289.093 298.463 288.847 298.302 288.569 298.241C282.884 296.97 272.445 293.242 272.795 291.825C273.178 290.281 289.921 294.837 290.047 294.857C290.33 294.905 290.622 294.849 290.866 294.699C291.111 294.545 291.292 294.309 291.372 294.034C291.455 293.759 291.433 293.462 291.311 293.201C291.187 292.94 290.975 292.733 290.71 292.621C285.806 290.554 279.146 287.092 279.842 285.475C280.397 284.191 302.68 291.925 302.882 291.986C303.058 292.039 303.243 292.049 303.42 292.018C303.601 291.986 303.771 291.913 303.917 291.803C304.063 291.694 304.183 291.552 304.263 291.389C304.346 291.226 304.387 291.046 304.387 290.863C304.387 290.863 301.645 284.191 302.802 283.544C304.346 282.682 313.871 308.059 314.49 309.859C311.923 311.437 309.374 313.119 307.112 314.639V314.629ZM322.913 308.814C322.696 308.427 322.404 308.089 322.053 307.816C321.705 307.543 321.305 307.341 320.877 307.224C320.448 307.107 320.003 307.078 319.562 307.134C319.124 307.193 318.7 307.336 318.315 307.558C317.733 307.899 317.139 308.247 316.545 308.602C315.286 304.989 305.831 279.222 301.821 280.529C299.205 281.379 302.049 289.283 302.049 289.283C296.344 286.787 279.543 281.52 277.351 283.726C275.579 285.514 277.95 288.314 282.867 291.216C277.646 288.757 270.843 288.781 270.039 290.939C269.028 293.659 274.714 296.449 281.508 298.487C277.332 298.229 269.352 298.487 269.333 300.374C269.301 302.566 276.292 305.055 284.498 305.812C283.134 306.387 279.039 307.453 279.012 308.853C278.968 311.381 291.837 311.59 299.576 310.874L304.967 315.825C278.785 323.47 256.997 327.924 252.653 328.781C244.493 315.564 234.934 283.264 230.426 267.03L238.486 253.961C263.567 243.59 266.813 243.179 267.188 242.804C271.851 241.116 276.699 239.995 281.63 239.465C279.348 240.615 272.8 243.291 273.394 245.485C274.147 248.253 292.11 247.513 292.68 247.525C300.35 276.962 314.704 295.933 329.28 308.113C327.388 308.768 325.494 309.403 323.614 310.027C323.353 309.608 323.124 309.199 322.913 308.824V308.814ZM412.192 331.136C398.831 346.545 380.31 356.109 361.556 347.575C343.255 339.247 330.578 321.52 324.831 312.092C327.018 311.364 329.214 310.616 331.42 309.852C343.583 319.589 357.901 326.268 373.178 329.331L385.11 304.628C385.682 303.433 388.292 304.156 387.723 305.359C374.121 333.873 374.223 333.225 368.946 346.245C384.747 350.923 399.221 341.244 410.098 328.696C410.967 327.685 413.059 330.135 412.192 331.146V331.136ZM401.914 284.588C407.358 281.423 407.699 280.875 407.84 280.656C407.982 280.437 408.327 279.867 409.613 266.601C412.56 265.301 415.119 263.258 417.038 260.669C416 270.254 416.93 279.947 419.772 289.159C416.711 290.488 413.295 290.761 410.061 289.936C406.83 289.11 403.962 287.233 401.914 284.598V284.588Z" fill="#2C2C2C"/>
<path d="M406.733 227.339C406.869 225.776 405.313 224.363 403.256 224.183C401.201 224.003 399.423 225.125 399.284 226.688C399.148 228.251 400.704 229.665 402.761 229.844C404.817 230.024 406.596 228.903 406.733 227.339Z" fill="#B7D7C8"/>
</svg>
