<svg width="581" height="581" viewBox="0 0 581 581" fill="none" xmlns="http://www.w3.org/2000/svg">
<path d="M183.694 399.257C183.131 408.684 177.048 413.814 167.757 416.051C142.902 419.929 117.754 421.265 92.6661 422.64C70.6142 423.848 65.9546 424.586 59.8454 423.226C55.2177 422.195 50.6976 419.676 48.4927 415.307C47.0227 412.397 46.4388 408.298 46.0583 405.442C45.6458 402.36 30.7547 274.263 28.0532 247.18C25.0755 217.308 22.493 199.457 23.7421 183.366C24.4626 174.087 30.7605 169.195 39.7399 167.054C73.0922 161.846 137.165 159.176 139.079 159.159C156.225 158.987 159.978 166.468 161.349 177.695C164.056 199.875 184.885 379.349 183.697 399.26L183.694 399.257Z" fill="#FDF6EE"/>
<path d="M163.99 178.959C163.441 173.966 162.872 168.798 159.938 164.736C153.428 155.719 141.349 156.48 131.644 157.056C99.1366 158.982 75.7394 159.769 47.3459 163.47C29.884 165.747 14.8014 167.717 14.0664 186.387C13.4854 201.188 15.1093 216.35 16.6809 231.017C17.0208 234.192 35.9612 402.894 36.4754 406.773C36.8879 409.89 37.3585 413.422 38.7035 416.621C40.525 420.958 44.316 424.319 49.3707 426.088C55.997 428.406 64.1572 427.657 73.4909 427.067C77.4911 426.814 157.286 422.831 168.604 418.372C177.383 416.208 183.323 411.194 185.333 404.257C189.328 390.478 165.344 191.372 163.988 178.959H163.99ZM183.117 399.223C182.611 407.662 177.4 413.135 167.671 415.476C143.217 419.29 118.074 420.644 93.762 421.998C70.1211 423.314 65.7462 423.944 59.9769 422.66C56.9818 421.995 51.5756 420.118 49.0163 415.046C47.5435 412.129 46.977 407.894 46.64 405.364C46.0271 400.771 29.6748 260.418 25.5063 216.611C24.3733 204.718 23.5047 194.007 24.3269 183.41C24.9601 175.241 30.1948 169.928 39.8336 167.627C51.7848 165.762 64.5871 164.347 80.1288 163.176C95.3801 162.029 139.542 159.731 139.775 159.731C143.876 159.731 148.948 160.132 153.187 162.665C158.729 165.98 159.825 170.381 160.705 177.251C163.648 200.227 184.349 378.638 183.117 399.22V399.223Z" fill="#2C2C2C"/>
<path d="M198.534 283.098C198.749 278.97 195.347 276.512 192.335 279.374C192.582 273.735 187.573 273.66 182.481 276.219C182.798 272.733 183.277 266.812 183.233 263.591C183.167 258.838 176.848 256.482 176.125 263.01C175.73 266.551 175.326 273.715 175.169 277.143C172.842 277.16 169.838 278.453 169.838 282.584C169.838 285.474 170.794 292.472 171.154 294.544C171.154 294.544 179.239 297.948 191.094 300.014L194.02 291.081C196.878 291.235 198.377 286.177 198.537 283.098H198.534Z" fill="#FDF6EE"/>
<path d="M199.983 283.174C200.195 279.089 197.267 275.626 193.558 276.928C193.003 274.906 191.173 273.227 189.02 272.98C187.108 272.762 185.31 273.622 184.102 274.406C184.398 270.917 184.726 266.325 184.686 263.571C184.59 256.895 175.602 254.58 174.681 262.85C174.271 266.542 173.905 273.34 173.777 275.844C170.323 276.48 168.386 279.072 168.386 282.584C168.386 287.424 169.882 294.166 169.943 294.451C170.114 295.212 170.867 295.723 171.677 295.552C172.461 295.375 172.952 294.599 172.778 293.818C172.764 293.751 171.291 287.098 171.291 282.584C171.291 281.216 171.689 280.181 172.476 279.507C173.499 278.633 174.966 278.499 175.91 278.645C179.213 279.162 184.445 281.712 185.316 282.941C183.73 285.701 179.39 284.452 179.201 284.394C177.621 283.923 176.607 286.07 177.981 286.997C178.071 287.058 180.168 288.507 180.032 291.165C179.988 291.967 180.604 292.65 181.406 292.693C183.631 292.775 183.059 289.39 182.173 287.598C182.69 287.566 183.213 287.476 183.733 287.354C184.668 288.4 185.807 289.184 186.963 289.489C187.968 289.756 188.215 289.614 188.514 289.579C189.322 291.069 190.658 291.79 191.998 292.182L189.825 298.814C189.514 299.761 190.228 300.72 191.205 300.72C191.815 300.72 192.384 300.331 192.584 299.718L194.975 292.423C195.585 292.284 196.178 292.048 196.71 291.604C199.06 289.643 199.885 285.236 199.989 283.176L199.983 283.174ZM180.941 277.114C179.352 276.498 177.833 276.056 176.688 275.844C176.822 273.259 177.179 266.67 177.568 263.17C178.094 258.461 181.74 260.709 181.781 263.611C181.833 267.092 181.24 273.921 180.941 277.114ZM189.258 285.695C188.796 286.799 188.233 286.816 187.698 286.677C187.277 286.567 186.844 286.314 186.435 285.971C189.676 283.275 188.378 281.079 184.825 278.979L184.991 277.329C185.819 276.678 187.373 275.716 188.698 275.868C189.406 275.949 190.005 276.37 190.531 277.152C191.341 278.357 190.792 282.029 189.258 285.695ZM191.036 288.237C192.436 286.633 193.569 282.235 193.764 280.025C195.774 278.578 197.206 280.693 197.084 283.023C196.974 285.143 195.774 289.893 194.034 289.658C192.311 289.434 191.463 288.978 191.039 288.237H191.036Z" fill="#2C2C2C"/>
<path d="M202.246 301.548C190.394 299.102 178.791 295.54 167.601 290.939C167.159 290.759 166.526 291.139 166.445 291.595C165.222 298.451 159.906 328.352 159.853 328.753C158.421 324.788 156.89 320.857 155.252 316.973C152.658 310.821 149.86 304.316 145.526 299.288C144.233 297.789 142.615 295.935 140.785 295.104C136.422 293.123 131.777 291.868 127.053 291.11C120.313 290.032 111.694 289.881 110.625 290.006C110.216 289.945 109.797 290.133 109.696 290.671C108.775 295.523 104.365 299.418 99.3916 299.59C94.0435 299.773 89.1456 295.685 88.1608 291.921C88.065 291.555 87.6554 291.189 87.2545 291.232C56.3453 294.436 43.2582 322.208 47.1742 353.579C48.435 363.692 51.6479 376.505 53.9196 382.446C57.1122 390.807 63.4945 399.167 73.02 399.958C73.6939 408.452 74.5393 414.427 75.2074 422.922C75.2743 423.773 143.004 420.394 166.631 415.653C167.017 415.575 166.262 391.585 163.485 379.518C168.313 379.631 176.56 376.154 179.352 372.308C183.009 367.268 193.008 346.497 198.931 322.65C201.128 313.804 202.949 303.189 202.914 302.492C202.966 302.082 202.775 301.664 202.249 301.556L202.246 301.548Z" fill="#B7D7C8"/>
<path d="M102.117 233.765C99.0112 234.151 96.4257 236.202 95.3596 239.11C94.7496 240.781 97.4977 242.076 98.2617 240.011C98.9531 238.14 100.467 237.161 102.422 236.772C104.458 236.368 103.819 233.556 102.117 233.765Z" fill="#2C2C2C"/>
<path d="M123.599 233.692C122.074 232.135 119.997 231.159 117.757 230.944C116.912 230.86 116.145 231.668 116.183 232.487C116.282 234.674 118.873 233.216 121.444 235.833C122.864 237.283 124.991 235.11 123.602 233.692H123.599Z" fill="#2C2C2C"/>
<path d="M120.296 251.913C116.482 249.568 116.282 244.13 116.171 239.86C116.122 237.911 113.077 237.893 113.133 239.889C113.301 246.329 114.001 251.57 118.914 254.635C118.533 255.219 117.438 256.63 115.904 257.708C114.306 258.827 115.884 261.432 117.519 260.279C119.288 259.036 120.677 257.577 121.644 255.945C123.039 253.586 121.325 252.537 120.299 251.913H120.296Z" fill="#2C2C2C"/>
<path d="M109.67 246.21C109.284 243.497 105.972 243.45 105.568 245.51C103.192 250.341 110.64 253.057 109.67 246.21Z" fill="#2C2C2C"/>
<path d="M123.166 243.384C121.955 242.265 120.081 242.898 119.829 244.252C119.349 245.225 119.256 246.361 119.576 247.282C120.177 249.013 122.429 249.775 123.469 248.238C124.343 246.948 124.177 244.316 123.166 243.384Z" fill="#2C2C2C"/>
<path d="M118.338 262.237C116.807 262.063 114.242 261.775 110.448 260.404C109.794 260.169 108.923 260.535 108.641 261.191C107.871 262.983 107.078 264.837 107.064 266.882C107.011 273.421 114.187 275.219 118.202 270.229C119.471 268.651 120.206 266.824 120.97 264.773C121.734 262.678 119.759 262.397 118.338 262.234V262.237Z" fill="#2C2C2C"/>
<path d="M84.2651 260.439C83.443 259.87 82.5599 259.384 81.6419 258.992C79.5474 258.1 78.6439 261.005 80.2388 261.682C81.0841 262.043 81.8975 262.49 82.6587 263.013C84.207 264.085 86.0314 261.653 84.268 260.436L84.2651 260.439Z" fill="#2C2C2C"/>
<path d="M144.311 296.287C144.163 287.641 143.498 279.214 142.624 270.51C140.596 250.341 139.507 232.984 126.039 213.756C123.866 210.653 121.347 207.998 118.024 206.115C111.343 202.333 103.046 200.288 95.4203 201.894C97.2679 197.551 96.4981 192.256 93.93 188.351C87.2776 178.222 72.8746 178.808 65.9839 188.351C58.3874 198.873 63.5205 214.203 74.0453 214.276C55.1367 233.841 64.6244 284.577 45.8291 316.724C45.5676 317.171 45.7361 317.737 46.166 318.008C58.1201 325.508 71.9421 333.758 86.6211 329.822C87.1527 329.68 87.3531 329.166 87.2776 328.666C84.2012 308.732 84.2157 287.816 87.8412 266.961C87.9428 266.368 87.5942 265.772 86.9348 265.772C85.2383 265.772 83.199 266.249 80.2736 264.387C75.2218 261.171 76.9126 255.983 81.1887 255.925C82.9695 255.901 85.5143 256.633 86.5368 258.214C86.99 258.914 88.4193 258.734 88.2885 257.74C87.2021 249.621 86.0313 240.267 90.72 232.995C95.8415 225.05 111.857 218.485 120.119 224.551C126.725 229.402 131.091 257.537 129.319 267.373C128.709 270.755 127.338 274.243 124.403 276.262C120.639 278.854 115.747 278.523 111.409 278.22C111.046 278.194 110.555 278.528 110.503 278.909C110.009 282.502 109.934 286.102 110.335 289.707C110.387 290.186 110.721 290.68 111.273 290.645C119.721 290.14 132.787 290.933 139.632 295.212C140.166 295.546 142.345 296.789 142.897 297.092C143.463 297.399 144.323 297.074 144.311 296.281V296.287Z" fill="#2D6A4F"/>
<path d="M85.2061 294.64C87.472 296.028 88.7938 298.184 92.3059 299.691C100.794 303.331 113.17 298.663 113.536 290.465C113.643 288.048 109.887 288.054 109.78 290.465C109.579 294.956 100.242 299.534 93.3111 296.04C90.9696 294.86 89.3225 292.757 87.1031 291.398C85.0347 290.131 83.1465 293.379 85.2061 294.642V294.64Z" fill="#C8705A"/>
<path d="M160.341 358.869C159.792 356.981 156.861 357.777 157.413 359.688C159.249 366.027 160.754 372.476 161.893 378.856C162.241 380.802 165.196 380.087 164.847 378.15C163.694 371.683 162.177 365.199 160.341 358.869Z" fill="#2C2C2C"/>
<path d="M160.083 335.696C159.595 335.897 158.561 336.268 157.637 336.669C158.547 336.021 159.389 335.44 160.011 335.037C164.653 332.044 161.626 326.998 156.211 330.653C155.107 331.397 153.919 332.239 152.795 333.055C153.463 332.297 154.215 331.432 154.424 331.237C157.637 328.242 154.056 325.619 150.552 327.518C147.046 329.418 139.995 333.575 139.995 333.575C139.995 333.575 141.75 330.142 142.258 325.831C142.77 321.523 137.802 321.668 137.146 323.786C136.486 325.903 135.612 329.047 134.002 332.989C132.742 336.085 128.012 339.197 128.012 339.197L135.103 355.601C135.103 355.601 159.433 343.194 162.065 341.149C164.697 339.104 162.927 334.52 160.078 335.69L160.083 335.696Z" fill="#FDF6EE"/>
<path d="M162.718 334.525C165.51 330.856 162.305 326.287 157.105 328.512C156.748 325.871 153.294 324.381 149.86 326.24C147.992 327.254 145.108 328.913 142.819 330.243C143.182 329.012 143.519 327.565 143.705 326.005C144.074 322.885 142.217 321.354 140.515 320.994C138.438 320.549 136.3 321.613 135.762 323.356C134.798 326.487 134.063 329.006 132.663 332.443C132.032 333.991 130.185 335.711 128.727 336.873L126.867 332.611C126.629 332.071 125.912 330.421 123.994 330.755C122.344 331.051 115.134 334.639 113.44 335.531C104.4 340.292 96.0685 346.311 88.6608 353.428C86.9294 349.01 84.9366 344.664 82.7346 340.51C82.1507 339.397 80.7214 339.551 80.1317 340.489C78.9987 342.282 82.3192 343.702 87.7806 359.869C88.1844 361.08 89.7095 361.217 90.4415 360.386C91.1155 359.622 90.6739 358.861 89.8257 356.522C96.5943 349.867 104.191 344.158 112.412 339.548C117.574 336.666 123.111 334.258 124.128 333.892L138.069 365.844C127.352 375.242 114.634 382.937 102.477 389.854C93.7329 394.854 84.341 399.67 74.1416 398.938C72.1662 398.775 72.0936 401.843 74.0602 401.974C84.0186 402.691 93.2216 398.505 101.942 393.645C112.816 387.603 128.692 378.307 140.951 367.355C141.436 366.925 141.546 366.233 141.241 365.551L137.157 356.185C142.624 353.388 160.577 344.153 162.968 342.293C165.768 340.115 165.144 335.92 162.724 334.52L162.718 334.525ZM161.178 340.007C159.424 341.372 145.7 348.557 135.989 353.527L129.926 339.627C135.187 335.69 135.667 333.465 138.537 324.218C138.604 324.006 139.243 323.693 139.911 323.835C140.184 323.893 141.009 324.07 140.82 325.662C140.349 329.642 138.72 332.884 138.702 332.919C138.049 334.209 139.49 335.565 140.736 334.83C140.806 334.787 147.804 330.662 151.246 328.797C152.661 328.03 153.881 328.355 154.166 328.753C154.357 329.02 154.064 329.593 153.436 330.177C151.127 332.326 148.774 334.203 147.574 335.13C146.941 335.618 146.822 336.527 147.31 337.163C147.798 337.796 148.704 337.918 149.343 337.436C150.7 336.402 154.169 333.79 157.027 331.862C158.648 330.769 159.842 330.685 160.417 330.973C160.682 331.103 160.824 331.318 160.841 331.612C160.873 332.158 160.464 333.024 159.226 333.819C156.676 335.464 150.758 339.911 150.508 340.1C149.866 340.582 149.738 341.492 150.218 342.134C150.7 342.776 151.609 342.906 152.251 342.424C153.837 341.233 158.442 337.945 160.635 337.041C161.768 336.582 162.544 338.95 161.178 340.01V340.007Z" fill="#2C2C2C"/>
<path d="M248.279 326.327C246.397 327.585 243.14 330.165 240.406 332.692C239.753 328.779 236.194 319.05 234.602 314.986C232.973 310.82 227.267 312.18 228.264 316.616C229.26 321.052 231.752 329.854 231.752 329.854C231.752 329.854 227.648 319.431 226.274 316.508C223.401 310.402 216.737 314.681 219.36 320.741C220.4 323.143 225.303 331.623 225.303 331.623C225.303 331.623 223.081 328.198 221.431 325.682C219.043 322.042 214 325.458 215.769 330.586C220.85 345.326 227.68 345.947 229.272 353.506L242.852 349.285C241.964 345.729 242.852 341.68 245.569 338.473C248.285 335.263 250.85 331.658 252.529 328.994C254.208 326.327 251.689 324.055 248.282 326.327H248.279Z" fill="#FDF6EE"/>
<path d="M247.471 325.119C246.097 326.034 243.608 327.922 241.162 330.031C240.006 325.4 237.316 317.94 235.953 314.457C234.039 309.562 227.764 310.201 226.808 314.542C222.715 308.737 214.892 314.077 218.023 321.319C218.212 321.755 218.433 322.225 218.674 322.719C215.586 322.891 212.829 326.533 214.392 331.062C219.505 345.898 226.404 346.953 227.848 353.808C228.011 354.584 228.775 355.095 229.568 354.93C230.352 354.764 230.855 353.994 230.689 353.21C228.987 345.134 222.128 344.594 217.137 330.118C215.929 326.612 218.805 324.343 220.211 326.484C224.67 333.261 224.592 333.787 226.099 332.849C227.314 332.091 226.666 331.004 226.038 329.953C224.824 327.919 221.983 323.155 220.687 320.166C218.875 315.974 222.857 312.677 224.955 317.13C226.294 319.974 230.355 330.284 230.399 330.388C231.07 332.094 233.647 331.222 233.147 329.462C233.124 329.374 230.654 320.648 229.678 316.302C229.074 313.606 232.27 313.014 233.249 315.521C234.713 319.259 237.99 328.372 238.684 332.285C236.662 334.217 234.986 336.123 234.477 337.477C234.196 338.226 234.576 339.063 235.326 339.347C236.075 339.626 236.912 339.249 237.196 338.499C237.978 336.416 245.182 330.147 249.084 327.544C250.699 326.469 252.317 326.606 251.294 328.227C249.4 331.239 246.841 334.72 244.453 337.543C241.534 340.994 240.406 345.52 241.438 349.648C241.629 350.421 242.417 350.901 243.198 350.706C243.977 350.511 244.45 349.724 244.256 348.945C243.451 345.724 244.351 342.162 246.673 339.423C249.142 336.503 251.791 332.898 253.755 329.778C256.233 325.845 252.262 321.935 247.474 325.13L247.471 325.119Z" fill="#2C2C2C"/>
<path d="M411.185 476.53C389.354 477.977 107.776 470.16 107.776 470.16L107.86 468.512C111.166 467.687 232.766 449.316 237.481 448.029C258.179 308.232 255.948 312.038 260.073 307.988C263.327 304.795 268.512 305.327 273.091 305.379C346.061 306.219 408.879 302.468 476.179 305.928C480.423 306.146 485.115 306.591 488.002 309.682C491.183 313.086 490.931 318.324 490.466 322.943C486.132 366.152 480.653 409.248 474.032 452.172C474.032 452.172 458.586 463.528 441.339 470.578C430.852 474.863 419.439 475.987 411.183 476.533L411.185 476.53Z" fill="#FDF6EE"/>
<path d="M475.825 451.007C477.905 441.934 492.282 328.805 492.261 318.394C492.255 314.472 491.395 311.485 489.635 309.26C485.524 304.069 477.266 304.438 470.59 304.136C431.776 302.355 392.849 302.907 355.203 303.439C347.621 303.546 269.427 303.741 267.498 303.837C263.426 304.04 260.503 305.193 258.571 307.366C254.501 311.942 256.698 307.799 236.136 446.792C231.79 447.675 112.906 465.895 109.606 466.586C103.831 466.49 104.946 469.302 105.004 474.377C105.068 480.095 105.969 480.774 107.047 481.155C114.152 483.653 430.454 481.96 434.972 481.747C435.82 481.707 442.071 481.765 442.809 480.841C444.605 479.075 471.551 462.897 474.082 460.495C476.112 459.71 476.353 452.962 475.825 451.007ZM161.951 461.645L207.873 462.017C201.215 463.321 193.665 464.878 188.607 466.171C185.755 466.9 188.538 466.688 129.342 466.624C136.402 465.523 160.836 461.645 161.951 461.645ZM489.124 320.932C488.255 333.154 481.55 392.924 473.05 448.581C472.135 448.619 468.01 448.555 466.36 448.546C468.829 436.502 479.999 339.414 480.49 328.599C480.868 320.29 477.716 315.828 470.575 314.553C450.818 311.024 301.67 314.225 281.614 313.507C275.583 313.295 269.651 313.066 266.275 317.94C264.001 321.226 264.788 318.623 246.556 447.126C244.16 447.105 241.647 447.07 239.166 446.986C259.138 311.997 257.833 314.202 259.966 310.602C261.941 307.267 265.776 306.866 269.581 306.837C319.611 307.023 437.699 304.336 478.094 307.572C486.997 308.284 489.78 311.657 489.121 320.932H489.124ZM458.932 457.485L453.511 460.431L406.773 460.245C409.678 459.007 412.188 457.912 414.523 456.86C420.688 456.959 450.365 457.375 458.932 457.482V457.485ZM448.067 463.417C445.9 464.617 443.945 465.718 441.935 466.906C440.857 466.54 437.592 466.595 391.774 466.63C394.339 465.52 398.017 463.937 399.641 463.251L448.067 463.417ZM391.922 463.211C389.105 464.437 386.667 465.546 384.399 466.636L331.472 466.734C334.656 465.535 339.415 463.754 341.66 462.929L391.925 463.211H391.922ZM179.875 458.76L216.269 453.098C217.085 453.339 220.684 453.357 250.687 453.918L223.273 459.094L179.875 458.76ZM419.093 451.379C417.504 452.18 415.645 453.034 413.928 453.813L366.887 453.011C367.68 452.607 369.548 451.384 369.664 451.114L419.096 451.379H419.093ZM359.314 456.265C360.543 455.765 360.395 455.89 407.226 456.741C404.521 457.892 400.588 459.55 399.008 460.213L349.768 459.94C352.842 458.792 356.052 457.575 359.314 456.268V456.265ZM320.166 452.175C322.06 451.437 322.426 451.291 322.693 450.821L363.86 451.079C362.46 451.721 361.013 452.311 359.596 452.886L320.166 452.175ZM352.124 455.791C348.4 457.189 342.805 459.26 341.094 459.887L294.576 459.588C301.182 457.816 310.121 455.356 311.213 455.051L352.124 455.791ZM277.402 451.382C279.168 450.905 279.862 450.647 280.164 450.493L314.963 450.76C313.534 451.207 312.105 451.617 310.774 452L277.402 451.379V451.382ZM300.505 454.853C294.643 456.413 285.324 458.853 282.787 459.51L238.966 459.205C248.009 457.47 264.306 454.333 264.983 454.185L300.505 454.85V454.853ZM268.309 320.526C269.517 318.004 271.911 316.703 275.624 316.552C280.96 316.328 276.26 316.886 326.859 316.348C375.114 315.837 448.038 315.064 468.429 317.301C475.72 318.1 478.053 321.461 477.344 330.138C473.573 376.258 463.29 448.241 463.252 448.532L249.601 447.152C267.833 321.374 266.604 324.067 268.306 320.526H268.309ZM424.775 451.411C424.775 451.411 461.268 451.631 469.62 451.605C468.185 452.421 466.752 453.212 464.327 454.539C461.936 454.516 430.579 454.063 420.85 453.921C422.564 453.046 424.148 452.117 424.775 451.411ZM233.225 450.539C234.291 450.342 235.349 450.121 236.398 449.871C238.823 450.074 258.821 450.295 268.402 450.391C263.234 451.469 268.21 451.21 233.228 450.539H233.225ZM223.395 462.136L271.493 462.473C265.23 464.158 260.062 465.642 256.09 466.897C244.319 466.819 213.596 466.732 200.012 466.7C207.519 465.128 215.877 463.556 223.395 462.136ZM332.986 462.877C329.212 464.297 326.089 465.529 323.141 466.758C296.432 466.871 274.587 467.048 266.708 466.981C272.074 465.52 280.475 463.28 283.261 462.557L332.986 462.877Z" fill="#2C2C2C"/>
<path d="M397.311 416.036C402.131 398.252 402.691 379.329 398.868 361.295C395.365 344.762 388.062 332.32 372.055 326.891C364.671 324.387 356.522 324.116 349.056 326.435C348.827 326.385 348.58 326.411 348.382 326.53C334.45 334.949 335.458 334.496 334.874 334.33C334.459 334.214 331.005 332.12 330.566 331.847C328.672 330.667 326.839 329.401 325.061 328.056C324.715 327.794 324.204 327.957 323.913 328.21C307.317 326.905 293.69 338.813 282.177 350.787C274.046 359.247 267.063 367.97 260.773 377.223C247.695 347.693 248.099 348.216 247.312 347.551C246.057 346.496 244.128 347.365 242.754 347.705L224.472 352.225C224.098 352.318 223.755 352.731 223.784 353.131C224.452 362.236 225.515 371.314 226.985 380.325C229.585 396.253 232.513 414.137 245.638 423.45C252.541 428.348 259.559 428.833 267.891 426.834C276.109 424.865 284.161 421.46 291.136 416.635C290.268 421.971 287.982 439.854 287.171 446.603C287.11 447.111 287.65 447.538 288.109 447.541L378.161 448.157C378.679 448.16 379.085 447.724 379.1 447.219L379.262 441.17C389.627 437.013 394.554 426.201 397.308 416.039L397.311 416.036Z" fill="#C8705A"/>
<path d="M350.428 287.008C349.661 287.677 348.609 286.849 348.827 286.099C344.243 280.08 340.914 273.181 339.008 265.863C328.027 268.344 316.518 267.649 309.209 265.587C306.783 278.166 305.775 290.866 305.879 297.745C306.065 308.676 309.438 315.468 327.568 316.555C327.005 329.07 327.066 328.779 326.955 329.07C329.067 331.312 330.871 332.765 332.852 334.11C333.189 334.336 333.814 334.92 334.221 334.973C334.438 335.004 334.328 335.007 335.461 334.13C338.572 331.641 342.546 328.849 346.785 326.284C344.109 314.681 344.066 315.233 344.275 314.225C344.493 313.159 345.402 312.354 346.009 311.506C348.94 307.433 350.465 302.512 350.399 297.507C350.393 296.679 351.256 296.417 351.819 296.717C353.809 297.062 355.935 297.251 357.461 295.68C361.249 291.772 357.115 281.155 350.428 287.003V287.008Z" fill="#FDF6EE"/>
<path d="M337.433 276.989C335.644 275.801 333.689 274.775 331.626 273.945C330.839 273.628 329.871 274.215 329.691 275.019C329.253 276.98 331.126 276.475 335.847 279.583C336.541 280.045 337.578 279.766 337.965 279.031C338.351 278.296 338.133 277.457 337.43 276.992L337.433 276.989Z" fill="#2C2C2C"/>
<path d="M331.397 281.402C330.842 280.856 330.052 280.655 329.337 280.867C327.861 281.312 326.897 284.963 328.611 287.244C329.404 288.298 330.79 288.069 331.225 287.142C331.716 286.09 332.806 282.782 331.4 281.402H331.397Z" fill="#2C2C2C"/>
<path d="M324.994 300.516C324.881 298.375 321.859 298.701 321.955 300.577C322.031 302.024 322.894 304.557 322.028 305.312C320.509 306.236 318.696 302.526 318.286 300.621C318.109 299.796 317.203 299.308 316.407 299.523C315.619 299.741 315.158 300.531 315.338 301.362C316.227 305.478 319.544 309.894 323.193 308.148C324.427 307.552 325.215 306.326 325.412 304.691C325.592 303.177 325.066 301.873 324.994 300.516Z" fill="#2C2C2C"/>
<path d="M321.862 275.548C321.644 278.377 321.072 281.244 320.163 284.08C318.675 283.754 317.182 283.664 315.718 283.812C314.414 283.946 313.827 285.366 314.672 286.366C318.917 291.4 318.405 293.762 320.015 293.91C321.087 294.02 322.127 292.841 321.58 291.656C320.825 290.026 319.922 288.443 318.888 286.935C319.524 287.028 320.14 287.17 320.726 287.359C321.578 287.632 322.35 287.06 322.606 286.348C323.846 282.92 324.616 279.318 324.901 275.638C325.055 273.633 322.01 273.627 321.865 275.548H321.862Z" fill="#2C2C2C"/>
<path d="M316.724 273.497C314.223 273.378 311.701 274.308 309.816 276.022C308.485 277.227 310.211 279.9 312.3 277.893C313.52 277.129 314.682 276.425 316.669 276.536C318.554 276.626 318.83 273.587 316.724 273.497Z" fill="#2C2C2C"/>
<path d="M313.961 279.542C312.851 278.47 310.756 278.618 310.44 281.311C310.059 282.793 310.329 284.28 311.18 285.39C311.991 286.45 313.368 286.197 313.792 285.282C314.321 284.146 315.378 280.907 313.961 279.539V279.542Z" fill="#2C2C2C"/>
<path d="M364.331 263.289C364.098 253.882 361.327 248.072 356.086 246.021C353.39 244.967 350.389 245.185 348.214 246.544C346.468 242.318 342.299 234.064 336.268 233.704C331.524 233.437 327.8 238.503 326.85 243.878C323.797 239.645 320.006 235.035 314.591 235.845C310.783 236.415 307.66 240.284 308.961 246.437C305.423 243.648 302.053 241.129 298.468 241.603C294.314 242.152 291.171 247.029 293.794 253.153C296.101 258.53 300.357 263.112 306.739 265.409C305.135 273.901 303.34 287.142 303.416 297.303C303.509 309.214 307.471 314.707 318.031 317.577C320.143 318.153 322.429 318.556 325.006 318.812C325.006 318.812 324.642 326.557 324.61 327.533C324.285 327.62 323.974 327.797 323.745 328.152C319.489 334.676 318.989 343.441 322.475 350.482C323.004 351.546 324.477 351.473 325.099 350.546C327.832 346.482 330.786 342.441 333.883 338.522C337.247 343.275 340.019 348.463 342.476 353.062C343.028 354.096 344.457 354.044 345.091 353.114C350.256 345.512 352.089 335.954 350.122 326.894C350.064 326.629 349.399 325.409 349.047 325.18C346.616 314.646 346.456 314.96 346.93 314.303C347.647 313.316 348.362 312.47 348.986 311.468C351.229 307.872 352.542 303.689 352.795 299.334C354.427 299.514 356.243 299.476 357.876 298.468C362.405 295.671 362.274 288.673 358.948 284.972C362.649 278.447 364.508 270.949 364.322 263.283L364.331 263.289ZM324.151 346.581C322.493 341.529 323.027 335.832 325.54 331.141C327.736 333.404 330.127 335.269 331.76 336.364C329.151 339.658 326.589 343.069 324.151 346.584V346.581ZM347.377 328.796C348.594 335.725 347.368 343.069 343.9 349.274C341.622 345.05 339.135 340.684 336.242 336.634C338.125 335.278 340.762 332.832 347.377 328.796ZM357.045 295.282C355.717 296.65 353.829 296.478 351.999 296.165C351.002 295.72 349.806 296.333 349.82 297.518C349.875 302.405 348.353 307.256 345.541 311.172C342.88 314.864 343.014 312.528 346.128 326.011C338.633 330.577 335.179 333.755 334.209 334.362C333.915 334.217 330.322 331.754 327.591 328.892C327.637 328.448 327.655 327.855 328.044 319.041C330.691 319.178 333.311 319.169 335.336 319.143C337.311 319.123 337.314 316.084 335.321 316.105C330.147 316.168 314.408 316.363 309.295 309.138C306.893 305.745 306.518 301.263 306.463 297.736C306.315 288.542 307.997 275.161 309.664 266.313C316.099 268.004 327.219 269.009 338.592 266.554C340.541 273.747 343.778 280.373 348.222 286.261C348.185 287.479 349.733 288.391 350.814 287.45C356.856 282.168 360.368 291.859 357.048 295.284L357.045 295.282Z" fill="#2C2C2C"/>
<path d="M333.207 357.161C332.922 352.914 325.796 351.897 325.709 358.233C325.697 359.096 325.543 360.673 325.444 362.091C324.053 358.503 322.197 353.448 321.479 350.238C320.288 344.919 313.238 346.752 313.967 352.324C313.708 351.479 313.49 350.706 313.386 350.137C312.604 345.89 305.902 345.869 306.757 352.699C306.974 354.451 307.564 356.426 308.293 358.393C306.112 355.639 301.94 357.324 302.719 362.085C303.549 367.172 306.373 373.281 311.532 378.44C314.769 381.676 319.884 384.48 321.781 385.464L336.399 379.111C333.863 369.719 333.343 359.235 333.207 357.155V357.161Z" fill="#FDF6EE"/>
<path d="M377.764 439.773C367.378 444.831 355.102 440.868 347.543 434.698C333.247 423.032 328.791 403.946 322.836 386.995C328.1 385.118 333.189 382.794 337.983 380.078C348.191 393.406 358.425 406.165 368.415 418.018C369.705 419.546 371.893 417.434 370.635 415.938C368.607 413.532 366.6 411.112 364.595 408.684C366.643 406.929 369.978 393.845 369.499 386.527C369.371 384.564 366.335 384.616 366.46 386.603C366.919 393.682 363.605 405.134 362.632 406.296C338.055 376.371 339.795 375.529 337.378 376.929C336.071 371.514 335.162 365.054 334.688 357.57C334.29 351.258 326.493 350.479 324.657 355.763C323.914 353.617 323.254 351.516 322.897 349.919C321.752 344.806 316.23 344.126 313.816 347.606C310.943 343.946 304.415 345.674 305.316 352.876C305.435 353.82 305.644 354.822 305.926 355.848C303.294 355.348 300.523 357.655 301.287 362.32C302.269 368.342 305.633 374.591 310.507 379.468C313.148 382.109 316.901 384.43 319.399 385.824C319.362 386.042 319.364 386.266 319.452 386.51C323.809 398.484 327.048 411.528 333.715 422.802C346.573 444.534 366.039 448.883 379.225 442.437C381.017 441.557 379.527 438.919 377.767 439.77L377.764 439.773ZM304.151 361.852C303.608 358.529 305.615 357.591 306.867 360.162C308.302 363.11 311.12 368.069 312.596 370.55C313.011 371.233 313.897 371.453 314.586 371.041C315.271 370.628 315.495 369.742 315.088 369.054C312.526 364.705 308.816 357.474 308.198 352.516C307.925 350.34 308.535 348.87 309.79 348.678C310.664 348.542 311.721 349.099 311.957 350.395C312.593 353.852 316.811 364.551 318.595 368.351C319.393 370.068 321.996 368.903 321.244 367.163C319.327 362.581 316.509 356.307 315.78 351.821C315.146 347.923 319.271 347.014 320.062 350.549C321.215 355.694 325.523 366.311 325.814 366.922C326.618 368.612 329.18 367.471 328.466 365.739C327.504 363.409 327.127 360.731 327.161 358.244C327.222 353.756 331.6 354.831 331.757 357.251C332.207 364.205 332.992 371.482 334.741 378.393C329.849 381.034 326.281 382.518 322.133 384.006C320.021 382.896 315.483 380.337 312.561 377.411C308.105 372.955 305.04 367.282 304.151 361.849V361.852Z" fill="#2C2C2C"/>
<path d="M292.557 407.685C291.915 410.198 291.032 412.632 289.936 414.918C288.995 416.885 291.813 418.032 292.606 416.368C293.844 413.788 294.814 411.13 295.494 408.469C295.979 406.56 293.051 405.759 292.557 407.685Z" fill="#2C2C2C"/>
<path d="M262.505 376.148C262.211 374.347 259.19 374.649 259.547 376.831L260.68 383.817C260.974 385.616 263.989 385.299 263.64 383.135L262.505 376.148Z" fill="#2C2C2C"/>
<path d="M350.439 292.028C351.328 290.843 353.777 289.053 355.447 289.053C356.249 289.053 356.899 289.704 356.899 290.506C356.899 291.308 356.249 291.958 355.447 291.958C354.965 292.002 353.358 292.978 352.766 293.771C351.639 295.27 349.277 293.582 350.442 292.028H350.439Z" fill="#2C2C2C"/>
<path d="M323.576 166.349C321.563 173.301 319.076 180.212 314.928 186.199C295.282 214.563 231.037 231.256 179.65 205.726C209.093 183.5 213.142 143.975 249.054 114.472C259.904 105.559 273.729 99.1652 288.056 100.963C295.293 101.873 302.01 105.187 308.096 109.057C328.625 122.103 330.293 143.164 323.573 166.349H323.576Z" fill="#FDF6EE"/>
<path d="M328.309 132.855C325.157 119.117 316.799 109.734 301.211 102.425C294.201 99.1391 287.005 97.765 279.818 98.3431C261.65 99.8072 244.386 111.549 227.04 134.246C208.811 158.096 200.282 187.483 177.71 204.117C175.131 203.373 175.343 207.879 177.844 207.554C213.811 225.652 259.495 225.309 294.303 206.633C308.482 199.025 317.124 190.057 322.327 177.554C328.881 161.803 331.115 145.093 328.309 132.852V132.855ZM323.022 166.186C321.221 172.403 318.792 179.605 314.455 185.868C294.454 214.746 230.561 229.838 180.755 205.619C209.581 183.248 214.064 143.975 249.429 114.922C261.836 104.728 275.53 99.9728 287.993 101.542C294.117 102.308 300.406 104.853 307.791 109.545C325.773 120.976 330.755 139.501 323.022 166.186Z" fill="#2C2C2C"/>
<path d="M250.149 178.158C253.702 178.446 267.837 181.543 271.968 183.367C271.968 183.367 271.472 175.422 279.728 168.676C286.807 162.892 296.542 152.801 294.143 140.986C291.74 129.171 280.503 120.622 265.903 128.018C251.302 135.414 251.59 145.98 252.168 156.162C252.63 164.307 250.152 178.158 250.152 178.158H250.149Z" fill="#2D6A4F"/>
<path d="M295.563 140.695C292.789 127.062 279.966 119.265 265.244 126.722C249.496 134.702 250.173 146.645 250.716 156.243C251.085 162.759 249.499 173.196 248.923 176.697C243.363 177.092 240.084 183.163 245.141 187.817C243.235 190.469 242.701 193.886 243.965 197.046C244.743 198.99 246.538 200.454 248.743 201.445C249.914 204.422 252.976 206.409 253.136 206.511C253.81 206.944 254.704 206.743 255.137 206.072C255.567 205.398 255.373 204.498 254.701 204.065C254.318 203.818 253.693 203.342 253.078 202.726C255.916 203.199 258.8 203.057 260.811 202.302C263.739 201.203 263.652 199.426 263.477 198.714C262.464 194.557 249.946 191.87 248.435 197.97C245.498 195.977 245.647 192.117 247.509 189.54C253.054 192.86 267.983 196.73 268.892 190.667C269.18 188.738 267.681 186.795 264.974 185.592C260.433 183.57 253.589 182.327 249.298 184.378C248.511 184.752 247.793 185.203 247.148 185.717C243.898 182.838 246.14 179.561 249.464 179.57C252.157 179.579 267.361 182.919 271.382 184.697C272.358 185.13 273.476 184.378 273.418 183.285C273.404 182.989 273.119 175.953 280.646 169.803C292.336 160.255 297.495 150.192 295.566 140.698L295.563 140.695ZM252.912 197.439C255.759 196.823 259.657 198.325 260.517 199.228C258.42 200.64 253.792 200.134 251.198 199.28C251.134 198.418 251.506 197.741 252.912 197.439ZM264.395 190.879C261.107 191.283 254.24 189.9 249.714 187.457C255.741 183.617 270.842 190.083 264.395 190.879ZM258.504 178.173C261.185 170.32 265.77 157.033 266.952 151.781C267.539 151.967 268.134 152.144 268.733 152.309C266.963 156.841 264.759 172.551 264.058 179.459C262.22 179.003 260.317 178.562 258.504 178.175V178.173ZM264.68 147.891C263.265 147.327 262.066 146.752 261.281 146.255C260.122 145.52 262.539 142.348 263.858 143.551C264.706 144.318 264.878 145.924 264.68 147.894V147.891ZM278.807 167.549C272.628 172.598 271.03 178.289 270.635 181.31C269.572 180.953 268.279 180.578 266.902 180.2C267.515 173.946 269.857 156.943 271.588 152.998C282.197 155.171 285.309 149.86 281.134 145.883C277.863 142.769 272.649 145.913 270.118 149.672C269.232 149.439 268.34 149.178 267.478 148.896C267.911 145.608 267.562 142.978 265.807 141.392C261.45 137.444 254.937 145.657 259.721 148.704C260.741 149.352 262.333 150.102 264.195 150.816C263.077 155.984 258.373 169.559 255.634 177.583C254.179 177.298 252.86 177.06 251.831 176.903C252.462 173.057 253.993 162.791 253.612 156.077C253.066 146.418 252.499 136.431 266.554 129.313C279.56 122.725 290.325 129.534 292.713 141.273C294.863 151.847 286.334 161.399 278.804 167.549H278.807ZM273.244 150.357C274.624 148.73 277.651 146.587 279.127 147.993C279.856 148.687 280.091 149.247 279.995 149.494C279.841 149.898 278.735 150.566 276.431 150.633C275.516 150.659 274.421 150.558 273.244 150.36V150.357Z" fill="#2C2C2C"/>
<path d="M565.464 209.532C559.942 180.406 534.749 158.538 498.861 158.291C466.273 158.067 438.068 176.058 414.648 198.598C400.556 212.161 387.193 227.973 375.285 245.778C367.889 256.834 376.508 250.519 379.387 250.01C405.596 245.403 434.074 270.688 464.899 278.055C489.019 283.819 521.102 282.067 540.998 268.669C559.494 256.215 569.888 232.871 565.464 209.529V209.532Z" fill="#B7D7C8"/>
<path d="M459.083 200.41C481.815 201.656 503.869 202.231 525.761 202.231C526.97 202.231 526.973 200.352 525.761 200.352C502.609 200.352 480.574 199.71 459.083 198.53C457.875 198.463 457.877 200.343 459.083 200.41Z" fill="#C8705A"/>
<path d="M525.134 229.277C526.343 229.277 526.345 227.398 525.134 227.398C501.932 227.398 479.903 226.753 458.456 225.576C457.247 225.509 457.25 227.389 458.456 227.456C481.19 228.702 503.242 229.277 525.134 229.277Z" fill="#C8705A"/>
<path d="M458.453 212.989C481.184 214.235 503.239 214.81 525.131 214.81C526.34 214.81 526.342 212.931 525.131 212.931C501.978 212.931 479.944 212.289 458.453 211.109C457.244 211.042 457.247 212.922 458.453 212.989Z" fill="#C8705A"/>
<path d="M525.761 241.867C502.609 241.867 480.574 241.225 459.083 240.046C457.875 239.979 457.877 241.858 459.083 241.925C481.815 243.171 503.869 243.747 525.761 243.747C526.97 243.747 526.973 241.867 525.761 241.867Z" fill="#C8705A"/>
</svg>
