<svg width="202" height="202" viewBox="0 0 202 202" fill="none" xmlns="http://www.w3.org/2000/svg">
<path d="M114.717 25.684C114.628 25.179 113.011 15.1255 112.616 15.1255C112.004 15.1871 75.34 18.9382 75.4966 19.4079C75.8632 22.6298 76.7864 29.2241 76.8975 29.6715C117.672 25.7275 114.806 26.186 114.717 25.684Z" fill="#B7D7C8"/>
<path d="M101.033 16.3372C100.837 16.3372 89.3606 17.5987 89.1263 17.6573C86.0781 6.43119 88.596 5.74843 94.4066 5.37372C97.9769 5.14344 98.8789 5.9171 99.6586 8.66026C100.364 11.1689 100.824 13.7398 101.033 16.3372Z" fill="#FDF6EE"/>
<path d="M173.575 180.437C172.898 180.756 51.4373 192.37 51.3343 192.37L33.7441 33.8193C34.8915 33.8193 118.04 25.6989 155.823 22.1033C156.012 23.2294 173.359 179.306 173.575 180.437Z" fill="#FDF6EE"/>
<path d="M153.193 93.5025C152.467 88.4969 152.339 87.8223 151.917 87.9626C150.885 88.4788 54.3511 98.0626 54.9712 99.3029C55.7217 104.478 55.858 104.682 56.2368 104.555C56.8822 104.232 153.494 94.256 153.193 93.5025ZM56.4519 103.828C56.156 102.319 56.1115 101.182 55.8691 99.6726L151.756 88.7161C152.025 90.1432 152.268 91.5714 152.483 93.0258C56.56 103.842 56.5539 103.816 56.4519 103.828Z" fill="#C8705A"/>
<path d="M70.675 50.035C134.946 42.9095 145.747 41.7682 147.32 41.3379C147.748 41.2207 146.629 35.6718 146.209 35.8122C145.161 36.3364 48.6156 45.8597 49.262 47.1535C50.0498 52.5742 50.0407 52.3792 50.7437 52.3792C50.8427 52.3792 65.6331 50.5946 70.675 50.035Z" fill="#C8705A"/>
<path d="M154.976 102.679C154.248 97.6729 154.144 97.0618 153.722 97.2022C152.69 97.7183 56.1119 107.056 56.73 108.292C57.4814 113.466 57.6632 113.922 58.043 113.796C58.6884 113.472 155.278 103.434 154.976 102.679ZM58.2571 113.068C57.9612 111.559 57.7188 110.051 57.4764 108.543L153.561 97.9567C153.83 99.3838 154.073 100.812 154.288 102.266C58.3632 113.081 58.3591 113.055 58.2571 113.068Z" fill="#C8705A"/>
<path d="M156.793 112.152C156.066 107.146 155.975 106.786 155.554 106.926C154.513 107.446 57.9035 116.723 58.5358 117.989C59.3226 123.41 59.3862 123.492 60.0892 123.492C60.4296 123.492 62.4435 123.126 156.658 112.556C156.76 112.556 156.819 112.279 156.793 112.152ZM60.0619 122.816C59.766 121.307 59.5236 119.798 59.2812 118.29L155.365 107.704C155.635 109.131 155.877 110.559 156.093 112.014C155.043 111.981 61.1709 122.65 60.0619 122.816Z" fill="#C8705A"/>
<path d="M87.971 14.0477C88.1821 15.2869 88.4558 16.4989 88.779 17.7109C88.8939 17.6872 89.0113 17.6781 89.1285 17.6837C89.9658 17.6837 88.8538 17.5917 88.267 11.2732C88.065 9.06231 88.0781 7.2938 90.2062 6.4252C92.1709 5.84525 94.2209 5.60847 96.2662 5.72527C98.6184 5.95959 99.0063 7.54327 99.58 9.81981C101.051 15.6616 100.331 16.5696 101.045 16.4858C101.13 16.4754 101.207 16.4323 101.261 16.3656C101.314 16.299 101.339 16.2141 101.33 16.1293C101.119 14.1246 100.786 12.1346 100.333 10.1703C99.8032 7.88667 99.385 5.86061 97.155 5.24148C94.9516 4.93584 92.7098 5.06382 90.5556 5.61821C86.6893 6.7585 87.2903 10.0652 87.971 14.0477Z" fill="#2C2C2C"/>
<path d="M93.8675 8.18066C92.8747 8.18066 92.3525 10.2006 93.6796 10.3895C95.3502 10.6147 95.2431 8.18066 93.8675 8.18066Z" fill="#2C2C2C"/>
<path d="M156.093 22.0744C156.005 21.6381 156.057 21.7714 123.47 24.9307C33.1848 33.6712 33.2899 33.0612 33.1919 33.9429C33.1919 34.6802 49.4226 181.901 51.0527 192.285C51.0773 192.44 51.1602 192.581 51.2847 192.677C51.4092 192.773 51.5657 192.818 51.7224 192.803C160.233 182.333 171.772 181.307 173.093 180.974C173.2 180.947 173.689 180.662 173.682 180.29C173.605 176.346 170.764 152.647 156.093 22.0744ZM173.114 180.33C51.6335 192.051 51.7315 192.021 51.6305 192.047L33.906 34.1964L155.527 22.4521C170.944 159.706 173.157 180.33 173.114 180.33Z" fill="#2C2C2C"/>
<path d="M95.6722 149.783C94.8157 143.456 94.9914 142.795 94.3258 142.886C73.8945 145.709 59.8071 146.391 60.3282 147.607C60.1505 147.963 61.4524 154.515 63.3754 172.786C64.1369 180.028 63.9572 179.856 64.3177 180.006C64.652 180.117 98.5567 176.024 98.5567 175.291C98.6931 174.738 96.3832 155.035 95.6722 149.783ZM65.2338 179.305C63.8814 179.53 65.6307 180.579 61.0312 148.004C70.3393 146.818 84.8672 145.225 94.1915 143.56C94.6834 145.528 97.066 166.457 97.881 174.915C88.2133 176.618 66.0872 179.221 65.2338 179.306V179.305Z" fill="#2C2C2C"/>
<path d="M99.8747 138.335C99.7763 138.282 99.6633 138.261 99.5521 138.275C99.4408 138.29 99.337 138.339 99.2556 138.416C97.6578 140.213 80.8352 162.942 80.3686 163.575C76.2195 162.147 72.0785 160.747 67.9456 159.265C67.3396 159.047 67.1134 159.989 67.5679 160.261C72.7896 163.867 78.2739 168.28 81.4948 170.955C82.423 171.728 82.7805 170.753 100.027 139.063C100.076 139.009 100.111 138.944 100.13 138.875C100.149 138.804 100.151 138.731 100.136 138.661C100.121 138.589 100.09 138.523 100.044 138.467C99.9989 138.41 99.9408 138.365 99.8747 138.335Z" fill="#C8705A"/>
<path d="M36.7641 25.9269C34.2844 24.0301 32.3362 21.5253 31.1081 18.6549C33.009 13.4261 32.711 7.69641 32.1848 6.2107C31.6495 4.6957 29.8467 5.04415 29.3295 7.0995C28.6038 10.2609 28.7152 13.557 29.6527 16.6622C30.4284 19.171 30.5446 18.3186 29.9759 19.6518C27.8347 24.6725 24.5401 24.9977 22.7837 23.3423C22.0008 22.5022 21.3638 21.5371 20.8991 20.487C21.7535 17.7095 23.8675 8.09839 21.8141 6.23696C18.3094 3.0595 17.0833 13.9129 20.1709 20.5143C19.4861 22.6353 18.6104 25.3623 16.8853 26.4935C13.7432 28.562 10.5223 22.7292 10.5819 18.7357C10.5772 18.6495 10.5396 18.5685 10.477 18.5091C10.4144 18.4499 10.3313 18.4168 10.2451 18.4168C10.1587 18.4168 10.0758 18.4499 10.0131 18.5091C9.95046 18.5685 9.91292 18.6495 9.9082 18.7357C9.9082 25.2845 16.6571 33.5968 20.6021 21.3223C21.5111 22.8373 22.4737 24.5765 24.5351 24.7967C27.5782 25.1219 29.6245 22.2717 30.7577 19.4094C32.0441 22.1625 33.9862 24.5581 36.4137 26.3864C36.7884 26.7652 37.1136 26.1935 36.7641 25.9269ZM20.6799 6.45209C21.9606 6.59046 21.9192 8.26302 21.9192 9.41442C21.9293 12.8522 21.4394 16.2732 20.4648 19.5699C18.5165 15.6744 18.7084 6.23797 20.6799 6.45209ZM31.6434 6.66621C32.2628 10.3737 31.9575 14.1767 30.7546 17.7378C27.9186 10.2012 30.8466 3.46855 31.6434 6.66621Z" fill="#2D6A4F"/>
<path d="M36.2223 132.76C32.8448 131.566 30.6966 127.864 28.8685 124.49C29.1791 122.041 29.3232 119.576 29.2997 117.109C29.026 107.822 22.8529 108.038 24.3164 115.143C25.2322 118.437 26.534 121.61 28.1948 124.598C27.775 127.843 27.1363 131.056 26.2829 134.214C26.2639 134.298 26.2775 134.386 26.321 134.459C26.3646 134.534 26.4348 134.589 26.5172 134.613C26.5997 134.636 26.6883 134.628 26.7648 134.59C26.8414 134.55 26.9002 134.484 26.9293 134.403C27.723 131.516 28.326 128.581 28.7341 125.616C30.4845 128.713 32.564 132.168 36.0607 133.401C36.4606 133.547 36.6242 132.901 36.2223 132.76ZM24.8547 111.829C24.988 111.183 25.3941 110.48 26.1475 110.698C29.6159 111.699 28.416 121.619 28.3029 123.439C26.8171 120.542 24.1982 115.019 24.8547 111.829Z" fill="#2D6A4F"/>
<path d="M166.733 38.8566C166.657 38.4243 166.01 38.6132 166.086 39.0455C166.709 42.5821 167.711 46.0411 169.076 49.3626C169.242 49.7666 169.836 49.4141 169.669 49.0122C168.321 45.7449 167.336 42.3393 166.733 38.8566Z" fill="#C8705A"/>
<path d="M178.505 38.8567C177.625 42.3341 176.809 45.8135 175.973 49.2819C175.954 49.3654 175.969 49.4528 176.012 49.5263C176.055 49.5998 176.126 49.6541 176.208 49.6779C176.29 49.7017 176.379 49.6936 176.454 49.6549C176.531 49.6163 176.59 49.55 176.619 49.4697C177.483 46.0085 178.271 42.523 179.151 39.0455C179.26 38.6143 178.613 38.4264 178.505 38.8567Z" fill="#C8705A"/>
<path d="M189.199 45.2942C187.003 47.4627 184.787 49.6372 182.545 51.7582C182.227 52.0612 182.711 52.545 183.03 52.243C185.272 50.122 187.488 47.9465 189.683 45.779C189.716 45.7472 189.741 45.7095 189.758 45.6678C189.775 45.6262 189.783 45.5817 189.783 45.5366C189.783 45.4916 189.775 45.4471 189.758 45.4054C189.741 45.3638 189.716 45.3261 189.683 45.2942C189.651 45.2624 189.614 45.2372 189.572 45.2199C189.531 45.2027 189.487 45.1938 189.441 45.1938C189.396 45.1938 189.351 45.2027 189.31 45.2199C189.268 45.2372 189.231 45.2624 189.199 45.2942Z" fill="#C8705A"/>
<path d="M182.518 84.5148C178.7 75.7793 185.714 64.1785 179.851 59.9718C179.151 59.4682 178.351 59.1211 177.505 58.9538C176.659 58.7865 175.788 58.8031 174.948 59.0022C172.46 55.1299 166.868 54.0027 162.369 57.1166C157.944 60.1769 156.906 65.6834 155.716 70.5576C153.678 78.9033 151.474 78.5781 152.537 79.3659C155.7 81.704 159.671 82.4322 163.445 83.0837C165.096 83.3685 166.641 81.1374 169.882 84.5916C171.464 86.2783 177.746 86.5783 182.247 85.2925C182.38 85.2193 182.481 85.0993 182.532 84.9557C182.582 84.8122 182.577 84.6551 182.518 84.5148Z" fill="#C8705A"/>
<path d="M179.174 71.8282C178.824 70.6162 177.424 70.291 176.319 70.4274C176.104 70.4536 175.592 70.6425 175.43 70.4809C174.365 68.2435 173.981 65.7425 174.326 63.2887C174.569 61.603 161.258 62.5817 160.939 63.8543C160.939 64.8269 156.914 76.2651 162.608 79.4244C163.594 79.9708 163.739 79.5497 163.739 79.9355C163.704 80.9049 163.504 81.8613 163.148 82.7635C163.249 82.7635 162.83 82.8413 163.04 83.221C165.534 87.7458 171.423 85.7763 171.552 84.326C171.634 83.7937 171.336 83.4927 171.336 81.8474C171.333 80.7675 171.46 79.6913 171.713 78.6417C171.926 78.1478 174.298 77.8256 175.619 74.6552C177.596 75.3612 179.688 73.5927 179.174 71.8282Z" fill="#FDF6EE"/>
<path d="M162.853 69.5645C162.679 67.3102 164.651 67.1961 164.039 69.6453C164.027 69.6883 164.024 69.7332 164.029 69.7775C164.035 69.8218 164.049 69.8644 164.071 69.9031C164.093 69.9417 164.124 69.9754 164.159 70.0022C164.194 70.029 164.236 70.0484 164.279 70.0592C164.322 70.07 164.367 70.0721 164.412 70.0652C164.455 70.0583 164.497 70.0426 164.536 70.019C164.573 69.9955 164.606 69.9647 164.632 69.9282C164.658 69.8918 164.676 69.8505 164.685 69.8069C165.198 68.5465 164.493 66.7769 163.231 67.3021C162.311 67.6829 161.953 70.0514 162.611 69.9423C162.678 69.9027 162.735 69.8478 162.777 69.7823C162.819 69.7166 162.845 69.6421 162.853 69.5645Z" fill="#2C2C2C"/>
<path d="M169.074 69.807C168.903 68.696 169.834 67.484 170.205 69.1344C170.407 70.0333 169.793 70.6322 170.34 70.7231C170.998 70.911 171.161 68.9112 170.447 68.0294C168.951 66.1791 167.643 70.3575 168.831 70.1848C169.175 70.1353 169.035 69.807 169.074 69.807Z" fill="#2C2C2C"/>
<path d="M165.277 70.6999C166.141 70.6999 166.639 71.1534 166.706 70.5383C166.832 69.3818 166.885 68.2214 166.948 67.0912C166.972 66.6599 166.294 66.6589 166.274 67.0912C166.229 68.1133 166.167 69.1112 166.086 70.108C165.455 69.9899 164.238 69.8545 164.47 70.4575C164.869 71.4902 165.414 72.4607 166.086 73.34C166.354 73.6915 166.921 73.34 166.678 72.9896C166.1 72.3004 165.628 71.5287 165.277 70.6999Z" fill="#2C2C2C"/>
<path d="M165.682 77.0538C166.471 77.6648 167.736 76.8609 167.621 75.1408C167.621 75.0983 167.613 75.0563 167.597 75.0171C167.581 74.9779 167.557 74.9423 167.526 74.9123C167.497 74.8823 167.461 74.8584 167.421 74.8422C167.383 74.8259 167.341 74.8176 167.298 74.8176C167.256 74.8176 167.213 74.8259 167.175 74.8422C167.136 74.8584 167.099 74.8823 167.07 74.9123C167.04 74.9423 167.015 74.9779 166.999 75.0171C166.983 75.0563 166.975 75.0983 166.975 75.1408C167.054 76.2518 166.389 76.6427 166.49 76.5417C166.204 76.8275 165.628 75.8074 165.628 75.464C165.628 75.565 165.715 74.9186 165.385 74.8712C164.327 74.5177 165.065 76.576 165.682 77.0538Z" fill="#2C2C2C"/>
<path d="M163.721 80.1777C164.654 80.4069 168.134 80.9099 167.977 79.9625C167.952 79.8794 167.896 79.8086 167.821 79.7639C167.747 79.7191 167.659 79.7036 167.573 79.7201C166.352 79.9047 165.105 79.8404 163.91 79.5313C163.424 79.4181 163.352 80.1777 163.721 80.1777Z" fill="#2C2C2C"/>
<path d="M175.864 73.1472C177.177 73.0159 177.723 73.6321 177.803 73.0665C177.971 72.4796 176.401 72.3867 175.837 72.4746C175.303 72.5574 175.521 73.1472 175.864 73.1472Z" fill="#2C2C2C"/>
<path d="M163.418 65.4165C162.855 65.4165 164.226 65.6407 164.226 64.9044C164.226 63.7682 161.144 64.7459 161.748 65.5508C162.189 66.2104 162.464 65.5357 163.418 65.4165Z" fill="#C8705A"/>
<path d="M171.742 66.4408C171.871 66.4702 172.006 66.4507 172.12 66.3858C172.235 66.321 172.321 66.2155 172.362 66.0903C172.509 65.355 170.177 63.7925 169.965 64.851C169.712 65.4186 170.282 65.3277 170.899 65.7105C171.403 66.0236 171.435 66.3175 171.742 66.4408Z" fill="#C8705A"/>
<path d="M190.949 104.394C189.624 97.5203 187.861 89.1494 182.68 85.0801C181.433 84.0735 179.984 83.3458 178.433 82.9463C176.881 82.5468 175.26 82.4847 173.683 82.7642C172.968 82.9296 172.266 83.1457 171.581 83.4106C171.285 83.596 170.979 83.7666 170.666 83.9217C168.938 84.5913 165.943 84.9902 164.066 83.8954C162.998 83.2722 163.085 82.8066 162.746 82.7369C152.467 80.6079 147.949 88.6394 143.324 97.2294C131.276 86.1073 131.801 87.2082 128.213 83.9984C127.268 83.1551 122.069 85.4619 122.853 85.7225C125.304 91.4603 127.189 97.6021 131.122 102.558C134.542 106.869 139.874 110.249 145.587 109.426C153.535 108.283 152.786 101.637 152.241 109.238C150.065 139.578 149.891 138.465 150.247 138.465C159.807 138.465 183.779 137.327 183.678 137.01C183.549 134.736 183.325 131.859 183.26 129.536C185.7 128.123 187.766 126.148 189.287 123.774C190.808 121.401 191.739 118.697 192.002 115.89C192.2 112.028 191.846 108.157 190.949 104.394Z" fill="#2D6A4F"/>
<path d="M146.502 190.055C144.17 190.637 138.074 192.652 136.697 194.391C142.677 195.119 148.666 195.855 154.664 196.6C154.81 196.636 154.963 196.616 155.095 196.546C155.562 196.173 155.404 188.971 155.365 187.98L146.502 190.055Z" fill="#FDF6EE"/>
<path d="M181.497 190.755C184.072 191.737 189.53 194.431 190.683 196.304C184.648 196.277 178.614 196.21 172.58 196.196C171.484 196.196 172.826 188.63 173.012 187.549L181.497 190.755Z" fill="#FDF6EE"/>
<path d="M161.318 82.9261C162.884 87.7215 169.851 89.0416 174.087 83.4644C174.354 83.1129 173.764 82.7907 173.494 83.1139C169.802 88.1235 163.402 87.1297 161.938 82.7372C161.909 82.6596 161.852 82.596 161.778 82.5593C161.703 82.5227 161.618 82.5156 161.539 82.5397C161.46 82.5639 161.393 82.6173 161.352 82.6891C161.311 82.7609 161.299 82.8457 161.318 82.9261Z" fill="#FDF6EE"/>
<path d="M182.652 129.365C175.936 131.688 168.714 132.454 161.614 132.732C161.537 130.63 161.339 128.535 161.022 126.456C164.345 125.954 167.593 125.04 170.69 123.735C173.99 122.448 177.475 121.193 179.714 118.133C182.207 114.725 183.092 107.917 180.307 101.973C180.117 101.569 179.553 101.918 179.714 102.322C180.81 104.665 181.372 107.224 181.358 109.811C181.31 118.62 176.642 121.156 167.723 124.141C161.779 126.132 160.148 125.409 160.288 126.269C161.248 132.173 160.608 133.091 161.123 133.219C161.39 133.752 175.115 132.737 182.808 130.014C183.214 129.87 183.054 129.226 182.652 129.365Z" fill="#FDF6EE"/>
<path d="M190.976 196.142C190.112 194.765 186.713 192.835 186.45 192.748C186.622 192.599 186.812 192.473 187.016 192.371C187.091 192.326 187.147 192.255 187.17 192.17C187.193 192.085 187.183 191.995 187.141 191.918C187.099 191.841 187.029 191.784 186.945 191.758C186.861 191.731 186.77 191.739 186.693 191.779C185.407 192.451 186.467 192.66 184.322 191.644C184.431 191.485 184.548 191.332 184.673 191.186C184.731 191.12 184.761 191.036 184.759 190.948C184.756 190.86 184.721 190.777 184.658 190.715C184.597 190.653 184.514 190.617 184.426 190.614C184.338 190.612 184.253 190.643 184.188 190.701C183.413 191.476 184.142 191.473 181.925 190.566C182.214 190.162 183.352 147.522 183.352 137.177C176.747 137.358 158.919 138.635 150.678 138.47L145.937 189.866C143.022 190.573 144.029 190.841 143.028 189.839C142.72 189.531 142.235 190.015 142.543 190.323C142.678 190.485 142.812 190.62 142.947 190.782C142.463 190.944 141.951 191.131 141.466 191.348C141.062 190.885 140.718 190.371 140.388 190.701C140.109 191.05 140.463 191.221 140.792 191.617C141.081 191.617 137.715 192.643 136.374 194.176C136.331 194.224 136.302 194.283 136.291 194.347C136.28 194.411 136.288 194.477 136.314 194.536C136.339 194.596 136.381 194.647 136.435 194.683C136.488 194.719 136.552 194.739 136.617 194.741C155.324 196.752 154.999 197.143 155.338 196.654C155.532 196.37 155.481 196.214 155.58 194.23C155.871 188.435 154.41 193.883 166.948 149.999C169.429 160.766 170.499 171.113 171.366 182.055C172.439 195.604 171.759 190.912 171.689 195.63C171.67 196.935 171.652 196.539 190.653 196.627C190.712 196.633 190.773 196.624 190.827 196.598C190.882 196.572 190.928 196.533 190.962 196.482C190.995 196.433 191.014 196.374 191.016 196.315C191.019 196.254 191.005 196.195 190.976 196.142ZM154.826 196.25C154.693 196.317 137.565 194.162 137.454 194.149C138.661 193.322 139.964 192.644 141.333 192.129C141.779 192.767 141.898 193.41 142.303 193.153C142.675 192.918 142.222 192.262 141.953 191.914C142.437 191.725 142.949 191.537 143.434 191.349C143.685 191.728 143.91 192.124 144.108 192.533C144.278 192.897 144.852 192.64 144.7 192.184C144.524 191.821 144.327 191.47 144.108 191.132C147.572 190.021 145.026 190.606 155.098 191.725C154.994 192.542 154.98 196.173 154.826 196.25ZM173.655 195.872C173.242 195.887 172.828 195.877 172.416 195.846C172.315 195.745 172.742 191.793 172.767 191.617C182.535 191.288 179.769 190.283 183.326 191.913C183.218 192.102 183.084 192.29 183.003 192.452C182.957 192.526 182.941 192.617 182.962 192.703C182.982 192.789 183.035 192.863 183.111 192.909C183.186 192.955 183.276 192.971 183.362 192.95C183.447 192.93 183.522 192.877 183.569 192.802C183.676 192.587 183.811 192.398 183.945 192.183C184.43 192.398 184.889 192.64 185.373 192.91C185.144 193.196 184.775 193.617 185.185 193.826C185.649 194.058 185.745 193.368 185.858 193.368C185.858 192.89 189.283 195.186 190.034 195.98C183.542 195.928 177.572 195.872 173.655 195.872Z" fill="#2C2C2C"/>
<path d="M160.699 119.344C159.251 92.5793 159.208 91.4975 158.193 89.4169C156.8 86.5586 153.696 84.8083 150.571 84.2458C147.419 83.6771 134.947 84.6497 131.795 85.0799C127.27 85.2153 119.41 85.8325 115.014 86.9122C109.542 88.2555 108.456 90.4895 108.845 95.8819C109.36 103.021 109.259 115.274 110.138 122.388C110.933 128.826 112.775 130.132 117.814 130.954C128.29 132.662 136 131.223 149.518 129.607C159.681 128.394 161.047 125.775 160.699 119.344Z" fill="#FDF6EE"/>
<path d="M161.076 119.937C160.965 117.449 159.738 93.8298 159.19 91.3543C156.766 80.4019 141.681 84.2843 130.475 84.8085C126.319 85.0004 115.432 85.7458 111.7 87.7173C110.641 88.255 109.768 89.0998 109.195 90.1413C105.129 92.8259 106.653 97.3022 106.959 107.109C107.496 124.26 107.396 130.353 112.185 132.46C120.249 136.001 141.018 132.965 149.493 131.84C152.792 131.404 156.586 130.606 158.248 127.584C160.856 125.745 161.222 123.22 161.076 119.937ZM159.809 124.678C157.952 128.718 152.174 128.93 147.204 129.526C137.989 130.632 131.383 131.546 125.115 131.305C108.227 130.659 110.599 129.153 109.384 99.5727C109.052 91.4927 107.884 88.5879 116.441 86.8851C122.782 85.6236 143.711 84.4873 144.375 84.4611C148.87 84.2853 153.233 84.0732 156.605 87.6931C158.838 90.0928 159.254 90.8109 160.402 119.802C160.588 121.451 160.385 123.122 159.809 124.678Z" fill="#2C2C2C"/>
<path d="M145.749 107.788C146.095 107.603 146.387 107.332 146.596 106.999C146.804 106.668 146.922 106.287 146.939 105.895C146.955 105.503 146.869 105.114 146.689 104.766C146.508 104.418 146.24 104.123 145.911 103.91C143.842 102.246 139.901 102.671 136.348 103.155C136.249 100.419 135.675 97.721 134.651 95.1821C133.271 92.3814 131.281 92.4167 130.664 93.8893C130.113 95.2023 130.824 97.0789 130.475 98.8726C129.877 101.95 127.789 104.952 124.711 104.798C124.28 104.777 124.28 105.451 124.711 105.472C128.372 105.654 130.819 101.836 131.175 98.5757C131.418 96.3608 130.656 94.665 131.445 93.8085C132.167 93.0227 133.224 94.2125 133.599 94.7781C134.14 95.6404 134.53 96.5871 134.758 97.5788C136.177 103.033 135.175 103.974 136.05 103.856C138.165 103.569 141.398 103.168 143.485 103.614C146.135 104.178 146.575 105.711 146.017 106.603C145.696 107.011 145.28 107.335 144.805 107.546C144.752 107.582 144.708 107.632 144.682 107.692C144.655 107.751 144.646 107.816 144.654 107.881C144.662 107.945 144.688 108.006 144.729 108.056C144.771 108.106 144.824 108.145 144.886 108.166C145.31 108.274 145.683 108.526 145.938 108.881C146.195 109.235 146.318 109.669 146.287 110.105C146.214 111.156 145.127 111.772 144.293 112.233C144.236 112.267 144.191 112.317 144.162 112.377C144.133 112.437 144.122 112.504 144.13 112.569C144.14 112.635 144.167 112.697 144.21 112.747C144.254 112.798 144.31 112.835 144.374 112.853C145.848 113.123 145.841 115.58 143.512 115.924C143.162 115.975 143.215 116.489 143.512 116.57C144.371 116.856 144.379 118.287 142.919 118.86C141.369 119.466 132.622 120.289 125.357 119.883C124.925 119.86 124.925 120.532 125.357 120.556C130.993 120.84 136.644 120.551 142.224 119.695C144.698 119.214 145.268 117.328 144.378 116.328C146.358 115.536 146.52 113.408 145.186 112.422C147.65 111.012 147.343 108.7 145.749 107.788Z" fill="#2C2C2C"/>
<path d="M126.139 120.422C125.285 102.646 125.634 102.698 124.576 102.698C123.561 102.644 119.399 102.775 118.785 103.236C118.645 103.356 118.543 103.514 118.489 103.69C118.437 103.867 118.437 104.056 118.488 104.233C118.488 104.334 119.639 121.531 119.647 121.634C119.761 123.011 121.273 122.652 123.499 122.523C125.582 122.402 126.25 122.74 126.139 120.422Z" fill="#2D6A4F"/>
<path d="M138.934 76.6498C138.664 76.7033 138.368 76.7841 138.098 76.8377C138.039 76.1042 137.931 75.3754 137.775 74.6561C137.685 74.2268 137.027 74.4127 137.129 74.8449C137.293 75.5624 137.401 76.292 137.452 77.0265C136.94 77.1609 136.429 77.2689 135.889 77.4033C135.458 77.5113 135.646 78.1547 136.078 78.0497C136.536 77.9396 137.021 77.8345 137.479 77.7002C137.505 78.3193 137.485 78.9395 137.452 79.5586C137.429 79.9899 138.094 79.9889 138.125 79.5586C138.296 77.1558 137.707 77.6608 139.122 77.2962C139.526 77.1912 139.338 76.5417 138.934 76.6498Z" fill="#2D6A4F"/>
<path d="M111.323 77.1076C110.79 77.1076 110.974 77.251 110.892 76.0844C110.862 75.6532 110.185 75.6532 110.219 76.0844C110.244 76.4339 110.246 76.7571 110.273 77.1076C109.647 77.1076 108.96 77.0066 109.034 77.4308C109.034 77.8822 109.605 77.754 110.299 77.754C110.327 78.2923 110.35 78.8316 110.38 79.37C110.404 79.8012 111.078 79.8012 111.054 79.37C111.023 78.8316 111 78.2923 110.973 77.754H111.296C111.382 77.7576 111.466 77.727 111.528 77.6689C111.592 77.6109 111.629 77.5301 111.634 77.4444C111.637 77.3587 111.606 77.275 111.548 77.2119C111.49 77.1487 111.409 77.1112 111.323 77.1076Z" fill="#2D6A4F"/>
<path d="M118.38 138.013C117.188 138.114 117.471 138.508 117.357 136.531C117.332 136.1 116.66 136.1 116.683 136.531C116.715 137.097 116.738 137.635 116.764 138.201C115.935 138.329 115.363 138.247 115.363 138.659C115.363 138.821 115.525 139.007 115.686 138.982C116.063 138.924 116.441 138.901 116.791 138.847C116.819 139.413 116.84 139.979 116.872 140.571C116.895 141.002 117.569 141.002 117.546 140.571C117.514 139.979 117.491 139.386 117.465 138.793C117.761 138.766 118.085 138.721 118.38 138.685C118.891 138.626 118.731 137.966 118.38 138.013Z" fill="#2D6A4F"/>
<path d="M104.992 123.25C104.824 123.25 104.927 123.263 104.669 121.849C104.591 121.418 103.942 121.607 104.023 122.038C104.103 122.469 104.158 122.901 104.211 123.305C103.605 123.344 102.641 123.305 102.703 123.735C102.703 124.216 103.215 124.018 104.292 123.951C104.345 124.524 104.362 125.099 104.346 125.675C104.351 125.761 104.388 125.843 104.451 125.901C104.513 125.961 104.596 125.994 104.683 125.994C104.769 125.994 104.852 125.961 104.914 125.901C104.977 125.843 105.014 125.761 105.019 125.675C105.019 123.834 104.864 123.897 104.966 123.897C105.449 123.817 105.378 123.25 104.992 123.25Z" fill="#2D6A4F"/>
<path d="M129.829 85.6479C129.357 84.5778 128.83 83.5328 128.25 82.5169C128.174 82.322 128.032 82.1603 127.848 82.0605C127.665 81.9606 127.452 81.9291 127.247 81.9715C127.042 82.0138 126.859 82.1275 126.73 82.292C126.602 82.4566 126.535 82.6615 126.543 82.8704C126.294 82.2897 125.366 82.3907 125.028 83.0906C123.497 82.3836 122.934 83.0906 122.832 83.437C122.513 83.4796 122.211 83.6071 121.959 83.8061C121.705 84.005 121.51 84.2682 121.393 84.5682C121.076 85.5878 121.011 86.6692 121.204 87.7194C121.314 89.1869 122.534 89.7526 122.712 88.8233C122.929 87.6425 123.019 86.4419 122.982 85.2419C123.274 86.4074 124.537 88.7436 125.299 88.7436C126.181 88.7436 125.932 86.8609 125.784 86.265C126.115 86.8296 127.581 88.8062 128.1 88.5012C128.523 88.2507 128.343 86.8033 128.343 86.8033C128.592 87.0591 128.862 87.2935 129.151 87.5043C129.769 88.1184 131.003 88.2073 129.829 85.6479Z" fill="#FDF6EE"/>
<path d="M160.402 126.294C156.507 125.587 154.188 123.119 154.045 123.977C153.898 125.307 155.947 126.149 156.281 127.372C149.601 126.249 149.407 126.115 149.493 126.456C149.493 127.542 153.23 128.864 154.664 129.122C150.936 129.351 149.665 128.305 148.388 128.907C147.97 129.104 148.065 129.42 148.443 129.688C149.922 130.741 152.079 130.551 153.883 130.739C152.427 130.715 150.709 130.723 149.182 130.715C148.601 130.715 148.09 130.698 149.169 131.497C149.491 131.711 149.862 131.839 150.246 131.871C155.129 132.572 156.47 131.635 150.382 133.379C148.687 133.864 149.461 135.724 161.265 132.84L160.402 126.294Z" fill="#FDF6EE"/>
<path d="M126.327 82.2525C126.065 82.1461 125.774 82.1336 125.504 82.2169C125.234 82.3003 125.001 82.4744 124.845 82.71C123.595 82.1807 123.027 82.5211 122.61 83.1412C120.907 83.4139 120.639 85.2188 120.75 86.9399C120.676 87.7903 120.926 88.6375 121.451 89.3103C121.587 89.4435 121.757 89.5368 121.942 89.5795C122.128 89.6223 122.321 89.613 122.502 89.5527C123.085 89.2932 123.171 87.6044 123.202 86.9661C124.969 90.0598 126.259 89.3073 126.192 87.559C126.562 88.033 127.008 88.4425 127.512 88.771C128.192 89.0811 128.582 88.4488 128.697 87.6398C129.588 88.5306 130.451 88.1357 130.529 87.3701C130.638 86.2935 128.935 82.9584 128.413 82.0858C127.737 80.9566 126.504 81.8969 126.327 82.2525ZM122.448 88.1246C122.044 91.1718 120.28 84.8865 122.421 83.923C122.356 84.8916 122.871 84.9653 122.448 88.1246ZM125.357 88.3943C124.421 89.0003 121.272 81.6919 124.603 83.3574C124.493 84.4614 124.8 85.5664 125.465 86.4551C125.524 87.455 125.731 88.1529 125.357 88.3943ZM125.41 83.1423C125.626 82.8605 126.219 82.6968 126.219 83.3039C126.672 85.7693 127.977 86.4056 128.087 87.3509C128.412 90.1517 124.331 84.5613 125.41 83.1412V83.1423ZM126.919 82.6575C127.038 82.3332 127.645 82.1444 127.755 82.2535C133.48 92.9201 126.039 84.4179 126.919 82.6564V82.6575Z" fill="#2C2C2C"/>
<path d="M161.129 132.49C157.823 133.474 154.396 133.99 150.947 134.025C148.467 134.025 151.81 133.29 154.449 132.517C154.527 132.494 154.593 132.444 154.638 132.376C154.682 132.308 154.702 132.227 154.691 132.147C154.682 132.066 154.644 131.991 154.585 131.937C154.526 131.881 154.449 131.848 154.368 131.844C153.245 131.791 149.812 131.733 149.089 131.008H153.83C153.919 131.008 154.005 130.973 154.067 130.909C154.131 130.847 154.166 130.761 154.166 130.672C154.166 130.583 154.131 130.497 154.067 130.434C154.005 130.371 153.919 130.336 153.83 130.336C152.914 130.225 151.998 130.235 151.109 130.147C149.23 129.967 148.281 129.321 148.55 129.15C149.232 128.719 151.365 129.69 154.61 129.446C154.96 129.42 155.095 128.85 154.69 128.773C152.913 128.494 151.24 127.75 149.842 126.618C149.943 126.638 156.003 127.653 156.12 127.668C156.175 127.685 156.236 127.686 156.292 127.672C156.349 127.658 156.401 127.629 156.443 127.588C156.484 127.546 156.513 127.494 156.528 127.437C156.542 127.38 156.541 127.321 156.524 127.264C156.246 126.604 155.81 126.022 155.257 125.568C154.138 124.448 154.357 124.291 154.287 124.22C156.13 125.321 158.128 126.138 160.214 126.644C160.644 126.724 160.807 126.073 160.402 125.998C157.692 125.493 154.638 123.539 154.315 123.466C153.582 123.297 153.253 124.451 154.368 125.62C154.748 126.018 155.065 126.29 155.607 126.94C154.063 126.676 150.888 126.167 150.085 126.024C148.812 125.706 148.099 127.088 151.863 128.718C152.706 129.139 149.951 128.249 148.658 128.475C148.199 128.556 147.552 128.826 147.715 129.419C147.865 129.962 148.798 130.388 148.9 130.388C148.557 130.388 148.092 130.394 148.092 130.873C148.092 131.19 148.752 131.797 149.034 131.951C150.076 132.262 151.153 132.433 152.24 132.462C149.964 133.112 149.524 133.22 149.331 133.648C148.176 136.202 158.979 133.713 161.21 133.163C161.724 133.036 161.535 132.387 161.129 132.49Z" fill="#2C2C2C"/>
</svg>
