<svg width="221" height="221" viewBox="0 0 221 221" fill="none" xmlns="http://www.w3.org/2000/svg">
<path d="M116.918 37.3257L136.319 184.677L26.6823 204.582L5.5249 56.3925L116.918 37.3257Z" fill="#2D6A4F"/>
<path d="M119.928 26.5376L9.79028 51.7095L39.0595 198.477L147.358 172.635L119.928 26.5376Z" fill="#FDF6EE"/>
<path d="M39.0595 199.029C38.7965 199.029 38.5689 198.844 38.5181 198.585L9.24882 51.8179C9.19026 51.5251 9.3759 51.2378 9.66762 51.1715C120.139 25.9885 119.917 25.8681 120.231 26.0758L147.901 172.535C147.955 172.824 147.773 173.106 147.487 173.175L39.0595 199.03V199.029ZM10.4367 52.1284L39.4894 197.806L146.719 172.221L119.491 27.204L10.4367 52.1284Z" fill="#2C2C2C"/>
<path d="M30.3621 86.4652C30.1058 86.4652 29.8825 86.2884 29.824 86.0387C25.7266 68.499 25.6813 68.7731 25.888 68.4626C26.0957 68.1532 25.8747 68.3819 41.4773 65.7155C41.758 65.668 42.0166 65.836 42.0972 66.1023L45.4553 82.2916C45.5139 82.5834 45.3327 82.8685 45.0431 82.9381L30.3621 86.4663V86.4652ZM27.0206 69.2184L30.7732 85.2453L44.2663 81.9878L41.1801 66.8835L27.0206 69.2173V69.2184Z" fill="#2C2C2C"/>
<path d="M36.0926 113.701L32.9157 97.5618C32.8582 97.2679 33.0439 96.9828 33.3356 96.9165L48.389 93.4875C48.6885 93.4146 49.0045 93.6169 49.0564 93.9374C51.9758 111.718 52.0134 111.457 51.8001 111.747C51.588 112.037 51.8333 111.987 36.7158 114.141C36.4075 114.185 36.1478 113.979 36.0926 113.701ZM34.1036 97.8744L37.0749 112.971L50.7184 110.955L48.0597 94.6943L34.1036 97.8733V97.8744Z" fill="#2C2C2C"/>
<path d="M42.5303 143.297L39.6031 127.073C39.5501 126.779 39.7401 126.497 40.0307 126.434L55.1681 123.172C55.482 123.106 55.7836 123.315 55.8311 123.632C58.4942 141.491 58.534 141.236 58.3185 141.523C58.1019 141.81 58.3439 141.746 43.1491 143.746C42.8441 143.786 42.5811 143.578 42.5303 143.297ZM40.7855 127.402L43.5237 142.581L57.2466 140.72L54.8234 124.378L40.7855 127.402Z" fill="#2C2C2C"/>
<path d="M51.7714 176.283C51.5139 176.283 51.2918 176.104 51.2332 175.855C47.1348 158.235 47.0906 158.505 47.2972 158.196C47.5028 157.887 47.2972 158.168 62.8866 155.449C63.1838 155.397 63.4601 155.593 63.5186 155.885L66.7806 172.024C66.8392 172.314 66.659 172.599 66.3717 172.67L51.7714 176.282V176.283ZM48.4288 158.952L52.1813 175.059L65.5916 171.725L62.5407 156.625L48.4288 158.951V158.952Z" fill="#2C2C2C"/>
<path d="M62.6413 73.5182C64.1927 74.758 66.1839 75.1889 68.1641 75.1889C72.1233 75.1889 76.3941 73.2972 79.7268 69.9523C84.2098 72.2209 91.9338 70.6452 97.2168 64.7522C100.948 66.3666 107.246 64.5887 110.946 58.6946C111.109 58.436 111.03 58.0957 110.773 57.9333C110.513 57.7719 110.173 57.8493 110.012 58.1067C106.839 63.1599 101.233 65.0517 97.9847 63.8682C99.6069 61.7643 100.356 59.7189 100.156 57.9156C99.6776 53.9906 94.8454 54.0713 93.4089 57.3598C92.231 60.3057 93.883 62.8417 96.2002 64.2295C91.1271 69.6949 84.1612 70.8253 80.5036 69.1026C82.223 67.2075 84.2606 63.9566 83.8772 61.5046C83.5667 59.5178 81.4473 58.2283 79.3158 59.2162C77.6881 59.9698 76.3245 61.8969 76.1444 63.6936C75.8958 65.9323 76.9013 68.0915 78.739 69.3777C73.2261 74.6972 66.6414 74.9724 63.6491 72.895C67.647 69.9501 69.0426 66.6694 67.4757 63.8218C66.1165 61.3731 63.0292 62.372 61.3695 64.5069C59.4412 67.0219 59.6644 70.496 61.7883 72.7469C59.0766 74.3624 55.6179 75.8807 52.5505 75.1337C52.1792 74.632 51.4189 75.0619 51.5073 75.6C51.5924 76.1227 52.3272 76.2365 52.5958 76.2608C53.209 76.4276 53.7836 76.4332 54.4002 76.4332C56.7185 76.2873 59.0224 75.7315 62.6435 73.5215L62.6413 73.5182ZM94.4255 57.7852C95.3692 55.6282 98.7085 55.1906 99.0566 58.0426C99.271 59.972 98.0919 61.9599 96.9538 63.3897C95.0753 62.3422 93.4078 60.3289 94.4255 57.7852ZM77.2417 63.8074C77.4196 62.0295 79.1401 59.9731 80.7987 59.9731C81.6738 59.9731 82.6142 60.5864 82.7833 61.6737C83.0418 63.3268 81.7799 65.8097 80.4484 67.497C80.2152 67.7932 79.8915 68.1225 79.5036 68.5611C77.9113 67.5169 77.0317 65.6992 77.2417 63.8085V63.8074ZM62.2424 65.1787C62.9154 64.3135 64.2248 63.4052 65.2845 63.4936C65.8082 63.5334 66.2083 63.8163 66.5066 64.3533C68.2437 67.5125 65.0723 70.5159 62.7673 72.1645C60.8501 70.3126 60.5993 67.3213 62.2413 65.1787H62.2424Z" fill="#C8705A"/>
<path d="M67.8502 102.191C73.0879 106.096 81.5787 102.288 85.9667 97.6061C87.159 98.6172 88.9204 99.4702 91.7271 99.4702C96.3758 99.4702 101.058 96.7652 104.138 93.5563C107.743 96.0293 117.007 94.5883 119.015 89.8081C119.133 89.5263 119.001 89.2026 118.72 89.0843C118.438 88.965 118.114 89.0987 117.996 89.3794C116.335 93.3342 108.1 94.6646 104.962 92.7728C106.217 91.3385 107.768 89.2081 107.768 86.6533C107.671 82.5914 103.047 82.5925 101.611 85.7704C100.366 88.5274 101.534 91.2612 103.271 92.8634C99.756 96.4878 94.1448 99.3012 89.0265 98.0028C88.232 97.8017 87.3855 97.3663 86.6551 96.7398C88.6021 94.3983 90.4928 91.2048 89.3204 88.5263C88.2762 86.2478 85.4916 87.4755 84.3247 89.4026C82.897 91.7595 83.318 94.7861 85.1733 96.8381C81.2782 100.994 73.6669 104.73 68.8348 101.533C72.1575 99.5697 74.2438 97.2171 74.8913 94.4778C75.4062 92.3032 73.9034 89.9761 71.6824 89.5507C66.2281 88.5042 62.6324 97.1011 67.016 101.36C64.8435 102.364 62.8645 103.184 60.5517 103.341C60.0677 103.341 59.2158 102.79 58.5948 103.129C58.4533 103.205 58.2666 103.36 58.1804 103.658C58.0102 104.255 58.8025 104.628 59.1605 104.133C59.5185 104.201 60.0368 104.445 60.5826 104.445C63.2512 104.267 65.3872 103.337 67.8502 102.191ZM102.619 86.2246C103.567 84.1251 106.596 83.8035 106.664 86.6666C106.664 88.8877 105.207 90.828 104.079 92.1054C102.606 90.786 101.589 88.5053 102.619 86.2246ZM85.2694 89.9761C85.707 89.2965 86.8176 88.3561 87.6187 88.3981C87.8087 88.4114 88.0872 88.4876 88.3126 88.9783C89.2828 91.1971 87.3634 94.1397 85.8695 95.9563C84.4418 94.2624 84.1854 91.8734 85.2694 89.9761ZM66.3706 94.8094C67.0469 92.101 69.0547 90.5849 70.8061 90.5849C72.983 90.5849 74.2206 92.5143 73.8161 94.2237C73.2227 96.7298 71.2083 98.9166 67.964 100.762C67.8922 100.646 65.4137 98.6448 66.3706 94.8105V94.8094Z" fill="#C8705A"/>
<path d="M91.3183 128.027C92.7537 128.95 94.8333 129.29 96.4566 129.29C101.275 129.29 106.418 126.641 109.791 123.346C110.566 124.136 111.552 124.794 112.658 125.161C117.973 126.925 124.044 123.269 127.867 118.98C128.071 118.752 128.051 118.403 127.822 118.2C127.594 117.997 127.246 118.016 127.042 118.245C123.596 122.109 118.057 125.79 113.005 124.114C112.082 123.807 111.223 123.23 110.562 122.556C111.674 121.358 112.602 119.941 113.328 118.327C113.951 116.854 114.116 114.085 112.785 112.928C112.244 112.456 111.266 112.094 109.682 113.043C106.297 115.159 106.657 119.434 109.064 122.509C103.103 128.379 95.4168 129.208 92.0797 127.202C94.4466 124.461 96.2676 119.648 93.4134 117.418C89.9117 114.791 85.4541 122.698 90.4354 127.346C87.1458 130.576 81.5545 132.717 77.1169 130.465L77.097 130.458C79.9722 128.293 81.2617 125.77 80.8341 123.131C80.3523 119.857 76.7401 118.898 74.3842 121.059C71.656 123.706 72.4029 127.908 75.1643 130.429C72.7311 131.907 70.4007 132.831 66.1608 133.537C65.4503 133.639 63.9696 133.357 63.5939 133.966C63.1983 134.603 64.0547 135.216 64.49 134.687C64.953 134.641 65.8856 134.693 66.3299 134.629C70.099 134.001 72.8648 133.188 76.0969 131.15C79.7202 133.597 86.5602 132.794 91.3183 128.029V128.027ZM110.261 113.985C110.739 113.699 111.145 113.555 111.478 113.555C112.916 113.555 112.903 116.497 112.317 117.884C111.664 119.334 110.833 120.618 109.843 121.707C107.922 119.164 107.52 115.698 110.261 113.984V113.985ZM89.4442 121.063C89.7061 119.896 90.7857 117.995 91.9493 117.995C92.2156 117.995 92.4764 118.095 92.7449 118.296C94.8996 119.98 93.2112 124.017 91.6067 126.083C91.4719 126.217 91.336 126.374 91.2012 126.532C89.673 125.109 89.01 122.996 89.4442 121.063ZM73.7919 125.425C73.6217 122.906 75.3809 121.005 77.2395 121.005C78.4849 121.005 79.528 121.837 79.7423 123.3C80.1214 125.635 78.9048 127.821 76.1257 129.801C74.7864 128.685 73.9013 127.041 73.7919 125.425Z" fill="#C8705A"/>
<path d="M131.162 148.726C130.983 148.481 130.636 148.426 130.39 148.606C127.833 150.471 122.045 154.695 118.131 153.458C119.824 151.666 121.761 147.588 120.871 145.326C120.625 144.699 120.041 143.914 118.659 143.737C114.163 143.176 113.09 150.131 115.321 152.752C115.592 153.077 115.906 153.384 116.259 153.67C113.032 156.594 107.711 158.847 102.902 157.32C104.626 155.842 105.943 153.871 106.745 151.542C107.571 148.551 105.797 145.683 102.744 146.425C97.8644 147.543 95.9815 154.552 100.72 157.583C96.6434 160.396 90.4077 162.396 85.7921 160.936C88.0762 159.108 89.0187 156.859 88.5259 154.388C87.7425 150.191 83.886 150.05 81.6628 152.796C79.4218 155.562 80.5191 159.364 83.5402 161.175C80.7091 162.701 77.6903 163.374 74.6936 163.554C74.5378 163.549 73.6538 163.423 73.2616 163.345C73.1964 163.319 73.1255 163.303 73.0515 163.303C72.3355 163.303 72.2671 164.239 72.8803 164.392C73.2284 164.479 74.4394 164.658 74.7167 164.658C78.2395 164.451 81.7478 163.568 84.77 161.745C90.1061 163.825 97.2445 161.5 101.87 158.122C106.052 159.891 112.512 158.711 117.218 154.292C121.432 156.184 127.349 152.197 131.044 149.501C131.291 149.321 131.345 148.975 131.165 148.728L131.162 148.726ZM82.0385 158.007C79.8274 153.516 86.4199 149.133 87.4409 154.596C87.8896 156.842 86.9249 158.817 84.5723 160.469C83.5469 160.006 82.632 159.118 82.0397 158.007H82.0385ZM100.409 155.848C97.7361 153.249 99.3638 148.331 102.997 147.497C105.284 146.946 106.246 149.194 105.69 151.212C104.889 153.535 103.514 155.483 101.704 156.866C101.235 156.642 100.807 156.308 100.409 155.847V155.848ZM118.519 144.833C119.216 144.923 119.637 145.207 119.843 145.731C120.505 147.414 118.77 151 117.823 152.136C117.607 152.406 117.351 152.68 117.106 152.93C116.745 152.655 116.43 152.357 116.166 152.039C114.523 150.111 115.2 144.409 118.519 144.833Z" fill="#C8705A"/>
<path d="M49.0952 49.2844C48.0919 48.7827 46.8377 49.2004 46.335 50.2878C44.2443 54.8028 38.0662 69.7579 37.1358 72.7834C36.6342 74.1215 36.1325 75.7105 35.5468 76.8807C34.9236 76.1326 33.3247 73.8574 33.2893 73.7867C32.9092 73.4044 32.0086 70.5115 29.7776 71.3612C28.329 71.9413 27.9909 73.8397 29.1091 74.9569C30.1014 76.6928 30.0683 76.2906 30.2804 76.7127C32.8727 80.4764 34.2109 81.6466 35.7159 81.8145C37.243 81.8145 37.9491 81.1095 39.053 79.0653C40.1934 76.9525 42.0918 70.8198 43.494 68.0164V67.9324C45.0432 64.5235 46.2333 60.4228 50.1008 52.0425C50.6025 51.0392 50.1848 49.785 49.0975 49.2833L49.0952 49.2844Z" fill="#C8705A"/>
<path d="M204.225 53.6323L122.018 104.981L126.368 112.256C126.368 112.256 185.828 75.2086 208.072 61.2425L204.226 53.6323H204.225Z" fill="#C8705A"/>
<path d="M122.102 104.98L108.471 117.609L126.368 112.256L122.102 104.98Z" fill="#FDF6EE"/>
<path d="M215.582 53.6187C215.091 52.7193 214.462 51.769 213.973 50.8905C213.845 49.8164 211.568 48.4076 209.535 49.6518C120.951 103.897 121.948 104.223 121.39 104.744L108.093 117.205C107.671 117.599 108.069 118.304 108.629 118.138C127.139 112.606 126.891 112.794 127.093 112.455L214.559 57.8608C216.022 56.9205 216.472 55.0022 215.581 53.6198L215.582 53.6187ZM110.562 116.406L121.911 105.769L125.53 111.922L110.562 116.406ZM126.557 111.487L122.792 105.064L204.004 54.421L207.351 61.041L126.557 111.485V111.487Z" fill="#2C2C2C"/>
<path d="M160.222 26.5079C159.224 26.2228 156.617 25.3852 155.501 25.0272C156.574 21.2636 157.777 17.4027 158.112 16.8159C158.549 16.3949 158.078 15.6811 157.523 15.9054C156.959 16.1319 155.576 20.6856 154.459 24.6935C149.674 23.1653 149.652 23.2017 149.387 23.6382C149.145 24.0349 149.489 24.5874 149.973 24.488C150.508 24.6029 152.372 25.1885 154.164 25.7598C153.419 28.477 152.852 30.7091 152.84 30.7644C152.763 31.1069 153.021 31.4395 153.379 31.4395C153.631 31.4395 153.86 31.266 153.918 31.0097C154.197 29.7798 154.669 27.9897 155.199 26.0913C157.022 26.6703 159.849 27.5919 160.069 27.5919C160.707 27.5919 160.834 26.6836 160.221 26.5079H160.222Z" fill="#C8705A"/>
<path d="M171.952 37.4494C171.403 37.3576 171.272 37.4394 166.287 44.3236C162.395 40.8616 162.52 40.9025 162.407 40.845C162.158 40.7213 161.848 40.8019 161.695 41.0362C161.417 41.4605 161.385 41.4848 165.633 45.223C164.408 46.9026 163.266 48.4375 162.492 49.3436C162.295 49.5756 162.322 49.9248 162.554 50.1226C162.786 50.3204 163.135 50.2928 163.333 50.0607C164.116 49.1425 165.25 47.6231 166.464 45.9601C167.75 47.0982 169.699 48.8154 170.672 49.6253C170.908 49.8209 171.255 49.7878 171.451 49.5546C171.646 49.3204 171.614 48.9712 171.38 48.7756C170.512 48.054 168.803 46.5546 167.118 45.0606C168.244 43.5059 171.454 39.0196 172.044 38.5157C172.583 38.3256 172.511 37.5433 171.952 37.4494Z" fill="#C8705A"/>
</svg>
