<svg width="44" height="69" viewBox="0 0 44 69" fill="none" xmlns="http://www.w3.org/2000/svg">
<path d="M0 27.0538C0 27.0538 16.16 11.9598 35.11 25.9238C35.11 25.9158 17.024 35.7578 0 27.0538Z" fill="#FDF6EE"/>
<path d="M43.1514 24.9582C37.6334 21.2542 31.1774 19.1942 24.5354 19.0182C24.4394 17.5282 24.4394 16.2042 24.4634 14.9542C27.4614 13.7662 30.1554 11.9262 32.3514 9.56621C32.5134 9.38621 32.6174 9.16221 32.6514 8.92421C32.6834 8.68421 32.6434 8.44023 32.5354 8.22423C32.4274 8.00823 32.2554 7.83023 32.0454 7.71223C31.8334 7.59423 31.5914 7.54421 31.3514 7.56621C28.9514 7.78221 26.6834 8.76222 24.8834 10.3662C26.2134 2.61822 30.1494 2.55022 30.2454 2.56622C30.5594 2.58222 30.8674 2.47422 31.1054 2.26822C31.3434 2.06222 31.4914 1.77422 31.5214 1.46022C31.5354 1.30222 31.5174 1.14222 31.4674 0.992217C31.4194 0.840217 31.3414 0.700214 31.2374 0.580214C31.1354 0.458214 31.0094 0.360222 30.8674 0.288222C30.7254 0.216222 30.5714 0.174215 30.4134 0.162215C30.1974 0.142215 25.2134 0.216215 23.1274 7.32822C21.8874 4.66622 20.1294 2.28023 17.9554 0.306227C17.7654 0.136227 17.5274 0.0322241 17.2754 0.00622408C17.0214 -0.0197759 16.7674 0.0362136 16.5494 0.164214C16.3294 0.292214 16.1574 0.488229 16.0554 0.720229C15.9534 0.952229 15.9274 1.21222 15.9834 1.46022C17.5714 8.96422 21.3234 11.7302 22.2374 12.2822C22.0334 14.5422 22.0014 16.8162 22.1414 19.0822C10.5874 20.0822 5.52336 26.2822 5.47536 26.3462C5.35136 26.4762 5.25536 26.6322 5.19736 26.8022C5.13936 26.9722 5.11936 27.1522 5.13736 27.3322C10.0814 64.4122 9.79336 64.2842 10.3374 64.6082C20.9374 70.9962 33.9374 68.0242 40.4714 65.1142C40.6714 65.0282 40.8434 64.8902 40.9714 64.7142C41.0974 64.5382 41.1754 64.3302 41.1934 64.1142C43.5974 24.9902 44.1714 25.6162 43.1514 24.9582ZM8.83136 26.4982C8.95136 26.4022 21.6154 15.5782 39.0134 25.3922C29.2394 28.5102 18.7994 28.8942 8.82337 26.4982H8.83136Z" fill="#2C2C2C"/>
</svg>
