<svg width="214" height="214" viewBox="0 0 214 214" fill="none" xmlns="http://www.w3.org/2000/svg">
<path d="M38.3275 35.096C70.8234 29.0933 158.713 12.6902 161.463 11.984C163.496 11.4704 173.479 8.62416 173.233 22.9836C173.03 34.8927 172.923 37.7496 172.923 37.7496C172.923 37.7496 194.922 34.0795 197.362 33.8762C204.498 33.3733 207.751 37.236 207.858 45.6462C208.062 57.0524 207.858 110.114 207.858 113.987C207.858 118.77 204.391 124.58 196.548 126.003C191.359 126.923 171.393 130.786 171.393 130.786C171.393 130.786 171.296 150.849 171.296 153.096C171.189 156.306 170.579 161.656 161.313 163.582C151.127 165.722 79.0303 178.957 74.7503 180.081C70.6736 181.151 61.2041 181.814 60.8403 170.708C60.4337 160.735 60.7333 136.896 60.7333 136.896C60.7333 136.896 43.8701 139.892 36.9044 140.705C31.9182 141.326 26.3114 140.919 26.3114 131.439C26.3114 119.423 25.7015 54.0457 25.7015 51.7024C25.4982 49.3591 24.3747 37.6426 38.3275 35.096Z" fill="#FDF6EE"/>
<path d="M172.463 63.7182C172.317 63.7144 172.176 63.6617 172.064 63.5686C171.951 63.4755 171.873 63.3473 171.842 63.2046C171.746 62.905 172.045 62.5947 172.356 62.4984L198.228 58.3147C198.528 58.2184 198.838 58.518 198.934 58.8283C199.031 59.1386 198.731 59.4382 198.432 59.5452L172.463 63.7182Z" fill="#2C2C2C"/>
<path d="M167.872 64.4352C167.729 64.4273 167.592 64.3729 167.482 64.2803C167.372 64.1876 167.295 64.0618 167.262 63.9216C167.166 63.6113 167.466 63.3117 167.776 63.2047L170.119 62.7981C170.419 62.7018 170.729 63.0014 170.826 63.3117C170.922 63.622 170.622 63.9216 170.323 64.0179L167.872 64.4352Z" fill="#2C2C2C"/>
<path d="M163.603 65.1411C163.458 65.1379 163.319 65.0867 163.207 64.9957C163.095 64.9047 163.016 64.779 162.982 64.6382C162.886 64.3279 163.186 64.0176 163.496 63.9213L165.839 63.5147C166.139 63.4077 166.449 63.718 166.556 64.0176C166.663 64.3172 166.342 64.6382 166.043 64.7345L163.603 65.1411Z" fill="#2C2C2C"/>
<path d="M148.623 67.485C148.479 67.4788 148.341 67.4251 148.231 67.3321C148.12 67.2392 148.044 67.1124 148.013 66.9714C147.917 66.6718 148.216 66.3615 148.527 66.2652L161.367 64.2215C161.677 64.1252 161.977 64.4355 162.084 64.7351C162.191 65.0347 161.88 65.345 161.57 65.452L148.623 67.485Z" fill="#2C2C2C"/>
<path d="M144.857 68.0948C144.714 68.0892 144.577 68.037 144.467 67.9462C144.357 67.8554 144.279 67.7309 144.247 67.5919C144.15 67.2816 144.45 66.9713 144.76 66.875L146.697 66.5647C146.997 66.4684 147.307 66.768 147.403 67.0783C147.499 67.3886 147.2 67.6882 146.9 67.7952C146.793 67.7952 144.857 68.0948 144.857 68.0948Z" fill="#2C2C2C"/>
<path d="M141.09 68.7046C140.946 68.7027 140.808 68.6518 140.697 68.5604C140.586 68.4689 140.51 68.3424 140.48 68.2017C140.373 67.8914 140.684 67.5918 140.994 67.4848L142.717 67.1852C143.027 67.0782 143.327 67.3885 143.434 67.6881C143.541 67.9877 143.23 68.298 142.92 68.405C142.319 68.5516 141.707 68.6517 141.09 68.7046Z" fill="#2C2C2C"/>
<path d="M132.327 70.1385C132.183 70.1323 132.045 70.0786 131.934 69.9856C131.824 69.8927 131.748 69.7659 131.717 69.6249C131.621 69.3146 131.92 69.015 132.231 68.908L138.854 67.838C139.154 67.731 139.464 68.0413 139.56 68.3409C139.656 68.6405 139.357 68.9508 139.057 69.0578C139.1 69.1113 132.327 70.1385 132.327 70.1385Z" fill="#2C2C2C"/>
<path d="M178.572 72.76C178.427 72.7576 178.287 72.7052 178.176 72.6117C178.065 72.5181 177.989 72.3891 177.962 72.2464C177.964 72.0914 178.013 71.9407 178.103 71.8145C178.193 71.6883 178.319 71.5926 178.465 71.5402L198.731 68.48C198.889 68.4819 199.042 68.5322 199.17 68.6241C199.299 68.7159 199.395 68.8449 199.448 68.9936C199.445 69.1498 199.395 69.3015 199.303 69.4278C199.211 69.5542 199.082 69.6492 198.934 69.6998C198.934 69.8282 178.572 72.76 178.572 72.76Z" fill="#2C2C2C"/>
<path d="M165.936 74.7179C165.791 74.7117 165.653 74.658 165.543 74.5651C165.433 74.4722 165.356 74.3453 165.326 74.2043C165.328 74.0481 165.379 73.8964 165.471 73.7701C165.563 73.6437 165.691 73.5487 165.839 73.4981L174.185 72.2676C174.348 72.2407 174.516 72.2796 174.65 72.3759C174.785 72.4723 174.875 72.618 174.902 72.7812C174.929 72.9444 174.89 73.1116 174.794 73.246C174.698 73.3805 174.552 73.4712 174.389 73.4981L165.936 74.7179Z" fill="#2C2C2C"/>
<path d="M153.919 76.5475C153.777 76.542 153.64 76.4898 153.53 76.3989C153.42 76.3081 153.342 76.1836 153.31 76.0446C153.31 75.8866 153.36 75.7325 153.452 75.604C153.544 75.4755 153.674 75.3789 153.823 75.3277L158.809 74.6108C158.967 74.6128 159.12 74.6631 159.249 74.7549C159.377 74.8468 159.474 74.9757 159.526 75.1244C159.523 75.2818 159.472 75.4344 159.38 75.5623C159.289 75.6902 159.161 75.7875 159.013 75.8413C159.013 75.7343 153.919 76.5475 153.919 76.5475Z" fill="#2C2C2C"/>
<path d="M141.497 78.3771C141.354 78.3715 141.217 78.3193 141.107 78.2285C140.997 78.1376 140.92 78.0132 140.887 77.8742C140.889 77.7165 140.939 77.5632 141.031 77.435C141.123 77.3068 141.252 77.2099 141.401 77.1573L149.854 75.9375C150.008 75.9252 150.162 75.9714 150.285 76.0671C150.407 76.1627 150.489 76.3009 150.515 76.4541C150.54 76.6074 150.508 76.7647 150.423 76.8948C150.338 77.025 150.207 77.1187 150.057 77.1573C150.057 77.0396 141.604 78.3771 141.497 78.3771Z" fill="#2C2C2C"/>
<path d="M132.327 79.7045C132.184 79.6989 132.047 79.6467 131.937 79.5558C131.827 79.465 131.75 79.3405 131.717 79.2016C131.719 79.0439 131.769 78.8906 131.861 78.7623C131.953 78.6341 132.082 78.5372 132.231 78.4847L138.244 77.5645C138.4 77.567 138.552 77.6177 138.678 77.7097C138.805 77.8016 138.9 77.9302 138.95 78.0781C138.948 78.2341 138.898 78.3858 138.809 78.5136C138.719 78.6414 138.593 78.7394 138.447 78.795C138.447 78.795 132.434 79.7045 132.327 79.7045Z" fill="#2C2C2C"/>
<path d="M158.103 107.92C157.957 107.916 157.817 107.864 157.704 107.771C157.592 107.677 157.514 107.549 157.483 107.407C157.386 107.107 157.686 106.797 157.996 106.69L161.966 105.983C162.276 105.876 162.576 106.187 162.683 106.486C162.79 106.786 162.48 107.107 162.169 107.203C162.276 107.203 158.2 107.92 158.103 107.92Z" fill="#2D6A4F"/>
<path d="M142.01 110.563C141.867 110.561 141.728 110.51 141.617 110.419C141.506 110.327 141.43 110.201 141.4 110.06C141.293 109.75 141.604 109.439 141.903 109.343L155.963 107C156.263 106.903 156.573 107.203 156.669 107.513C156.766 107.824 156.466 108.123 156.166 108.22L142.01 110.563Z" fill="#2D6A4F"/>
<path d="M137.013 111.376C136.871 111.371 136.734 111.319 136.624 111.228C136.514 111.137 136.436 111.013 136.404 110.874C136.307 110.563 136.607 110.264 136.917 110.157L139.464 109.75C139.763 109.643 140.074 109.953 140.17 110.264C140.266 110.574 139.967 110.874 139.667 110.97L137.013 111.376Z" fill="#2D6A4F"/>
<path d="M132.744 112.093C132.598 112.089 132.458 112.037 132.345 111.944C132.233 111.851 132.155 111.722 132.124 111.58C132.027 111.28 132.327 110.97 132.637 110.873L134.873 110.467C135.184 110.36 135.494 110.67 135.59 110.97C135.687 111.269 135.387 111.58 135.077 111.687C135.077 111.687 132.84 112.093 132.744 112.093Z" fill="#2D6A4F"/>
<path d="M113.495 115.357C113.35 115.352 113.211 115.299 113.101 115.206C112.99 115.113 112.914 114.985 112.885 114.843C112.778 114.533 113.088 114.233 113.388 114.126L130.294 111.28C130.604 111.173 130.904 111.483 131.011 111.783C131.118 112.082 130.808 112.393 130.497 112.5L113.495 115.357Z" fill="#2D6A4F"/>
<path d="M108.701 116.063C108.555 116.062 108.413 116.012 108.299 115.921C108.184 115.829 108.104 115.702 108.07 115.56C107.974 115.25 108.273 114.939 108.584 114.843L111.794 114.329C112.093 114.233 112.404 114.533 112.5 114.843C112.596 115.153 112.297 115.453 111.997 115.56C112.061 115.56 108.808 116.063 108.701 116.063Z" fill="#2D6A4F"/>
<path d="M104.025 116.876C103.881 116.873 103.742 116.822 103.629 116.731C103.517 116.64 103.438 116.514 103.405 116.373C103.309 116.063 103.608 115.763 103.918 115.656L106.979 115.143C107.278 115.047 107.589 115.357 107.685 115.656C107.781 115.956 107.482 116.266 107.182 116.373C107.182 116.373 104.122 116.876 104.025 116.876Z" fill="#2D6A4F"/>
<path d="M140.277 119.84C140.133 119.838 139.994 119.787 139.884 119.696C139.773 119.604 139.696 119.478 139.667 119.337C139.56 119.027 139.87 118.727 140.17 118.62L152.7 116.587C153.01 116.48 153.31 116.79 153.417 117.09C153.524 117.39 153.213 117.7 152.903 117.807C152.807 117.796 140.277 119.84 140.277 119.84Z" fill="#2D6A4F"/>
<path d="M125.714 122.279C125.569 122.277 125.429 122.225 125.318 122.131C125.207 122.038 125.131 121.908 125.104 121.766C124.997 121.466 125.308 121.156 125.607 121.06L137.623 119.016C137.934 118.92 138.244 119.219 138.34 119.529C138.437 119.84 138.137 120.139 137.827 120.236L125.714 122.279Z" fill="#2D6A4F"/>
<path d="M120.621 123.05C120.476 123.048 120.336 122.995 120.225 122.902C120.114 122.808 120.038 122.679 120.011 122.536C119.904 122.237 120.214 121.927 120.514 121.83L123.574 121.317C123.884 121.22 124.184 121.52 124.291 121.83C124.398 122.141 124.088 122.44 123.777 122.536C123.884 122.579 120.717 123.05 120.621 123.05Z" fill="#2D6A4F"/>
<path d="M115.014 124.013C114.871 124.005 114.734 123.951 114.623 123.858C114.513 123.765 114.437 123.64 114.404 123.499C114.308 123.189 114.608 122.89 114.918 122.783L118.481 122.173C118.791 122.076 119.091 122.376 119.198 122.686C119.305 122.997 118.995 123.296 118.684 123.392C118.684 123.499 115.014 124.013 115.014 124.013Z" fill="#2D6A4F"/>
<path d="M110.435 124.826C110.291 124.82 110.152 124.766 110.042 124.673C109.932 124.581 109.855 124.454 109.825 124.313C109.728 124.013 110.028 123.703 110.338 123.596L112.885 123.189C113.185 123.093 113.495 123.393 113.591 123.703C113.687 124.013 113.388 124.313 113.088 124.42C112.981 124.42 110.435 124.826 110.435 124.826Z" fill="#2D6A4F"/>
<path d="M156.059 126.549C155.917 126.543 155.78 126.491 155.67 126.4C155.559 126.309 155.482 126.185 155.449 126.046C155.353 125.736 155.653 125.436 155.963 125.329L161.666 124.42C161.966 124.313 162.276 124.623 162.372 124.922C162.469 125.222 162.169 125.532 161.869 125.639C161.966 125.532 156.22 126.549 156.059 126.549Z" fill="#2D6A4F"/>
<path d="M136.404 129.812C136.259 129.806 136.121 129.752 136.011 129.659C135.901 129.567 135.824 129.44 135.794 129.299C135.697 128.999 135.997 128.689 136.307 128.593L153.31 125.736C153.62 125.639 153.92 125.939 154.027 126.249C154.134 126.56 153.823 126.859 153.513 126.966L136.404 129.812Z" fill="#2D6A4F"/>
<path d="M132.124 130.54C131.979 130.534 131.841 130.48 131.731 130.387C131.621 130.294 131.544 130.167 131.514 130.026C131.417 129.727 131.717 129.416 132.027 129.309L133.964 129.01C134.264 128.903 134.574 129.213 134.67 129.513C134.766 129.812 134.467 130.133 134.167 130.23L132.124 130.54Z" fill="#2D6A4F"/>
<path d="M127.544 131.235C127.401 131.23 127.264 131.178 127.154 131.087C127.044 130.996 126.967 130.871 126.934 130.732C126.838 130.422 127.137 130.123 127.448 130.016L129.791 129.609C130.091 129.502 130.401 129.812 130.497 130.123C130.594 130.433 130.294 130.732 129.994 130.829L127.544 131.235Z" fill="#2D6A4F"/>
<path d="M114.404 133.482C114.26 133.476 114.122 133.422 114.012 133.329C113.902 133.237 113.825 133.11 113.794 132.969C113.698 132.669 113.998 132.359 114.308 132.252L125.308 130.422C125.607 130.326 125.918 130.625 126.014 130.936C126.11 131.246 125.811 131.546 125.511 131.642L114.404 133.482Z" fill="#2D6A4F"/>
<path d="M143.947 136.532C143.803 136.529 143.663 136.478 143.551 136.387C143.439 136.296 143.36 136.17 143.326 136.029C143.23 135.719 143.53 135.419 143.84 135.312L156.263 133.279C156.573 133.172 156.873 133.483 156.98 133.782C157.087 134.082 156.776 134.392 156.466 134.499L143.947 136.532Z" fill="#2D6A4F"/>
<path d="M139.763 137.249C139.619 137.242 139.481 137.189 139.371 137.096C139.261 137.003 139.184 136.876 139.154 136.735C139.057 136.435 139.357 136.125 139.667 136.029L141.807 135.719C142.107 135.622 142.417 135.922 142.513 136.232C142.61 136.542 142.31 136.842 142.01 136.938C142.01 136.96 139.87 137.249 139.763 137.249Z" fill="#2D6A4F"/>
<path d="M120.214 140.502C120.071 140.5 119.932 140.449 119.821 140.358C119.71 140.266 119.634 140.14 119.605 139.999C119.498 139.689 119.808 139.389 120.107 139.282L137.73 136.329C138.041 136.233 138.34 136.532 138.447 136.842C138.554 137.153 138.244 137.452 137.934 137.549C137.934 137.549 120.311 140.502 120.214 140.502Z" fill="#2D6A4F"/>
<path d="M112.778 141.732C112.633 141.73 112.493 141.677 112.382 141.584C112.271 141.49 112.195 141.361 112.168 141.218C112.061 140.919 112.371 140.608 112.682 140.501L117.764 139.688C118.074 139.592 118.385 139.892 118.481 140.202C118.577 140.512 118.278 140.812 117.967 140.919L112.778 141.732Z" fill="#2D6A4F"/>
<path d="M140.994 146.109C140.848 146.105 140.707 146.052 140.595 145.959C140.482 145.866 140.404 145.738 140.373 145.595C140.277 145.295 140.577 144.985 140.887 144.889L150.517 143.252C150.817 143.155 151.127 143.455 151.223 143.765C151.319 144.076 151.02 144.375 150.72 144.482C150.763 144.375 141.09 146.109 140.994 146.109Z" fill="#2D6A4F"/>
<path d="M130.091 148.045C129.947 148.039 129.809 147.985 129.698 147.892C129.588 147.799 129.511 147.672 129.481 147.531C129.374 147.232 129.684 146.921 129.994 146.825L138.041 145.391C138.34 145.295 138.651 145.595 138.747 145.905C138.843 146.215 138.544 146.515 138.244 146.622L130.091 148.045Z" fill="#2D6A4F"/>
<path d="M116.951 150.282C116.808 150.276 116.671 150.224 116.561 150.133C116.451 150.042 116.374 149.918 116.341 149.779C116.245 149.468 116.544 149.158 116.855 149.062L127.555 147.232C127.865 147.125 128.165 147.435 128.272 147.735C128.379 148.035 128.068 148.345 127.758 148.452C127.651 148.452 116.951 150.282 116.951 150.282Z" fill="#2D6A4F"/>
<path d="M109.514 151.608C109.37 151.602 109.232 151.548 109.122 151.455C109.012 151.363 108.935 151.236 108.905 151.095C108.808 150.795 109.108 150.485 109.418 150.389L114.608 149.468C114.918 149.361 115.218 149.672 115.325 149.982C115.432 150.292 115.121 150.592 114.811 150.688C114.715 150.688 109.514 151.608 109.514 151.608Z" fill="#2D6A4F"/>
<path d="M152.603 153.235C152.459 153.231 152.319 153.18 152.207 153.089C152.095 152.998 152.016 152.872 151.983 152.732C151.886 152.421 152.186 152.111 152.496 152.015L159.323 150.795C159.622 150.688 159.933 150.998 160.029 151.298C160.125 151.598 159.826 151.908 159.526 152.015C159.622 152.015 152.7 153.235 152.603 153.235Z" fill="#2D6A4F"/>
<path d="M147.2 154.155C147.056 154.148 146.918 154.095 146.807 154.002C146.697 153.909 146.621 153.782 146.59 153.641C146.483 153.341 146.793 153.031 147.104 152.935L149.65 152.421C149.95 152.325 150.26 152.624 150.356 152.935C150.453 153.245 150.153 153.545 149.853 153.641C148.98 153.864 148.094 154.035 147.2 154.155Z" fill="#2D6A4F"/>
<path d="M141.294 155.278C141.149 155.272 141.011 155.218 140.901 155.125C140.791 155.032 140.714 154.906 140.684 154.765C140.577 154.454 140.887 154.155 141.197 154.048L144.653 153.438C144.964 153.341 145.263 153.641 145.37 153.951C145.477 154.262 145.167 154.561 144.857 154.658L141.294 155.278Z" fill="#2D6A4F"/>
<path d="M135.387 156.295C135.242 156.292 135.102 156.24 134.991 156.146C134.88 156.053 134.804 155.924 134.777 155.781C134.67 155.482 134.98 155.171 135.291 155.064L138.651 154.454C138.95 154.358 139.26 154.658 139.357 154.968C139.453 155.278 139.153 155.578 138.854 155.685C138.95 155.685 135.387 156.295 135.387 156.295Z" fill="#2D6A4F"/>
<path d="M119.294 159.141C119.152 159.135 119.015 159.083 118.905 158.992C118.794 158.901 118.717 158.777 118.684 158.638C118.588 158.328 118.888 158.028 119.198 157.921L132.744 155.482C133.044 155.375 133.354 155.685 133.45 155.984C133.547 156.284 133.247 156.594 132.947 156.701C132.947 156.798 119.294 159.141 119.294 159.141Z" fill="#2D6A4F"/>
<path d="M110.948 160.671C110.803 160.668 110.663 160.616 110.552 160.523C110.441 160.429 110.366 160.3 110.338 160.157C110.231 159.858 110.542 159.547 110.841 159.451L117.058 158.36C117.358 158.263 117.668 158.563 117.764 158.873C117.861 159.184 117.561 159.483 117.261 159.579L110.948 160.671Z" fill="#2D6A4F"/>
<path d="M105.042 161.688C104.898 161.686 104.759 161.635 104.648 161.544C104.538 161.452 104.461 161.326 104.432 161.185C104.325 160.875 104.635 160.564 104.935 160.468L108.402 159.858C108.701 159.751 109.012 160.061 109.108 160.361C109.204 160.661 108.905 160.982 108.605 161.078C108.605 161.078 105.138 161.688 105.042 161.688Z" fill="#2D6A4F"/>
<path d="M67.1532 88.4675C67.008 88.4651 66.868 88.4127 66.7569 88.3191C66.6458 88.2256 66.5704 88.0966 66.5433 87.9539C66.4363 87.6543 66.6396 87.344 67.0569 87.2477L76.826 85.311C77.1363 85.204 77.4359 85.4073 77.5429 85.8139C77.6499 86.2205 77.4359 86.4238 77.0293 86.5308L67.1532 88.4675Z" fill="#C8705A"/>
<path d="M59.9199 89.7943C59.7763 89.7864 59.6392 89.732 59.5292 89.6394C59.4192 89.5468 59.3423 89.4209 59.31 89.2808C59.2137 88.9705 59.417 88.6708 59.8236 88.5638L65.0131 87.4938C65.3234 87.3975 65.623 87.6008 65.73 88.0074C65.837 88.414 65.623 88.6174 65.2164 88.7137C65.2699 88.8742 60.0269 89.7943 59.9199 89.7943Z" fill="#C8705A"/>
<path d="M52.6868 91.2172C52.5426 91.2111 52.4046 91.1573 52.2943 91.0644C52.1839 90.9715 52.1075 90.8446 52.0769 90.7036C51.9806 90.404 52.1839 90.0937 52.5905 89.9974L57.9405 88.9274C58.2508 88.8311 58.5611 89.0344 58.6574 89.441C58.7537 89.8476 58.5611 90.0509 58.1438 90.1579L52.6868 91.2172Z" fill="#C8705A"/>
<path d="M46.1704 92.5335C46.0277 92.528 45.8908 92.4757 45.7807 92.3849C45.6705 92.2941 45.5932 92.1696 45.5605 92.0306C45.4642 91.7203 45.6675 91.4207 46.0741 91.3137L50.6537 90.4042C50.964 90.2972 51.2636 90.5005 51.3706 90.9071C51.4776 91.3137 51.2636 91.517 50.857 91.624L46.1704 92.5335Z" fill="#C8705A"/>
<path d="M59.7166 97.0168C59.5739 97.0112 59.437 96.959 59.3269 96.8682C59.2167 96.7773 59.1394 96.6529 59.1067 96.5139C59.0104 96.2036 59.31 95.904 59.6203 95.797L76.7403 92.587C77.0399 92.48 77.3502 92.7903 77.4465 93.1006C77.5428 93.4109 77.2432 93.7105 76.9436 93.8068C77.0399 93.764 59.8236 97.0168 59.7166 97.0168Z" fill="#C8705A"/>
<path d="M54.57 97.9373C54.4247 97.9349 54.2848 97.8825 54.1737 97.789C54.0626 97.6954 53.9871 97.5664 53.9601 97.4237C53.8531 97.1241 54.1634 96.8138 54.463 96.7175L57.2129 96.2039C57.5232 96.1076 57.8228 96.4072 57.9298 96.7175C58.0368 97.0278 57.7265 97.3274 57.4162 97.4237L54.57 97.9373Z" fill="#C8705A"/>
<path d="M46.1705 99.5096C46.0263 99.5034 45.8883 99.4497 45.778 99.3567C45.6676 99.2638 45.5912 99.137 45.5606 98.996C45.4643 98.6964 45.7639 98.3861 46.0742 98.2791L52.1839 97.2091C52.4835 97.1021 52.7938 97.4124 52.9008 97.712C53.0078 98.0116 52.6868 98.3219 52.3872 98.4289L46.1705 99.5096Z" fill="#C8705A"/>
<path d="M53.5001 107.107C53.3549 107.104 53.2149 107.052 53.1038 106.958C52.9927 106.865 52.9173 106.736 52.8902 106.593C52.7832 106.283 53.0935 105.983 53.3931 105.876L60.8831 104.657C61.1827 104.56 61.493 104.86 61.6 105.17C61.707 105.48 61.386 105.78 61.0864 105.876C61.0436 105.78 53.5001 107.107 53.5001 107.107Z" fill="#C8705A"/>
<path d="M46.4808 108.22C46.3371 108.218 46.1983 108.167 46.0874 108.076C45.9765 107.984 45.9002 107.858 45.8709 107.717C45.7639 107.406 46.0742 107.107 46.3738 107L50.9641 106.283C51.2637 106.187 51.574 106.486 51.6703 106.797C51.7666 107.107 51.467 107.406 51.1674 107.513C51.0604 107.513 46.4808 108.22 46.4808 108.22Z" fill="#C8705A"/>
<path d="M46.8873 116.876C46.7436 116.874 46.6048 116.823 46.4939 116.732C46.383 116.64 46.3067 116.514 46.2774 116.373C46.1704 116.063 46.4807 115.763 46.7803 115.656L60.4335 113.313C60.7331 113.216 61.0434 113.516 61.1397 113.826C61.236 114.137 60.9364 114.436 60.6368 114.533C60.7331 114.49 46.9836 116.876 46.8873 116.876Z" fill="#C8705A"/>
<path d="M54.57 123.799C54.4262 123.797 54.2875 123.746 54.1766 123.655C54.0657 123.563 53.9893 123.437 53.9601 123.296C53.8531 122.986 54.1634 122.686 54.463 122.579L60.4764 121.509C60.776 121.413 61.0863 121.712 61.1826 122.023C61.2789 122.333 60.9793 122.633 60.6797 122.729C60.7332 122.782 54.6235 123.799 54.57 123.799Z" fill="#C8705A"/>
<path d="M47.4009 124.922C47.2564 124.919 47.117 124.868 47.0047 124.777C46.8924 124.686 46.8134 124.56 46.7803 124.419C46.684 124.109 46.9836 123.799 47.2939 123.702L52.4834 122.889C52.7937 122.782 53.104 123.093 53.2003 123.392C53.2966 123.692 52.997 124.013 52.6867 124.109C52.6867 124.12 47.4972 124.922 47.4009 124.922Z" fill="#C8705A"/>
<path d="M70.8233 104.357C70.8233 104.641 70.7106 104.913 70.51 105.114C70.3093 105.314 70.0371 105.427 69.7533 105.427C69.4799 105.397 69.2248 105.275 69.0303 105.08C68.8357 104.886 68.7134 104.631 68.6833 104.357C68.6833 104.073 68.7961 103.801 68.9967 103.601C69.1974 103.4 69.4696 103.287 69.7533 103.287C70.0276 103.315 70.2837 103.437 70.4786 103.632C70.6735 103.827 70.7953 104.083 70.8233 104.357Z" fill="#2C2C2C"/>
<path d="M78.7628 103.33C78.7628 103.614 78.6501 103.886 78.4494 104.086C78.2487 104.287 77.9766 104.4 77.6928 104.4C77.414 104.384 77.1507 104.267 76.9533 104.069C76.7558 103.872 76.6382 103.609 76.6228 103.33C76.6228 103.046 76.7355 102.774 76.9362 102.573C77.1369 102.372 77.409 102.26 77.6928 102.26C77.9724 102.273 78.237 102.39 78.435 102.588C78.6329 102.786 78.7498 103.05 78.7628 103.33Z" fill="#2C2C2C"/>
<path d="M85.889 102.421C85.889 102.632 85.8263 102.839 85.7087 103.015C85.5911 103.191 85.424 103.328 85.2285 103.409C85.033 103.49 84.8178 103.511 84.6103 103.47C84.4027 103.429 84.2121 103.327 84.0624 103.177C83.9128 103.028 83.8109 102.837 83.7696 102.629C83.7283 102.422 83.7495 102.207 83.8305 102.011C83.9115 101.816 84.0486 101.648 84.2246 101.531C84.4005 101.413 84.6074 101.351 84.819 101.351C85.1028 101.351 85.375 101.463 85.5756 101.664C85.7763 101.865 85.889 102.137 85.889 102.421Z" fill="#2C2C2C"/>
<path d="M89.88 59.4382C89.88 59.6498 89.8172 59.8567 89.6997 60.0326C89.5821 60.2086 89.415 60.3457 89.2195 60.4267C89.0239 60.5077 88.8088 60.5289 88.6012 60.4876C88.3937 60.4463 88.203 60.3444 88.0534 60.1948C87.9037 60.0451 87.8018 59.8545 87.7606 59.6469C87.7193 59.4394 87.7404 59.2242 87.8214 59.0287C87.9024 58.8332 88.0396 58.6661 88.2155 58.5485C88.3915 58.4309 88.5984 58.3682 88.81 58.3682C89.0896 58.3812 89.3542 58.4981 89.5521 58.696C89.75 58.8939 89.867 59.1586 89.88 59.4382Z" fill="#2C2C2C"/>
<path d="M97.7018 58.1115C97.7018 58.3953 97.589 58.6674 97.3884 58.8681C97.1877 59.0688 96.9155 59.1815 96.6318 59.1815C96.348 59.1815 96.0758 59.0688 95.8752 58.8681C95.6745 58.6674 95.5618 58.3953 95.5618 58.1115C95.5618 57.8277 95.6745 57.5556 95.8752 57.3549C96.0758 57.1542 96.348 57.0415 96.6318 57.0415C96.906 57.0696 97.1621 57.1914 97.357 57.3863C97.5519 57.5812 97.6737 57.8373 97.7018 58.1115Z" fill="#2C2C2C"/>
<path d="M104.935 57.0949C104.956 57.3573 104.872 57.6172 104.701 57.8177C104.531 58.0182 104.288 58.1431 104.025 58.1649C103.742 58.1649 103.469 58.0522 103.269 57.8515C103.068 57.6508 102.955 57.3787 102.955 57.0949C102.938 56.8315 103.024 56.5716 103.196 56.3714C103.369 56.1712 103.612 56.0468 103.876 56.0249C104.15 56.0493 104.407 56.1702 104.601 56.3661C104.795 56.5619 104.913 56.8201 104.935 57.0949Z" fill="#2C2C2C"/>
<path d="M38.0278 42.6392C38.0281 42.914 37.9227 43.1783 37.7335 43.3775C37.5443 43.5767 37.2857 43.6955 37.0113 43.7092C36.7157 43.6951 36.4336 43.5819 36.2103 43.3877C35.9871 43.1936 35.8357 42.9299 35.7808 42.6392C35.7808 42.3554 35.8935 42.0833 36.0942 41.8826C36.2948 41.6819 36.567 41.5692 36.8508 41.5692C36.9983 41.562 37.1459 41.584 37.285 41.6339C37.424 41.6838 37.5519 41.7607 37.6612 41.8601C37.7706 41.9594 37.8592 42.0794 37.9221 42.2131C37.985 42.3468 38.0209 42.4916 38.0278 42.6392Z" fill="#2C2C2C"/>
<path d="M45.871 41.2055C45.8782 41.3461 45.8576 41.4867 45.8104 41.6193C45.7632 41.7519 45.6903 41.8738 45.5959 41.9782C45.5014 42.0825 45.3874 42.1673 45.2601 42.2275C45.1329 42.2877 44.9951 42.3222 44.8545 42.329C44.5584 42.3168 44.2753 42.2043 44.0516 42.0098C43.828 41.8153 43.6772 41.5506 43.624 41.259C43.624 40.9753 43.7368 40.7031 43.9374 40.5024C44.1381 40.3018 44.4102 40.189 44.694 40.189C44.9828 40.1766 45.2654 40.2749 45.4842 40.4638C45.7029 40.6527 45.8413 40.918 45.871 41.2055Z" fill="#2C2C2C"/>
<path d="M52.9972 39.9857C53.0074 40.1165 52.9916 40.248 52.9509 40.3726C52.9101 40.4973 52.8451 40.6126 52.7595 40.7121C52.674 40.8115 52.5697 40.8931 52.4526 40.9521C52.3354 41.011 52.2078 41.0463 52.077 41.0557C51.7932 41.0557 51.521 40.943 51.3204 40.7423C51.1197 40.5417 51.007 40.2695 51.007 39.9857C51.0031 39.733 51.0945 39.4881 51.2631 39.2998C51.4316 39.1114 51.6649 38.9934 51.9165 38.9692C52.1791 39.0075 52.4235 39.1255 52.6168 39.3073C52.8101 39.4892 52.9429 39.726 52.9972 39.9857Z" fill="#2C2C2C"/>
<path d="M208.308 45.6888C208.108 40.4957 206.884 36.929 204.637 34.9888C201.791 32.5492 197.95 32.9558 193.67 33.6727C189.604 34.2826 182.371 35.5024 173.511 37.0325C173.511 35.8127 173.607 32.1426 173.918 23.1867C174.014 18.1898 172.901 14.6267 170.708 12.69C167.862 10.2504 163.892 11.0636 162.458 11.3739C143.926 15.1403 108.284 21.6566 79.5652 26.9531C60.5192 30.3129 44.2552 33.3731 38.413 34.4431C24.61 37.3428 24.7919 46.609 24.8882 51.0923C24.8882 51.3919 25.2948 121.359 25.4018 130.829C25.4018 132.765 25.4018 137.249 28.355 139.892C29.889 141.179 31.8546 141.837 33.8548 141.732C34.3577 141.732 56.8705 138.468 59.92 137.859C59.8237 149.575 59.8237 161.687 60.027 169.22C60.1233 174.014 61.5571 177.47 64.093 179.514C65.8409 180.782 67.9471 181.46 70.1064 181.45C71.3262 181.45 144.247 167.701 158.306 164.951C170.729 162.501 171.842 157.921 171.842 153.438C171.842 147.842 171.949 139.892 171.949 131.342C174.389 130.936 185.495 128.796 193.841 127.266C205.611 125.029 208.201 120.343 208.511 112.81C208.917 100.89 208.308 45.6888 208.308 45.6888ZM193.841 34.8925C197.918 34.2826 201.481 33.876 203.931 35.9625C205.857 37.5889 206.884 40.6384 207.088 45.2287L77.5429 67.5917V66.6715C77.5429 66.5645 76.6227 55.3616 85.6856 53.5319C89.452 52.815 182.339 36.7329 193.841 34.8925ZM160.5 84.0804C162.64 83.7808 165.593 83.7808 167.829 85.7175C169.467 87.1406 170.483 89.4839 170.686 92.6404L61.3431 111.483C61.3431 111.28 60.027 99.7131 69.9031 98.5468C76.1198 97.4768 91.1854 94.8767 91.1854 94.8767C116.341 90.8107 146.483 86.1241 160.5 84.0804ZM91.6562 93.7104C91.6562 87.6007 92.0628 78.1312 92.1591 76.1945C103.929 73.5516 122.815 70.8445 126.485 70.4914C126.688 73.7014 126.581 84.6475 126.485 88.2106C115.218 89.8798 102.902 91.8272 91.699 93.6569L91.6562 93.7104ZM76.3231 66.7678V74.108C67.6668 76.0447 48.6208 80.421 44.6511 81.3412C44.4478 74.9212 44.1375 58.5181 44.0305 55.4686C55.5437 53.3286 111.558 42.2327 118.588 40.9059V46.609C102.388 49.4552 89.1524 51.7985 85.4823 52.5154C81.3093 53.3286 78.3561 56.0785 77.0293 60.5618C76.4626 62.5792 76.2242 64.6746 76.3231 66.7678ZM26.108 50.9853C26.0117 46.502 25.8084 38.2523 38.5307 35.6094C44.2338 34.4859 60.6369 31.4364 79.5759 27.9696C108.295 22.6731 143.947 16.1996 162.479 12.3904C163.903 12.0801 167.262 11.3739 169.713 13.5139C171.639 15.1403 172.666 18.1898 172.559 22.5768C172.666 22.6731 26.108 51.0923 26.108 50.9853ZM60.027 119.529C60.027 124.623 59.92 130.529 59.92 136.649C57.3734 137.056 43.3243 139.603 35.1709 140.416C32.528 140.715 30.495 140.213 29.1682 138.993C26.7179 136.746 26.6216 132.573 26.6216 130.839C26.6216 121.37 26.108 57.309 26.108 52.5261L172.698 23.9036C172.495 33.0735 172.388 36.337 172.291 37.2465C156.808 39.9001 136.842 43.3562 119.733 46.3094V40.1034C119.733 40.0244 119.715 39.9464 119.68 39.8758C119.645 39.8052 119.593 39.7438 119.53 39.6968C119.468 39.6283 119.386 39.5811 119.296 39.5619C119.205 39.5427 119.111 39.5524 119.027 39.5898C118.417 39.6968 54.249 52.4298 43.3564 54.4628C43.2137 54.4898 43.0847 54.5653 42.9911 54.6764C42.8976 54.7875 42.8452 54.9275 42.8428 55.0727C42.8428 55.276 43.3564 75.8521 43.4527 82.1651C43.456 82.2433 43.4759 82.32 43.5109 82.3901C43.546 82.4602 43.5954 82.522 43.656 82.5717C43.763 82.668 43.8593 82.668 44.0626 82.668C44.0626 82.668 66.4684 77.4785 76.2482 75.3385V96.2035C73.83 96.6101 71.69 97.0167 69.55 97.3698C60.0805 99.1032 59.9842 106.732 59.9842 110.916C60.1233 111.173 60.027 116.469 60.027 119.529ZM170.526 153.341C170.526 157.514 169.456 161.484 157.996 163.731C143.947 166.481 72.653 179.92 71.9361 180.017C70.7073 180.26 69.4419 180.251 68.2168 179.989C66.9917 179.728 65.8326 179.221 64.8099 178.497C62.4666 176.657 61.3431 173.5 61.2468 169.124C60.9365 157.407 61.2468 134.595 61.3431 119.529C61.3431 116.983 61.3431 114.736 61.4501 112.703L170.932 93.8602C170.825 94.1598 170.526 147.435 170.526 153.341ZM207.184 112.681C206.884 119.711 204.637 123.991 193.542 126.024C185.388 127.554 174.699 129.587 171.842 130.101C171.949 116.854 171.949 93.6355 171.949 93.2289V93.1326C171.746 89.3555 170.622 86.6056 168.589 84.7759C166.043 82.6359 162.683 82.5396 160.34 82.8392C152.903 83.9092 140.994 85.6961 127.651 87.7291C127.747 83.9627 127.951 73.4767 127.651 70.1169C127.623 69.8012 127.478 69.5074 127.244 69.293C126.974 69.1044 126.654 69.0002 126.324 68.9934C122.654 69.4963 103.608 72.2034 91.9023 74.7928C91.6324 74.8494 91.3902 74.9974 91.2167 75.2119C91.0433 75.4263 90.949 75.694 90.95 75.9698C90.8537 77.9065 90.4471 87.5793 90.4471 93.796C85.9638 94.5022 81.5875 95.3154 77.5108 95.936V68.8115L207.184 46.4057V47.0798C207.088 51.5952 207.698 100.89 207.184 112.703V112.681Z" fill="#2C2C2C"/>
<path d="M109.012 136.639C109.029 133.754 108.47 130.896 107.368 128.23C106.267 125.564 104.643 123.146 102.594 121.116C100.545 119.086 98.1117 117.485 95.436 116.408C92.7603 115.331 89.8964 114.799 87.0124 114.843C81.1147 114.826 75.4493 117.141 71.252 121.284C67.0547 125.428 64.6659 131.062 64.6066 136.96C64.5892 139.844 65.1478 142.703 66.2497 145.368C67.3517 148.034 68.9747 150.453 71.0238 152.483C73.0728 154.513 75.5065 156.114 78.1822 157.191C80.8579 158.268 83.7218 158.8 86.6058 158.756C87.9759 158.779 89.344 158.643 90.6825 158.349L98.8252 193.991C98.891 194.098 98.9898 194.18 99.1067 194.226C99.2236 194.272 99.3523 194.278 99.4732 194.245C99.5941 194.211 99.7007 194.138 99.7769 194.039C99.853 193.939 99.8945 193.817 99.8952 193.691L91.7418 158.146C96.6284 157.042 100.997 154.315 104.133 150.409C107.27 146.502 108.989 141.648 109.012 136.639ZM86.6058 157.611C83.8825 157.656 81.1775 157.157 78.6498 156.143C76.1221 155.128 73.8227 153.618 71.8868 151.702C69.9509 149.786 68.4175 147.503 67.3768 144.986C66.336 142.469 65.8089 139.769 65.8264 137.045C65.8632 131.457 68.1135 126.11 72.0846 122.177C76.0556 118.244 81.4235 116.046 87.0124 116.063C89.7366 116.017 92.4425 116.516 94.9709 117.532C97.4993 118.547 99.7992 120.058 101.735 121.975C103.671 123.892 105.204 126.177 106.245 128.695C107.285 131.213 107.811 133.914 107.792 136.639C107.752 142.226 105.501 147.569 101.53 151.5C97.5592 155.431 92.1929 157.628 86.6058 157.611Z" fill="#2C2C2C"/>
<path d="M90.8857 127.672C90.7109 127.682 90.5392 127.623 90.4059 127.51C90.2726 127.397 90.1877 127.236 90.1688 127.062C90.1448 126.968 90.1422 126.869 90.1613 126.774C90.1804 126.678 90.2207 126.588 90.2792 126.51C90.3377 126.432 90.413 126.368 90.4994 126.323C90.5858 126.278 90.6813 126.253 90.7787 126.249L100.045 124.826C100.234 124.799 100.425 124.848 100.578 124.963C100.73 125.077 100.831 125.247 100.858 125.436C100.885 125.625 100.836 125.816 100.722 125.969C100.607 126.121 100.437 126.222 100.248 126.249L90.8857 127.672Z" fill="#2D6A4F"/>
<path d="M82.3901 128.892C82.2153 128.901 82.0436 128.843 81.9103 128.73C81.777 128.616 81.6921 128.456 81.6732 128.282C81.6492 128.188 81.6466 128.089 81.6657 127.994C81.6848 127.898 81.7251 127.808 81.7836 127.73C81.8421 127.652 81.9174 127.588 82.0038 127.543C82.0902 127.498 82.1857 127.472 82.2831 127.469L86.8627 126.763C87.0514 126.735 87.2437 126.782 87.3972 126.896C87.5507 127.009 87.6529 127.179 87.6813 127.367C87.7096 127.556 87.6619 127.748 87.5485 127.902C87.4351 128.055 87.2654 128.158 87.0767 128.186C87.2158 128.282 82.5292 128.892 82.3901 128.892Z" fill="#2D6A4F"/>
<path d="M69.6999 130.936C69.5251 130.945 69.3534 130.887 69.22 130.773C69.0867 130.66 69.0019 130.5 68.983 130.326C68.9539 130.232 68.9461 130.133 68.9601 130.035C68.9741 129.938 69.0095 129.845 69.0637 129.763C69.118 129.681 69.1898 129.613 69.2739 129.562C69.358 129.511 69.4523 129.479 69.5501 129.47L78.2064 128.154C78.3951 128.125 78.5873 128.173 78.7409 128.286C78.8944 128.4 78.9965 128.569 79.0249 128.758C79.0533 128.947 79.0055 129.139 78.8922 129.293C78.7788 129.446 78.6091 129.548 78.4204 129.577L69.6999 130.936Z" fill="#2D6A4F"/>
<path d="M95.0588 138.875C94.884 138.884 94.7123 138.826 94.579 138.713C94.4456 138.599 94.3608 138.439 94.3419 138.265C94.3179 138.171 94.3153 138.072 94.3344 137.976C94.3535 137.881 94.3938 137.79 94.4523 137.712C94.5108 137.634 94.586 137.571 94.6725 137.525C94.7589 137.48 94.8544 137.455 94.9518 137.452L104.325 136.029C104.418 136.015 104.514 136.021 104.605 136.044C104.696 136.067 104.782 136.109 104.858 136.165C104.933 136.222 104.997 136.293 105.045 136.374C105.093 136.455 105.125 136.545 105.138 136.639C105.152 136.732 105.146 136.827 105.123 136.919C105.1 137.01 105.058 137.096 105.002 137.172C104.945 137.247 104.874 137.311 104.793 137.359C104.712 137.407 104.622 137.438 104.528 137.452L95.0588 138.875Z" fill="#2D6A4F"/>
<path d="M84.0593 140.502C83.8845 140.511 83.7128 140.453 83.5795 140.339C83.4461 140.226 83.3613 140.066 83.3424 139.892C83.3184 139.797 83.3158 139.699 83.3349 139.603C83.354 139.507 83.3943 139.417 83.4528 139.339C83.5113 139.261 83.5865 139.197 83.673 139.152C83.7594 139.107 83.8549 139.082 83.9523 139.079L91.0892 138.062C91.1837 138.038 91.2824 138.036 91.378 138.055C91.4736 138.074 91.5637 138.114 91.6417 138.173C91.7197 138.231 91.7836 138.306 91.8287 138.393C91.8738 138.479 91.899 138.575 91.9024 138.672C91.9024 139.079 91.6991 139.485 91.2925 139.485C91.2925 139.389 84.0593 140.502 84.0593 140.502Z" fill="#2D6A4F"/>
<path d="M69.6997 142.545C69.5249 142.554 69.3532 142.496 69.2198 142.383C69.0865 142.27 69.0017 142.109 68.9828 141.935C68.9588 141.841 68.9562 141.742 68.9753 141.647C68.9944 141.551 69.0347 141.461 69.0932 141.383C69.1517 141.305 69.2269 141.241 69.3134 141.196C69.3998 141.151 69.4952 141.126 69.5927 141.122L78.463 139.795C78.6517 139.768 78.8434 139.817 78.9959 139.932C79.1484 140.046 79.2492 140.217 79.2762 140.405C79.3031 140.594 79.254 140.786 79.1397 140.938C79.0253 141.091 78.855 141.191 78.6663 141.218L69.6997 142.545Z" fill="#2D6A4F"/>
<path d="M80.7957 151.501C80.622 151.51 80.4516 151.452 80.32 151.338C80.1884 151.224 80.1058 151.064 80.0895 150.891C80.0654 150.797 80.0629 150.698 80.082 150.602C80.1011 150.507 80.1414 150.417 80.1999 150.339C80.2584 150.261 80.3336 150.197 80.42 150.152C80.5065 150.106 80.6019 150.081 80.6994 150.078L96.7494 147.938C96.9381 147.911 97.1298 147.96 97.2823 148.074C97.4348 148.189 97.5356 148.359 97.5626 148.548C97.5895 148.737 97.5404 148.928 97.426 149.081C97.3117 149.233 97.1414 149.334 96.9527 149.361L80.7957 151.501Z" fill="#2D6A4F"/>
<path d="M196.794 92.9508C196.794 92.9508 196.794 81.3413 195.275 75.3279C193.755 69.3145 190.075 63.0015 188.855 63.3118C187.635 63.6221 189.871 71.8718 189.871 71.8718C189.871 71.8718 185.591 68.6618 185.388 72.9418C185.388 72.9418 182.178 71.615 182.232 75.4884C182.232 75.4884 179.482 73.755 179.482 77.6284C179.482 77.6284 176.026 76.8152 178.412 82.315C180.798 87.8148 182.585 85.0649 182.585 85.0649L185.431 93.7212C185.495 93.764 191.701 94.9838 196.794 92.9508Z" fill="#FDF6EE"/>
<path d="M43.87 71.5612L43.6667 66.7676C43.6667 66.7676 37.1504 72.674 36.3372 79.4043C36.3372 79.4043 39.1941 86.2202 43.0568 88.7668C43.0568 88.7668 51.5098 86.0169 54.1634 83.0637C56.817 80.1105 60.1661 76.4511 54.1634 77.9706C54.1634 77.9706 57.2129 72.3745 51.7131 75.2207C51.7131 75.2207 56.1964 68.501 49.3698 72.0107C49.3698 72.0107 57.2129 64.7881 55.6828 63.5576C53.607 62.0596 43.87 71.5612 43.87 71.5612Z" fill="#FDF6EE"/>
<path d="M84.776 168.407C84.776 168.407 78.5593 166.267 88.842 161.891C98.3222 157.921 100.248 162.297 98.0119 163.11C98.0119 163.11 103.715 164.031 99.542 167.091C99.542 167.091 105.245 167.187 101.061 171.563C101.061 171.563 107.182 172.184 98.7288 176.86C86.809 183.483 90.8857 175.544 90.8857 175.544C90.8857 175.544 85.0756 177.266 87.9325 171.874C88.1358 171.767 82.529 173.703 84.776 168.407Z" fill="#FDF6EE"/>
<path d="M171.746 150.185C171.746 150.185 205.354 139.282 199.341 94.0636C199.271 93.7257 199.075 93.427 198.793 93.2283C198.511 93.0296 198.163 92.9457 197.822 92.9936C193.382 93.763 188.871 94.0358 184.372 93.8068C184.06 93.801 183.756 93.905 183.514 94.1006C183.271 94.2963 183.105 94.5711 183.045 94.8768C182.028 99.1568 178.166 115.036 172.045 119.112L171.746 150.185Z" fill="#C8705A"/>
<path d="M25.9046 135.516C25.9046 135.516 -6.1954 121.969 9.8546 99.264C19.7949 85.0009 31.0299 79.6081 34.5609 78.4846C34.8631 78.3971 35.1854 78.4092 35.4802 78.519C35.775 78.6288 36.0267 78.8306 36.198 79.0945C38.0812 82.6968 40.2608 86.1362 42.7143 89.3772C42.9108 89.6046 43.019 89.8951 43.019 90.1957C43.019 90.4963 42.9108 90.7868 42.7143 91.0143C39.8574 94.5774 27.5417 107.61 25.2947 110.06C25.2947 110.06 25.498 133.889 25.9046 135.516Z" fill="#2D6A4F"/>
<path d="M16.6384 119.529C16.5602 119.526 16.4835 119.506 16.4134 119.471C16.3433 119.436 16.2815 119.387 16.2318 119.326C16.134 119.213 16.0801 119.069 16.0801 118.92C16.0801 118.77 16.134 118.626 16.2318 118.513L25.498 109.953C25.5492 109.891 25.6128 109.84 25.6849 109.803C25.7569 109.767 25.8358 109.746 25.9163 109.742C25.9969 109.738 26.0774 109.751 26.1526 109.78C26.2279 109.809 26.2962 109.854 26.3532 109.911C26.4103 109.968 26.4547 110.036 26.4837 110.112C26.5128 110.187 26.5257 110.267 26.5218 110.348C26.5178 110.428 26.497 110.507 26.4608 110.579C26.4245 110.651 26.3736 110.715 26.3112 110.766C26.2149 110.766 16.7454 119.529 16.6384 119.529Z" fill="#2C2C2C"/>
<path d="M90.8857 180.937C89.8157 180.84 87.8255 180.327 88.842 177.727C88.949 177.523 88.7457 177.32 88.5424 177.32C87.2156 177.32 84.669 176.71 85.8888 174.11C85.9958 173.907 85.7925 173.703 85.5892 173.703C84.1661 173.703 81.5125 173.297 83.0426 170.033C83.1389 169.83 83.0426 169.627 82.8393 169.627C82.4217 169.583 82.0379 169.377 81.7715 169.053C81.505 168.728 81.3774 168.311 81.4162 167.893C81.4162 167.797 81.3092 167.69 81.2022 167.797L64.3069 176.86C60.7834 179.269 57.3836 181.855 54.1205 184.607C54.0135 184.703 53.9172 184.703 53.7139 184.703C53.5279 184.681 53.3508 184.611 53.2003 184.5C53.1456 184.443 53.1044 184.375 53.0797 184.3C53.0551 184.225 53.0476 184.145 53.0579 184.067C53.0682 183.989 53.0959 183.914 53.1391 183.848C53.1823 183.783 53.2398 183.727 53.3073 183.687C53.5106 183.483 58.1865 179.813 61.8673 177.17L60.2409 169.124C60.2409 169.124 37.6318 183.28 49.6479 198.014C60.6475 211.56 84.2731 194.451 91.196 181.514C91.1853 181.247 91.089 180.937 90.8857 180.937Z" fill="#2C2C2C"/>
<path d="M195.981 75.5311C195.182 72.6177 194.107 69.7873 192.771 67.0781C190.321 62.1882 189.411 62.3915 188.994 62.4985C188.577 62.6055 187.474 62.7981 189.101 70.6412C188.181 70.1383 186.961 69.721 186.148 70.2346C185.805 70.4236 185.522 70.7058 185.333 71.0485C185.144 71.3912 185.055 71.7804 185.078 72.1713C184.697 72.0667 184.297 72.049 183.908 72.1194C183.519 72.1897 183.151 72.3464 182.831 72.5779C182.529 72.799 182.288 73.0921 182.129 73.4304C181.97 73.7687 181.899 74.1415 181.921 74.5146C181.616 74.4235 181.297 74.3946 180.98 74.4295C180.664 74.4644 180.358 74.5625 180.081 74.7179C179.731 74.994 179.455 75.3526 179.277 75.7615C179.1 76.1704 179.027 76.617 179.064 77.0612C178.773 77.0612 178.486 77.1244 178.222 77.2463C177.958 77.3682 177.723 77.546 177.534 77.7674C176.721 78.8374 177.031 80.7206 178.604 83.6738C180.177 86.627 181.354 86.734 182.071 86.4237C182.274 86.3274 182.371 86.2204 182.574 86.1241C183.562 88.6902 184.408 91.3084 185.11 93.9672C185.117 94.0725 185.162 94.1717 185.237 94.2464C185.312 94.3211 185.411 94.3663 185.516 94.3738C186.657 94.5816 187.814 94.6819 188.972 94.6734C191.74 94.6359 194.487 94.1924 197.126 93.3573C197.231 93.3116 197.323 93.2409 197.393 93.1513C197.464 93.0618 197.512 92.9561 197.532 92.8437C197.511 92.4371 197.714 82.6573 195.981 75.5311ZM196.291 92.4371C192.967 93.485 189.455 93.7989 185.998 93.3573C184.928 88.9703 182.135 81.8441 182.028 81.5873C182.003 81.5076 181.96 81.4346 181.902 81.3738C181.845 81.313 181.775 81.266 181.696 81.2362C181.618 81.2064 181.534 81.1945 181.451 81.2016C181.368 81.2087 181.287 81.2344 181.215 81.277C181.137 81.3051 181.067 81.3499 181.008 81.4081C180.95 81.4663 180.905 81.5366 180.876 81.614C180.848 81.6914 180.837 81.7741 180.843 81.8564C180.85 81.9386 180.875 82.0184 180.915 82.0902C180.915 82.0902 181.322 83.1067 181.825 84.5405C181.863 84.705 181.856 84.8768 181.803 85.0373C181.75 85.1977 181.654 85.3405 181.525 85.45C181.322 85.557 180.605 85.2467 179.589 83.2137C177.748 79.7469 178.165 78.7304 178.369 78.6341C180.198 77.4036 183.719 81.0737 183.719 81.0737C183.719 81.0737 184.329 81.384 184.532 81.0737C184.592 81.0245 184.641 80.9625 184.675 80.8922C184.708 80.8218 184.725 80.7449 184.725 80.6671C184.725 80.5892 184.708 80.5123 184.675 80.442C184.641 80.3716 184.592 80.3096 184.532 80.2605C183.31 78.9868 181.813 78.0095 180.156 77.4036C179.952 74.964 182.189 76.1838 182.189 76.1838C183.867 76.988 185.333 78.1756 186.469 79.6506C186.576 79.7469 187.079 79.9502 187.282 79.7469C187.485 79.5436 187.592 79.137 187.389 78.9337C186.197 77.4196 184.703 76.1698 183.002 75.2636C182.499 73.0273 184.532 73.5409 184.939 73.6372C186.813 74.5075 188.378 75.9299 189.422 77.7139C189.506 77.8453 189.637 77.9395 189.788 77.9774C189.939 78.0152 190.099 77.9936 190.235 77.9172C190.319 77.8872 190.395 77.837 190.455 77.7709C190.516 77.7049 190.559 77.625 190.581 77.5383C190.603 77.4516 190.604 77.3608 190.583 77.2739C190.562 77.1869 190.519 77.1065 190.46 77.0398C189.418 75.3018 187.944 73.8639 186.18 72.8668C186.18 71.9466 186.597 70.1169 189.39 72.3532C190.489 73.3108 191.418 74.4466 192.14 75.713C192.228 75.8406 192.353 75.9386 192.498 75.994C192.643 76.0493 192.802 76.0596 192.953 76.0233C193.091 75.9427 193.197 75.8161 193.252 75.6655C193.307 75.515 193.307 75.3501 193.252 75.1994C192.583 73.9284 191.687 72.7899 190.61 71.8396C189.946 69.3432 189.562 66.7809 189.465 64.1998C190.685 65.5266 193.745 71.433 194.868 75.9698C196.291 81.9511 196.291 90.4041 196.291 92.4371Z" fill="#2C2C2C"/>
<path d="M35.7806 78.7948C36.9552 73.8755 39.5004 69.39 43.1208 65.8585C43.1953 65.7492 43.3044 65.6682 43.4306 65.6285C43.5567 65.5888 43.6926 65.5928 43.8162 65.6397C43.9398 65.6867 44.044 65.774 44.112 65.8874C44.18 66.0009 44.2077 66.1339 44.1908 66.2651L44.2871 70.2348C47.6576 67.0248 53.2537 62.7448 55.2867 62.7448C55.4948 62.7142 55.7072 62.7456 55.8975 62.835C56.0878 62.9245 56.2475 63.068 56.3567 63.2477C56.7633 63.9646 56.7633 65.1844 53.2002 68.9508C52.5796 69.5607 52.0767 70.1813 51.5631 70.6842C52.5796 70.4809 53.2002 70.5879 53.6068 71.0908C53.8101 71.4011 54.2167 72.1608 53.0932 74.044C54.1632 73.7444 54.9229 73.8407 55.3295 74.3543C55.9501 75.0605 55.5328 76.184 55.1262 77.1042C56.3567 76.9009 57.4695 76.7939 57.9831 77.7141C58.9033 79.5438 55.0299 83.0641 53.9064 84.0271C47.9037 88.7137 43.0138 89.5269 42.8105 89.3771C38.3272 85.7177 35.6843 79.2977 35.7806 78.7948ZM37.0111 78.8911C38.2494 82.3613 40.2242 85.5225 42.7998 88.1573C46.5767 87.273 50.099 85.5302 53.0932 83.0641C55.4258 81.2344 57.1592 78.7841 56.8596 78.2812C56.8596 78.2812 56.453 77.8746 54.0027 78.6878C53.8782 78.7287 53.7442 78.7312 53.6183 78.695C53.4923 78.6587 53.3802 78.5854 53.2965 78.4845C53.249 78.4377 53.2112 78.3819 53.1854 78.3203C53.1596 78.2588 53.1464 78.1927 53.1464 78.126C53.1464 78.0593 53.1596 77.9933 53.1854 77.9317C53.2112 77.8702 53.249 77.8144 53.2965 77.7676C54.1097 76.6976 54.6126 75.328 54.3665 75.1247C54.3665 75.1247 53.9599 74.8144 51.7236 75.7346C51.5974 75.7749 51.462 75.7772 51.3345 75.741C51.207 75.7048 51.093 75.6319 51.0067 75.5313C50.9592 75.4845 50.9214 75.4287 50.8956 75.3671C50.8698 75.3056 50.8566 75.2395 50.8566 75.1728C50.8566 75.1061 50.8698 75.04 50.8956 74.9785C50.9214 74.917 50.9592 74.8612 51.0067 74.8144C52.0767 73.5946 52.7401 72.1715 52.6331 71.7649C52.5368 71.7649 51.9269 71.5616 49.2733 72.8349C49.1506 72.8903 49.0122 72.9003 48.8828 72.8631C48.7534 72.8258 48.6415 72.7438 48.5671 72.6316C48.4839 72.5067 48.4479 72.3563 48.4655 72.2072C48.4832 72.0582 48.5533 71.9204 48.6634 71.8184C52.4298 68.4586 55.49 64.7885 55.383 63.8683C53.243 63.3654 44.1801 72.118 43.9768 72.225C43.639 72.5506 43.3343 72.9091 43.0673 73.295C43.0233 73.3587 42.9662 73.4124 42.8999 73.4523C42.8335 73.4923 42.7594 73.5177 42.6825 73.5268C42.6055 73.5359 42.5276 73.5285 42.4537 73.5052C42.3798 73.4818 42.3118 73.443 42.2541 73.3913C42.1881 73.3493 42.1322 73.2934 42.0901 73.2275C42.0481 73.1615 42.021 73.0872 42.0108 73.0096C42.0006 72.9321 42.0075 72.8533 42.0311 72.7787C42.0546 72.7042 42.0942 72.6357 42.1471 72.5781C42.4546 72.0832 42.8332 71.6361 43.2706 71.2513L42.9603 67.7952C41.2804 69.7212 37.8243 74.1082 37.0111 78.8911Z" fill="#2C2C2C"/>
<path d="M104.122 172.687C103.918 171.767 103.052 171.36 102.185 171.061C103.255 169.638 103.608 168.61 103.255 167.797C103.004 167.443 102.667 167.159 102.276 166.972C101.884 166.784 101.452 166.7 101.019 166.727C101.368 166.455 101.637 166.094 101.799 165.681C101.961 165.269 102.009 164.821 101.939 164.384C101.724 163.91 101.385 163.503 100.957 163.207C100.529 162.911 100.029 162.737 99.5099 162.704C99.6282 162.481 99.681 162.229 99.662 161.977C99.6431 161.725 99.5532 161.484 99.4029 161.281C98.3329 159.547 93.6998 159.248 87.7934 161.794C84.134 163.421 82.4434 164.844 82.4434 166.374C82.5323 166.846 82.7372 167.289 83.0398 167.663C83.3424 168.037 83.7331 168.329 84.1768 168.514C83.4599 169.841 83.3636 170.857 83.9735 171.671C84.5834 172.484 86.1135 172.591 87.1835 172.484C86.5736 173.704 86.4666 174.624 86.9802 175.341C87.5901 176.25 89.1202 176.357 90.1902 176.25C89.8906 177.17 89.5803 178.593 90.3935 179.407C90.6231 179.625 90.8962 179.792 91.195 179.897C91.4937 180.002 91.8113 180.043 92.1269 180.017C94.0055 179.797 95.823 179.212 97.4769 178.294C102.388 175.951 104.432 174.217 104.122 172.687ZM83.7916 166.374C83.8986 166.064 84.1019 164.844 88.3819 162.907C94.3846 160.264 97.9477 161.078 98.4613 161.891C98.5683 162.094 98.365 162.404 98.151 162.608C93.5428 163.475 89.1283 165.164 85.1184 167.594C83.9521 167.498 83.5455 167.091 83.7488 166.374H83.7916ZM85.5999 168.717C86.5094 168.204 92.4158 164.641 98.3329 163.827C99.2424 163.624 102.506 164.437 98.9428 166.888C94.8661 167.701 90.0832 170.098 88.2428 171.061C83.8558 172.687 84.5299 169.434 85.5999 168.717ZM88.8099 172.184C90.6503 171.114 95.9468 168.514 99.9165 167.904C100.826 167.904 103.683 168.204 100.623 170.954C97.5014 172.455 94.2844 173.749 90.9927 174.827H90.8964C86.809 176.047 87.7399 173.201 88.8099 172.184ZM96.9633 177.267C90.2437 180.733 90.9499 177.577 91.6133 176.047C93.3467 175.437 98.1296 173.607 101.243 172.184C101.982 172.184 105.93 172.687 96.9954 177.267H96.9633Z" fill="#2C2C2C"/>
</svg>
