<svg width="83" height="193" viewBox="0 0 83 193" fill="none" xmlns="http://www.w3.org/2000/svg">
<path d="M13.2229 185.549C13.5641 186.218 36.3338 198.278 61.1097 187.29C66.5934 166.519 70.6871 145.406 73.3679 124.092C73.7395 121.396 60.4046 115.223 37.1485 115.814C13.8925 116.404 1.44598 119.222 1.96533 124.556C2.48467 129.889 12.1129 183.364 13.2229 185.549Z" fill="#FDF6EE"/>
<path d="M76.9651 84.7746C70.1296 77.3408 59.0502 80.3067 55.0024 89.7924C52.3395 96.0271 51.2066 107.244 50.7254 115.523C48.1541 115.289 45.4657 115.123 42.6984 115.034C43.508 97.9772 45.5803 62.5369 49.1801 52.1397C52.4566 42.6769 59.1495 33.1556 68.1006 34.8053C70.038 35.303 71.8353 36.2414 73.3526 37.5476C74.8699 38.8536 76.0639 40.4924 76.8429 42.3358C77.7569 44.4155 78.1388 46.6907 77.9504 48.9549C77.762 51.2192 77.0135 53.4007 75.7686 55.3017C75.6311 55.529 75.5878 55.8024 75.6515 56.0611C75.7151 56.32 75.8781 56.543 76.1046 56.6815C76.3312 56.8197 76.6062 56.8622 76.8633 56.7991C77.123 56.7362 77.347 56.5728 77.4845 56.3454C78.9025 54.168 79.7553 51.6708 79.9641 49.0807C80.1703 46.4903 79.7299 43.8893 78.6759 41.5135C77.7594 39.3766 76.3592 37.4809 74.5873 35.9746C72.818 34.468 70.7202 33.3918 68.4647 32.8297C58.261 30.9458 50.8298 41.2309 47.2834 51.4829C43.5487 62.2619 41.4815 97.8397 40.6796 114.981C38.5182 114.937 36.8991 114.94 34.9795 114.981C35.4276 102.18 36.3263 75.0776 36.8736 49.0262C37.6246 13.5706 34.2718 1.23104 23.5819 0.123609C21.227 -0.214221 18.8237 0.143973 16.6674 1.15466C14.5137 2.1651 12.7011 3.78348 11.4536 5.81097C10.5117 5.66687 9.5519 5.87004 8.74742 6.38251C7.94549 6.89498 7.35742 7.68189 7.09266 8.5966C6.82789 9.51106 6.90426 10.4909 7.3065 11.3532C7.71129 12.2155 8.41648 12.9016 9.28715 13.2832C10.1604 13.6648 11.1405 13.716 12.0493 13.4273C12.9556 13.1386 13.727 12.5299 14.2184 11.7142C14.7123 10.8988 14.8905 9.9324 14.7199 8.99503C14.5519 8.05791 14.0503 7.21372 13.3044 6.62054C14.3788 4.98791 15.8986 3.69667 17.6832 2.89957C19.4678 2.10247 21.4434 1.83263 23.3757 2.12209C32.5712 3.07422 35.5778 15.3374 34.865 48.9829C34.3151 75.1005 33.4138 102.277 32.9683 115.027C30.7789 115.09 28.6404 115.197 26.5554 115.35C26.7922 107.476 27.0009 95.439 26.4638 86.2359C25.8273 75.2227 24.2005 57.4071 13.2255 58.4101C4.24897 59.2375 3.04224 72.3205 2.99641 72.878C2.9735 73.1427 3.05752 73.405 3.22809 73.6086C3.40121 73.8123 3.64562 73.9396 3.91038 73.9625C4.17515 73.9829 4.43734 73.8963 4.641 73.7257C4.84467 73.5552 4.97196 73.3108 4.99741 73.046C4.99741 72.9264 6.10487 61.0807 13.4114 60.4111C22.5763 59.5659 23.9205 77.1626 24.4526 86.353C24.9847 95.5434 24.7734 107.684 24.534 115.513C17.3345 116.154 -1.63187 118.69 1.20417 125.307C1.96792 130.365 9.91849 184.176 13.1364 186.518C21.0972 190.917 30.0763 193.15 39.1699 192.992C46.6852 193.005 54.1215 191.465 61.013 188.466C61.9957 188.038 64.0375 187.152 69.3302 155.625C71.904 140.286 74.0884 124.298 74.0884 124.115C74.0884 118.479 58.3043 116.343 52.7315 115.744C53.2076 107.598 54.3074 96.5388 56.843 90.6045C60.318 82.4579 69.623 79.8866 75.3816 86.022C74.8063 86.7807 74.5263 87.7227 74.595 88.6722C74.6637 89.6218 75.0761 90.5128 75.7533 91.1799C76.4305 91.8494 77.3292 92.2466 78.2788 92.3026C79.2284 92.356 80.1678 92.0633 80.9162 91.4777C81.6672 90.8896 82.1764 90.0521 82.3521 89.1152C82.5303 88.1809 82.3597 87.2135 81.8735 86.3937C81.3898 85.574 80.6235 84.9604 79.7172 84.6651C78.8134 84.3698 77.8333 84.4156 76.9575 84.7899L76.9651 84.7746ZM50.6185 117.534C50.509 119.729 50.4505 121.628 50.4148 123.061C48.093 122.733 45.4352 122.463 42.3777 122.297C42.4286 121.024 42.5049 119.242 42.6042 117.061C45.4555 117.14 48.1261 117.297 50.6185 117.534ZM34.9082 116.992C36.9016 116.959 38.4164 116.959 40.588 116.992C40.4912 119.151 40.4199 120.915 40.369 122.18C38.587 122.106 36.9754 122.063 34.7275 122.066L34.9082 116.992ZM26.4918 117.364C28.5157 117.211 30.6491 117.101 32.897 117.035L32.7163 122.096C30.3919 122.142 28.2535 122.252 26.3008 122.422C26.3467 121.353 26.4078 119.596 26.4918 117.353V117.364ZM3.15933 124.746C2.03917 120.75 11.4689 118.713 24.4755 117.529C24.3965 119.874 24.3227 121.658 24.2794 122.621C14.0453 123.766 9.25914 126.383 7.80548 127.511C6.01323 127.073 4.39406 126.106 3.15933 124.736V124.746ZM60.1857 186.643C38.0931 196.21 17.4159 187.083 14.361 184.922C12.4159 182.503 6.97809 150.11 3.60742 127.773C5.47605 128.937 16.9959 133.247 37.5177 133.247C59.4372 133.247 69.7452 128.868 71.6113 127.646C66.54 163.972 61.9754 185.065 60.178 186.633L60.1857 186.643ZM72.095 124.102C72.095 125.375 69.6663 126.877 65.206 128.176C64.1444 127.134 60.9341 124.846 52.4286 123.382C52.4642 121.961 52.5278 120.014 52.6398 117.745C64.9463 119.062 72.0874 121.898 72.0874 124.092L72.095 124.102Z" fill="#2C2C2C"/>
<path d="M76.3871 60.4646C78.5561 60.4646 80.3127 58.7069 80.3127 56.5389C80.3127 54.3709 78.5561 52.6133 76.3871 52.6133C74.2181 52.6133 72.4614 54.3709 72.4614 56.5389C72.4614 58.7069 74.2181 60.4646 76.3871 60.4646Z" fill="#2D6A4F"/>
<path d="M3.92567 78.6848C6.09471 78.6848 7.8513 76.9282 7.8513 74.7591C7.8513 72.5901 6.09471 70.8335 3.92567 70.8335C1.75663 70.8335 0 72.5901 0 74.7591C0 76.9282 1.75663 78.6848 3.92567 78.6848Z" fill="#2D6A4F"/>
</svg>
