<svg width="247" height="247" viewBox="0 0 247 247" fill="none" xmlns="http://www.w3.org/2000/svg">
<path d="M233.823 104.995C219.202 102.919 173.096 96.2164 172.196 96.2164C167.807 95.778 163.856 99.026 163.417 103.415C162.013 117.637 159.204 145.201 159.028 147.485L115.221 170.661L115.134 174.524L198.883 203.845L231.98 172.417L232.013 168.002C232.496 165.051 238.52 130.486 240.759 114.302C241.441 109.372 237.874 105.483 233.823 104.996V104.995Z" fill="#B7D7C8"/>
<path d="M230.137 106.663L174.919 98.7618C170.53 98.3234 166.583 101.571 166.14 105.961L162.102 145.816L228.997 164.691C228.997 164.691 234.001 131.534 236.899 115.881C237.742 111.324 234.45 107.181 230.139 106.663H230.137Z" fill="#FDF6EE"/>
<path d="M218.285 168.291C218.149 168.248 210.643 164.857 161.925 151.523C161.228 151.332 160.521 151.435 159.906 151.699C158.765 152.314 142.429 160.898 141.295 161.444C140.194 161.974 140.293 163.559 141.47 163.989C142.695 164.438 200.376 183.742 201.78 184.268C202.483 184.531 203.361 184.356 203.887 183.83C205.507 182.48 216.272 172.663 218.723 170.661C219.562 169.977 219.329 168.618 218.285 168.291Z" fill="#FDF6EE"/>
<path d="M171.494 178.913C167.461 177.583 160.337 175.165 157.536 174.261C156.744 174.005 155.961 174.092 155.254 174.524C149.458 178.073 149.857 177.483 149.196 178.475C148.933 179.177 149.284 179.969 149.987 180.231C154.022 181.733 161.575 184.357 164.209 185.323C164.824 185.586 165.526 185.498 166.053 185.06C167.369 184.269 169.725 182.664 171.671 181.461C172.523 180.933 172.722 179.319 171.496 178.915L171.494 178.913Z" fill="#FDF6EE"/>
<path d="M232.329 167.591C232.088 167.35 231.697 167.35 231.456 167.591L198.12 199.012L116.758 170.372L159.317 147.855C159.619 147.696 159.733 147.322 159.574 147.021C159.415 146.719 159.043 146.604 158.739 146.764L114.932 169.94C114.457 170.19 114.51 170.889 115.016 171.068L197.753 200.192L197.916 203.612C197.954 204.41 199.188 204.38 199.15 203.554L198.976 199.902L232.328 168.465C232.569 168.224 232.569 167.833 232.328 167.592L232.329 167.591Z" fill="#2C2C2C"/>
<path d="M171.686 178.325C167.599 176.993 160.56 174.646 157.731 173.673C156.76 173.349 155.791 173.46 154.932 173.995C153.534 174.834 151.259 176.238 149.557 177.343C147.993 178.386 148.458 180.369 149.861 180.894C153.369 182.191 164.126 186.001 164.126 186.001C164.928 186.229 165.811 186.106 166.483 185.657C167.888 184.72 170.201 183.329 172.034 182.097C173.586 181.321 173.388 178.891 171.686 178.324V178.325ZM171.415 181.032C169.842 182.081 166.905 183.893 165.797 184.632C165.432 184.876 164.922 184.945 164.503 184.827C164.503 184.827 153.789 181.032 150.292 179.739C149.91 179.596 149.718 179.165 149.871 178.757C149.952 178.515 150.15 178.376 155.578 175.05C155.92 174.84 156.282 174.728 156.652 174.728C157.373 174.728 156.845 174.786 171.3 179.498C171.908 179.701 172.12 180.67 171.417 181.032H171.415Z" fill="#2C2C2C"/>
<path d="M141.195 161.33C139.503 162.176 139.846 164.412 141.438 165.01C142.671 165.449 201.248 185.023 201.739 185.197C202.74 185.55 203.715 185.291 204.459 184.655C205.16 184.071 217.362 173.253 219.337 171.361C220.442 170.302 220.054 168.317 218.46 167.786L162.143 151.121C161.299 150.805 160.398 150.883 159.614 151.331C157.703 152.357 142.379 160.692 141.195 161.33ZM167.894 159.986L161.739 164.186L154.155 161.731L160.867 157.809L167.894 159.986ZM175.436 156.427C175.515 156.372 175.447 156.386 182.631 158.5L178.114 161.978L170.705 159.582L175.436 156.428V156.427ZM195.605 168.768L190.564 173.231L182.43 170.66L187.675 166.277L195.605 168.768ZM208.923 179.034L201.869 176.803L206.925 172.322L214.004 174.545C212.488 175.915 210.72 177.476 208.923 179.034ZM200.497 176.369L191.937 173.665L196.98 169.199L205.551 171.89L200.497 176.369ZM181.032 170.218L172.845 167.631L178.372 163.356L186.273 165.837L181.031 170.218H181.032ZM176.926 162.891L171.371 167.166L163.212 164.644L169.396 160.454L176.926 162.889V162.891ZM165.445 171.797C162.506 170.818 159.584 169.842 156.897 168.925L161.901 165.533L170.139 168.126L165.445 171.797ZM152.548 161.212L147.136 159.517C149.277 158.212 151.666 156.908 153.996 155.666C154.123 155.733 154.184 155.736 159.208 157.294L152.547 161.212H152.548ZM141.763 162.425C142.948 161.787 144.229 161.106 145.756 160.381L151.113 162.056C145.998 165.065 145.908 165.09 145.783 165.211C144.228 164.688 142.94 164.232 141.864 163.848C141.275 163.627 141.05 162.781 141.764 162.424L141.763 162.425ZM147.325 165.72L152.726 162.565L160.439 165.062C155.541 168.352 155.562 168.316 155.466 168.439C155.466 168.439 148.872 166.225 147.325 165.72ZM166.852 172.265L171.609 168.586L179.858 171.181L175.115 175.048C173.731 174.585 168.186 172.711 166.853 172.265H166.852ZM176.497 175.514L181.267 171.624L189.463 174.203L184.851 178.289C183.514 177.835 177.919 175.995 176.496 175.514H176.497ZM186.201 178.742L190.839 174.635L199.424 177.336C194.61 181.7 194.855 181.532 194.732 181.577C193.071 180.997 187.221 179.08 186.202 178.742H186.201ZM203.662 183.709C203.212 184.094 202.658 184.21 202.153 184.031C201.638 183.849 197.629 182.549 196.079 182.036L200.79 177.766L207.854 179.988C205.833 181.828 204.495 183.016 203.664 183.709H203.662ZM218.091 168.962C218.495 169.096 218.68 169.489 218.731 169.619C218.865 170.424 218.521 170.36 215.009 173.62C214.867 173.494 215.412 173.691 208.022 171.35L212.556 167.332C214.103 167.776 218.091 168.962 218.091 168.962ZM211.154 166.923L206.65 170.916L198.1 168.207L202.433 164.371C204.721 165.059 210.419 166.709 211.155 166.924L211.154 166.923ZM201.045 163.949L196.725 167.774L188.846 165.321L193.39 161.643C195.44 162.235 201.045 163.95 201.045 163.95V163.949ZM191.941 161.225L187.428 164.878L179.566 162.43L184.097 158.924C185.473 159.319 190.719 160.87 191.941 161.223V161.225ZM173.952 155.929L169.202 159.095L162.296 156.955L167.313 153.959C169.05 154.491 173.951 155.929 173.951 155.929H173.952ZM161.094 152.163C161.424 152.163 161.175 152.115 165.702 153.474L160.651 156.445L155.52 154.854C156.541 154.316 159.717 152.675 160.214 152.408C160.495 152.247 160.79 152.165 161.094 152.165V152.163Z" fill="#2C2C2C"/>
<path d="M131.726 151.874C131.862 151.874 134.801 153.451 87.9196 128.698L83.5304 84.3653C82.9154 79.9761 78.7905 76.9096 74.4001 77.5172L12.9489 86.2956C8.55971 86.9983 5.56607 91.1256 6.27743 95.5136C11.8707 130.036 15.1435 149.503 15.1435 149.503V153.629L48.2391 185.057L131.989 155.736C131.723 152 131.726 152.146 131.726 151.873V151.874Z" fill="#C8705A"/>
<path d="M105.565 143.006C104.414 142.409 88.0876 133.891 86.9539 133.262C86.3351 132.919 85.6423 132.836 84.9346 133.087L28.6631 149.679C27.4812 150.05 27.249 151.517 28.0481 152.224C29.1176 153.173 41.7492 164.595 42.7964 165.481C43.4152 166.003 44.1957 166.17 44.9033 165.919C46.2112 165.456 103.985 145.991 105.213 145.553C105.564 145.465 105.828 145.202 106.004 144.85C106.53 144.148 106.262 143.368 105.565 143.006Z" fill="#FDF6EE"/>
<path d="M97.1374 159.16L91.6948 155.824C90.9921 155.386 90.2017 155.294 89.4125 155.561C86.5992 156.513 79.488 158.883 75.4545 160.213C74.1145 160.656 74.2393 162.371 75.1915 162.848C77.0353 164.077 79.493 165.57 80.8095 166.446C81.3356 166.797 82.0358 166.879 82.741 166.622C97.7413 161.148 97.1226 161.729 97.6648 160.916C98.0155 160.39 97.7524 159.512 97.1374 159.16Z" fill="#FDF6EE"/>
<path d="M80.8094 86.9104C80.1944 82.5212 76.0695 79.4559 71.6791 80.0623L16.6364 87.9639C12.2472 88.6666 9.25854 92.7927 9.96496 97.1819L17.8664 145.992L84.7614 127.117C84.6404 125.919 80.8107 88.0343 80.8107 86.9104H80.8094Z" fill="#FDF6EE"/>
<path d="M132.015 151.328L88.2084 128.152C87.9058 127.993 87.5329 128.107 87.3736 128.409C87.2142 128.71 87.3291 129.084 87.6304 129.244L130.189 151.759L48.828 180.312L15.4916 148.978C15.2496 148.737 14.8593 148.738 14.6185 148.978C14.3777 149.22 14.3789 149.61 14.6197 149.852L47.9758 181.205L47.798 184.938C47.7585 185.776 48.9935 185.804 49.0318 184.998L49.1985 181.489L131.93 152.454C132.438 152.278 132.489 151.577 132.014 151.325L132.015 151.328Z" fill="#2C2C2C"/>
<path d="M102.293 140.806C102.191 140.48 101.844 140.297 101.521 140.398L94.4504 142.627L87.6714 138.69L92.8523 137.009C93.1771 136.904 93.3537 136.556 93.2487 136.231C93.1437 135.906 92.7967 135.73 92.4707 135.835L86.2413 137.855L80.1614 134.224C79.8687 134.049 79.4896 134.145 79.3142 134.438C79.1388 134.731 79.2352 135.11 79.5279 135.285L84.6593 138.349L77.7359 140.491L72.1981 136.787C71.9141 136.598 71.5312 136.675 71.3423 136.959C71.1533 137.243 71.2299 137.627 71.5139 137.814L76.2353 140.972L68.8204 143.371L63.6309 139.357C63.3617 139.148 62.9727 139.198 62.7652 139.467C62.5565 139.736 62.6059 140.124 62.8751 140.333L67.4026 143.818L59.5357 146.288L54.34 142.001C54.077 141.785 53.688 141.822 53.4706 142.086C53.2545 142.349 53.2915 142.738 53.5558 142.956L58.1302 146.73L50.3362 149.176L45.2233 144.733C44.9651 144.508 44.5749 144.537 44.3526 144.795C44.129 145.052 44.1562 145.442 44.4143 145.665L48.9554 149.61L40.3228 152.321L35.1382 147.638C34.8851 147.409 34.4948 147.43 34.2663 147.682C34.0379 147.935 34.0576 148.326 34.3108 148.554L38.9556 152.749L32.1681 154.881C31.8433 154.983 31.6617 155.33 31.7642 155.655C31.8655 155.975 32.2064 156.163 32.5386 156.059L40.0239 153.709L45.1035 158.187L38.0491 160.411C37.7243 160.514 37.544 160.861 37.6465 161.186C37.7466 161.504 38.0874 161.693 38.4209 161.589L46.1656 159.123L51.4501 163.782C51.7033 164.341 52.6357 164.179 52.6357 163.458C52.6357 163.076 52.8691 163.384 47.5376 158.686L56.09 155.962L61.2647 160.584C61.5203 160.81 61.9093 160.787 62.1366 160.532C62.3626 160.277 62.3391 159.888 62.0847 159.66L57.4572 155.527L65.639 152.921L71.1126 157.436C71.3756 157.655 71.7634 157.619 71.982 157.356C72.2006 157.094 72.1636 156.704 71.9017 156.486L67.0482 152.483L75.3326 149.921L80.6962 154.113C80.9666 154.324 81.3544 154.273 81.5631 154.007C81.7731 153.739 81.7249 153.35 81.4569 153.14L76.7269 149.482L85.015 146.845L90.6478 150.712C90.9269 150.904 91.3122 150.835 91.5061 150.552C91.6988 150.271 91.6284 149.887 91.3468 149.694L86.513 146.376L94.2775 143.951L100.518 147.577C100.811 147.746 101.19 147.65 101.363 147.354C101.534 147.058 101.434 146.681 101.139 146.509L95.8768 143.452L101.889 141.575C102.215 141.474 102.396 141.128 102.296 140.803L102.293 140.806ZM46.4755 157.757L41.3972 153.28L50.041 150.566L55.0613 155.05L46.4768 157.757H46.4755ZM56.4297 154.618L51.4106 150.136L59.264 147.67L64.5732 152.049L56.4297 154.618ZM60.6694 147.229L68.5944 144.74L74.163 149.027L65.9787 151.608L60.6706 147.23L60.6694 147.229ZM70.0011 144.288L77.5407 141.849L83.7516 146.004L75.5586 148.587L70.0011 144.29V144.288ZM85.2607 145.527L79.0549 141.376L86.0869 139.201L92.8547 143.132L85.2607 145.527Z" fill="#2C2C2C"/>
<path d="M127.201 112.591C129.661 98.7318 111.708 102.114 106.356 103.503C104.171 104.069 101.928 104.73 99.8213 105.607C98.8555 109.03 96.6992 115.969 95.1184 119.567C101.811 122.925 107.892 123.198 111.711 128.084C113.642 130.542 115.309 133.176 117.592 135.369C118.119 135.984 119.348 137.213 120.314 136.775C122.269 135.855 119.348 129.969 119.348 129.488C121.187 132.509 122.259 134.295 124.791 136.687C125.229 137.038 126.019 137.74 126.634 137.477C127.162 137.214 127.162 136.336 127.162 135.809C127.162 134.14 126.811 132.561 126.196 131.069C126.08 130.719 125.879 129.862 125.704 129.17C126.001 129.552 126.344 130.106 126.459 130.279C127.512 131.683 128.68 132.977 129.795 134.317C131.772 136.692 132.712 135.911 132.252 133.614C131.902 131.595 131.374 129.664 130.584 127.821C130.584 127.733 129.618 125.626 129.706 125.626C129.881 125.539 131.11 127.383 131.198 127.47C132.163 129.051 133.305 130.631 134.533 132.124C135.675 133.265 136.377 132.739 136.377 131.246C136.486 124.328 131.519 117.635 127.199 112.592L127.201 112.591Z" fill="#B7D7C8"/>
<path d="M99.6446 102.939C100.139 103.056 100.431 103.564 100.288 104.046C99.4309 106.933 97.0857 115.141 95.332 119.134C95.0689 120.012 94.5045 120.796 93.8895 121.411C80.3699 129.927 41.9194 125.275 41.9194 125.275C41.9194 125.275 43.2471 84.6071 44.7291 85.3308C62.5909 94.0573 93.9055 101.597 99.6446 102.939Z" fill="#2D6A4F"/>
<path d="M127.964 112.534C128.626 108.946 127.904 106.016 125.823 104.102C120.995 99.6593 110.158 101.486 106.386 102.464C104.22 103.026 102.082 103.685 99.8842 104.601C99.5693 104.731 99.4211 105.093 99.552 105.408C99.6829 105.723 100.044 105.873 100.36 105.742C102.496 104.851 104.572 104.21 106.696 103.659C110.062 102.786 120.595 100.971 124.987 105.011C126.566 106.464 127.201 108.57 126.881 111.279C126.196 110.509 125.404 109.69 124.488 108.914C124.227 108.693 123.838 108.727 123.617 108.987C123.397 109.247 123.429 109.637 123.69 109.858C125.443 111.341 128.473 114.991 129.139 115.921C131.163 118.424 135.86 124.927 135.761 131.246C135.761 131.853 135.628 132.098 135.612 132.124C135.612 132.124 135.402 132.118 135.011 131.731C131.346 127.28 130.558 124.509 129.43 125.074C129.333 125.124 129.248 125.197 129.187 125.289C128.975 125.612 129.015 125.705 129.688 127.266C131.308 131.028 131.977 134.68 131.694 135.141C131.561 135.147 131.041 134.847 130.261 133.912C129.172 132.604 127.993 131.295 126.973 129.935C126.758 129.604 126.061 128.383 125.514 128.2C125.266 128.117 124.924 128.2 124.763 128.408C124.463 128.794 124.718 129.191 124.923 129.508C125.137 129.841 125.002 129.571 125.352 130.533C125.976 132.25 126.544 133.611 126.544 135.808C126.544 136.698 126.428 136.888 126.391 136.908C126.24 136.974 125.874 136.757 125.284 136.291C123.313 134.728 121.171 131.293 119.876 129.166C119.553 128.635 118.732 128.866 118.732 129.487C118.732 129.592 118.732 129.701 119.039 130.418C119.44 131.421 121.042 135.75 120.059 136.212C118.698 136.836 113.574 129.454 112.198 127.702C108.283 122.693 102.132 122.34 95.5691 119.101C95.2641 118.951 94.8936 119.076 94.7417 119.382C94.591 119.689 94.717 120.058 95.022 120.208C101.539 123.423 107.597 123.822 111.226 128.464C113.135 130.892 114.857 133.596 117.125 135.772C117.846 136.614 119.254 137.933 120.578 137.333C121.741 136.786 121.736 135.294 121.432 133.859C122.53 135.332 124.009 136.848 124.508 137.251C125.233 137.838 126.051 138.401 126.912 138.03C127.78 137.596 127.78 136.434 127.78 135.809C127.78 134.639 127.614 133.467 127.288 132.324C127.961 133.141 128.662 133.921 129.314 134.702C130.423 136.034 131.34 136.591 132.12 136.299C132.923 135.998 133.172 135.054 132.864 133.508C132.63 132.168 132.333 130.925 131.962 129.754C132.613 130.684 133.326 131.619 134.101 132.558C135.557 134.016 136.998 133.411 136.998 131.253C137.106 124.363 132.418 117.743 127.967 112.534H127.964Z" fill="#2C2C2C"/>
<path d="M119.085 124.484C120.659 122.986 123.036 123.518 122.07 126.679C121.192 129.049 119.875 131.331 118.294 133.35C117.767 134.141 116.724 135.528 115.749 135.019C114.88 134.564 114.966 133.001 115.134 132.121C115.686 129.229 116.971 126.495 119.085 124.484Z" fill="#FDF6EE"/>
<path d="M114.871 122.377C116.446 120.879 118.822 121.412 117.856 124.572C116.978 126.942 115.661 129.224 114.081 131.243C112.044 134.297 110.479 133.028 111.008 130.014C111.514 127.128 112.757 124.388 114.871 122.377Z" fill="#FDF6EE"/>
<path d="M110.833 119.831C112.402 118.414 114.783 119.04 113.73 122.201C112.764 124.57 111.454 126.771 109.779 128.697C109.167 129.4 108.208 130.786 107.234 130.277C106.364 129.823 106.541 128.261 106.706 127.38C107.267 124.401 108.711 121.746 110.833 119.831Z" fill="#FDF6EE"/>
<path d="M106.706 117.285C108.361 116.039 110.745 117.022 109.428 120.007C108.287 122.202 106.794 124.221 105.039 125.977C104.424 126.68 103.29 127.811 102.405 127.206C100.96 126.219 102.4 120.528 106.706 117.287V117.285Z" fill="#FDF6EE"/>
<path d="M101.964 127.711C100.794 126.932 101.192 124.947 101.361 124.099C102.264 120.981 104.268 118.243 106.359 116.775C108.659 115.161 111.512 116.845 109.9 120.269C108.646 122.682 107.146 124.643 105.293 126.508C104.328 127.48 103.121 128.52 101.965 127.71L101.964 127.711ZM107.069 117.786C102.7 121.156 101.863 126.159 102.66 126.691C102.883 126.847 103.289 126.77 104.515 125.539C105.896 124.154 110.327 118.882 108.864 117.637C108.465 117.299 107.697 117.363 107.069 117.786Z" fill="#2C2C2C"/>
<path d="M106.85 130.732C105.523 129.995 105.92 127.637 106.014 127.171C106.686 124.099 108.193 121.386 110.419 119.372C112.553 117.442 115.653 118.753 114.215 122.343C113.014 125.292 111.622 127.267 109.916 129.301C109.058 130.323 108.043 131.383 106.85 130.732ZM111.246 120.289C109.21 122.128 107.837 124.614 107.222 127.425C107.018 128.445 107.119 129.469 107.445 129.65C107.821 129.854 108.392 129.177 109.226 128.203C110.808 126.351 112.111 124.232 113.069 121.88C113.46 120.905 113.453 120.152 113.052 119.87C112.685 119.613 111.905 119.694 111.246 120.289Z" fill="#2C2C2C"/>
<path d="M111.28 133.561C110.148 132.935 110.185 131.253 110.306 130.041C110.778 126.828 112.333 123.957 114.447 121.928C116.562 119.899 119.576 121.086 118.356 124.85C117.301 127.698 116.022 129.638 114.394 131.826C113.583 132.918 112.537 134.132 111.28 133.561ZM115.302 122.82C111.273 126.723 111.068 132.033 111.835 132.459C112.143 132.596 112.638 132.088 113.499 130.959C115.064 128.912 116.36 126.68 117.189 124.443C117.526 123.401 117.478 122.574 117.054 122.306C116.704 122.085 115.961 122.179 115.301 122.818L115.302 122.82Z" fill="#2C2C2C"/>
<path d="M115.493 135.668C114.363 135.042 114.399 133.36 114.52 132.147C114.992 128.935 116.548 126.065 118.661 124.035C120.761 122.018 123.779 123.181 122.663 126.942C121.722 129.581 120.162 132.167 118.511 134.142C117.689 135.124 116.679 136.207 115.495 135.668H115.493ZM119.516 124.926C115.482 128.836 115.285 134.14 116.049 134.566C116.4 134.721 117.034 134.011 117.83 133.03C119.529 130.94 120.694 128.782 121.488 126.558C121.801 125.502 121.729 124.689 121.283 124.415C120.915 124.189 120.179 124.282 119.515 124.926H119.516Z" fill="#2C2C2C"/>
<path d="M113.817 86.2992C113.528 86.2992 113.27 86.0954 113.212 85.8015C111.403 76.6415 107.768 60.815 105.174 54.7598C105.039 54.4461 105.185 54.083 105.497 53.9496C105.811 53.815 106.174 53.9607 106.307 54.2732C108.94 60.4161 112.602 76.35 114.423 85.5619C114.498 85.9435 114.206 86.2992 113.816 86.2992H113.817Z" fill="#C8705A"/>
<path d="M124.441 79.5396C124.075 79.5396 123.79 79.2247 123.826 78.8616C124.315 73.8561 126.685 48.6177 125.249 43.3541C125.158 43.0256 125.352 42.686 125.682 42.5958C126.011 42.5057 126.35 42.6996 126.44 43.0293C127.895 48.3645 125.747 71.8962 125.055 78.9814C125.024 79.3 124.755 79.5384 124.441 79.5384V79.5396Z" fill="#C8705A"/>
<path d="M131.199 89.5466C130.734 89.5466 130.432 89.0464 130.657 88.6339C139.48 72.4257 140.685 67.7673 142.08 62.3728L142.453 60.9427C142.541 60.613 142.877 60.4166 143.208 60.5043C143.538 60.592 143.734 60.9291 143.646 61.2589C141.252 70.3756 139.608 74.771 131.741 89.2255C131.629 89.4317 131.417 89.5478 131.198 89.5478L131.199 89.5466Z" fill="#C8705A"/>
<path d="M141.559 111.668C140.155 109.913 137.608 108.771 136.379 108.069C131.639 105.699 125.054 104.294 120.402 107.542C118.821 108.508 117.904 110.179 117.768 112.019C117.702 112.898 118.206 113.774 118.997 114.213C120.401 114.652 121.882 112.872 122.947 112.37C124.044 111.852 125.294 111.645 126.51 111.761C126.87 112.165 127.607 113.007 128.364 113.927C135.297 122.363 135.468 125.993 136.371 129.253C137.223 129.548 139.774 129.65 141.754 129.332L141.559 111.666V111.668Z" fill="#FDF6EE"/>
<path d="M201.002 110.757C200.863 110.602 200.576 110.498 200.369 110.53C179.009 113.902 142.25 110.473 141.882 110.437C141.709 110.423 141.541 110.477 141.412 110.592C140.191 109.409 138.569 108.543 137.437 107.939C132.072 105.075 125.086 103.519 120.083 107.014C115.397 109.877 116.573 117.864 122.282 113.567C122.633 113.303 122.963 113.047 123.202 112.933C124.168 112.478 125.219 112.307 126.212 112.359C126.443 112.616 127.07 113.32 127.891 114.319C133.845 121.564 134.733 125.197 135.448 128.117C135.557 128.562 135.663 128.993 135.781 129.418C135.835 129.613 135.982 129.77 136.173 129.837C137.423 130.269 140.248 130.183 141.735 129.962C141.795 130.199 141.999 130.767 142.143 130.937C152.438 143.257 189.225 150.342 190.785 150.637C191.083 150.697 191.404 150.517 191.494 150.2C198.671 124.995 201.872 111.724 201.007 110.756L201.002 110.757ZM136.875 128.748C135.514 123.541 134.678 120.397 128.154 112.714C128.771 112.596 128.837 111.742 128.253 111.528C126.54 110.897 124.496 110.957 122.672 111.818C122.306 111.991 121.934 112.283 121.537 112.581C117.251 115.81 117.65 109.95 120.757 108.048C126.258 104.209 133.895 107.515 136.075 108.605C137.347 109.332 139.928 110.498 141.191 112.201C141.105 115.474 140.987 124.723 141.554 128.742C139.843 129 137.796 128.931 136.877 128.749L136.875 128.748Z" fill="#2C2C2C"/>
</svg>
