<svg width="477" height="477" viewBox="0 0 477 477" fill="none" xmlns="http://www.w3.org/2000/svg">
<path d="M226.265 170.242C226.029 170.242 225.797 170.178 225.596 170.056C225.394 169.934 225.229 169.759 225.12 169.55C222.735 164.112 219.682 160.725 216.51 159.581C215.842 162.991 214.125 166.378 211.979 167.284C206.994 169.669 205.635 164.899 205.873 162.991C206.31 161.368 207.227 159.914 208.503 158.821C209.78 157.727 211.357 157.044 213.028 156.862H214.388V155.288C214.163 153.336 213.362 151.496 212.088 150.001C210.814 148.506 209.124 147.424 207.233 146.892C207.08 146.84 206.939 146.756 206.82 146.647C206.702 146.538 206.607 146.405 206.542 146.257C206.477 146.109 206.443 145.949 206.443 145.788C206.443 145.626 206.476 145.466 206.541 145.318C206.596 145.165 206.682 145.024 206.794 144.905C206.905 144.786 207.04 144.691 207.19 144.626C207.34 144.561 207.501 144.528 207.664 144.528C207.828 144.528 207.989 144.562 208.139 144.627C214.698 147.012 216.51 151.782 216.749 154.834V156.862C219.921 157.768 223.761 160.725 227.171 168.19C227.236 168.34 227.27 168.502 227.27 168.665C227.27 168.828 227.237 168.99 227.172 169.139C227.107 169.289 227.012 169.424 226.893 169.536C226.774 169.647 226.633 169.733 226.479 169.788C226.575 170.242 226.575 170.242 226.265 170.242ZM213.362 159.127C212.156 159.232 211.011 159.701 210.078 160.472C209.145 161.243 208.468 162.28 208.139 163.444C207.924 164.565 208.83 166.616 210.524 165.472C212.416 163.828 213.694 161.592 214.149 159.127H213.362Z" fill="#C8705A"/>
<path d="M287.44 139.88H287.226C286.534 139.642 286.081 139.189 286.295 138.521C287.251 131.92 287.483 125.234 286.987 118.582C286.987 118.266 287.113 117.963 287.336 117.739C287.56 117.515 287.863 117.39 288.18 117.39C288.496 117.39 288.799 117.515 289.023 117.739C289.246 117.963 289.372 118.266 289.372 118.582C289.868 125.456 289.636 132.363 288.68 139.189C288.585 139.427 288.132 139.88 287.44 139.88Z" fill="#C8705A"/>
<path d="M281.096 135.945C280.643 135.945 279.975 135.492 279.975 135.039C279.029 129.994 277.819 125.003 276.35 120.085C276.111 119.417 276.565 118.726 277.018 118.726C277.471 118.726 278.377 118.964 278.377 119.417C279.947 124.461 281.159 129.61 282.002 134.824C282.456 135.277 282.002 135.731 281.096 135.945Z" fill="#C8705A"/>
<path d="M332.088 217.369C331.771 217.369 331.468 217.243 331.244 217.019C331.021 216.796 330.895 216.493 330.895 216.176C330.895 215.86 331.021 215.557 331.244 215.333C331.468 215.109 331.771 214.984 332.088 214.984C339.729 214.389 347.15 212.143 353.839 208.401C354.292 208.187 355.198 208.187 355.413 208.854C355.627 209.522 355.651 210.214 354.96 210.452C347.935 214.389 340.122 216.711 332.088 217.249V217.369Z" fill="#C8705A"/>
<path d="M331.157 212.265C330.927 212.269 330.7 212.208 330.502 212.09C330.304 211.972 330.143 211.802 330.036 211.597C329.916 211.319 329.895 211.009 329.978 210.717C330.06 210.426 330.241 210.172 330.489 209.999C335.88 207.597 340.676 204.039 344.537 199.577C344.624 199.456 344.735 199.355 344.862 199.278C344.989 199.202 345.131 199.152 345.278 199.132C345.425 199.112 345.575 199.122 345.718 199.162C345.861 199.201 345.995 199.269 346.111 199.362C346.564 199.815 346.803 200.483 346.35 200.936C342.302 205.678 337.23 209.438 331.515 211.931C331.634 212.265 331.515 212.265 331.157 212.265Z" fill="#C8705A"/>
<path d="M354.292 310.265C346.603 305.74 339.961 299.635 334.806 292.353C334.714 292.237 334.645 292.104 334.606 291.96C334.566 291.817 334.556 291.668 334.576 291.52C334.597 291.373 334.646 291.232 334.723 291.104C334.799 290.977 334.901 290.866 335.021 290.779C335.139 290.686 335.275 290.617 335.42 290.578C335.565 290.538 335.716 290.528 335.866 290.548C336.015 290.568 336.158 290.617 336.288 290.694C336.417 290.771 336.53 290.873 336.619 290.994C341.911 297.551 348.083 303.345 354.96 308.214C355.195 308.397 355.366 308.651 355.447 308.939C355.529 309.226 355.517 309.532 355.413 309.812C355.198 310.265 354.745 310.265 354.292 310.265Z" fill="#C8705A"/>
<path d="M359.944 300.295C353.784 298.19 348.107 294.873 343.249 290.54C343.141 290.44 343.054 290.318 342.995 290.182C342.936 290.047 342.906 289.901 342.906 289.753C342.906 289.605 342.936 289.459 342.995 289.324C343.054 289.188 343.141 289.067 343.249 288.966C343.353 288.86 343.478 288.776 343.615 288.718C343.752 288.661 343.899 288.631 344.048 288.631C344.197 288.631 344.344 288.661 344.481 288.718C344.618 288.776 344.743 288.86 344.847 288.966C349.43 292.896 354.637 296.032 360.254 298.244C360.393 298.28 360.523 298.346 360.634 298.437C360.745 298.528 360.835 298.642 360.899 298.771C360.962 298.9 360.997 299.041 361.001 299.184C361.005 299.328 360.978 299.471 360.922 299.603C360.85 300.056 360.612 300.295 359.944 300.295Z" fill="#C8705A"/>
<path d="M305.28 340.84C305.127 340.788 304.987 340.704 304.868 340.595C304.749 340.486 304.654 340.353 304.589 340.205C304.524 340.057 304.49 339.897 304.49 339.736C304.49 339.574 304.523 339.414 304.588 339.266C306.973 333.137 309.811 326.578 310.479 323.859C309.573 324.074 299.604 325.672 298.697 324.98C298.56 324.871 298.448 324.734 298.37 324.577C298.291 324.421 298.249 324.249 298.244 324.074C298.244 323.621 298.03 322.5 309.12 306.639C309.573 306.186 310.265 305.948 310.718 306.401C310.839 306.49 310.941 306.603 311.018 306.732C311.094 306.862 311.144 307.005 311.164 307.154C311.184 307.303 311.174 307.455 311.134 307.6C311.094 307.745 311.026 307.881 310.932 307.999C306.854 313.89 302.323 320.449 300.963 323.167C302.561 322.953 312.077 321.355 312.745 322.046C313.413 322.738 313.198 322.953 306.639 340.387C306.472 341.055 305.28 340.84 305.28 340.84Z" fill="#C8705A"/>
<path d="M57.0014 298.697C56.7867 298.697 14.0714 277.852 13.7375 277.852C13.5846 277.8 13.4443 277.716 13.3254 277.607C13.2064 277.498 13.1115 277.365 13.0465 277.217C12.9815 277.069 12.9479 276.909 12.9478 276.748C12.9476 276.586 12.981 276.426 13.0458 276.278C13.1008 276.125 13.1868 275.984 13.2985 275.865C13.4101 275.746 13.545 275.651 13.6948 275.586C13.8446 275.521 14.0061 275.488 14.1694 275.488C14.3326 275.488 14.4941 275.522 14.6438 275.587C14.8584 275.825 40.2348 287.154 57.5738 296.431C57.8221 296.605 58.0029 296.858 58.0855 297.15C58.1681 297.441 58.1474 297.752 58.0269 298.029C57.9077 298.483 57.4784 298.697 57.0014 298.697Z" fill="#C8705A"/>
<path d="M46.3644 304.588C46.1259 304.588 26.8789 297.791 12.8313 294.404C12.515 294.344 12.2355 294.161 12.0544 293.894C11.8733 293.628 11.8052 293.301 11.8653 292.985C11.9254 292.669 12.1087 292.389 12.3748 292.208C12.6409 292.027 12.9681 291.959 13.2844 292.019C24.6261 294.676 35.7802 298.078 46.6744 302.203C46.8281 302.258 46.9688 302.344 47.0879 302.456C47.207 302.567 47.3019 302.702 47.3667 302.852C47.4316 303.002 47.465 303.163 47.4649 303.326C47.4647 303.49 47.4311 303.651 47.3661 303.801C47.2707 304.373 46.8175 304.588 46.3644 304.588Z" fill="#C8705A"/>
<path d="M33.9147 342.891C33.6789 342.892 33.4474 342.828 33.2455 342.706C33.0436 342.584 32.8791 342.409 32.7699 342.2C32.7013 342.052 32.6649 341.892 32.6632 341.729C32.6614 341.566 32.6944 341.405 32.7598 341.256C32.8252 341.107 32.9217 340.974 33.0427 340.865C33.1637 340.756 33.3065 340.675 33.4616 340.626C39.3666 338.116 45.5118 336.214 51.8022 334.949C52.0994 334.915 52.3991 334.987 52.6481 335.153C52.897 335.319 53.079 335.568 53.1617 335.856C53.2063 336.154 53.1383 336.459 52.9708 336.71C52.8033 336.961 52.5483 337.141 52.2554 337.215C46.0233 338.7 39.8964 340.597 33.9147 342.891Z" fill="#C8705A"/>
<path d="M40.7119 354.22C40.5369 354.216 40.3649 354.173 40.2083 354.095C40.0516 354.016 39.9142 353.904 39.8056 353.767C39.7123 353.649 39.6437 353.513 39.6039 353.368C39.5641 353.223 39.5539 353.072 39.5739 352.922C39.594 352.773 39.6438 352.63 39.7205 352.5C39.7972 352.371 39.8991 352.258 40.0203 352.169C44.9626 348.562 50.1958 345.371 55.6659 342.629C55.9379 342.48 56.2578 342.446 56.5552 342.533C56.8527 342.62 57.1033 342.822 57.2519 343.094C57.4006 343.366 57.4351 343.686 57.3479 343.983C57.2606 344.281 57.0588 344.531 56.7868 344.68C51.2437 347.538 45.8758 350.723 40.7119 354.22Z" fill="#C8705A"/>
<path d="M218.323 217.584C199.529 222.354 119.56 242.745 100.289 252.023C78.2995 262.684 62.1292 288.728 70.3813 324.074C73.768 338.575 83.9758 349.689 96.2109 356.939C92.6861 347.917 91.9711 338.041 94.1598 328.605C100.504 301.202 129.505 283.982 158.555 290.445C178.732 293.164 191.635 312.196 191.635 312.196C196.473 319.06 199.47 327.05 200.34 335.403C217.035 324.527 235.447 311.553 256.984 298.483C223.546 274.013 218.8 242.507 218.323 217.584ZM99.6214 270.841C87.8395 279.45 84.6675 295.072 84.6675 295.072C84.5685 295.618 84.2687 296.106 83.8272 296.442C83.3858 296.777 82.8346 296.935 82.2825 296.885C81.9492 296.871 81.6225 296.788 81.3233 296.641C81.0242 296.493 80.7593 296.285 80.5458 296.029C80.3323 295.772 80.1748 295.474 80.0837 295.153C79.9926 294.832 79.9698 294.496 80.0167 294.166C80.2314 293.498 83.4034 276.732 96.7117 266.977C97.2023 266.645 97.7989 266.508 98.3852 266.591C98.9715 266.675 99.5057 266.974 99.8838 267.43C100.095 267.669 100.256 267.948 100.357 268.251C100.458 268.553 100.498 268.873 100.473 269.191C100.449 269.509 100.361 269.819 100.214 270.102C100.068 270.385 99.8665 270.637 99.6214 270.841ZM190.919 235.948C170.074 241.839 141.741 252.476 141.526 252.476C141.051 252.508 140.581 252.366 140.203 252.076C139.826 251.787 139.567 251.369 139.475 250.902C139.285 250.329 139.319 249.704 139.572 249.155C139.824 248.606 140.275 248.174 140.834 247.945C141.073 247.945 168.715 237.307 189.798 231.417C190.079 231.331 190.374 231.304 190.665 231.338C190.956 231.371 191.237 231.465 191.491 231.613C191.744 231.761 191.964 231.96 192.136 232.197C192.309 232.434 192.43 232.704 192.493 232.991C192.627 233.59 192.541 234.218 192.253 234.76C191.964 235.303 191.491 235.724 190.919 235.948ZM281.549 286.916C281.335 285.795 281.096 284.53 280.643 282.622C278.258 282.837 275.873 282.837 273.154 283.076C264.274 280.435 256.284 275.422 250.043 268.575C243.87 262.231 239.562 254.309 237.594 245.679C235.274 236.431 234.66 226.837 235.781 217.369C235.781 217.369 238.166 212.599 242.936 205.444C242.545 205.001 242.086 204.623 241.577 204.323C241.004 203.8 240.301 203.44 239.542 203.281C238.783 203.121 237.995 203.168 237.26 203.417C233.204 204.569 229.261 206.086 225.478 207.948C224.822 208.321 224.264 208.844 223.849 209.474C223.435 210.104 223.175 210.824 223.093 211.573C223.093 211.573 221.733 234.231 228.984 254.503C239.621 283.29 266.142 299.151 266.142 299.151C266.971 299.688 267.954 299.935 268.938 299.853C269.923 299.771 270.852 299.364 271.58 298.697L279.951 291.542C280.657 291.026 281.189 290.306 281.474 289.479C281.76 288.652 281.786 287.758 281.549 286.916Z" fill="#2D6A4F"/>
<path d="M338.67 87.5293C338.67 87.5293 367.671 106.347 377.188 117.676C377.188 117.676 347.28 163.897 334.377 174.081C334.377 174.081 310.813 160.272 305.375 150.756C305.28 150.756 318.254 111.785 338.67 87.5293Z" fill="#FDF6EE"/>
<path d="M348.615 237.069C348.615 237.069 376.496 227.529 401.419 228.244C401.419 228.244 402.326 247.324 401.419 267.43C401.419 267.43 359.944 271.961 349.76 272.2C348.017 260.574 347.633 248.784 348.615 237.069Z" fill="#FDF6EE"/>
<path d="M377.617 115.863C365.809 105.477 353.402 95.7934 340.459 86.8612C339.928 86.5381 339.302 86.4069 338.685 86.4894C338.069 86.5718 337.5 86.863 337.072 87.3144C323.42 106.503 312.444 127.461 304.445 149.611C304.289 149.997 304.227 150.414 304.265 150.829C304.302 151.244 304.438 151.644 304.66 151.996C309.645 159.151 332.302 173.985 332.994 174.653C333.452 174.953 334.006 175.073 334.548 174.99C335.089 174.906 335.581 174.625 335.927 174.2C352.026 157.505 373.539 125.498 377.856 119.345C378.079 119.106 378.252 118.823 378.361 118.515C378.471 118.206 378.516 117.879 378.494 117.552C378.472 117.225 378.382 116.907 378.231 116.616C378.081 116.326 377.871 116.069 377.617 115.863ZM369.46 112.095C360.659 115.166 352.036 118.725 343.631 122.755C341.761 111.659 340.55 100.462 340.006 89.2224C344.084 92.0605 354.745 99.7641 369.46 112.095ZM337.74 90.3433C338.473 105.704 340.597 120.967 344.084 135.945C344.084 135.945 317.587 147.059 307.164 149.086C314.524 128.127 324.818 108.317 337.74 90.2479V90.3433ZM307.379 151.662C314.746 149.647 322.006 147.259 329.13 144.507C328.892 149.491 328.892 156.432 328.892 160.367C328.811 163.358 328.891 166.352 329.13 169.335C322.571 165.018 312.149 157.767 307.379 151.662ZM376.019 117.89C350.667 156.05 334.353 172.507 334.353 172.507C333.662 172.053 332.755 171.6 331.396 170.694C331.157 167.737 330.943 151.876 331.396 143.505C336.381 141.692 344.752 138.52 344.752 138.52C345.322 138.292 345.795 137.872 346.087 137.331C346.379 136.791 346.472 136.165 346.35 135.563C345.444 132.176 344.752 128.551 344.084 125.14C352.987 120.827 362.138 117.044 371.488 113.812C373.108 115.044 374.624 116.408 376.019 117.89C376.258 117.675 376.019 117.675 376.019 117.89Z" fill="#2C2C2C"/>
<path d="M402.54 229.366C402.541 229.042 402.475 228.722 402.348 228.424C402.221 228.127 402.034 227.859 401.8 227.635C401.566 227.412 401.289 227.239 400.985 227.127C400.682 227.014 400.359 226.964 400.036 226.981C382.686 227.955 365.505 230.916 348.83 235.805C348.334 235.992 347.901 236.314 347.58 236.736C347.259 237.158 347.064 237.662 347.017 238.19C346.422 249.218 346.653 260.276 347.709 271.27C347.74 271.882 348.004 272.458 348.448 272.88C348.892 273.302 349.482 273.536 350.094 273.536C363.235 273.083 394.05 269.696 400.179 269.004C400.753 268.882 401.277 268.588 401.681 268.163C402.086 267.737 402.352 267.199 402.445 266.619C403.065 252.476 402.54 234.589 402.54 229.366ZM349.283 239.335C350.881 240.241 356.772 243.866 362.878 247.277C358.029 252.131 353.564 257.354 349.522 262.899C348.974 255.056 348.894 247.187 349.283 239.335ZM350.666 237.522C366.204 233.064 382.168 230.258 398.295 229.151C394.193 233.229 381.051 247.73 376.997 252.476C376.949 252.476 354.292 239.788 350.595 237.522H350.666ZM400.274 230.51C400.274 235.495 400.513 246.824 400.513 257.699C397.341 254.98 390.758 249.304 386.012 245.917C392.571 238.882 398.295 232.538 400.274 230.51ZM400.274 266.524C400.274 266.524 363.331 270.602 350.189 271.055C349.806 269.577 349.653 268.049 349.736 266.524C350.643 265.403 359.276 253.382 364.929 248.636C368.449 250.787 372.08 252.753 375.804 254.527C376.307 254.714 376.854 254.748 377.376 254.625C377.898 254.502 378.372 254.227 378.738 253.836C380.551 251.451 382.602 249.543 384.653 247.277C390.305 251.355 398.677 258.82 400.513 260.418C400.319 262.447 400.239 264.486 400.274 266.524Z" fill="#2C2C2C"/>
<path d="M277.924 209.426C285.713 224.181 292.603 239.393 298.554 254.98C298.554 254.98 267.263 271.508 259.345 274.918C254.114 271.587 249.689 267.135 246.389 261.885C243.089 256.634 240.997 250.715 240.265 244.557C251.941 231.941 264.528 220.199 277.924 209.426Z" fill="#FDF6EE"/>
<path d="M390.544 177.253L362.663 174.105C362.21 174.105 361.757 174.558 361.995 175.011C366.123 187.925 371.507 200.403 378.07 212.265C378.309 212.718 379.215 212.718 379.215 212.05C382.349 200.532 386.286 189.247 390.997 178.279C391.14 177.706 390.997 177.253 390.544 177.253Z" fill="#2C2C2C"/>
<path d="M407.072 174.987L438.84 121.062C438.894 120.935 438.908 120.795 438.882 120.66C438.855 120.525 438.789 120.401 438.692 120.304C438.595 120.206 438.471 120.14 438.336 120.114C438.2 120.088 438.061 120.102 437.934 120.156C424.792 126.738 381.052 149.849 361.614 171.815L403.971 176.585C404.576 176.573 405.17 176.423 405.707 176.146C406.245 175.869 406.711 175.472 407.072 174.987Z" fill="#2C2C2C"/>
<path d="M461.903 180.878C451.027 176.108 426.342 165.471 417.279 163.206C417.041 163.206 416.588 163.206 416.588 163.444L409.123 176.132C408.654 177.083 407.896 177.861 406.958 178.354C406.019 178.847 404.948 179.029 403.9 178.875L394.36 177.73C394.121 177.73 393.906 177.73 393.692 178.183C388.705 189.608 384.661 201.421 381.6 213.505C381.361 213.958 381.815 214.412 382.506 214.412C410.081 206.127 436.847 195.359 462.475 182.238C462.356 181.785 462.356 181.117 461.903 180.878Z" fill="#2C2C2C"/>
<path d="M465.075 179.304C459.824 158.956 452.462 139.213 443.109 120.394C443.055 120.289 442.973 120.201 442.872 120.14C442.771 120.078 442.655 120.045 442.537 120.045C442.419 120.045 442.303 120.078 442.202 120.14C442.101 120.201 442.019 120.289 441.964 120.394L418.401 160.272C418.186 160.725 418.401 161.178 418.854 161.178C429.729 164.111 456.251 175.893 465.075 179.757V179.304Z" fill="#2C2C2C"/>
<path d="M315.536 235.042L296.05 248.636C294.476 244.558 292.663 240.241 290.827 236.163C301.249 235.042 310.551 234.35 315.082 234.135C315.774 234.135 315.989 234.803 315.536 235.042Z" fill="#2C2C2C"/>
<path d="M320.973 200.817C310.312 199.696 285.842 197.192 277.232 197.883C277.114 197.889 277.002 197.939 276.918 198.022C276.835 198.106 276.785 198.218 276.779 198.336L274.752 210.571C273.393 211.692 269.1 215.341 269.529 215.103L262.374 216.677C262.256 216.683 262.144 216.732 262.06 216.816C261.976 216.9 261.927 217.012 261.921 217.13C261.945 218.795 261.866 220.46 261.682 222.115C261.067 222.784 260.388 223.391 259.655 223.927V218.036C259.643 217.859 259.566 217.692 259.438 217.569C259.31 217.446 259.141 217.374 258.963 217.369L238.118 223.26V220.875L270.292 212.479C270.844 212.353 271.341 212.054 271.71 211.625C272.079 211.195 272.301 210.659 272.343 210.094L282.313 152.544C282.313 151.877 281.621 151.423 281.168 151.877C263.999 172.12 248.824 193.972 235.853 217.13C235.853 217.345 234.279 233.205 237.451 245.225C239.564 253.793 243.852 261.671 249.9 268.098C256.215 274.855 264.18 279.852 273.011 282.598C289.563 281.931 297.028 280.213 317.873 278.52C318.326 278.52 318.326 278.067 318.111 277.852C313.127 273.321 302.919 264.258 295.669 258.581C296.122 258.367 296.36 258.128 296.813 257.914C304.732 264.258 316.06 274.227 320.377 278.067V277.852C321.353 263.781 320.745 249.645 318.565 235.709C318.565 235.256 318.111 235.256 317.658 235.471L298.173 249.065C297.773 248.438 297.467 247.755 297.266 247.038C296.122 244.319 293.403 238.643 290.469 232.537C301.292 222.765 311.578 212.415 321.283 201.532C321.975 201.508 321.427 200.817 320.973 200.817ZM278.043 212.145C281.43 218.728 291.399 238.667 297.505 253.382C290.708 251.57 270.554 246.585 264.449 245.225C270.006 231.631 275.897 217.583 278.163 212.265L278.043 212.145ZM239.883 244.558C241.934 242.507 254.384 230.248 275.658 212.384C269.982 225.525 252.071 267.668 252.071 267.668C245.897 261.304 241.726 253.269 240.074 244.558H239.883ZM253.478 269.242C253.478 269.242 259.607 255.648 263.233 247.491C268.67 248.636 288.609 253.621 296.098 255.648C288.943 259.273 269.863 269.696 259.154 274.012C257.148 272.639 255.307 271.039 253.669 269.242H253.478Z" fill="#2C2C2C"/>
<path d="M278.162 195.57C288.346 195.117 314.629 197.955 323.477 198.742C323.477 198.503 323.477 198.503 323.239 198.289C312.328 181.289 299.727 165.435 285.628 150.97C285.174 150.517 284.721 150.756 284.721 151.209L277.566 194.711C277.471 195.164 277.709 195.57 278.162 195.57Z" fill="#2C2C2C"/>
<path d="M187.962 315.249C187.962 315.249 176.204 297.338 157.839 294.619C151.59 293.097 145.101 292.834 138.749 293.846C132.398 294.858 126.311 297.125 120.845 300.514C115.379 303.904 110.642 308.348 106.912 313.587C103.182 318.827 100.532 324.757 99.1178 331.031C97.7036 337.305 97.5531 343.798 98.6751 350.132C99.7971 356.465 102.169 362.511 105.653 367.918C109.136 373.324 113.662 377.983 118.965 381.622C124.268 385.261 130.243 387.808 136.541 389.113C142.91 390.756 149.556 391.018 156.035 389.883C162.513 388.748 168.674 386.241 174.105 382.53C179.43 379.198 184.035 374.836 187.651 369.701C191.268 364.565 193.822 358.759 195.165 352.622C196.593 346.232 196.691 339.616 195.452 333.186C194.213 326.757 191.663 320.651 187.962 315.249ZM158.984 299.604C168.421 302.214 176.778 307.771 182.834 315.464C173.771 321.14 163.587 327.938 153.832 334.735C153.138 334.009 152.333 333.397 151.447 332.922C154.882 316.609 157.839 304.374 158.984 299.604ZM154.453 298.483C153.308 303.468 150.374 315.703 146.511 332.016C145.697 332.039 144.891 332.192 144.126 332.469C135.969 318.875 129.625 306.854 127.12 302.561C138.807 295.525 151.948 298.125 154.453 298.483ZM122.947 304.827C125.332 309.358 131.795 321.14 139.952 334.95C139.227 335.6 138.614 336.365 138.139 337.215C122.947 334.043 109.352 331.11 104.153 330.06C106.966 319.558 113.69 310.53 122.947 304.827ZM110.259 366.217C103.819 356.904 101.254 345.452 103.104 334.282C108.327 335.403 121.683 338.122 136.851 341.437V342.343C136.839 343.655 137.074 344.958 137.543 346.183C124.306 355.58 113.669 363.736 110.259 366.217ZM135.182 383.985C126.564 381.58 118.842 376.695 112.977 369.937C116.149 367.552 126.81 359.515 140.166 349.999L142.218 351.358C139.952 361.471 137.686 372.561 135.182 383.985ZM139.713 385.13C142.098 373.801 144.483 362.687 146.868 352.503H147.083C148.323 352.491 149.551 352.257 150.708 351.811C156.735 361.475 163.312 370.784 170.408 379.692C161.078 384.9 150.255 386.783 139.713 385.035V385.13ZM173.938 377.188C166.846 368.28 160.261 358.979 154.214 349.331C155.195 348.256 156 347.032 156.599 345.706C171.338 348.878 184.694 352.05 190.347 353.624C187.676 363.071 181.894 371.34 173.938 377.092V377.188ZM191.134 349.331C185.028 347.518 171.434 344.561 156.933 341.174C156.931 340.333 156.7 339.509 156.265 338.789C165.996 331.992 176.204 325.195 185.267 319.542C190.8 328.385 192.888 338.953 191.134 349.236V349.331Z" fill="#2C2C2C"/>
</svg>
