<svg width="198" height="198" viewBox="0 0 198 198" fill="none" xmlns="http://www.w3.org/2000/svg">
<path d="M34.5292 52.6411L32.5225 48.6652C32.5225 48.6652 29.3951 48.6464 27.8428 47.7336C27.8428 47.7336 24.0481 50.6413 22.2601 49.8829C18.711 48.3781 14.6302 39.4018 14.6302 39.4018C14.188 39.1124 13.842 38.6979 13.6362 38.211C13.4304 37.7242 13.3743 37.1872 13.4749 36.6684C13.4749 36.6684 1.8602 27.5961 8.16452 16.6427C14.2966 5.99125 27.8428 7.25647 27.8428 7.25647C27.8428 7.25647 34.5639 2.36488 38.5219 8.28508C39.1044 10.0629 39.1482 11.9731 38.6476 13.7756C38.0239 16.0526 36.8211 16.1091 36.8211 16.1091C36.8211 16.1091 42.6809 26.9545 44.0481 32.1877C45.4152 37.4208 44.3391 42.9331 41.7602 45.0824L43.6412 48.593L45.3242 47.999L49.4554 54.9131L33.3382 62.7955L30.5662 55.1725L34.5292 52.6411Z" fill="#FDF6EE"/>
<path d="M21.6423 27.5963C21.5581 27.5962 21.4753 27.5761 21.4004 27.5377C21.3256 27.4994 21.2609 27.4438 21.2117 27.3756C21.1625 27.3074 21.1302 27.2285 21.1175 27.1453C21.1047 27.0622 21.1119 26.9772 21.1384 26.8974C21.1532 26.8529 22.6768 22.4612 27.3536 22.8384C27.4908 22.8538 27.6165 22.9221 27.7043 23.0286C27.7922 23.1351 27.835 23.2716 27.824 23.4092C27.8129 23.5468 27.7488 23.6748 27.645 23.7659C27.5414 23.8571 27.4063 23.9043 27.2684 23.8977C26.166 23.8101 25.0654 24.09 24.1388 24.6937C23.2121 25.2975 22.5114 26.191 22.1462 27.235C22.1103 27.3402 22.0424 27.4316 21.9521 27.4964C21.8618 27.5611 21.7534 27.596 21.6423 27.5963Z" fill="#2C2C2C"/>
<path d="M31.9848 20.6117C31.8971 20.6123 31.8106 20.5912 31.733 20.5502C31.6555 20.5093 31.5893 20.4498 31.5403 20.3772C31.4913 20.3044 31.461 20.2207 31.4521 20.1334C31.4433 20.0462 31.4563 19.9581 31.4898 19.8771C31.8451 19.0499 32.4516 18.3554 33.2234 17.8919C33.9952 17.4283 34.8932 17.2193 35.7903 17.2942C35.8611 17.299 35.9302 17.318 35.9935 17.3499C36.0568 17.3819 36.1131 17.4262 36.159 17.4802C36.205 17.5343 36.2397 17.5969 36.261 17.6646C36.2824 17.7323 36.29 17.8035 36.2833 17.874C36.2767 17.9447 36.256 18.0132 36.2226 18.0758C36.189 18.1383 36.1434 18.1935 36.0881 18.2381C36.033 18.2826 35.9694 18.3157 35.9013 18.3354C35.8332 18.355 35.7617 18.3608 35.6913 18.3525C35.0214 18.3058 34.3533 18.466 33.7776 18.8115C33.2017 19.1569 32.7459 19.671 32.4718 20.284C32.4319 20.3804 32.3644 20.463 32.2777 20.5213C32.1911 20.5796 32.0892 20.611 31.9848 20.6117Z" fill="#2C2C2C"/>
<path d="M33.1956 31.8948C33.0585 31.8873 32.9298 31.827 32.8361 31.7267C32.7424 31.6264 32.6912 31.4938 32.6931 31.3565C32.695 31.2193 32.75 31.0882 32.8464 30.9904C32.9428 30.8928 33.0732 30.8362 33.2104 30.8325C33.8747 30.8414 34.6469 30.8167 35.1488 30.7672C33.8618 29.0842 30.4057 25.2351 30.2483 24.5302C30.1862 23.7061 30.2573 22.8774 30.4592 22.076C30.4901 21.9384 30.5743 21.8187 30.6934 21.7433C30.8125 21.6677 30.9567 21.6427 31.0943 21.6736C31.2319 21.7043 31.3516 21.7886 31.427 21.9077C31.5025 22.0268 31.5276 22.171 31.4967 22.3086C31.3366 22.9512 31.2651 23.6128 31.2839 24.2748C32.1052 25.4214 32.9841 26.5257 33.9173 27.5834C36.5279 30.6999 36.5081 30.8286 36.4685 31.2464C36.3913 32.0176 33.348 31.8968 33.1956 31.8948Z" fill="#2C2C2C"/>
<path d="M33.6827 38.6098C33.1352 38.5506 32.6113 38.3553 32.1587 38.0416C31.7061 37.7279 31.3393 37.3058 31.0918 36.814C31.0294 36.6915 31.0167 36.5497 31.0564 36.4182C31.0962 36.2867 31.1854 36.1757 31.3052 36.1085C31.4251 36.0413 31.5663 36.023 31.6993 36.0577C31.8323 36.0922 31.9466 36.177 32.0185 36.2942C32.2076 36.6278 32.863 37.502 33.6183 37.5456C34.1579 37.5782 34.7321 37.1862 35.3172 36.3843C35.3574 36.3255 35.4089 36.2754 35.4688 36.2369C35.5287 36.1985 35.5958 36.1724 35.6659 36.1604C35.7361 36.1484 35.808 36.1505 35.8773 36.1667C35.9466 36.183 36.0119 36.213 36.0695 36.255C36.127 36.297 36.1755 36.35 36.212 36.4111C36.2487 36.4722 36.2726 36.54 36.2825 36.6105C36.2924 36.681 36.288 36.7528 36.2696 36.8216C36.2512 36.8904 36.2193 36.9547 36.1755 37.011C35.9185 37.4577 35.5579 37.8361 35.1241 38.1144C34.6903 38.3927 34.1959 38.5626 33.6827 38.6098Z" fill="#2C2C2C"/>
<path d="M26.044 18.0362C25.0831 18.0236 24.1446 17.745 23.3324 17.2314C23.2227 17.1513 23.1478 17.0322 23.1231 16.8985C23.0984 16.765 23.1258 16.627 23.1997 16.5129C23.2735 16.3989 23.3883 16.3175 23.5203 16.2854C23.6523 16.2533 23.7916 16.273 23.9096 16.3404C24.0304 16.4176 26.8212 18.159 28.6448 15.484C28.6833 15.4245 28.7333 15.3732 28.7919 15.3333C28.8505 15.2934 28.9165 15.2657 28.986 15.2517C29.0555 15.2377 29.1272 15.2377 29.1966 15.2518C29.2661 15.2658 29.3321 15.2936 29.3906 15.3336C29.4492 15.3735 29.4992 15.4248 29.5377 15.4844C29.5762 15.5439 29.6023 15.6106 29.6147 15.6804C29.6269 15.7502 29.6252 15.8218 29.6094 15.891C29.5937 15.9601 29.5643 16.0254 29.5229 16.083C29.1589 16.6792 28.6477 17.172 28.0386 17.514C27.4294 17.8561 26.7427 18.0358 26.044 18.0362Z" fill="#2C2C2C"/>
<path d="M22.6899 15.3101C22.5832 15.3099 22.479 15.2776 22.391 15.2174C22.3029 15.1572 22.2349 15.072 22.196 14.9727C22.157 14.8733 22.1487 14.7646 22.1724 14.6605C22.1961 14.5566 22.2504 14.462 22.3285 14.3894C23.6204 13.2352 25.0186 12.206 26.5044 11.3154C29.7882 9.35022 32.6701 8.6295 35.0589 9.174C39.4714 10.1779 39.2348 13.8874 39.2318 13.926C39.229 13.9975 39.2118 14.0676 39.1812 14.1323C39.1507 14.197 39.1073 14.2548 39.054 14.3023C39.0005 14.35 38.9381 14.3862 38.8702 14.4091C38.8024 14.4318 38.7308 14.4407 38.6595 14.4352C38.5881 14.4296 38.5187 14.4098 38.4552 14.3768C38.3918 14.3438 38.3356 14.2984 38.2902 14.2431C38.2447 14.1879 38.2108 14.124 38.1906 14.0554C38.1704 13.9868 38.1643 13.9148 38.1725 13.8439C38.1794 13.731 38.321 11.0075 34.8233 10.2125C29.7238 9.05322 23.1176 15.1091 23.0512 15.1705C22.9525 15.2607 22.8236 15.3104 22.6899 15.3101Z" fill="#2C2C2C"/>
<path d="M23.6212 11.6208C23.5181 11.6206 23.4172 11.5905 23.331 11.534C23.2446 11.4775 23.1766 11.3972 23.1352 11.3028C23.0937 11.2083 23.0806 11.1039 23.0975 11.0021C23.1144 10.9003 23.1605 10.8057 23.2302 10.7298C23.4609 10.4793 28.9227 4.60757 34.0657 4.96595C35.0511 5.04695 36.0038 5.35782 36.8472 5.87361C37.6907 6.3894 38.4015 7.09575 38.9227 7.93595C38.9625 7.99321 38.9906 8.05776 39.0054 8.12589C39.0203 8.19402 39.0215 8.26441 39.0092 8.33304C38.9968 8.40167 38.971 8.46719 38.9334 8.52585C38.8957 8.58453 38.8468 8.6352 38.7895 8.67499C38.7323 8.71476 38.6678 8.74288 38.5995 8.75772C38.5314 8.77255 38.461 8.77383 38.3924 8.76146C38.3238 8.7491 38.2583 8.72334 38.1996 8.68566C38.141 8.64797 38.0903 8.59909 38.0505 8.54183C37.6175 7.83438 37.0248 7.23812 36.3199 6.80079C35.6151 6.36345 34.8176 6.09718 33.9915 6.02327C29.3702 5.70647 24.0618 11.3891 24.0093 11.4465C23.9602 11.5008 23.9003 11.5443 23.8335 11.5743C23.7668 11.6043 23.6945 11.6201 23.6212 11.6208Z" fill="#2C2C2C"/>
<path d="M16.4033 28.6002C16.3122 28.5998 16.2228 28.5761 16.1435 28.5315C16.0642 28.4867 15.9978 28.4224 15.9503 28.3447C15.903 28.267 15.8764 28.1784 15.8729 28.0874C15.8696 27.9964 15.8896 27.906 15.931 27.825C17.7606 24.261 15.931 19.8298 15.9142 19.7852C15.8631 19.6561 15.8646 19.5121 15.9184 19.3841C15.9721 19.2561 16.0737 19.1541 16.2016 19.1001C16.3295 19.046 16.4735 19.0441 16.6028 19.0948C16.732 19.1456 16.8363 19.2448 16.8933 19.3714C16.9775 19.5694 18.9357 24.3036 16.8765 28.3111C16.8318 28.3981 16.764 28.4712 16.6806 28.5222C16.597 28.5733 16.5011 28.6002 16.4033 28.6002Z" fill="#2C2C2C"/>
<path d="M19.8426 24.8747C19.7422 24.8743 19.6437 24.8456 19.5589 24.7918C19.4741 24.7379 19.4062 24.6612 19.3632 24.5703C19.3201 24.4795 19.3036 24.3784 19.3156 24.2787C19.3275 24.1789 19.3674 24.0845 19.4308 24.0065C21.6266 21.3196 20.3139 16.8389 20.301 16.7944C20.2783 16.7267 20.2694 16.6554 20.2749 16.5843C20.2803 16.5132 20.2999 16.444 20.3327 16.3807C20.3654 16.3174 20.4105 16.2613 20.4653 16.2158C20.5202 16.1703 20.5837 16.1362 20.6519 16.1157C20.7201 16.0952 20.7917 16.0887 20.8626 16.0964C20.9335 16.1041 21.002 16.126 21.0643 16.1608C21.1265 16.1955 21.181 16.2424 21.2248 16.2988C21.2684 16.355 21.3004 16.4195 21.3187 16.4884C21.3801 16.6934 22.8037 21.5592 20.2545 24.6787C20.2046 24.7398 20.1418 24.7891 20.0706 24.823C19.9994 24.8569 19.9215 24.8745 19.8426 24.8747Z" fill="#2C2C2C"/>
<path d="M11.3166 35.2974C11.2473 35.2976 11.1787 35.2843 11.1146 35.2579C11.0505 35.2316 10.9923 35.1928 10.9433 35.144C10.8612 35.0628 2.77682 26.8894 7.2536 17.2755C11.7037 7.72195 23.4629 6.73195 23.5817 6.73195C23.6513 6.72674 23.7212 6.7353 23.7874 6.75711C23.8536 6.77893 23.9149 6.81357 23.9678 6.85908C24.0206 6.90458 24.064 6.96006 24.0955 7.02232C24.1269 7.08459 24.1457 7.15244 24.1509 7.222C24.1562 7.29155 24.1476 7.36145 24.1258 7.4277C24.1039 7.49394 24.0693 7.55525 24.0238 7.60811C23.9783 7.66098 23.9228 7.70435 23.8606 7.73577C23.7983 7.76719 23.7305 7.78604 23.6609 7.79124C23.549 7.80015 12.4006 8.74363 8.21687 17.7299C4.05887 26.6577 11.6146 34.3183 11.6918 34.3946C11.7645 34.469 11.8137 34.5634 11.8333 34.6656C11.853 34.7679 11.8422 34.8736 11.8022 34.9699C11.7623 35.066 11.6949 35.1483 11.6086 35.2066C11.5222 35.2648 11.4207 35.2964 11.3166 35.2974Z" fill="#2C2C2C"/>
<path d="M23.4333 50.6135C20.2851 50.6135 16.8102 44.9626 15.4262 42.1658C15.3696 42.0403 15.3638 41.8977 15.4103 41.7681C15.4566 41.6384 15.5515 41.5318 15.675 41.4707C15.7984 41.4096 15.9408 41.3988 16.072 41.4406C16.2032 41.4824 16.3131 41.5734 16.3786 41.6946C17.4894 43.933 20.3732 48.68 22.8066 49.4463C23.4273 49.5483 24.0641 49.4392 24.6154 49.1364C24.7389 49.0688 24.8843 49.0531 25.0194 49.0926C25.0863 49.1122 25.1488 49.1448 25.203 49.1885C25.2574 49.2322 25.3026 49.2861 25.3361 49.3473C25.3696 49.4085 25.3906 49.4756 25.3982 49.545C25.4057 49.6143 25.3996 49.6844 25.3799 49.7513C25.3603 49.8183 25.3278 49.8807 25.2841 49.9351C25.2404 49.9893 25.1864 50.0346 25.1252 50.068C24.6014 50.3565 24.027 50.5416 23.4333 50.6135Z" fill="#2C2C2C"/>
<path d="M17.4536 37.1787C17.4279 37.1787 16.1577 36.9935 16.1577 36.9935C16.0887 36.9834 16.0225 36.9598 15.9626 36.924C15.9028 36.8882 15.8505 36.8411 15.8089 36.7851C15.7674 36.7292 15.7372 36.6655 15.7201 36.5979C15.7031 36.5304 15.6996 36.4601 15.7097 36.3911C15.7198 36.3221 15.7435 36.2559 15.7792 36.196C15.8151 36.1362 15.8622 36.0839 15.9181 36.0423C15.9741 36.0008 16.0377 35.9706 16.1052 35.9535C16.1729 35.9365 16.2432 35.933 16.3122 35.9431L17.5299 36.1213C17.6622 36.1412 17.7822 36.2104 17.8659 36.315C17.9494 36.4195 17.9905 36.5518 17.9809 36.6852C17.9713 36.8188 17.9116 36.9437 17.8139 37.0352C17.7162 37.1267 17.5875 37.1779 17.4536 37.1787Z" fill="#2C2C2C"/>
<path d="M37.2588 26.1974C37.7362 25.9613 37.8324 25.1823 37.4739 24.4575C37.1153 23.7326 36.4377 23.3365 35.9604 23.5727C35.483 23.8088 35.3868 24.5878 35.7453 25.3126C36.1038 26.0375 36.7815 26.4336 37.2588 26.1974Z" fill="#2C2C2C"/>
<path d="M28.0574 31.4547C28.5857 31.1933 28.6925 30.3315 28.2958 29.5297C27.8992 28.7279 27.1495 28.2898 26.6211 28.5512C26.0929 28.8125 25.986 29.6743 26.3827 30.476C26.7793 31.2778 27.5291 31.716 28.0574 31.4547Z" fill="#2C2C2C"/>
<path d="M27.6266 36.6779C28.3871 36.4659 28.8748 35.8318 28.7159 35.2613C28.5569 34.6909 27.8115 34.4003 27.0509 34.6123C26.2904 34.8242 25.8027 35.4584 25.9617 36.0289C26.1206 36.5993 26.8661 36.8899 27.6266 36.6779Z" fill="#B7D7C8"/>
<path d="M41.758 29.9299C42.4209 29.5471 42.7256 28.8338 42.4385 28.3367C42.1515 27.8395 41.3814 27.7467 40.7185 28.1295C40.0556 28.5122 39.7509 29.2255 40.038 29.7227C40.325 30.2198 41.0951 30.3126 41.758 29.9299Z" fill="#B7D7C8"/>
<path d="M85.0865 51.173C68.7317 47.2229 49.8593 54.1084 49.4999 53.7569C49.1406 53.4055 46.8517 47.6684 45.8478 47.4526C45.1976 47.5345 44.5635 47.7141 43.9668 47.9852L42.5214 45.0053C46.0656 41.7928 45.532 36.3003 45.1568 34.1084C44.2213 28.6416 36.9557 15.1053 36.6428 14.5321C36.5733 14.4131 36.4603 14.3257 36.3276 14.2884C36.1949 14.2511 36.053 14.2668 35.9316 14.3322C35.8103 14.3975 35.719 14.5075 35.6772 14.6388C35.6354 14.77 35.6461 14.9125 35.7073 15.036C35.7825 15.1746 43.1996 28.995 44.1054 34.2876C44.5292 36.7626 45.2538 44.9964 36.7794 46.8606C36.6502 46.8837 36.5349 46.9557 36.4576 47.0619C36.3804 47.1679 36.347 47.2997 36.3646 47.4298C36.4081 47.5463 36.4788 47.6507 36.5706 47.7345C36.6626 47.8181 36.7732 47.8786 36.8933 47.911C38.819 48.4563 40.8537 48.4904 42.7967 48.01L42.9689 48.3674C40.3949 49.3841 36.622 51.0849 34.841 51.9749L33.0115 48.3525C32.9666 48.2625 32.897 48.1872 32.8106 48.1356C32.7243 48.084 32.6249 48.0583 32.5244 48.0615C24.0678 48.2664 19.5554 38.2753 19.5059 38.1743C19.4727 38.0995 19.4229 38.0333 19.36 37.9809C19.2971 37.9284 19.2231 37.8912 19.1435 37.8721C19.0639 37.8529 18.981 37.8524 18.9012 37.8704C18.8213 37.8885 18.7468 37.9247 18.6832 37.9763C18.209 38.3634 15.633 40.1543 14.4371 38.1357C13.0373 35.7726 16.5112 33.949 16.5112 33.949C16.5776 33.9136 16.6357 33.8645 16.6816 33.805C16.7277 33.7454 16.7604 33.6768 16.778 33.6036C16.7955 33.5304 16.7973 33.4543 16.7832 33.3804C16.7691 33.3065 16.7395 33.2364 16.6963 33.1748C15.7281 31.7888 13.2867 26.8814 13.263 26.8319C13.1986 26.7086 13.0885 26.6155 12.9563 26.5724C12.824 26.5294 12.6802 26.5398 12.5555 26.6016C12.431 26.6634 12.3355 26.7716 12.2897 26.9029C12.244 27.0343 12.2514 27.1783 12.3106 27.3041C12.4037 27.4902 14.3955 31.4988 15.5192 33.3134C14.4501 33.9462 13.6342 34.9311 13.2115 36.0993C13.0607 36.507 12.9987 36.9422 13.0295 37.3758C13.0603 37.8093 13.1833 38.2313 13.3902 38.6137C13.5971 38.9959 13.8831 39.3297 14.2293 39.5926C14.5754 39.8555 14.9737 40.0417 15.3974 40.1385C16.6149 40.2471 17.8303 39.9081 18.8159 39.1851C23.4431 47.8437 28.5278 49.1079 32.2126 49.1247L33.8896 52.4452C33.7906 52.4452 30.1049 54.341 29.8742 54.9004C29.3713 56.1201 32.9719 62.2967 32.2225 63.0669C-0.313887 96.5596 8.26446 126.546 17.9853 132.015C29.2257 138.339 41.5186 127.429 42.0423 127.164C45.1827 124.224 47.8043 120.775 49.7969 116.962C49.8477 116.869 49.9333 116.801 50.0347 116.771C50.1362 116.742 50.2453 116.754 50.338 116.804C50.4306 116.856 50.4993 116.941 50.5289 117.043C50.5585 117.144 50.5467 117.253 50.4959 117.346C48.7213 120.682 46.5012 123.762 43.8965 126.5C44.1836 126.606 49.7781 136.697 49.7781 136.697C49.9155 136.95 50.1308 137.151 50.3917 137.271C50.6526 137.391 50.9454 137.424 51.2265 137.364L94.4182 128.127C94.7184 128.063 94.9872 127.897 95.1786 127.657C95.37 127.418 95.4722 127.119 95.4676 126.812L94.8736 84.2252C94.8704 84.0397 94.9058 83.8557 94.9777 83.6848C95.0496 83.5139 95.1564 83.3599 95.2912 83.2326C95.426 83.1053 95.5859 83.0076 95.7608 82.9456C95.9355 82.8837 96.1212 82.8589 96.3061 82.8728C111.061 84.2163 117.448 58.9802 85.0865 51.173ZM34.3985 56.2468L36.0161 60.0434C36.0573 60.1405 36.0583 60.2501 36.0187 60.3479C35.9992 60.3964 35.9702 60.4405 35.9336 60.4777C35.8969 60.5151 35.8534 60.5448 35.8053 60.5652C35.7082 60.6063 35.5986 60.6073 35.5007 60.5677C35.4029 60.5282 35.3247 60.4514 35.2835 60.3543L33.6599 56.5576C33.6395 56.5094 33.6289 56.4576 33.6285 56.4053C33.6281 56.3529 33.638 56.3009 33.6576 56.2524C33.6773 56.2038 33.7064 56.1597 33.7431 56.1223C33.7798 56.085 33.8236 56.0553 33.8718 56.0349C33.92 56.0145 33.9718 56.0038 34.0242 56.0033C34.0765 56.0029 34.1285 56.0129 34.177 56.0325C34.2255 56.0522 34.2698 56.0812 34.3071 56.1181C34.3444 56.1548 34.3741 56.1986 34.3945 56.2468H34.3985ZM31.1315 94.3202C31.1805 94.3015 31.2327 94.2928 31.285 94.2944C31.3375 94.296 31.389 94.3081 31.4367 94.3298C31.4844 94.3516 31.5273 94.3826 31.5629 94.421C31.5986 94.4595 31.6263 94.5046 31.6443 94.5538C32.9044 97.9468 34.3571 101.265 35.9954 104.492C36.047 104.585 36.0602 104.693 36.0318 104.794C36.0034 104.896 35.9358 104.982 35.8439 105.034C35.752 105.085 35.6433 105.098 35.5417 105.071C35.4402 105.042 35.354 104.975 35.3024 104.883C33.6431 101.619 32.1719 98.2635 30.8959 94.832C30.8773 94.7831 30.8687 94.7309 30.8704 94.6787C30.8722 94.6264 30.8843 94.575 30.906 94.5274C30.9277 94.4798 30.9586 94.437 30.997 94.4014C31.0354 94.3658 31.0804 94.3382 31.1295 94.3202H31.1315ZM39.6564 106.761C35.2806 109.027 29.4386 111.1 24.5321 111.1C24.0191 111.107 23.5065 111.07 22.9996 110.991C22.8957 110.973 22.8032 110.914 22.7425 110.827C22.6819 110.741 22.6582 110.634 22.6764 110.529C22.6946 110.426 22.7534 110.333 22.8398 110.273C22.9263 110.213 23.0333 110.189 23.1372 110.207C24.8202 110.504 31.0087 110.336 39.2901 106.055C39.3836 106.006 39.4926 105.997 39.593 106.029C39.6933 106.062 39.7769 106.132 39.8252 106.225C39.8735 106.319 39.8826 106.428 39.8506 106.528C39.8185 106.629 39.7479 106.712 39.6544 106.761H39.6564ZM39.1198 58.4812L37.2239 54.7568C37.2002 54.7103 37.1859 54.6595 37.1818 54.6074C37.1777 54.5554 37.1838 54.503 37.2 54.4533C37.2161 54.4036 37.2419 54.3576 37.2758 54.3179C37.3098 54.2781 37.3512 54.2455 37.3977 54.2217C37.4442 54.198 37.495 54.1836 37.5471 54.1796C37.5992 54.1754 37.6515 54.1816 37.7012 54.1978C37.7509 54.2139 37.797 54.2396 37.8367 54.2736C37.8764 54.3075 37.909 54.3489 37.9328 54.3955L39.8326 58.1199C39.8805 58.2146 39.8888 58.3246 39.8557 58.4255C39.8225 58.5264 39.7506 58.61 39.6559 58.6579C39.5611 58.7058 39.4511 58.7142 39.3503 58.681C39.2494 58.6478 39.1657 58.5759 39.1178 58.4812H39.1198ZM42.5897 56.5764L40.9067 53.0956C40.8607 53.0006 40.8543 52.8911 40.8888 52.7913C40.9235 52.6915 40.9963 52.6095 41.0914 52.5635C41.1864 52.5173 41.2959 52.5109 41.3957 52.5456C41.4955 52.5802 41.5775 52.6531 41.6235 52.7481L43.3065 56.228C43.3527 56.3233 43.3592 56.433 43.3244 56.5331C43.2898 56.6332 43.2167 56.7153 43.1214 56.7616C43.026 56.8078 42.9163 56.8142 42.8163 56.7795C42.7162 56.7447 42.634 56.6718 42.5878 56.5764H42.5897ZM46.4022 54.5648C46.3566 54.5907 46.3063 54.6072 46.2542 54.6136C46.2022 54.6198 46.1494 54.6157 46.0989 54.6015C46.0484 54.5871 46.0013 54.563 45.9602 54.5304C45.9192 54.4977 45.885 54.4572 45.8597 54.4113L44.1035 51.2572C44.078 51.2116 44.0619 51.1616 44.0557 51.1099C44.0497 51.0581 44.0539 51.0056 44.0681 50.9554C44.0823 50.9053 44.1062 50.8585 44.1385 50.8175C44.1709 50.7766 44.2109 50.7426 44.2564 50.7171C44.3019 50.6917 44.3519 50.6755 44.4037 50.6694C44.4555 50.6634 44.508 50.6675 44.5581 50.6818C44.6083 50.6959 44.6551 50.7199 44.696 50.7522C44.737 50.7845 44.771 50.8245 44.7965 50.8701L46.5517 54.0232C46.5776 54.0687 46.5941 54.1188 46.6005 54.1706C46.6069 54.2225 46.6029 54.2752 46.5887 54.3256C46.5747 54.3759 46.5508 54.4229 46.5185 54.464C46.4861 54.5051 46.4459 54.5393 46.4003 54.5648H46.4022ZM82.7748 66.417L75.6815 60.5058C75.6412 60.4722 75.6079 60.431 75.5835 60.3847C75.5591 60.3382 75.5441 60.2875 75.5393 60.2353C75.5345 60.183 75.54 60.1303 75.5556 60.0804C75.5712 60.0303 75.5964 59.9837 75.63 59.9434C75.6636 59.9031 75.7046 59.8698 75.7511 59.8454C75.7975 59.8211 75.8483 59.806 75.9005 59.8013C75.9527 59.7964 76.0054 59.802 76.0554 59.8176C76.1055 59.8331 76.152 59.8584 76.1923 59.892L83.2857 65.8032C83.326 65.8368 83.3592 65.8779 83.3837 65.9243C83.408 65.9708 83.4231 66.0215 83.4278 66.0737C83.4327 66.126 83.4271 66.1786 83.4115 66.2286C83.396 66.2787 83.3707 66.3253 83.3372 66.3656C83.3036 66.4059 83.2624 66.4391 83.2161 66.4636C83.1696 66.4879 83.1189 66.503 83.0667 66.5077C83.0144 66.5126 82.9617 66.5069 82.9117 66.4914C82.8616 66.4759 82.8151 66.4506 82.7748 66.417ZM95.4359 62.8649C86.9635 70.1256 87.1298 70.0533 86.9021 70.0533C86.82 70.0549 86.7394 70.0309 86.6715 69.9847C86.6036 69.9385 86.5517 69.8722 86.5232 69.7953C86.4946 69.7183 86.4906 69.6342 86.5118 69.5549C86.5331 69.4756 86.5785 69.4048 86.6418 69.3524L94.9172 62.262C94.9568 62.228 95.0027 62.202 95.0523 62.1857C95.1019 62.1693 95.1542 62.163 95.2063 62.1669C95.2584 62.1708 95.3092 62.1849 95.3558 62.2085C95.4024 62.232 95.444 62.2645 95.478 62.3041C95.5121 62.3437 95.538 62.3895 95.5543 62.4392C95.5707 62.4888 95.577 62.5411 95.5732 62.5932C95.5692 62.6452 95.5551 62.6961 95.5316 62.7427C95.508 62.7893 95.4755 62.8309 95.4359 62.8649Z" fill="#2C2C2C"/>
<path d="M94.8064 92.2324L74.8193 63.4066C74.6997 63.2342 74.5408 63.0925 74.3558 62.9934C74.1707 62.8943 73.9649 62.8404 73.755 62.8364L57.4982 62.5018C57.1915 62.4953 56.8921 62.5953 56.6508 62.7849L32.7304 81.5761C32.4717 81.7801 32.298 82.0731 32.2432 82.398C32.1883 82.7229 32.2561 83.0566 32.4334 83.3343L48.6843 108.83C48.8365 109.069 49.0619 109.254 49.3268 109.355L67.1468 116.223C67.3689 116.308 67.6099 116.333 67.8446 116.293C68.0794 116.254 68.2992 116.153 68.4813 115.999L94.5767 94.0016C94.8277 93.7877 94.9902 93.4883 95.0326 93.1613C95.0751 92.8344 94.9945 92.5032 94.8064 92.2324Z" fill="#2D6A4F"/>
<path d="M74.9886 62.4829C74.904 62.37 74.7782 62.2952 74.6386 62.275C74.4991 62.2548 74.3572 62.2908 74.2441 62.375L45.4212 83.9263L31.6365 81.8107C31.5665 81.7976 31.4945 81.7987 31.4249 81.8141C31.3553 81.8293 31.2895 81.8584 31.2314 81.8996C31.1733 81.9409 31.124 81.9934 31.0866 82.0539C31.0492 82.1146 31.0243 82.1821 31.0135 82.2525C31.0027 82.3229 31.0061 82.3948 31.0236 82.4639C31.0411 82.533 31.0724 82.5979 31.1154 82.6546C31.1585 82.7113 31.2125 82.7588 31.2743 82.7944C31.3361 82.8298 31.4044 82.8525 31.4751 82.8611L45.2559 84.9757L67.4774 116.884C67.5168 116.943 67.5674 116.993 67.6264 117.032C67.6853 117.071 67.7514 117.097 67.8208 117.11C67.8902 117.123 67.9614 117.122 68.0304 117.107C68.0994 117.092 68.1647 117.065 68.2226 117.024C68.2804 116.983 68.3297 116.932 68.3675 116.873C68.4054 116.813 68.4309 116.747 68.4427 116.677C68.4546 116.607 68.4524 116.536 68.4365 116.468C68.4204 116.398 68.3909 116.334 68.3496 116.277L46.2914 84.6035L74.8807 63.2264C74.9366 63.1847 74.9838 63.1324 75.0196 63.0725C75.0553 63.0125 75.0789 62.9461 75.0889 62.877C75.0989 62.8079 75.0952 62.7376 75.078 62.6699C75.0607 62.6023 75.0304 62.5388 74.9886 62.4829Z" fill="#2C2C2C"/>
<path d="M44.4144 102.139C45.6529 101.2 51.285 97.9441 48.9159 102.78C48.9159 102.78 53.9045 101.133 51.8107 104.831C51.8107 104.831 55.2509 103.748 54.0154 107.024C54.0154 107.024 59.3228 105.654 53.0591 111.38C48.5298 115.518 47.0567 113.235 48.3734 111.103C48.3734 111.103 44.1283 113.073 46.036 108.883C46.036 108.883 42.1512 110.333 44.0669 106.169C44.0669 106.165 37.6269 107.283 44.4144 102.139Z" fill="#FDF6EE"/>
<path d="M54.7539 106.263C55.0132 104.76 54.2589 103.867 52.6749 104.204C53.2778 102.551 52.5273 101.35 49.7623 102.163C50.0028 101.339 50.1761 100.315 49.497 99.7868C48.7376 99.1997 47.3368 99.6254 44.9538 101.173C41.6581 103.309 40.2464 105.051 40.8711 106.21C41.2285 106.874 42.168 107.101 43.3312 106.863C42.5293 108.843 43.2956 110.012 45.3795 109.635C44.8697 111.417 45.6577 112.454 47.5189 112.024C47.2893 113.365 47.9545 114.004 48.8663 114.004C49.8543 113.9 50.804 113.566 51.6383 113.026C55.0835 111.123 56.9259 108.12 56.2111 106.806C56.0696 106.559 55.8465 106.37 55.5804 106.271C55.3143 106.172 55.0219 106.169 54.7539 106.263ZM41.8027 105.707C41.7037 105.515 42.0284 104.334 45.528 102.066C48.308 100.264 48.8436 100.631 48.8436 100.631C49.1227 100.847 48.5416 102.457 48.4802 102.683C47.2615 103.493 44.4994 105.264 44.144 105.491C42.8541 106.048 41.9215 105.93 41.8027 105.707ZM44.1361 108.513C43.9054 108.216 44.2836 107.155 44.7796 106.347C45.3479 105.982 48.1456 104.188 49.2257 103.463C51.4106 102.65 51.767 103.056 51.767 103.056C51.9215 103.254 51.6453 104.077 51.2047 104.759C49.8811 105.722 46.524 108.026 46.0151 108.377C44.4678 108.864 44.1658 108.55 44.1361 108.513ZM46.3676 110.965C46.1636 110.74 46.3527 109.889 46.6646 109.22C47.3199 108.77 50.58 106.529 51.8591 105.595C53.2679 104.98 53.6005 105.247 53.6342 105.28C53.8391 105.483 53.7243 106.234 53.4896 106.829C52.263 107.896 48.5396 110.418 48.0634 110.739C46.6972 111.265 46.3973 110.998 46.3676 110.965ZM55.2875 107.632C55.1508 108.541 53.9015 110.558 51.1206 112.092C49.0475 113.236 48.6307 112.893 48.6139 112.878C48.4485 112.728 48.5466 112.086 48.7436 111.563C49.497 111.054 53.0421 108.644 54.2381 107.587C54.9251 107.229 55.2281 107.271 55.2696 107.303C55.3116 107.408 55.3179 107.523 55.2875 107.632Z" fill="#2C2C2C"/>
<path d="M80.1821 70.1394L82.4739 73.5054C82.4739 73.5054 75.8479 79.1998 81.6681 77.8406C81.6681 77.8406 79.6445 81.8877 83.8708 80.5631C83.8708 80.5631 82.6175 84.0914 86.2171 82.6579C86.2171 82.6579 84.8183 86.7981 90.1771 82.5173C95.045 78.6286 93.2046 76.2803 91.6463 77.8228C91.6463 77.8228 92.9719 74.2291 89.4257 75.82C89.4257 75.82 90.7949 71.9481 86.5013 73.939C86.5013 73.939 88.3199 69.7899 84.1599 72.454C84.1579 72.449 82.6888 69.2998 80.1821 70.1394Z" fill="#FDF6EE"/>
<path d="M93.7144 77.331C93.5302 77.0557 93.1204 76.7251 92.2868 76.9963C92.3323 76.4023 93.059 74.0164 90.0256 75.148C90.192 74.5223 90.7751 71.8048 87.2378 73.267C87.4605 72.5394 88.008 69.9525 84.4945 71.6751C84.0778 70.8497 83.3974 70.1873 82.5612 69.7929C81.725 69.3985 80.781 69.2947 79.8791 69.4981C79.7955 69.5203 79.7186 69.5628 79.6551 69.6216C79.5916 69.6804 79.5434 69.7538 79.5147 69.8355C79.4861 69.9171 79.4778 70.0046 79.4906 70.0902C79.5033 70.1758 79.5368 70.257 79.5881 70.3267L81.875 73.4373C76.8972 77.2775 78.7258 79.2189 80.9652 78.6209C79.9484 81.3662 82.2581 81.485 83.2501 81.2118C82.5006 83.757 84.6717 83.6868 85.5023 83.4284C85.1608 85.7182 88.203 84.5352 89.497 83.66C92.8254 81.4107 94.4688 78.4625 93.7144 77.331ZM80.982 70.4297C81.529 70.4945 82.0519 70.6917 82.5056 71.0041C82.9592 71.3165 83.33 71.7347 83.5857 72.2226C83.3174 72.3978 83.0323 72.5918 82.7303 72.8076L80.982 70.4297ZM79.794 77.5804C79.6831 77.4062 79.893 76.2172 82.9263 73.9788C85.4825 72.0978 86.2122 72.0978 86.3389 72.1196C86.3228 72.7555 86.1453 73.3769 85.8231 73.9254C84.7479 74.7966 81.9967 76.932 81.6522 77.1993C80.5543 77.7933 79.8771 77.7151 79.794 77.5804ZM81.9175 80.2089C81.6601 79.9307 81.9413 78.8447 82.363 77.9933C82.8947 77.5804 85.5192 75.541 86.5299 74.7203C88.6327 73.7135 89.0247 74.0857 89.0247 74.0857C89.196 74.2669 88.995 75.1143 88.6179 75.8321C87.3863 76.9122 84.252 79.5109 83.7758 79.905C82.2769 80.5287 81.9472 80.2435 81.9146 80.2089H81.9175ZM84.3609 82.4502C84.1371 82.2443 84.249 81.3791 84.4995 80.6851C85.1123 80.1772 88.1625 77.6507 89.3505 76.6063C90.6978 75.8677 91.0671 75.94 91.2394 76.0737C91.7096 76.439 91.2661 77.4735 91.0859 77.6883C89.9603 78.8615 86.4795 81.7087 86.0369 82.0721C84.7123 82.7185 84.3906 82.4799 84.3579 82.4502H84.3609ZM88.905 82.7829C87.2101 83.9293 86.6626 83.9125 86.5656 83.8966C86.5421 83.5364 86.6102 83.176 86.7636 82.8492C87.415 82.3176 90.7929 79.5476 91.9007 78.3744C92.1769 78.1586 92.5031 78.0159 92.8491 77.9596C92.961 78.4902 91.8888 80.7613 88.902 82.7829H88.905Z" fill="#2C2C2C"/>
<path d="M96.7755 169.075H113.757L123.292 174.609V192.448H103.948L96.4983 185.212L96.7755 169.075Z" fill="#C8705A"/>
<path d="M96.7755 179.767H61.3226L49.896 161.37V128.544H92.3422L107.244 136.068V148.892C107.244 148.892 120.222 147.407 120.222 160.354C120.222 170.563 108.552 172.283 103.146 168.901L96.7755 169.077V179.767Z" fill="#FDF6EE"/>
<path d="M92.2354 77.7507L107.279 69.4941H148.079V103.076H185.708V179.629H148.097V119.948H92.2354V77.7507Z" fill="#FDF6EE"/>
<path d="M92.2354 119.947H148.097V179.628H123.292V174.609L114.798 169.27C114.798 169.27 120.222 166.084 120.222 160.352C120.222 154.62 117.632 148.89 107.244 148.89V136.066L92.3423 128.542L92.2354 119.947Z" fill="#2D6A4F"/>
<path d="M148.079 91.2554H154.921V97.1211H164.055V91.4167H173.888V97.1211H182.323V91.2554H191.565V102.915H148.079V91.2554Z" fill="#2D6A4F"/>
<path d="M92.2354 77.7506L123.435 29.6802L148.079 69.494H107.279L92.2354 77.7506Z" fill="#C8705A"/>
<path d="M167.211 129.733C156.698 129.733 155.934 139.237 155.934 140.419V156.842C155.934 156.911 155.948 156.98 155.974 157.045C156 157.11 156.04 157.168 156.089 157.218C156.138 157.267 156.197 157.306 156.262 157.333C156.326 157.359 156.395 157.373 156.464 157.373H177.383C177.453 157.373 177.522 157.359 177.587 157.333C177.651 157.306 177.71 157.267 177.759 157.218C177.809 157.168 177.847 157.11 177.874 157.046C177.901 156.98 177.915 156.912 177.915 156.842V140.856C177.911 134.986 174.075 129.733 167.211 129.733ZM176.853 156.311H175.019V140.849C175.019 136.519 172.747 132.344 168.6 130.872C175.073 131.23 176.853 138.908 176.853 140.856V156.311Z" fill="#2C2C2C"/>
<path d="M127.938 76.1064C117.424 76.1064 116.66 85.6104 116.66 86.7925V103.216C116.66 103.356 116.716 103.492 116.816 103.591C116.915 103.691 117.051 103.746 117.191 103.746H138.11C138.251 103.746 138.386 103.691 138.485 103.591C138.585 103.492 138.642 103.356 138.642 103.216V87.2291C138.642 81.3594 134.804 76.1064 127.938 76.1064ZM137.578 102.684H135.746V87.2192C135.746 82.8879 133.474 78.7131 129.327 77.241C135.8 77.6004 137.578 85.2778 137.578 87.2251V102.684Z" fill="#2C2C2C"/>
<path d="M191.565 90.7233H182.431C182.291 90.7233 182.155 90.7794 182.055 90.8791C181.956 90.9788 181.9 91.114 181.9 91.255V96.5891H174.475V91.255C174.475 91.114 174.418 90.9788 174.319 90.8791C174.219 90.7794 174.084 90.7233 173.943 90.7233H164.165C164.024 90.7233 163.889 90.7794 163.789 90.8791C163.69 90.9788 163.633 91.114 163.633 91.255V96.5891H155.454V91.255C155.454 91.1141 155.398 90.9791 155.298 90.8794C155.199 90.7798 155.064 90.7236 154.923 90.7233H148.686V69.4383C148.696 69.1938 148.724 69.3879 123.962 29.472C123.914 29.3966 123.848 29.3343 123.77 29.291C123.692 29.2476 123.604 29.2244 123.515 29.2237C123.425 29.2229 123.338 29.2444 123.259 29.2865C123.18 29.3285 123.113 29.3896 123.064 29.4641L91.9572 77.5167C91.8215 77.7266 91.872 77.5445 91.872 128.007H49.9307C49.7904 128.009 49.6566 128.066 49.5573 128.165C49.4581 128.264 49.4013 128.398 49.399 128.538C49.399 161.682 49.3515 161.495 49.4822 161.703L60.8672 179.962C60.9086 180.046 60.9743 180.115 61.0559 180.162C61.1376 180.207 61.2312 180.228 61.3246 180.22H96.1468V185.384C96.1468 185.741 96.2092 185.32 103.715 192.887C103.764 192.938 103.822 192.978 103.888 193.005C103.953 193.032 104.022 193.045 104.093 193.044H123.149C123.218 193.044 123.288 193.03 123.352 193.003C123.416 192.976 123.476 192.938 123.524 192.888C123.574 192.839 123.613 192.78 123.639 192.715C123.666 192.651 123.68 192.581 123.68 192.512V180.226H185.762C185.832 180.226 185.901 180.213 185.966 180.187C186.03 180.16 186.088 180.12 186.138 180.071C186.187 180.021 186.227 179.963 186.254 179.899C186.28 179.834 186.293 179.765 186.293 179.695V103.516H191.565C191.706 103.516 191.841 103.461 191.94 103.361C192.04 103.262 192.097 103.126 192.097 102.985V91.255C192.097 91.1141 192.04 90.979 191.94 90.8794C191.841 90.7797 191.706 90.7236 191.565 90.7233ZM123.604 30.9174L147.195 68.9037H108.108L123.604 30.9174ZM120.879 34.7963L106.893 69.0661L94.0174 76.2931L120.879 34.7963ZM92.9353 78.1206L106.783 70.3462V119.416H92.9353V78.1206ZM109.387 149.35C112.133 149.353 114.767 150.445 116.708 152.387C118.651 154.329 119.743 156.962 119.745 159.709C119.745 168.145 110.567 172.579 103.787 168.421C102.317 167.495 101.107 166.209 100.274 164.683C99.4416 163.159 99.0129 161.446 99.0287 159.709C99.0921 157.5 99.8227 155.363 101.125 153.578C102.426 151.793 104.239 150.444 106.322 149.71C107.327 149.473 108.356 149.353 109.387 149.35ZM92.9353 120.483H106.783V135.206L92.9353 128.222V120.483ZM60.791 177.84L50.4623 161.276V129.531L60.791 136.352V177.84ZM51.6988 129.074H92.2779L105.084 135.536H61.479L51.6988 129.074ZM96.1498 168.935V179.163H61.8542V136.598H106.783V148.588C104.726 149.072 102.843 150.118 101.344 151.609C99.8455 153.1 98.7905 154.978 98.2957 157.034C97.8009 159.089 97.8861 161.241 98.5419 163.251C99.197 165.26 100.398 167.048 102.01 168.417H96.6775C96.0993 168.417 96.1478 168.894 96.1478 168.935H96.1498ZM103.601 191.278L97.2111 185.17V170.008L103.601 174.804V191.278ZM98.2773 169.48H103.487C105.166 170.469 107.067 171.02 109.015 171.086C110.962 171.151 112.896 170.726 114.637 169.852L121.295 174.01H104.339L98.2773 169.48ZM122.617 191.987H104.659V175.069H122.617V191.987ZM147.62 179.163H123.68V174.537C123.682 174.446 123.66 174.357 123.616 174.277C123.572 174.198 123.508 174.132 123.43 174.085L115.668 169.242C117.831 167.82 119.446 165.703 120.248 163.242C121.05 160.78 120.992 158.119 120.083 155.694C119.173 153.271 117.466 151.227 115.244 149.901C113.02 148.574 110.412 148.042 107.847 148.393V120.483H147.62V179.163ZM147.62 119.416H107.847V69.968H147.62V119.416ZM148.682 179.163V106.362L185.229 103.554V179.163H148.682ZM191.033 102.454H148.682V91.7866H154.39V97.1187C154.39 97.1885 154.403 97.2577 154.43 97.3223C154.457 97.3869 154.495 97.4455 154.545 97.4949C154.594 97.5443 154.653 97.5834 154.717 97.6102C154.783 97.6368 154.851 97.6505 154.921 97.6504H164.163C164.232 97.6504 164.301 97.6366 164.366 97.6099C164.43 97.5831 164.49 97.5439 164.538 97.4945C164.588 97.4452 164.627 97.3866 164.653 97.3221C164.68 97.2576 164.693 97.1885 164.693 97.1187V91.7866H173.41V97.1187C173.41 97.1885 173.424 97.2576 173.451 97.3221C173.477 97.3866 173.516 97.4452 173.566 97.4945C173.614 97.5439 173.674 97.5831 173.738 97.6099C173.802 97.6366 173.872 97.6504 173.941 97.6504H182.431C182.501 97.6504 182.57 97.6366 182.634 97.6099C182.699 97.5831 182.758 97.5439 182.806 97.4945C182.856 97.4452 182.896 97.3866 182.921 97.3221C182.948 97.2576 182.962 97.1885 182.962 97.1187V91.7866H191.033V102.454Z" fill="#2C2C2C"/>
</svg>
