<svg width="103" height="156" viewBox="0 0 103 156" fill="none" xmlns="http://www.w3.org/2000/svg">
<path d="M100.278 78.0181C75.1141 96.7081 58.9549 110.66 52.5422 142.655C51.1988 125.887 46.0039 107.775 33.384 96.4646C25.7801 89.6485 11.3677 82.6801 1.90283 78.8553C10.755 97.6596 12.8862 121.286 29.818 134.747C36.2193 139.835 44.885 143.112 52.5841 145.867C62.1936 143.222 71.1067 138.826 78.2805 131.908C85.1651 125.267 93.9222 112.795 96.7613 106.588C100.803 97.7509 101.412 87.6657 100.278 78.0181Z" fill="#2D6A4F"/>
<path d="M36.6657 0C33.172 10.9986 29.6631 22.0467 27.8516 33.445C22.809 65.1583 34.1768 85.8312 49.5748 94.8014C54.9372 92.6778 58.1035 86.0786 59.6791 80.5298C63.7134 66.2947 63.6969 51.2164 59.6314 36.9902C55.5659 22.764 47.6126 9.95384 36.6657 0Z" fill="#2D6A4F"/>
<path d="M101.823 75.436C101.671 74.1383 100.232 73.2743 99.1247 74.1002C77.5422 90.1262 61.8968 102.613 53.5089 128.785C53.3909 122.209 52.6259 101.193 52.409 96.9652C56.7514 94.716 59.8721 90.1567 61.9386 83.0589C70.3379 54.2456 61.9691 21.8167 38.5447 0.470246C38.328 0.268194 38.0635 0.124436 37.7761 0.0524525C37.4887 -0.0195311 37.1877 -0.0173905 36.9014 0.0586661C36.615 0.134723 36.3527 0.282211 36.1389 0.487319C35.925 0.692426 35.7668 0.948451 35.6789 1.2314C31.2376 15.2137 26.6402 29.6756 25.7193 44.754C24.1056 71.2573 34.9406 89.2966 48.9686 97.7796C49.2997 104.364 49.5661 111.054 49.764 117.771C47.0201 109.007 42.5026 100.623 35.8425 94.088C27.9037 86.3053 12.5818 78.9145 2.27959 74.7395C0.799153 74.1382 -0.471943 75.809 0.17123 77.1829C5.28236 88.0902 7.99966 100.231 12.8139 111.427C21.9325 132.61 32.6952 138.037 50.2055 144.313C50.2131 146.958 50.2093 149.599 50.1979 152.244C49.1056 152.008 48.3292 151.486 47.4691 152.255C46.5025 153.111 46.727 154.82 48.0743 155.269C50.7804 156.165 53.6911 156.239 56.4393 155.482C57.7789 155.117 58.1024 153.473 57.1624 152.544C56.2338 151.627 55.408 152.301 53.6763 152.461C53.6878 150.151 53.6877 147.837 53.6801 145.523C72.7546 139.94 83.3688 128.111 93.5683 112.847C100.506 102.464 103.695 91.6866 101.823 75.436ZM31.896 95.165C43.0621 105.109 47.9981 119.853 49.7107 134.711C43.8588 124.387 37.1228 114.589 29.5783 105.429C28.1283 103.663 25.5556 106.004 26.9942 107.751C35.2559 117.805 42.5306 128.632 48.7174 140.081C44.4968 138.532 40.4057 136.899 36.5961 134.794C15.9423 123.396 13.4457 99.9907 5.0502 79.6832C13.1983 83.2302 25.2588 89.2547 31.896 95.165ZM52.1959 93.0605C51.2466 75.5427 49.8228 58.0539 47.9258 40.6134C47.6823 38.3756 44.2076 38.5468 44.455 40.8189C46.3084 57.8762 47.7774 75.5844 48.7479 93.4753C40.5541 87.7667 34.2327 78.4425 31.2604 67.5923C25.4833 46.4856 32.0064 24.3552 38.1603 4.90395C57.7675 24.0888 65.752 51.7376 59.6171 78.1533C58.6657 82.2597 56.9607 89.6239 52.1959 93.0605ZM56.3251 140.986C64.5629 127.761 73.9078 115.259 84.2594 103.614C85.7626 101.913 83.2432 99.5303 81.7209 101.235C71.4073 112.85 62.167 125.25 54.9018 136.716C61.5847 109.007 75.9552 95.7055 98.6489 78.7813C99.5052 90.0044 97.8345 99.5835 91.8785 109.064C82.5963 123.838 72.3321 135.16 56.3251 140.986Z" fill="#2C2C2C"/>
</svg>
