<svg width="250" height="250" viewBox="0 0 250 250" fill="none" xmlns="http://www.w3.org/2000/svg">
<path d="M101.99 128.625C101.99 128.625 109.903 124.956 117.338 127.208C117.338 127.208 119.52 153.788 126.136 161.018C130.971 166.301 138.21 167.567 144.623 151.128C151.269 134.087 159.198 126.093 166.814 125.479C166.814 125.479 167.546 140.5 181.843 141.958C192.166 143.01 197.283 132.233 197.283 132.233C197.283 132.233 210.561 134.708 215.466 139.395C222.248 145.875 229.908 165.638 229.956 182.993C230.011 202.514 223.659 213.167 207.036 215.349C207.036 215.349 198.193 222.933 176.411 221.795C164.754 221.051 153.746 216.164 145.375 208.016C147.636 200.685 149.191 193.153 150.016 185.525C150.016 185.525 129.444 195.344 116.93 182.025C102.36 166.525 101.99 128.625 101.99 128.625Z" fill="#2D6A4F"/>
<path d="M167.576 69.3623C167.576 69.3623 162.13 71.2111 162.403 89.1586C162.403 89.1586 162.766 91.1336 157.515 90.9298C158.4 93.1116 159.906 94.9854 161.846 96.3186C161.869 97.0499 161.753 97.7789 161.505 98.4673C161.13 99.1873 158.766 97.156 158.299 98.671C157.831 100.186 159.868 100.716 159.868 100.716C159.868 100.716 157.601 102.635 158.776 103.549C159.112 103.799 159.526 103.923 159.944 103.898C160.362 103.873 160.758 103.701 161.061 103.412C161.061 103.412 159.538 112.787 165.178 115.201C170.818 117.615 172.453 115.565 172.453 115.565C172.453 115.565 174.363 120.795 173.681 124.296C171.33 124.126 168.973 124.532 166.814 125.479C166.814 125.479 168.181 140.949 181.116 141.919C192.951 142.805 197.283 132.232 197.283 132.232C197.283 132.232 184.25 128.262 181.458 117.625C178.665 106.987 182.643 95.4998 182.139 90.3461C181.594 84.7523 177.306 80.4073 174.431 78.5448C171.052 76.4781 168.597 73.19 167.576 69.3623Z" fill="#FDF6EE"/>
<path d="M202.694 191.326C202.694 191.326 217.389 175.84 217.791 174.979C218.194 174.118 202.573 156.015 196.416 150.923C196.416 150.923 194.114 152.58 193.534 152.894C193.534 152.894 190.601 149.558 189.954 149.394C189.306 149.23 177.573 158.433 177.573 158.433C177.573 158.433 177.186 150.531 176.14 150.5C175.094 150.469 173.911 158.686 173.411 158.708C172.911 158.729 168.769 139.401 167.225 139.401C165.681 139.401 167 148.223 167 148.223C167 148.223 163.853 140.87 163.134 141.065C161.884 141.403 163.453 152.118 163.453 152.118C163.453 152.118 160.499 146.321 159.815 146.493C158.541 146.816 161.451 158.705 161.451 158.705C161.451 158.705 157.543 154.41 156.631 154.814C155.404 155.36 162.498 167.865 163.816 169.411C163.816 169.411 152.334 178.756 148.514 182.44C148.514 182.44 167.671 208.77 168.495 208.77C169.319 208.77 174.37 204.404 174.37 204.404C174.37 204.404 181.478 212.42 182.215 212.42C182.953 212.42 187.074 207.635 187.074 207.635C187.074 207.635 174.506 199.153 167.106 177.495C167.106 177.495 175.189 171.458 180.783 169.62C180.775 169.613 194.599 187.734 202.694 191.326Z" fill="#FDF6EE"/>
<path d="M106.15 127.389C108.665 126.899 111.231 126.716 113.79 126.844C113.285 125.383 113.175 123.814 113.471 122.296C114.063 120.34 116.336 117.409 115.109 114.921C117.067 115.242 119.04 115.458 121.021 115.569C121.294 115.388 125.521 90.2851 125.591 86.6013C112.008 80.7744 97.3238 77.9598 82.5488 78.3513C82.5488 78.3513 78.1838 98.8838 77.2988 106.046C77.2988 106.046 83.6426 108.296 85.1438 108.775C85.1438 108.775 85.1438 111.571 89.2363 113.959C93.3288 116.346 103.493 119.298 104.789 121.169C106.008 122.997 106.494 125.218 106.15 127.389Z" fill="#FDF6EE"/>
<path d="M27.7976 117.021C27.7976 117.021 49.6801 101.603 64.1726 99.6465C64.1726 99.6465 72.8864 111.834 76.3964 123.93C76.3964 123.93 51.7114 140.104 41.1614 142.659C41.1664 142.661 31.9814 128.208 27.7976 117.021Z" fill="#FDF6EE"/>
<path d="M37.8751 44.9888C37.8751 44.9888 62.7339 50 74.8751 58.125C74.8751 58.125 68.5001 82.17 66.6551 83.6025C66.6551 83.6025 33.5726 73.985 28.6614 72.075C28.6614 72.0688 34.9364 48.945 37.8751 44.9888Z" fill="#FDF6EE"/>
<path d="M173.108 115.913C174.401 115.38 175.59 114.622 176.618 113.674C176.684 113.612 176.737 113.537 176.774 113.453C176.81 113.37 176.83 113.28 176.831 113.189C176.832 113.098 176.814 113.008 176.78 112.924C176.745 112.84 176.694 112.764 176.629 112.7C176.564 112.636 176.487 112.586 176.402 112.553C176.317 112.52 176.227 112.504 176.136 112.507C176.045 112.51 175.955 112.531 175.873 112.569C175.79 112.607 175.716 112.661 175.655 112.729C175.613 112.771 171.366 117.013 165.826 114.671C160.359 112.361 161.646 103.524 161.66 103.435C161.68 103.304 161.661 103.17 161.605 103.05C161.549 102.93 161.459 102.828 161.347 102.759C161.234 102.689 161.103 102.655 160.97 102.659C160.838 102.664 160.709 102.707 160.601 102.784C160.601 102.784 159.508 103.534 159.164 102.916C158.789 102.241 159.869 101.603 160.335 101.274C160.439 101.201 160.52 101.1 160.569 100.983C160.618 100.866 160.633 100.738 160.612 100.613C160.592 100.487 160.537 100.371 160.453 100.275C160.369 100.18 160.26 100.11 160.139 100.074C159.7 99.9489 158.639 99.8089 158.851 99.0064C159.09 98.1214 160.706 98.9752 161.131 99.1877C161.292 99.2688 161.479 99.2828 161.65 99.2264C162.334 98.9989 162.638 97.9977 162.554 96.2514C162.551 96.155 162.527 96.0604 162.483 95.9742C162.44 95.8879 162.379 95.8119 162.304 95.7514C160.816 94.6291 159.57 93.2185 158.639 91.6039C161.389 91.4864 162.249 91.0427 162.656 90.7052C162.825 90.5637 162.96 90.3861 163.05 90.1855C163.141 89.9849 163.186 89.7665 163.18 89.5464C162.84 78.1552 165.055 73.0989 166.68 70.9377C167.504 73.702 169.13 76.1596 171.351 77.9989C175.174 81.3202 180.689 84.5852 180.871 91.8227C180.996 97.0052 175.419 114.535 184.781 125.091C186.536 127.082 188.562 128.815 190.8 130.24C189.819 131.592 188.551 132.71 187.088 133.515C185.624 134.319 184.001 134.791 182.334 134.895C176.824 134.895 173.89 128.055 173.748 127.564C175.345 121.465 173.889 117.468 173.108 115.913ZM172.881 125.115C172.556 127.189 172.296 127.353 172.389 127.729C172.409 127.814 175.139 136.166 182.313 136.249C184.234 136.244 186.124 135.755 187.806 134.827C189.489 133.898 190.91 132.56 191.938 130.936C193.276 131.697 194.669 132.358 196.104 132.915C194.624 135.811 192.24 138.145 189.314 139.564C186.387 140.983 183.078 141.409 179.888 140.778C177.537 140.406 175.323 139.433 173.461 137.951C171.599 136.469 170.152 134.53 169.263 132.323C168.35 130.237 167.778 128.018 167.57 125.75C169.283 125.197 171.087 124.982 172.881 125.115ZM120.875 113.538C119.066 109.689 114.75 100.834 111.258 96.3202C113.688 95.2952 123.071 89.1602 124.959 87.8814C124.301 92.5089 122.268 106.569 120.875 113.538ZM124.441 86.6089C116.47 92.0677 103.868 99.6252 101 98.5202C97.6252 97.2227 87.8277 84.3052 83.8752 78.7989C89.024 78.9652 108.279 80.0202 124.441 86.6089ZM82.8577 79.7014C84.2702 81.6577 88.6627 87.6627 92.8952 92.6227C87.2052 96.7027 80.8152 102.138 78.0402 104.544C78.7615 100.18 80.6952 88.8914 82.8577 79.7014ZM78.4102 106.011C80.8202 103.909 87.7227 97.9802 93.7852 93.6489C96.4577 96.7002 98.8952 99.4602 100.525 99.7739C102.881 100.235 105.203 99.4527 110.049 96.9539C113.696 101.57 118.529 111.679 120.034 114.913C119.094 114.843 117.55 114.7 115.409 114.413C113.933 112.413 110.705 112.39 106.988 112.368C100.98 112.331 99.7777 112.206 92.4652 109.511C88.9027 108.198 86.3552 107.261 85.169 107.984C84.404 107.775 80.9027 106.798 78.4102 106.011ZM93.5352 115.45C89.1227 113.471 85.3165 110.353 85.8502 109.153C86.7252 108.041 95.6265 112.97 101.759 113.528C107.559 114.059 113.009 113.005 114.441 115.386C115.681 117.449 113.368 119.754 112.798 121.965C112.608 123.316 112.621 124.687 112.836 126.034C110.878 125.997 108.921 126.17 106.999 126.55C107.127 124.726 106.658 122.909 105.663 121.375C103.594 118.316 95.5002 116.33 93.534 115.45H93.5352ZM177.451 221.031C165.82 220.394 154.767 215.753 146.166 207.896C148.291 200.997 149.854 193.937 150.84 186.785C156.103 193.93 166.554 208.065 168.013 209.576C168.076 209.642 168.151 209.694 168.235 209.729C168.318 209.765 168.408 209.783 168.499 209.783C168.818 209.783 168.423 210.008 174.511 205.444C176.991 208.02 179.504 210.569 181.873 212.896C182.004 213.009 182.171 213.071 182.345 213.071C182.518 213.071 182.685 213.009 182.816 212.896C182.816 212.896 186.941 208.809 186.965 208.78C192.174 213.002 198.613 215.419 205.313 215.666C201.875 217.786 193 221.97 177.45 221.031H177.451ZM162.865 159.789C160.886 153.625 159.93 148.914 160.006 147.31C161.633 150.602 163.026 154.003 164.178 157.489C164.234 157.652 164.352 157.788 164.505 157.867C164.659 157.947 164.837 157.964 165.003 157.916C165.169 157.868 165.311 157.758 165.398 157.609C165.486 157.459 165.512 157.282 165.473 157.114C163.958 150.265 163.085 143.999 163.331 142.061C165.136 146.355 166.646 150.766 167.85 155.264C167.901 155.43 168.013 155.57 168.164 155.656C168.315 155.741 168.493 155.765 168.661 155.723C168.83 155.68 168.975 155.574 169.067 155.428C169.16 155.281 169.192 155.104 169.158 154.934C167.513 147.368 166.93 141.765 167.243 140.171C168.303 142.118 170.256 150.039 171.243 154.023C172.656 159.753 172.683 159.764 173.118 159.964C173.314 160.015 173.521 160.012 173.716 159.955C174.341 159.886 175.426 152.246 175.899 151.811C177.575 155.009 177.609 169.811 176.758 170.639C176.59 170.755 170.008 174.724 169.578 174.973C163.463 169.301 158.555 159.348 157.246 155.656C158.39 156.725 160.19 158.663 161.716 160.429C161.819 160.541 161.957 160.615 162.107 160.64C162.257 160.664 162.411 160.637 162.544 160.563C162.676 160.489 162.78 160.372 162.838 160.232C162.897 160.091 162.906 159.935 162.864 159.789H162.865ZM168.49 175.809C167.907 176.196 167.299 176.606 166.668 177.036C166.546 177.119 166.454 177.24 166.407 177.38C166.361 177.52 166.361 177.672 166.409 177.811C166.409 177.825 166.506 178.095 166.685 178.574C166.636 178.605 164.086 181.408 162.09 183.621L149.965 181.871C154.914 177.621 161.804 171.788 163.75 170.328C165.161 172.295 166.748 174.13 168.491 175.809H168.49ZM160.99 188.34C163.211 188.654 169.248 189.509 171.893 189.875C174.632 195.038 178.011 199.836 181.949 204.154L181.723 210.851C174.415 203.723 167.493 196.209 160.989 188.34H160.99ZM173.57 204.465L169.344 207.634C169.574 206.234 170.065 203.334 170.455 201.171C171.473 202.259 172.515 203.361 173.569 204.463L173.57 204.465ZM160.899 186.965C162.48 185.201 166.116 181.179 167.223 179.955C167.988 181.873 169.289 184.913 171.109 188.405C168.019 187.973 162.635 187.21 160.898 186.964L160.899 186.965ZM161.005 184.829C160.063 185.876 159.331 186.693 159.164 186.888C158.714 187.413 158.358 187.828 166.056 196.388C167.088 197.534 168.181 198.728 169.306 199.945C168.974 201.744 168.291 205.68 168.001 207.473C164.398 202.939 153.233 187.773 149.893 183.223L161.005 184.829ZM183.075 210.75L183.253 205.5C184.159 206.398 185.049 207.206 185.918 207.938L183.075 210.75ZM228.536 193.203C225.59 216.481 205.311 216.524 194.594 211.859C178.4 204.81 169.211 181.521 167.861 177.859C169.486 176.754 180.054 170.503 180.676 170.234C195.901 191.206 207.651 194.75 208.148 194.893C208.32 194.942 208.505 194.922 208.661 194.835C208.818 194.749 208.934 194.603 208.984 194.431C209.034 194.259 209.013 194.075 208.927 193.918C208.84 193.761 208.695 193.645 208.523 193.595C206.895 193.02 205.337 192.262 203.88 191.335C206.159 188.676 218.343 175.65 218.47 175.514C218.551 175.428 218.607 175.322 218.634 175.207C218.661 175.092 218.658 174.972 218.624 174.859C218.309 173.811 207.641 161.859 207.644 161.841C207.77 159.497 207.678 157.146 207.368 154.819C207.356 154.731 207.327 154.647 207.283 154.57C207.239 154.493 207.18 154.426 207.109 154.372C207.039 154.319 206.959 154.279 206.873 154.256C206.788 154.234 206.699 154.228 206.611 154.24C206.523 154.251 206.439 154.28 206.362 154.324C206.285 154.369 206.218 154.428 206.164 154.498C206.111 154.568 206.071 154.648 206.048 154.734C206.026 154.819 206.02 154.909 206.031 154.996C206.261 156.825 206.373 158.667 206.369 160.51C201.608 155.3 197.074 150.468 196.775 150.26C196.686 150.202 196.581 150.173 196.475 150.176C196.216 150.176 195.936 150.176 193.818 152.073C192.835 150.801 191.203 148.794 190.2 148.698C188.623 148.544 179.238 156.448 178.135 157.344C177.9 154.796 177.391 150.024 176.085 149.844C174.264 149.594 173.366 156.781 173.345 156.886C173.106 155.955 172.828 154.824 172.553 153.71C169.32 140.615 168.428 138.491 167.205 138.52C165.59 138.559 165.755 142.368 166.103 145.315C164.304 140.259 163.756 140.338 163.228 140.294C161.886 140.183 161.424 142.009 162.693 149.76C160.829 145.418 160.179 145.51 159.778 145.551C157.246 145.811 160.416 156.29 160.693 157.251C157.068 153.29 156.463 153.451 156.115 153.551C154.315 154.065 160.083 165.426 162.978 169.235C161.056 170.671 155.728 175.181 151.93 178.418C153.099 171.771 154.035 156.793 154.079 156.085C154.09 155.906 154.03 155.731 153.911 155.596C153.793 155.462 153.626 155.381 153.447 155.37C153.268 155.358 153.093 155.419 152.958 155.537C152.824 155.656 152.743 155.823 152.731 156.001C152.72 156.193 151.556 174.836 150.255 179.85C149.119 180.823 148.278 181.546 147.963 181.816C147.834 181.927 147.753 182.083 147.733 182.251C147.714 182.42 147.759 182.589 147.859 182.726C147.984 182.89 148.534 183.648 149.388 184.809C137.185 190.756 121.263 191.018 112.346 174.19C103.558 157.608 102.846 132.78 102.794 129.17C107.981 126.661 114.905 127.45 116.704 127.706C117.513 139.921 121.245 166.041 133.429 165.038C147.984 163.836 144.41 132.468 166.275 126.215C166.619 129.34 168.635 139.965 179.663 142.11C191.195 144.36 196.36 135.354 197.388 133.393C204.279 135.813 210.888 136.051 214.904 139.408C226.728 155.053 231.138 172.649 228.536 193.196V193.203ZM195.804 152.118C195.686 156.868 195.246 173.81 194.694 184.274C189.789 179.637 185.355 174.525 181.459 169.013C181.374 168.894 181.252 168.806 181.112 168.763C180.973 168.719 180.823 168.722 180.685 168.771C179.879 169.089 179.092 169.455 178.329 169.866C178.373 169.584 178.411 169.254 178.444 168.875C178.506 168.836 192.923 154.521 195.804 152.111V152.118ZM190.324 155.323L190.601 150.478C191.402 151.252 192.141 152.088 192.811 152.978C192.125 153.604 191.31 154.375 190.324 155.316V155.323ZM188.894 156.698C188.155 157.413 180.038 165.415 178.543 166.914C178.569 165.7 178.354 160.098 178.269 158.973C182.553 155.445 187.248 151.785 189.249 150.5L188.894 156.698ZM216.606 175.529C213.67 178.671 204.39 188.623 202.72 190.614C200.346 189.063 198.094 187.334 195.983 185.441C196.143 182.578 196.295 179.128 196.433 175.53C205.928 175.235 214.454 175.456 216.606 175.523V175.529ZM196.481 174.179C196.806 165.454 197.049 156.196 197.141 152.519C198.969 154.474 215.494 172.776 216.585 174.178C214.334 174.104 205.893 173.89 196.484 174.173L196.481 174.179ZM238.856 106.679C232.545 99.3577 222.2 97.7127 213.719 95.3239C208.42 92.1364 206.994 87.8464 203.838 79.9264C200.184 70.7602 194.144 63.1914 185.594 62.4627C180.094 61.9977 173.81 62.2702 168.798 67.3027C168.954 65.9557 169.517 64.6885 170.413 63.6706C171.309 62.6526 172.494 61.9325 173.81 61.6064C173.895 61.5808 173.974 61.5385 174.043 61.482C174.111 61.4256 174.168 61.3561 174.209 61.2776C174.251 61.1991 174.276 61.1131 174.284 61.0248C174.292 60.9364 174.282 60.8473 174.255 60.7627C174.201 60.5924 174.083 60.4503 173.925 60.367C173.767 60.2837 173.582 60.266 173.411 60.3177C171.644 60.7918 170.088 61.8487 168.996 63.3172C167.905 64.7857 167.34 66.5798 167.395 68.4089C165.895 69.3402 161.348 73.4914 161.826 89.6039C161.826 89.6192 161.823 89.6342 161.816 89.648C161.81 89.6618 161.801 89.6741 161.789 89.6839C161.628 89.8189 160.848 90.2614 157.6 90.2977C157.497 90.3001 157.395 90.326 157.304 90.3735C157.212 90.4209 157.132 90.4886 157.07 90.5715C157.008 90.6544 156.966 90.7502 156.947 90.8518C156.928 90.9533 156.932 91.0579 156.959 91.1577C157.826 93.3475 159.301 95.2443 161.209 96.6252C161.215 96.9977 161.191 97.3702 161.138 97.7389C160.504 97.5027 158.328 97.0527 157.626 98.4402C157.009 99.6614 158.261 100.673 158.696 100.925C158.288 101.256 158.005 101.717 157.895 102.231C157.784 102.745 157.853 103.282 158.089 103.751C158.33 104.067 158.662 104.301 159.04 104.421C159.419 104.542 159.825 104.544 160.204 104.426C159.901 109.018 161.021 114.119 165.296 115.926C167.38 116.694 169.641 116.847 171.809 116.368C172.877 118.684 173.301 121.245 173.036 123.781C155.054 124.156 148.854 139.708 144.996 149.094C141.88 156.669 139.191 163.219 133.306 163.701C132.358 163.774 131.405 163.646 130.51 163.326C129.614 163.006 128.796 162.5 128.109 161.843C119.508 154.325 118.021 127.363 118.008 127.093C117.998 126.94 117.937 126.794 117.833 126.681C117.73 126.567 117.592 126.492 117.44 126.468C116.367 126.293 115.285 126.176 114.199 126.116C113.746 122.568 114.004 122.215 114.928 120.41C115.81 119.072 116.207 117.473 116.053 115.878C117.769 116.121 119.498 116.273 121.23 116.333C121.676 116.344 121.741 115.904 121.76 115.826C123.41 108.881 126.476 86.7952 126.498 86.5764C126.533 86.4286 126.511 86.273 126.437 86.1406C126.362 86.0081 126.241 85.9085 126.096 85.8614C106.766 77.9502 82.7827 77.4414 82.5402 77.4402C82.3887 77.4397 82.2414 77.4904 82.1223 77.5841C82.0032 77.6778 81.9192 77.809 81.884 77.9564C79.0002 89.7602 76.4165 106.04 76.3965 106.206C76.3591 106.364 76.3855 106.531 76.4699 106.67C76.5544 106.808 76.6901 106.908 76.8477 106.948C79.0577 107.698 83.0715 108.83 84.454 109.218C84.1077 113.976 94.3027 117.211 95.344 117.559C98.289 118.55 103.219 120.203 104.535 122.153C105.426 123.561 105.804 125.233 105.604 126.888C104.301 127.18 103.029 127.599 101.806 128.138C101.692 128.193 101.596 128.279 101.528 128.386C101.461 128.494 101.425 128.618 101.425 128.745C101.425 129.025 101.023 156.995 111.139 174.84C123.808 197.194 143.035 189.326 149.548 186.24C148.558 193.57 146.952 200.804 144.748 207.865C144.708 207.978 144.7 208.1 144.723 208.217C144.746 208.334 144.801 208.443 144.88 208.533C144.991 208.658 156.21 221.351 177.359 222.408C197.136 223.393 206.753 216.478 207.758 215.631C224.489 214.355 228.78 201.8 229.866 193.399C232.548 172.663 228.091 154.861 216.264 139.016C220.28 137.668 232.311 132.933 240.355 122.49C240.621 122.145 240.813 121.749 240.92 121.327C241.028 120.905 241.048 120.465 240.98 120.035C240.379 116.328 237.855 106.075 227.819 100.891C231.642 102.281 235.073 104.575 237.819 107.576C241.779 112.173 242.381 118.858 242.386 118.925C242.396 119.015 242.422 119.102 242.465 119.181C242.508 119.26 242.566 119.33 242.636 119.387C242.706 119.444 242.786 119.486 242.872 119.512C242.958 119.538 243.049 119.546 243.138 119.537C243.228 119.528 243.315 119.501 243.394 119.458C243.473 119.416 243.543 119.358 243.6 119.288C243.657 119.218 243.699 119.138 243.725 119.051C243.751 118.965 243.759 118.875 243.75 118.785C243.292 114.366 241.597 110.165 238.858 106.666L238.856 106.679ZM183.559 80.0539C183.499 80.2229 183.375 80.3616 183.214 80.4403C183.053 80.5191 182.868 80.5316 182.698 80.4752C175.895 78.1339 172.016 70.3227 171.855 69.9889C171.777 69.8285 171.766 69.6435 171.824 69.4747C171.882 69.3059 172.005 69.1672 172.165 69.0889C172.326 69.0107 172.511 68.9994 172.679 69.0575C172.848 69.1157 172.987 69.2385 173.065 69.3989C173.103 69.4739 176.87 77.0452 183.136 79.1964C183.304 79.2545 183.443 79.3761 183.522 79.535C183.601 79.6939 183.615 79.8775 183.56 80.0464L183.559 80.0539ZM214.96 128.411C214.875 128.435 214.785 128.44 214.697 128.428C214.609 128.417 214.524 128.387 214.448 128.343C214.371 128.298 214.304 128.238 214.251 128.167C214.198 128.096 214.159 128.015 214.138 127.929C212.823 122.901 206.361 120.356 201.388 118.763C194.068 116.414 190.241 111.551 189.648 104.036C188.801 93.3427 186.345 91.3289 186.323 91.3152C186.244 91.2696 186.176 91.2086 186.121 91.1359C186.067 91.0632 186.027 90.9803 186.006 90.8921C185.984 90.8039 185.981 90.7122 185.995 90.6226C186.01 90.5329 186.042 90.4471 186.091 90.3704C186.14 90.2936 186.203 90.2275 186.278 90.1759C186.353 90.1242 186.437 90.0882 186.526 90.07C186.615 90.0518 186.707 90.0517 186.796 90.0698C186.885 90.0878 186.969 90.1237 187.044 90.1752C187.351 90.3702 190.079 92.4152 190.994 103.925C191.546 110.934 194.994 115.221 201.806 117.474C207.181 119.249 213.931 121.838 215.439 127.585C215.484 127.757 215.458 127.94 215.369 128.093C215.28 128.246 215.133 128.358 214.961 128.404L214.96 128.411ZM233.774 116.681C233.814 116.763 233.838 116.851 233.844 116.941C233.849 117.032 233.836 117.122 233.806 117.208C233.776 117.293 233.729 117.372 233.668 117.438C233.606 117.505 233.532 117.559 233.45 117.597C233.368 117.634 233.278 117.655 233.188 117.657C233.097 117.66 233.007 117.644 232.923 117.611C232.839 117.578 232.762 117.528 232.697 117.464C232.632 117.401 232.581 117.325 232.546 117.241C230.853 113.518 228.273 109.818 215.48 105.456C203.834 101.488 201.284 95.3489 196.66 84.2064C191.88 72.7064 183.401 70.1589 183.318 70.1352C183.146 70.0854 183 69.9693 182.913 69.8124C182.827 69.6554 182.806 69.4705 182.856 69.2983C182.906 69.1261 183.022 68.9807 183.179 68.894C183.336 68.8074 183.52 68.7867 183.693 68.8364C184.068 68.9452 192.883 71.5864 197.908 83.6877C202.384 94.4702 204.849 100.409 215.919 104.18C229.218 108.708 231.954 112.674 233.775 116.674L233.774 116.681Z" fill="#2C2C2C"/>
<path d="M152.448 98.9536C141.52 97.5349 139.563 86.4936 134.758 73.4149C129.416 58.8824 120.666 56.4424 120.579 56.4149C120.412 56.3645 120.271 56.2516 120.186 56.0998C120.1 55.9481 120.077 55.7691 120.12 55.6005C120.164 55.4318 120.271 55.2865 120.419 55.1948C120.567 55.1031 120.745 55.0723 120.915 55.1086C121.3 55.2074 130.415 57.6911 136.024 72.9461C140.434 84.9461 142.474 96.2949 152.621 97.6124C152.799 97.6354 152.96 97.728 153.069 97.8697C153.178 98.0114 153.226 98.1907 153.203 98.368C153.18 98.5454 153.088 98.7063 152.946 98.8154C152.804 98.9246 152.625 98.9729 152.448 98.9499V98.9536Z" fill="#2C2C2C"/>
<path d="M131.625 97.9224C131.564 97.8578 131.516 97.7816 131.485 97.6982C131.454 97.6148 131.44 97.526 131.444 97.4371C131.448 97.3482 131.47 97.2611 131.508 97.1808C131.547 97.1005 131.601 97.0288 131.668 96.9699C131.733 96.91 131.809 96.8636 131.892 96.8333C131.976 96.8029 132.064 96.7893 132.152 96.7931C132.241 96.7969 132.328 96.8182 132.408 96.8556C132.488 96.893 132.56 96.9459 132.62 97.0112C132.705 97.1037 141.311 106.275 153.283 102.284C153.451 102.233 153.632 102.249 153.789 102.33C153.945 102.41 154.063 102.549 154.119 102.716C154.175 102.882 154.163 103.064 154.087 103.223C154.01 103.381 153.875 103.503 153.71 103.564C149.871 104.794 145.762 104.917 141.856 103.919C137.95 102.921 134.404 100.843 131.625 97.9224Z" fill="#2C2C2C"/>
<path d="M129.556 117.735C129.836 117.321 136.586 107.61 153.035 107.61C153.126 107.606 153.217 107.621 153.302 107.653C153.387 107.685 153.465 107.734 153.531 107.797C153.597 107.86 153.649 107.936 153.685 108.019C153.721 108.103 153.739 108.193 153.739 108.284C153.739 108.375 153.721 108.466 153.685 108.549C153.649 108.633 153.597 108.709 153.531 108.772C153.465 108.835 153.387 108.884 153.302 108.916C153.217 108.948 153.126 108.963 153.035 108.959C144.83 108.959 135.448 112.139 130.674 118.486C130.569 118.621 130.417 118.71 130.248 118.737C130.08 118.764 129.907 118.726 129.765 118.631C129.624 118.536 129.524 118.39 129.485 118.224C129.446 118.058 129.472 117.883 129.556 117.735Z" fill="#2C2C2C"/>
<path d="M168.476 92.3097C168.034 92.3097 165.813 92.0372 165.616 86.7072C165.611 86.5285 165.676 86.3548 165.797 86.224C165.919 86.0931 166.088 86.0156 166.266 86.0084C166.355 86.0046 166.444 86.0184 166.527 86.0491C166.61 86.0798 166.687 86.1268 166.752 86.1872C166.817 86.2477 166.869 86.3205 166.906 86.4014C166.942 86.4823 166.963 86.5697 166.965 86.6584C167.033 88.4609 167.59 90.9597 168.476 90.9597C169.424 90.9597 170.196 88.6797 170.421 87.1372C170.453 86.9656 170.55 86.813 170.692 86.7113C170.834 86.6097 171.009 86.5669 171.182 86.5919C171.355 86.617 171.511 86.708 171.618 86.8457C171.725 86.9835 171.775 87.1574 171.756 87.3309C171.683 87.8397 170.966 92.3097 168.476 92.3097Z" fill="#2C2C2C"/>
<path d="M172.021 82.3163C171.921 82.3161 171.822 82.2936 171.731 82.2504C171.641 82.2071 171.561 82.1443 171.498 82.0663C170.94 81.3497 170.125 80.8773 169.226 80.7484C168.327 80.6195 167.413 80.8441 166.676 81.3751C166.604 81.4257 166.522 81.4616 166.435 81.4805C166.349 81.4995 166.259 81.5013 166.172 81.4857C166.085 81.4702 166.002 81.4376 165.927 81.3899C165.853 81.3422 165.788 81.2802 165.738 81.2076C165.687 81.1349 165.651 81.053 165.632 80.9665C165.613 80.8801 165.611 80.7907 165.627 80.7035C165.642 80.6163 165.675 80.5331 165.723 80.4585C165.771 80.3839 165.832 80.3195 165.905 80.2688C166.917 79.5322 168.177 79.2188 169.416 79.3952C170.655 79.5717 171.777 80.224 172.544 81.2138C172.625 81.3127 172.676 81.4326 172.692 81.5594C172.707 81.6863 172.686 81.8149 172.631 81.9304C172.577 82.0459 172.49 82.1435 172.382 82.2118C172.274 82.2801 172.149 82.3163 172.021 82.3163Z" fill="#2C2C2C"/>
<path d="M73.604 141.316C76.6581 140.689 79.473 139.212 81.7247 137.055C83.9764 134.898 85.5732 132.149 86.3315 129.125C86.3785 128.952 86.4923 128.805 86.6477 128.716C86.8031 128.628 86.9875 128.604 87.1602 128.651C87.3329 128.698 87.4799 128.812 87.5687 128.967C87.6576 129.123 87.681 129.307 87.634 129.48C85.954 135.654 80.8665 141.626 73.759 142.66C73.5808 142.681 73.4017 142.629 73.2612 142.518C73.1206 142.406 73.0301 142.244 73.0096 142.066C72.989 141.887 73.0401 141.708 73.1516 141.568C73.263 141.427 73.4258 141.337 73.604 141.316Z" fill="#2C2C2C"/>
<path d="M78.8188 145.809C78.7821 145.634 78.8164 145.451 78.9142 145.301C79.0119 145.152 79.1651 145.047 79.34 145.01C81.8035 144.412 84.0068 143.031 85.6198 141.076C87.2329 139.12 88.1689 136.695 88.2875 134.162C88.3042 133.987 88.3888 133.825 88.5232 133.711C88.6577 133.597 88.8313 133.541 89.007 133.553C89.1827 133.565 89.3466 133.646 89.4638 133.778C89.5809 133.909 89.6419 134.081 89.6338 134.257C89.4637 137.073 88.401 139.761 86.6 141.932C84.799 144.102 82.3532 145.643 79.6175 146.33C79.4425 146.366 79.2601 146.332 79.1103 146.234C78.9606 146.137 78.8557 145.984 78.8188 145.809Z" fill="#2C2C2C"/>
<path d="M77.6251 123.697C74.282 115.087 70.0857 106.833 65.0988 99.0587C65.0308 98.9218 64.9243 98.8076 64.7925 98.7301C64.6606 98.6526 64.5091 98.6152 64.3563 98.6225C58.3863 99.4687 39.5751 107.335 27.4138 116.372C27.2872 116.462 27.1949 116.593 27.1519 116.742C27.109 116.891 27.1181 117.05 27.1776 117.194C31.1353 126.141 35.5491 134.88 40.4013 143.375C40.5263 143.587 41.1388 143.692 41.2176 143.669C47.2176 141.907 75.6138 125.726 76.5988 125.169C77.2963 124.78 77.8088 124.182 77.6251 123.697ZM54.8363 124.036C55.9176 123.586 57.2976 120.855 58.7463 117.45C64.4999 119.355 70.1349 121.601 75.6213 124.176C70.7676 126.98 51.2713 138.141 42.0263 141.904C43.4047 135.615 45.1778 129.419 47.3351 123.352C49.8101 123.902 53.4451 124.615 54.8376 124.036H54.8363ZM59.2663 116.199C61.4363 110.875 63.5951 104.251 64.6413 100.93C66.8126 104.597 73.0101 115.305 75.8801 122.805C70.4758 120.282 64.9288 118.076 59.2676 116.199H59.2663ZM63.4776 100.14C61.9101 105.13 56.2863 122.345 54.2276 122.829C50.7163 123.66 34.5701 118.5 29.2501 116.762C33.7501 113.777 51.3651 102.462 63.4788 100.14H63.4776ZM29.0501 118.115C32.3188 119.184 39.8538 121.581 46.0076 123.046C43.8919 129.02 42.1457 135.118 40.7788 141.306C38.7938 137.785 33.4438 128.072 29.0501 118.115Z" fill="#2C2C2C"/>
<path d="M75.5351 58.1062C75.4176 57.2037 74.6789 56.9325 73.6126 56.3687C70.3764 54.6575 59.3114 48.9937 38.0351 44.1475C37.8822 44.1139 37.7224 44.1348 37.5832 44.2064C37.444 44.2781 37.3342 44.396 37.2726 44.54C36.1889 47.0587 29.1389 64.7325 28.0139 71.6162C27.9689 71.8912 27.7639 72.2525 28.0139 72.4212C30.1589 73.8425 64.4564 83.895 65.3589 84.1625C65.9326 84.3325 66.8189 84.86 67.3764 84.4125C67.7364 84.1175 75.5676 58.3525 75.5351 58.1062ZM66.9701 81.7687C65.2629 75.9899 63.2505 70.3057 60.9414 64.74C61.1551 64.6587 70.3001 61.0137 73.9176 59.2175C72.6926 63.4362 69.1476 75.5312 66.9701 81.7687ZM51.5564 67.4462C52.0926 67.6687 54.3589 67.1775 59.6739 65.2137C62.0703 70.9974 64.1509 76.9069 65.9064 82.9162C60.9676 81.4537 41.7901 75.7487 30.1564 71.89C35.7906 68.3305 41.6229 65.0948 47.6251 62.1987C50.8489 67.1725 51.2664 67.3262 51.5564 67.4462ZM73.5801 57.875C66.5801 61.3987 53.8301 66.125 52.0514 66.1662C50.7739 64.9575 43.5676 53.3025 39.0326 45.7562C43.9164 46.905 61.6764 51.345 73.5801 57.875ZM37.9064 46.5C38.7814 47.955 46.0714 59.775 46.8864 61.0487C40.9757 63.9122 35.2285 67.1017 29.6714 70.6025C31.8915 62.3984 34.6423 54.3473 37.9064 46.5Z" fill="#2C2C2C"/>
<path d="M86.7102 56.4312C85.3136 56.2685 83.9689 55.8049 82.7686 55.0725C81.5684 54.3401 80.5411 53.3563 79.7577 52.1887C76.9502 47.7687 78.5552 41.7875 78.6252 41.535C78.6487 41.4496 78.6889 41.3697 78.7433 41.2999C78.7977 41.23 78.8654 41.1716 78.9424 41.1279C79.0194 41.0842 79.1043 41.0561 79.1922 41.0452C79.28 41.0343 79.3692 41.0408 79.4546 41.0643C79.5399 41.0879 79.6198 41.128 79.6897 41.1825C79.7595 41.2369 79.8179 41.3045 79.8616 41.3816C79.9053 41.4586 79.9335 41.5434 79.9444 41.6313C79.9553 41.7192 79.9487 41.8084 79.9252 41.8937C79.9102 41.95 78.4114 47.5612 80.9002 51.47C81.5854 52.4745 82.4797 53.3192 83.5218 53.9459C84.5639 54.5727 85.7291 54.9668 86.9377 55.1012C87.0273 55.1136 87.1135 55.1439 87.1911 55.1903C87.2688 55.2366 87.3363 55.2981 87.3898 55.3711C87.4432 55.4441 87.4814 55.5271 87.5021 55.6151C87.5229 55.7032 87.5257 55.7945 87.5104 55.8836C87.4952 55.9728 87.4622 56.058 87.4134 56.1341C87.3645 56.2103 87.3009 56.2758 87.2263 56.3269C87.1516 56.378 87.0675 56.4135 86.9788 56.4315C86.8902 56.4494 86.7988 56.4493 86.7102 56.4312Z" fill="#2C2C2C"/>
<path d="M87.6827 53.8062C83.149 52.1362 82.9215 47.0975 83.4327 44.6675C83.4478 44.5777 83.4808 44.492 83.5298 44.4153C83.5788 44.3387 83.6428 44.2727 83.718 44.2214C83.7931 44.1702 83.8779 44.1346 83.9671 44.1169C84.0564 44.0992 84.1483 44.0997 84.2373 44.1184C84.3264 44.1372 84.4107 44.1737 84.4853 44.2258C84.5598 44.278 84.6231 44.3446 84.6712 44.4218C84.7194 44.499 84.7514 44.5852 84.7654 44.6751C84.7794 44.765 84.7751 44.8568 84.7527 44.945C84.566 46.0196 84.5583 47.1178 84.7302 48.195C84.835 49.1661 85.2109 50.0881 85.815 50.8556C86.4192 51.6231 87.2271 52.2051 88.1465 52.535C88.23 52.5654 88.3066 52.612 88.3721 52.6721C88.4375 52.7322 88.4905 52.8045 88.528 52.8851C88.5655 52.9657 88.5868 53.0528 88.5906 53.1416C88.5944 53.2303 88.5807 53.319 88.5502 53.4025C88.5198 53.4859 88.4732 53.5626 88.4131 53.6281C88.353 53.6935 88.2807 53.7465 88.2001 53.784C88.1196 53.8215 88.0324 53.8428 87.9436 53.8466C87.8549 53.8504 87.7662 53.8367 87.6827 53.8062Z" fill="#2C2C2C"/>
<path d="M6.36261 64.7099C6.31368 64.635 6.28068 64.5509 6.26564 64.4627C6.2506 64.3745 6.25385 64.2842 6.27518 64.1973C6.29652 64.1105 6.33548 64.0289 6.38966 63.9578C6.44383 63.8866 6.51206 63.8273 6.59011 63.7836C6.74438 63.6967 6.92592 63.6718 7.09793 63.7138C7.26993 63.7558 7.41952 63.8616 7.51636 64.0099C12.2901 70.5674 17.9576 67.9211 20.5764 66.1524C20.6495 66.0978 20.7331 66.0587 20.8218 66.0374C20.9106 66.0161 21.0028 66.013 21.0927 66.0284C21.1827 66.0438 21.2686 66.0774 21.3452 66.127C21.4219 66.1766 21.4876 66.2413 21.5385 66.3171C21.5894 66.3929 21.6243 66.4782 21.6412 66.5679C21.6581 66.6576 21.6565 66.7499 21.6367 66.839C21.6169 66.9281 21.5791 67.0122 21.5258 67.0863C21.4724 67.1604 21.4046 67.2228 21.3264 67.2699C19.0639 68.8011 12.2676 72.3874 6.36261 64.7099Z" fill="#2C2C2C"/>
<path d="M17.1252 65.7236C16.0768 65.7419 15.0429 65.4761 14.1333 64.9543C13.2238 64.4325 12.4724 63.6742 11.959 62.7599C11.8761 62.6011 11.8597 62.4159 11.9134 62.245C11.9671 62.0741 12.0864 61.9315 12.2452 61.8486C12.404 61.7657 12.5892 61.7493 12.7601 61.803C12.931 61.8567 13.0736 61.9761 13.1565 62.1349C13.2377 62.2899 15.149 65.7699 19.934 63.7361C20.0155 63.7015 20.103 63.6832 20.1915 63.6824C20.2801 63.6816 20.3679 63.6983 20.4501 63.7314C20.5322 63.7645 20.607 63.8135 20.6702 63.8756C20.7334 63.9376 20.7837 64.0115 20.8183 64.093C20.853 64.1745 20.8712 64.262 20.872 64.3506C20.8728 64.4391 20.8562 64.527 20.8231 64.6091C20.7899 64.6912 20.7409 64.766 20.6789 64.8292C20.6169 64.8924 20.543 64.9427 20.4615 64.9774C19.4113 65.4491 18.2763 65.7029 17.1252 65.7236Z" fill="#2C2C2C"/>
<path d="M101.955 96.181C103.046 96.181 107.515 91.236 106.355 89.806C105.195 88.376 102.774 92.5348 102.774 92.5348C102.774 92.5348 102.091 88.476 100.284 89.0223C98.8977 89.4373 101 96.1798 101.955 96.181Z" fill="#C8705A"/>
<path d="M53.1789 63.5064C53.8176 63.7564 59.0626 59.8814 57.7776 58.6427C56.6239 57.5289 54.5651 60.2227 54.5651 60.2227C54.5651 60.2227 54.6839 56.8227 53.2251 57.0527C51.6151 57.3064 52.3926 63.1964 53.1789 63.5064Z" fill="#C8705A"/>
<path d="M52.0239 119C52.5627 118.831 53.2514 111.875 51.5464 111.875C50.1802 111.875 50.4552 115.286 50.4552 115.286C50.4552 115.286 48.0002 113.375 46.9764 114.087C45.9527 114.8 50.8302 119.375 52.0239 119Z" fill="#C8705A"/>
<path d="M105.723 41.1953C109.289 45.3066 115.21 55.8766 115.378 56.2116C111.459 55.3374 107.606 54.1913 103.846 52.7816C104.256 48.8875 104.882 45.0194 105.723 41.1953Z" fill="#C8705A"/>
<path d="M115.691 57.6413C111.885 60.2118 107.935 62.5619 103.86 64.68C102.571 65.0438 101.985 63.43 101.431 62.3863C99.8401 59.3475 95.3301 51.8763 94.0563 50.035C92.9163 48.4 93.6438 47.8088 94.4638 47.3063C95.2838 46.8038 104.188 41.29 104.339 41.2388C102.061 52.7063 102.508 53.31 102.699 53.5738C103.493 54.6588 114.045 57.3388 115.691 57.6413Z" fill="#C8705A"/>
<path d="M18.8939 38.7562C18.4152 37.9574 17.3602 32.7262 16.4927 27.5249C21.7903 30.9881 26.6694 35.0526 31.0327 39.6374C26.5602 39.6162 19.8827 39.2499 18.8939 38.7562Z" fill="#C8705A"/>
<path d="M31.1875 40.9689C31.0563 41.3439 24.615 49.2189 24.1125 49.9001C23.61 50.5814 22.6125 51.1276 20.9313 49.9001C19.25 48.6726 9.37502 40.8951 8.28752 39.9414C7.20002 38.9876 7.15002 38.2039 7.78752 37.3039C8.51002 36.2851 14.7963 27.9739 15.1625 27.7451C15.9488 32.4951 17.1525 38.9951 17.975 39.7551C19 40.7101 27.0425 40.9464 31.1875 40.9689Z" fill="#C8705A"/>
<path d="M14.77 80.71C19.3388 81.505 33.2088 88.7237 33.4675 89.0275C27.7175 90.3525 22.085 91.435 21.1713 91.2362C20.4188 90.6837 17.5 85.7425 14.77 80.71Z" fill="#C8705A"/>
<path d="M29.0701 102.241C28.6151 102.97 27.6601 103.741 25.7951 102.97C23.9301 102.198 10.7951 96.1034 9.42015 95.5097C9.07984 95.4279 8.76418 95.2655 8.49973 95.0362C8.23528 94.8069 8.02978 94.5174 7.90053 94.1922C7.77128 93.8669 7.72206 93.5153 7.75702 93.1671C7.79197 92.8188 7.91008 92.484 8.1014 92.191C8.52015 91.2872 13.0789 81.7222 13.5451 81.2935C15.7576 85.3885 19.4389 91.866 20.5939 92.461C21.8364 93.101 29.8964 91.2459 34.1014 90.2684C34.2676 91.1009 29.5251 101.513 29.0701 102.241Z" fill="#C8705A"/>
<path d="M169.935 99.3562C169.964 99.7576 170.22 100.126 170.646 100.38C171.072 100.635 171.633 100.754 172.206 100.712C172.779 100.671 173.317 100.471 173.701 100.158C174.086 99.8445 174.285 99.443 174.256 99.0416C174.227 98.6402 173.971 98.2718 173.545 98.0174C173.119 97.7631 172.558 97.6437 171.985 97.6854C171.412 97.7271 170.874 97.9266 170.49 98.2399C170.105 98.5533 169.906 98.9548 169.935 99.3562Z" fill="#B7D7C8"/>
</svg>
