<svg width="654" height="430" viewBox="31 132 654 430" fill="none" xmlns="http://www.w3.org/2000/svg">
<path fill-rule="evenodd" clip-rule="evenodd" d="M210.218 292.825C211.291 292.286 212.361 291.751 212.899 291.216C216.651 290.143 218.263 285.314 222.557 285.852C226.313 281.558 231.676 281.024 235.963 277.268C235.963 276.73 236.505 276.195 237.579 275.121C240.261 272.978 235.432 271.366 235.432 271.366C234.358 269.757 232.211 271.366 232.211 271.366C231.142 271.904 230.068 272.978 228.995 272.978C228.46 275.121 226.313 275.121 224.704 276.195C222.557 278.342 219.875 279.95 217.193 281.558C215.046 284.24 211.83 284.779 209.683 286.922C209.683 286.922 207.001 288.534 205.927 291.216C205.927 291.216 200.563 296.041 207.539 293.36L210.218 292.825ZM203.777 300.335C203.777 300.87 203.238 300.87 203.238 300.87V301.409C199.483 304.091 197.339 307.311 195.192 310.528C192.51 314.284 190.363 318.035 186.073 320.721C182.856 320.721 181.244 323.938 178.562 325.011C178.027 325.011 177.489 323.938 177.489 323.403C177.489 323.403 175.88 320.186 176.419 317.504C178.027 316.965 179.636 316.431 180.709 315.357L185.538 310.528C190.902 306.238 195.731 300.87 200.556 296.584C200.56 296.58 204.311 294.433 203.777 300.335ZM202.707 289.604C196.804 291.751 189.832 291.751 185.542 296.038C183.395 297.65 179.639 295.503 178.566 298.185C179.105 298.72 178.566 299.793 178.566 300.332H176.423L176.958 304.622C182.321 305.157 185.003 298.72 189.832 298.185L190.367 298.72V300.332C189.832 300.867 188.755 299.258 187.685 300.332C185.003 303.014 181.786 305.157 178.566 306.23C178.031 306.765 178.031 308.377 176.958 308.377L176.423 314.276C179.105 314.815 181.248 312.668 183.395 310.521C183.933 309.982 184.472 309.982 185.003 309.447C189.832 304.083 196.804 299.793 200.56 293.356C200.56 293.36 202.168 294.433 202.707 289.604ZM322.326 288.534C322.861 296.041 319.64 301.405 314.277 307.308C309.451 308.381 304.084 312.137 298.72 308.916C295.503 307.308 291.213 309.451 289.066 305.699C287.993 305.161 286.384 305.161 285.846 304.087C286.384 302.479 288.527 301.944 289.601 300.87C296.038 301.948 303.549 306.769 308.913 301.409C311.06 300.339 314.815 299.801 314.815 296.584C315.35 294.437 315.35 292.29 317.497 291.22C319.106 291.22 319.64 288.538 320.179 286.926C320.179 286.926 320.179 281.027 322.326 282.097C322.326 282.097 323.938 284.244 322.326 285.856V288.534ZM277.269 259.03C275.122 260.638 272.978 262.247 272.44 263.32C264.394 266.002 255.814 267.61 248.303 263.859C247.229 262.247 249.911 261.712 248.303 259.565C248.838 259.03 249.372 258.495 250.446 259.03C251.52 261.712 254.74 260.103 256.883 260.638C260.104 261.712 262.786 259.565 265.468 260.103C267.615 259.03 268.684 259.03 270.831 257.956H271.905C271.905 257.956 278.342 253.666 277.269 259.03ZM440.341 248.837C436.585 245.62 433.903 249.911 433.903 249.911C432.83 250.984 431.756 252.054 431.222 253.127C426.393 255.274 424.249 261.712 419.42 263.859C416.735 266.541 412.983 268.684 409.759 271.904C403.325 274.048 395.28 274.586 388.839 277.803C384.013 279.411 378.65 280.485 373.821 282.093C367.918 286.387 360.946 287.461 355.582 291.216C354.509 292.286 352.366 292.825 352.9 294.433C353.435 296.041 355.582 294.968 356.656 295.507C357.729 296.58 360.415 296.041 360.415 298.188C358.799 299.262 356.121 299.262 356.656 301.405C358.799 303.017 361.481 304.087 363.628 305.161C366.849 307.308 370.6 309.451 373.821 310.524C379.723 313.21 386.157 315.353 392.059 318.031C396.888 319.109 402.252 319.644 406.538 321.787C411.902 323.395 417.805 325.542 423.703 326.616C427.462 328.224 424.246 331.441 424.777 334.123C424.777 335.735 423.168 337.343 423.703 338.952C421.021 343.242 421.021 348.606 421.021 353.973C419.948 354.508 420.487 355.582 421.021 356.659C419.948 359.337 418.878 362.558 418.34 365.778C417.801 365.778 417.801 366.309 417.266 366.309C416.727 371.142 416.727 374.355 416.193 378.649C418.878 379.723 422.095 379.188 424.777 378.11C423.168 374.897 425.85 372.212 425.315 368.453C426.389 366.841 425.854 364.701 426.389 362.554C429.071 354.505 429.071 345.92 429.609 337.34C429.609 336.266 428.536 335.193 430.144 334.119L431.218 334.658C430.676 337.875 431.753 341.095 431.218 343.777C432.826 349.676 431.218 356.113 432.291 362.55C436.047 364.697 430.676 368.984 434.973 371.135C434.435 372.747 435.512 374.348 436.585 374.894C438.194 375.425 440.341 374.351 442.484 372.208C443.023 366.302 439.798 362.55 439.798 357.183C438.19 353.431 439.264 350.214 437.117 346.994C437.117 343.777 435.508 340.556 435.508 337.34C433.896 336.266 434.435 333.049 434.435 331.437C433.896 328.22 434.435 323.392 430.144 321.783C423.172 321.245 416.196 318.028 409.224 316.419C404.934 315.346 400.64 313.203 396.349 312.129L391.521 310.517C387.761 309.443 383.475 308.909 379.719 306.762C379.181 306.227 378.107 306.227 377.034 305.692C377.034 305.692 376.495 305.692 376.495 305.153C374.887 304.618 365.768 301.936 364.694 300.863C363.086 298.181 365.768 298.181 365.768 298.181C366.306 298.181 373.813 301.936 374.352 301.936C375.964 301.936 376.495 303.01 377.569 303.01C379.181 303.545 380.254 304.08 381.859 304.08C387.223 307.3 393.125 308.909 398.489 310.517C400.101 311.056 402.248 311.59 403.853 312.129C404.388 313.203 406 313.203 407.073 313.741C410.29 314.815 414.58 314.815 417.801 316.958C419.944 315.888 421.56 318.566 423.165 318.566C426.92 320.713 431.21 319.105 434.427 321.787C437.109 326.077 436.039 331.441 438.183 336.27C436.574 339.49 441.938 341.099 439.791 344.316C440.865 346.463 441.938 349.144 444.085 349.679C445.697 350.218 446.771 349.679 447.84 348.606C447.84 345.924 446.228 344.316 445.697 342.172C446.232 338.417 443.012 335.196 443.55 331.441C443.012 329.298 442.477 326.077 440.333 323.93C438.721 321.787 436.043 319.105 437.651 315.888C437.109 314.815 435.504 315.888 434.431 315.35C431.745 313.741 427.994 313.206 424.773 312.668C422.091 311.059 419.413 309.986 416.189 308.912C413.142 308.422 410.103 307.886 407.073 307.304V306.765C403.853 308.377 401.171 304.083 397.95 303.549C395.807 301.94 392.052 303.548 389.905 301.401C387.758 301.401 385.614 300.863 384.006 299.793C381.859 299.793 378.104 300.332 377.03 297.646C374.887 296.576 372.205 296.576 370.058 296.034C368.984 296.034 368.446 295.499 367.911 295.499C367.911 294.96 366.841 294.96 366.303 294.96C364.69 294.96 362.543 293.891 363.086 293.352C363.621 292.817 367.372 291.744 367.911 291.744C368.45 291.744 368.984 291.209 369.523 291.209C377.03 287.988 385.08 285.845 392.587 282.086C397.95 282.624 403.318 279.943 408.682 279.943C415.115 275.652 419.944 268.141 426.385 265.46C429.606 262.778 431.745 256.34 436.043 258.487C437.655 257.949 438.725 259.022 440.333 259.022C441.407 257.414 443.55 255.802 443.015 253.659C443.558 252.054 440.341 248.837 440.341 248.837ZM431.753 162.474C432.295 162.474 432.295 163.009 432.295 164.082C432.295 170.52 432.83 178.03 434.977 184.468C437.12 193.052 438.732 201.101 440.876 210.213C441.418 213.969 434.977 214.507 436.589 218.263C437.124 222.018 434.977 223.088 432.83 225.77C432.83 225.77 434.977 226.843 436.05 227.917C436.05 227.917 437.663 231.672 441.949 230.064C441.949 230.064 445.708 228.99 445.17 225.77C445.17 223.088 445.708 219.871 447.313 217.724C446.239 215.581 447.852 212.899 446.239 210.752C446.782 205.923 444.096 201.633 443.023 196.804C443.023 193.587 441.414 190.905 441.949 188.223C439.802 180.174 438.194 172.667 437.12 164.082L438.194 162.474C440.876 161.939 441.414 165.691 443.558 166.229C444.631 169.985 448.921 171.593 450.533 174.814C456.963 180.712 462.335 186.615 467.16 193.048C474.136 199.482 480.573 204.849 485.937 212.36C488.08 213.969 490.769 212.36 492.909 213.969C496.126 211.825 502.57 213.434 502.028 207.531C502.57 206.462 503.64 206.462 504.714 206.462C507.396 208.07 510.616 206.462 513.298 205.388C520.27 205.388 527.242 203.78 533.68 202.171C535.292 202.171 535.827 201.098 535.292 199.482C534.753 198.408 534.218 197.874 532.61 197.874C526.169 199.482 519.197 202.168 511.686 201.629L511.147 201.094C511.686 198.947 514.906 200.555 516.511 198.947C520.267 198.947 526.165 197.874 530.459 196.265C533.676 193.045 538.505 198.408 540.117 193.045C541.191 190.901 548.163 190.901 544.946 187.681C542.799 187.146 540.656 186.611 539.582 189.293C535.292 188.219 533.145 192.51 528.855 192.51C528.855 192.51 528.312 191.975 528.312 191.436C533.141 188.754 539.044 187.681 543.869 183.925C544.407 183.391 543.869 182.317 542.795 182.317C535.288 184.464 528.851 188.219 521.875 190.901C519.732 191.975 518.123 194.657 515.438 194.657C511.682 196.8 506.857 197.339 503.637 201.094C501.493 201.629 499.881 200.555 498.273 201.629C496.126 200.555 493.982 198.947 492.909 196.8C485.937 189.293 476.818 182.852 469.307 174.81C462.869 169.981 455.897 165.152 450.533 158.715L446.239 155.498C445.17 155.498 443.023 155.498 441.949 157.106V157.641H439.798H438.729C438.19 157.106 437.659 157.106 437.117 156.568C437.117 156.568 435.508 157.106 433.9 156.568C433.9 156.568 431.218 155.498 432.291 158.715C432.295 158.719 432.826 160.866 431.753 162.474ZM490.766 206.462C489.15 206.996 489.692 205.388 488.619 204.849C483.786 201.633 480.031 196.269 476.279 192.513C474.136 190.905 472.524 188.223 469.845 186.615C462.869 181.247 456.967 173.202 450.537 167.838C448.925 165.691 446.782 163.009 444.635 161.4C444.096 160.866 444.635 159.792 445.173 159.257C446.243 159.257 447.855 159.792 447.317 160.866C452.68 168.373 460.191 171.058 466.629 180.712C468.237 180.712 467.698 181.247 468.237 182.321C475.744 189.832 484.328 197.342 492.378 204.849C492.374 205.923 491.301 205.923 490.766 206.462Z" fill="#0C0E0F"/>
<path fill-rule="evenodd" clip-rule="evenodd" d="M365.778 185.003C368.995 183.929 373.824 180.174 376.506 184.464L377.044 183.926C378.118 183.926 378.118 185.538 378.657 186.073C379.195 186.607 379.195 185.534 379.73 185.534C379.73 183.387 381.338 182.313 382.947 180.705C385.629 179.632 388.311 178.023 391.531 177.488C390.992 175.876 390.458 175.341 389.384 174.806C389.384 175.341 388.314 175.876 388.314 175.876C385.094 176.415 384.024 180.166 380.803 179.632L380.269 178.023C383.485 175.876 384.555 172.659 385.629 169.977C384.555 167.83 381.873 169.977 380.269 169.435C378.656 167.292 375.978 166.753 372.758 167.292C370.076 164.071 367.394 159.781 363.104 159.781C361.488 158.173 360.422 156.561 360.422 154.417C361.488 151.735 363.635 154.952 365.247 154.952C373.831 157.634 381.338 165.68 390.996 166.218C392.605 169.974 396.899 169.435 400.115 169.974C402.262 172.656 406.018 171.582 409.235 171.582C413.521 173.729 418.892 172.656 423.183 174.264C424.256 175.338 424.256 178.554 426.399 177.485C427.473 181.236 430.155 183.383 431.228 186.604C434.984 189.286 433.375 194.111 433.91 197.866C434.449 200.013 433.375 202.16 435.522 204.304C435.522 208.059 433.379 211.814 429.624 213.958C428.008 217.713 422.644 216.105 419.431 217.713C416.745 219.86 414.067 220.395 411.92 223.077C410.312 226.297 407.63 230.053 408.703 233.808C408.703 236.494 408.165 238.633 407.63 240.78C407.095 244.001 406.022 246.683 406.022 249.9C404.948 253.116 406.022 257.945 401.728 259.019C400.658 258.484 399.046 258.484 399.584 256.872C397.441 255.798 399.584 253.116 397.441 252.043L398.511 245.071C399.049 243.462 399.584 242.389 400.123 240.78C401.731 234.878 402.27 228.444 406.556 223.615C406.556 222.007 404.948 222.007 403.874 222.007L394.755 228.979C392.073 232.196 391.539 236.49 391 240.78C389.926 244.536 389.388 247.752 386.71 250.438C386.171 254.732 388.853 259.557 386.71 263.313C385.098 263.851 382.954 265.46 381.346 263.851C378.129 256.875 380.807 248.83 383.493 242.931C384.031 242.392 384.563 241.319 385.101 240.784C387.248 236.497 387.248 230.056 392.608 227.909C392.608 227.375 392.608 226.301 392.073 225.762L388.318 227.909C386.706 228.983 385.097 228.448 383.489 229.518C381.342 233.273 378.66 236.494 377.587 240.784C372.758 247.221 374.37 257.418 372.227 265.46L370.08 267.603C369.006 268.142 367.394 268.142 366.863 267.068C365.251 262.239 367.398 257.414 367.398 252.585C367.936 248.83 368.471 245.074 371.157 242.392V240.78C371.692 237.025 375.986 234.343 378.129 231.126L377.59 229.514C375.982 229.514 375.982 231.126 374.909 232.196C371.688 234.343 369.545 237.56 367.398 240.78C366.328 242.392 365.254 244.001 364.181 245.071C360.964 249.361 360.429 254.19 358.817 259.019C356.674 262.774 359.356 267.599 356.135 270.285C354.571 270.82 352.874 270.82 351.31 270.285C350.237 268.138 351.31 265.456 351.845 263.848C352.918 260.092 352.384 255.263 352.918 252.043C355.241 248.044 357.935 244.273 360.964 240.78L365.793 235.951V233.808C364.181 233.27 363.111 234.878 362.038 235.951C360.964 237.56 359.356 239.172 358.282 240.78C350.771 249.361 342.726 258.484 344.873 271.355C343.261 272.967 341.117 272.967 339.509 273.502C337.362 272.967 337.362 270.285 336.827 268.673C338.97 263.309 337.362 256.337 342.726 252.581C342.191 247.753 347.555 246.144 349.163 242.389C350.24 242.389 350.24 241.315 351.31 240.777C351.31 240.777 351.845 240.238 352.384 240.777C352.384 238.63 353.453 237.021 353.992 235.413C353.453 234.874 353.453 233.804 352.384 234.339C349.702 235.948 347.016 238.095 344.334 240.777C338.435 247.214 334.141 255.794 331.998 263.844C330.925 267.061 330.925 271.351 328.778 274.033C326.634 274.033 324.487 274.033 323.414 272.963C322.344 265.452 326.099 260.089 328.243 253.651C329.316 252.039 327.708 249.357 329.316 248.287C331.607 246.056 333.59 243.531 335.215 240.777C337.362 238.63 341.652 239.168 342.191 235.948C342.191 232.731 336.827 234.339 336.827 234.339C335.754 235.413 333.072 234.874 333.072 234.874C331.994 234.339 330.925 234.874 330.925 234.874C329.316 236.49 325.026 237.021 322.875 237.556C322.34 238.095 321.802 238.63 320.193 240.777C318.581 243.458 316.973 246.679 318.581 249.896C318.046 254.186 317.511 257.941 317.511 262.232C318.581 264.914 319.12 268.669 319.12 271.89V275.645L321.802 276.715C321.802 276.715 320.193 277.788 319.655 280.47C318.046 282.617 317.511 285.838 316.438 287.977C314.83 289.589 313.756 291.733 313.217 293.88C313.217 298.705 307.319 298.705 304.098 300.317C298.734 299.243 293.909 299.243 289.08 297.631C286.398 294.949 282.643 295.488 279.426 293.88C272.989 293.341 268.16 287.977 262.796 284.76C257.967 282.075 253.142 279.393 248.313 275.641C246.701 274.568 244.558 274.029 242.411 273.494H241.876C238.655 267.057 232.757 268.665 232.757 268.665C232.218 269.204 231.683 269.204 231.148 269.739C227.393 272.959 222.564 274.029 217.735 275.641C216.662 276.176 215.053 276.711 213.983 275.103C214.522 271.347 217.735 268.13 219.344 264.375C229.001 260.62 239.194 265.449 247.775 269.739C251.53 272.421 255.285 275.641 259.576 276.711C265.478 280.466 271.377 285.295 277.814 288.516C281.57 288.516 284.79 290.124 288.007 291.733C290.689 292.806 294.444 292.268 297.665 293.88C299.273 293.88 301.416 294.949 302.49 292.806C305.172 287.977 311.609 286.369 311.074 279.932C316.438 273.494 310.539 265.983 311.074 258.476C312.683 256.864 312.683 253.647 312.148 251.5C313.217 247.745 313.756 244.528 314.83 240.773C315.364 239.699 318.581 237.017 317.511 235.409C314.291 233.801 312.683 240.773 310.001 239.699C307.319 238.626 311.609 236.483 308.927 234.87C308.927 234.87 304.637 239.164 302.49 240.773C301.955 241.311 301.955 241.846 301.955 241.846H299.808C296.591 245.602 291.762 245.602 289.08 250.431C286.933 250.431 285.325 250.969 283.717 252.039C281.57 253.651 276.206 253.651 276.206 253.651C272.989 253.651 270.842 255.794 270.842 255.794C269.234 256.333 267.625 256.868 265.478 256.868C261.723 259.55 256.894 257.942 252.604 257.942C250.457 257.942 252.065 254.186 249.383 253.651C247.775 249.357 246.166 245.067 245.093 240.777C244.558 238.63 244.558 237.021 244.023 234.874C239.729 228.976 242.946 220.391 237.586 215.027C235.439 214.493 234.365 211.811 233.83 209.664C231.148 207.517 231.683 203.765 229.001 202.157C227.393 197.328 224.172 194.107 222.029 189.817L220.956 189.282C217.2 191.425 218.809 196.254 217.735 200.01C216.127 202.157 217.735 204.835 217.735 207.517C217.2 215.027 215.053 222.003 213.983 229.51C212.371 232.731 213.445 237.556 211.836 240.777C211.302 241.315 210.763 242.389 210.228 242.924C208.616 243.459 207.008 242.924 206.473 241.85V240.777C207.542 233.804 208.081 226.828 208.081 219.856C210.228 217.174 209.689 213.419 210.763 210.737C211.302 207.517 212.91 203.765 211.302 201.618C208.081 203.23 207.542 206.982 207.008 210.199C205.399 215.027 205.399 221.465 201.644 225.755C201.109 227.902 200.57 230.049 197.888 230.584C194.133 228.976 198.427 225.22 198.427 222.003C202.179 219.321 200.57 213.954 201.109 209.664C201.644 204.835 206.473 201.618 207.542 196.789C205.93 195.181 203.787 197.863 201.644 197.328C197.888 204.835 189.843 201.083 184.479 205.373C181.793 208.59 178.042 208.59 175.891 209.129C174.282 207.517 174.282 206.447 175.891 203.23C178.038 203.769 180.72 203.769 182.328 201.618C187.157 201.083 190.912 197.328 194.668 194.649C197.885 191.968 202.175 191.968 205.395 189.286C206.469 189.286 208.612 189.821 208.612 188.212C204.857 183.383 212.368 186.065 213.441 182.845C215.05 178.554 219.878 179.628 223.095 178.019C224.169 177.485 226.316 176.946 227.389 178.019C231.68 179.628 232.753 184.453 233.288 188.212C232.753 189.286 232.753 190.894 230.606 190.355L227.389 183.922C226.316 184.46 225.242 183.922 224.707 184.995C223.634 187.677 226.851 187.142 227.389 188.751C227.924 193.041 231.68 193.58 233.827 195.188L237.043 201.622C239.725 206.985 242.942 212.888 245.089 218.787C248.844 226.832 252.6 235.951 254.208 245.609C253.138 249.361 256.89 251.508 259.037 253.655C263.866 254.728 269.23 252.581 271.912 249.9C276.202 248.826 280.496 247.753 284.786 246.144C288.538 242.927 292.832 241.315 296.587 237.025C297.122 234.878 297.661 233.27 297.122 230.053C296.587 224.685 293.367 228.979 291.759 225.759C289.612 223.077 294.979 223.077 292.832 220.395C289.612 214.496 282.104 216.105 277.276 212.888C273.52 209.667 272.447 205.377 269.768 201.622C267.625 199.475 264.943 200.013 262.258 199.475C259.041 198.401 257.432 193.576 253.142 193.576C248.848 188.747 242.411 187.139 238.121 182.31C237.047 181.775 233.83 181.775 234.9 179.628C231.148 176.411 226.319 173.729 223.099 170.509C221.491 169.974 219.882 170.509 218.274 169.431C217.735 165.141 212.91 166.215 210.228 164.606C207.542 159.777 200.57 161.924 198.962 156.557C191.99 156.557 187.161 152.267 181.258 150.658C179.115 149.585 176.968 148.511 175.36 146.903C175.36 146.903 174.817 144.759 176.433 142.612C180.723 145.294 185.014 146.903 189.308 149.05C191.99 149.05 194.672 150.658 196.815 151.193C204.326 152.267 209.689 159.242 216.127 161.924C219.882 160.851 221.491 165.141 224.711 166.215C227.393 167.288 229.001 170.505 231.683 171.044C234.9 174.26 238.652 175.334 241.876 177.481C244.558 180.698 247.24 186.6 252.069 185.527C255.828 187.135 257.432 190.89 260.114 193.034C263.87 191.964 266.552 194.646 269.234 196.254C269.772 198.397 271.377 199.471 272.989 200.544C275.132 202.157 276.741 203.226 275.132 206.447C277.279 208.59 276.206 203.765 278.891 204.3C279.43 204.3 279.43 204.835 279.43 205.373H283.185C285.864 207.517 288.011 210.737 290.154 213.954C291.231 215.566 292.836 212.346 293.909 214.493C297.665 215.027 299.273 219.321 303.028 219.321C306.245 218.779 310.001 219.856 313.217 220.93C315.899 221.465 315.364 224.147 316.977 225.755C320.197 223.612 323.952 223.612 328.243 224.147C328.778 224.147 329.316 224.681 329.851 225.22C333.072 226.829 337.901 226.828 337.901 226.828C339.509 227.371 345.408 226.828 345.408 226.828C347.555 226.294 352.918 226.828 352.918 226.828C358.282 225.755 359.891 227.371 360.429 228.441C360.964 228.976 361.495 228.976 362.038 230.049C363.111 228.441 363.111 226.294 365.254 226.294C365.254 226.829 365.793 226.828 365.793 226.828C366.332 227.371 366.867 226.829 366.867 226.294C370.618 226.294 371.692 222.538 374.912 222.003C376.521 221.465 377.594 219.321 379.203 219.856C382.419 217.174 386.175 219.856 389.93 218.783C396.367 217.174 403.34 217.174 408.169 212.346C409.777 211.811 412.455 212.884 413.529 210.737C416.214 210.199 418.896 209.664 421.039 208.055C424.795 205.908 423.721 201.618 424.795 198.397V195.716C423.186 193.034 424.795 188.208 421.582 186.061C417.288 186.6 417.288 179.624 412.455 180.159C409.242 180.698 406.025 179.089 402.27 179.624C396.906 183.914 387.783 186.061 386.175 194.107C384.563 195.181 382.419 196.254 383.493 198.936C382.954 199.471 381.881 200.544 380.276 200.01C378.129 198.936 379.203 195.716 378.664 194.107C379.737 192.499 379.737 190.348 379.737 188.743L378.664 189.282C376.517 190.89 374.374 189.817 373.3 188.208C370.083 190.352 367.936 193.034 364.181 194.107C361.495 193.034 358.817 191.964 356.674 190.348C354.527 190.89 352.918 188.74 351.31 190.348C349.163 188.205 347.555 184.988 345.943 182.302H346.481C345.408 182.302 344.334 181.229 344.873 180.694C344.873 180.694 345.408 180.155 345.943 180.694C342.726 176.939 341.121 172.648 341.121 168.354C338.974 164.603 338.974 159.774 336.831 156.018C331.463 150.12 329.855 142.609 327.173 136.171C327.712 134.024 329.32 131.881 331.463 132.416C335.219 135.633 340.048 135.633 343.803 137.78C344.338 138.853 345.946 140.462 343.803 140.997C341.656 139.927 337.904 142.609 336.292 138.853C335.739 138.843 335.194 138.988 334.72 139.272C334.246 139.557 333.861 139.969 333.61 140.462C333.61 141.535 334.684 143.144 336.292 143.682C337.366 147.438 340.582 150.654 341.121 154.41C343.803 155.483 342.195 159.239 344.876 160.309C343.803 162.456 345.946 164.064 345.411 166.746C347.558 167.819 347.023 171.04 349.167 172.648C350.775 178.547 353.996 184.449 359.359 187.131C360.437 187.131 361.503 186.596 362.576 186.058H362.041C362.023 186.076 364.166 185.003 365.778 185.003Z" fill="#0C0E0F"/>
<path fill-rule="evenodd" clip-rule="evenodd" d="M357.732 177.496C357.732 177.496 357.732 176.957 357.193 176.957V175.349C359.875 171.594 361.484 176.422 364.704 175.884C364.704 172.667 362.557 168.912 358.802 167.303C358.802 165.156 355.05 164.621 354.511 161.939C352.368 161.939 351.83 158.719 349.686 159.258C348.613 159.792 346.466 160.327 346.466 161.939C349.148 167.303 350.756 174.275 354.511 179.104C354.508 179.104 359.875 181.786 357.732 177.496ZM287.46 456.432V485.402L305.16 456.432H287.46ZM281.023 548.155C279.415 551.914 277.803 556.201 277.803 556.201C269.222 558.348 257.421 559.96 248.837 559.96C216.65 559.96 195.733 540.109 196.268 511.147C196.803 480.03 217.724 462.327 249.371 462.865C261.711 462.865 272.439 466.625 275.659 467.159H278.88C278.88 467.159 278.341 471.454 278.88 475.744C279.418 480.576 281.027 485.402 281.027 489.688C281.027 490.762 279.953 489.15 279.953 489.15C277.271 477.883 259.033 470.38 248.84 470.38C224.703 470.38 208.608 485.936 208.608 511.147C209.147 531.532 224.703 551.376 247.232 551.376C259.568 551.376 273.516 548.155 281.562 537.97L283.709 539.582C283.705 539.582 282.631 543.33 281.023 548.155ZM407.083 504.175H428C432.294 504.175 440.875 504.713 443.022 504.175C444.634 503.636 445.707 502.028 446.238 502.563C446.781 502.563 446.781 503.101 446.781 503.101V516.507C446.238 516.507 446.238 515.969 444.095 514.895C441.413 514.356 432.294 514.356 428 514.356H407.083V547.078H436.584C440.871 547.078 445.703 546.547 447.847 546.012C449.459 544.938 451.064 543.326 451.602 543.865C452.141 543.865 451.602 544.403 451.602 544.403C451.602 547.624 451.064 550.837 450.532 555.135V557.82H400.642C396.352 557.82 395.813 558.351 392.593 558.351C392.593 558.351 392.058 558.351 391.523 557.82C391.523 557.278 392.062 557.82 393.135 555.135C394.744 552.449 394.744 547.628 394.744 543.33V509.535V478.957C394.744 474.67 394.744 469.838 393.135 467.159C392.062 464.474 391.523 465.012 391.523 464.474C392.062 463.935 392.593 463.935 392.593 463.935C395.813 463.935 396.352 464.474 400.642 464.474H448.92V476.817C448.92 476.817 449.459 477.356 448.92 477.356C448.382 477.887 447.308 476.282 445.703 475.744C443.556 475.205 438.728 474.67 434.972 474.67L407.08 474.132L407.083 504.175ZM78.7923 463.939C78.7923 463.939 101.86 518.119 112.587 541.718C115.269 548.151 118.486 554.057 119.559 555.131C121.706 557.817 122.241 557.817 122.241 557.817H109.905C105.611 557.817 103.468 558.348 103.468 557.817C104.541 555.67 104.007 552.984 102.929 549.763C102.391 549.225 100.786 544.938 100.247 543.33C92.7404 526.7 77.1839 489.688 77.1839 489.688C76.1104 487.549 76.6453 487.549 75.5718 489.688C75.5718 489.688 60.019 526.704 52.5082 543.33C51.9696 544.942 50.3612 549.229 49.8263 549.763C48.7528 552.984 48.2179 555.67 49.2877 557.817C49.2877 558.348 47.6793 557.817 43.9239 557.817H31.5879L33.7312 555.131C34.8047 554.057 38.0252 548.151 41.242 541.718C51.4347 518.116 75.0369 463.939 75.0369 463.939C76.1104 461.265 77.1839 461.265 78.7923 463.939ZM341.637 475.209V542.795C341.637 547.082 341.637 551.914 340.563 554.6L338.955 557.278C338.955 557.82 340.028 557.82 340.028 557.82C343.245 557.82 343.784 557.278 348.613 557.278C352.368 557.278 353.438 557.82 356.658 557.82C356.658 557.82 357.193 557.82 357.193 557.278C357.193 556.747 356.12 556.204 355.585 554.065C354.511 552.453 354.511 547.085 354.511 542.799V475.213H367.921C372.215 475.213 379.726 475.751 381.33 476.286C383.477 476.825 384.016 478.433 384.547 477.891C385.086 477.891 385.086 477.36 385.086 477.36V464.481H308.381C308.381 468.24 307.842 474.674 307.842 477.887C307.842 477.887 307.303 478.429 307.842 478.429C308.381 478.961 309.454 477.356 311.062 476.817C313.206 476.279 321.255 475.205 325.545 475.205L341.637 475.209ZM564.788 512.221V537.97C564.788 542.256 564.249 552.449 563.18 555.135C562.102 557.274 561.567 557.274 561.567 557.82C561.567 558.351 562.641 557.82 562.641 557.82H579.809C579.809 557.82 580.344 558.351 580.344 557.82C580.883 557.278 579.271 556.201 578.736 554.6C578.194 552.453 577.663 547.085 577.663 543.334V512.224C577.663 512.224 606.094 467.702 608.237 467.163C611.454 466.625 612.531 464.478 612.531 464.478H600.726C596.432 464.478 592.142 463.939 592.142 464.478C593.215 466.625 592.68 468.772 591.068 471.985C589.456 474.67 573.365 499.881 572.291 500.954C571.218 499.881 554.588 475.205 552.979 471.985C550.836 469.307 550.836 466.625 551.371 464.478C551.91 464.478 546.011 465.016 541.713 465.016C537.961 465.016 529.377 464.478 529.377 464.478C529.377 464.478 530.451 464.478 533.133 467.163C535.822 469.31 564.788 512.221 564.788 512.221Z" fill="#0C0E0F"/>
<path fill-rule="evenodd" clip-rule="evenodd" d="M649.539 510.073C649.539 510.073 678.509 552.987 681.191 555.134C683.877 557.82 684.411 557.82 684.411 557.82C684.411 557.82 676.366 557.277 672.61 557.277C668.32 557.277 662.418 557.82 662.418 557.82C663.491 555.673 662.953 552.987 661.344 550.305C659.732 547.085 643.641 522.416 642.567 521.343C641.494 522.416 625.402 547.085 623.79 550.305C622.182 552.991 621.647 555.673 622.717 557.82C622.717 557.82 617.891 557.277 613.601 557.277C609.846 557.277 601.265 557.82 601.265 557.82C601.265 557.82 602.335 557.82 605.021 555.134C607.702 552.987 636.134 511.147 636.134 511.147C636.134 511.147 608.776 468.771 605.021 466.624C601.804 465.012 602.335 464.477 602.335 464.477H613.601C617.891 464.477 623.79 463.938 623.259 464.477C622.717 466.624 622.717 469.31 624.867 471.984C626.479 474.67 642.032 498.814 643.106 499.88C644.179 498.814 659.736 475.205 661.344 472.523C663.491 469.31 663.491 466.624 662.953 464.477C662.953 463.938 668.32 464.477 672.614 464.477H683.877C683.877 464.477 681.733 465.551 679.586 467.698C676.897 469.837 649.539 510.073 649.539 510.073ZM493.447 515.437C493.447 515.437 516.51 548.701 518.657 551.379C520.801 555.138 525.63 559.424 533.137 559.424H540.648C540.648 559.424 540.109 558.886 537.427 556.746C532.602 552.452 508.996 518.657 508.996 518.657C519.189 514.363 530.455 507.391 529.92 491.835C529.381 469.31 513.829 463.404 490.223 464.477H477.348C473.058 464.477 471.449 463.938 468.229 463.938C468.229 463.938 467.69 463.938 467.155 464.477C467.155 465.016 468.229 465.551 468.229 465.551C470.376 468.236 470.376 481.107 470.376 485.401V542.794C470.376 547.081 470.376 552.452 469.302 555.134C467.69 557.274 467.69 557.274 467.69 557.82C467.69 558.351 468.229 557.82 468.229 557.82H485.394C485.394 557.82 485.932 558.351 486.467 557.82C486.467 557.277 485.394 556.2 484.32 554.599C483.782 552.452 483.25 547.085 483.25 542.794V475.208C483.25 470.914 485.394 470.383 490.761 470.383C508.992 470.383 517.042 479.502 517.042 492.908C517.045 507.391 508.996 514.363 493.447 515.437ZM149.064 515.437C149.064 515.437 172.667 548.701 174.275 551.379C176.957 555.138 181.247 559.424 189.297 559.424H196.269L193.587 556.746C188.758 552.452 165.156 518.657 165.156 518.657C175.348 514.363 186.615 507.391 186.076 491.835C185.003 469.31 169.985 463.404 146.382 464.477H133.508C128.679 464.477 127.605 463.938 123.85 463.938C123.85 463.938 123.315 463.938 123.315 464.477C122.777 465.016 124.389 465.551 124.389 465.551C125.997 468.236 125.997 481.107 125.997 485.401C125.997 493.985 126.536 536.361 126.536 542.794C126.536 547.081 125.997 552.452 124.924 555.134C123.85 557.274 123.315 557.274 123.315 557.82C123.85 558.351 124.389 557.82 124.389 557.82H141.019C141.019 557.82 142.092 558.351 142.092 557.82C142.092 557.277 141.019 556.2 140.48 554.599C139.407 552.452 139.407 547.085 139.407 542.794V475.208C139.407 470.914 141.554 470.383 146.917 470.383C164.621 470.383 172.667 479.502 173.201 492.908C173.201 507.391 165.156 514.363 149.064 515.437ZM277.268 483.789C277.268 483.789 281.558 491.296 280.489 484.328C278.876 473.061 282.097 490.226 282.097 490.226L279.95 490.765L277.268 483.789Z" fill="#0C0E0F"/>
</svg>
